{
  "accessors": [
    {
      "bufferView": 2,
      "componentType": 5126,
      "count": 9233,
      "max": [
        236.78689575195313,
        117.88249969482422,
        309.9222717285156
      ],
      "min": [
        -236.78689575195313,
        -117.88249969482422,
        -309.9222717285156
      ],
      "type": "VEC3"
    },
    {
      "bufferView": 2,
      "byteOffset": 110796,
      "componentType": 5126,
      "count": 9233,
      "max": [
        1.0,
        1.0,
        1.0
      ],
      "min": [
        -1.0,
        -1.0,
        -1.0
      ],
      "type": "VEC3"
    },
    {
      "bufferView": 3,
      "componentType": 5126,
      "count": 9233,
      "max": [
        0.9999874830245972,
        0.9972758293151855,
        0.999998927116394,
        1.0
      ],
      "min": [
        -0.9999987483024597,
        -0.999943196773529,
        -0.9999966621398926,
        -1.0
      ],
      "type": "VEC4"
    },
    {
      "bufferView": 1,
      "componentType": 5126,
      "count": 9233,
      "max": [
        0.9896510243415833,
        0.9900000095367432
      ],
      "min": [
        0.009999999776482582,
        0.01976200006902218
      ],
      "type": "VEC2"
    },
    {
      "bufferView": 1,
      "byteOffset": 73864,
      "componentType": 5126,
      "count": 9233,
      "max": [
        0.9896510243415833,
        0.9900000095367432
      ],
      "min": [
        0.009999999776482582,
        0.01976200006902218
      ],
      "type": "VEC2"
    },
    {
      "bufferView": 1,
      "byteOffset": 147728,
      "componentType": 5126,
      "count": 9233,
      "max": [
        0.9896510243415833,
        0.9900000095367432
      ],
      "min": [
        0.009999999776482582,
        0.01976200006902218
      ],
      "type": "VEC2"
    },
    {
      "bufferView": 1,
      "byteOffset": 221592,
      "componentType": 5126,
      "count": 9233,
      "max": [
        0.9896510243415833,
        0.9900000095367432
      ],
      "min": [
        0.009999999776482582,
        0.01976200006902218
      ],
      "type": "VEC2"
    },
    {
      "bufferView": 0,
      "componentType": 5125,
      "count": 13368,
      "type": "SCALAR"
    },
    {
      "bufferView": 2,
      "byteOffset": 221592,
      "componentType": 5126,
      "count": 1020,
      "max": [
        14.634597778320313,
        38.398902893066406,
        66.52980041503906
      ],
      "min": [
        -14.634597778320313,
        -38.398902893066406,
        -66.52981567382813
      ],
      "type": "VEC3"
    },
    {
      "bufferView": 2,
      "byteOffset": 233832,
      "componentType": 5126,
      "count": 1020,
      "max": [
        1.0,
        0.9998624920845032,
        0.9995781779289246
      ],
      "min": [
        -1.0,
        -0.9998624920845032,
        -1.0
      ],
      "type": "VEC3"
    },
    {
      "bufferView": 3,
      "byteOffset": 147728,
      "componentType": 5126,
      "count": 1020,
      "max": [
        0.997143030166626,
        1.0,
        0.9999434947967529,
        1.0
      ],
      "min": [
        -0.9993728399276733,
        -1.0,
        -0.9999350309371948,
        -1.0
      ],
      "type": "VEC4"
    },
    {
      "bufferView": 1,
      "byteOffset": 295456,
      "componentType": 5126,
      "count": 1020,
      "max": [
        0.9615349769592285,
        0.9900000095367432
      ],
      "min": [
        0.042295001447200775,
        0.020166000351309776
      ],
      "type": "VEC2"
    },
    {
      "bufferView": 1,
      "byteOffset": 303616,
      "componentType": 5126,
      "count": 1020,
      "max": [
        0.9615349769592285,
        0.9900000095367432
      ],
      "min": [
        0.042295001447200775,
        0.020166000351309776
      ],
      "type": "VEC2"
    },
    {
      "bufferView": 1,
      "byteOffset": 311776,
      "componentType": 5126,
      "count": 1020,
      "max": [
        0.9615349769592285,
        0.9900000095367432
      ],
      "min": [
        0.042295001447200775,
        0.020166000351309776
      ],
      "type": "VEC2"
    },
    {
      "bufferView": 1,
      "byteOffset": 319936,
      "componentType": 5126,
      "count": 1020,
      "max": [
        0.9615349769592285,
        0.9900000095367432
      ],
      "min": [
        0.042295001447200775,
        0.020166000351309776
      ],
      "type": "VEC2"
    },
    {
      "bufferView": 0,
      "byteOffset": 53472,
      "componentType": 5125,
      "count": 1542,
      "type": "SCALAR"
    },
    {
      "bufferView": 2,
      "byteOffset": 246072,
      "componentType": 5126,
      "count": 1008,
      "max": [
        0.0,
        38.38504409790039,
        35.379302978515625
      ],
      "min": [
        -29.269195556640625,
        -38.412757873535156,
        -97.68031311035156
      ],
      "type": "VEC3"
    },
    {
      "bufferView": 2,
      "byteOffset": 258168,
      "componentType": 5126,
      "count": 1008,
      "max": [
        1.0,
        0.999862551689148,
        0.9995781779289246
      ],
      "min": [
        -1.0,
        -0.999862551689148,
        -1.0
      ],
      "type": "VEC3"
    },
    {
      "bufferView": 3,
      "byteOffset": 164048,
      "componentType": 5126,
      "count": 1008,
      "max": [
        0.9993728399276733,
        1.0,
        0.9999434947967529,
        1.0
      ],
      "min": [
        -0.997143030166626,
        -1.0,
        -0.9999350905418396,
        -1.0
      ],
      "type": "VEC4"
    },
    {
      "bufferView": 1,
      "byteOffset": 328096,
      "componentType": 5126,
      "count": 1008,
      "max": [
        0.9615349769592285,
        0.9900000095367432
      ],
      "min": [
        0.042295001447200775,
        0.020166000351309776
      ],
      "type": "VEC2"
    },
    {
      "bufferView": 1,
      "byteOffset": 336160,
      "componentType": 5126,
      "count": 1008,
      "max": [
        0.9615349769592285,
        0.9900000095367432
      ],
      "min": [
        0.042295001447200775,
        0.020166000351309776
      ],
      "type": "VEC2"
    },
    {
      "bufferView": 1,
      "byteOffset": 344224,
      "componentType": 5126,
      "count": 1008,
      "max": [
        0.9615349769592285,
        0.9900000095367432
      ],
      "min": [
        0.042295001447200775,
        0.020166000351309776
      ],
      "type": "VEC2"
    },
    {
      "bufferView": 1,
      "byteOffset": 352288,
      "componentType": 5126,
      "count": 1008,
      "max": [
        0.9615349769592285,
        0.9900000095367432
      ],
      "min": [
        0.042295001447200775,
        0.020166000351309776
      ],
      "type": "VEC2"
    },
    {
      "bufferView": 0,
      "byteOffset": 59640,
      "componentType": 5125,
      "count": 1542,
      "type": "SCALAR"
    }
  ],
  "asset": {
    "extras": {
      "author": "Zelad (https://sketchfab.com/zelad3d)",
      "license": "CC-BY-4.0 (http://creativecommons.org/licenses/by/4.0/)",
      "source": "https://sketchfab.com/3d-models/spaceship-e7cb7031d7014a93aeaf242b50e261b7",
      "title": "Spaceship"
    },
    "generator": "Sketchfab-13.58.0",
    "version": "2.0"
  },
  "bufferViews": [
    {
      "buffer": 0,
      "byteLength": 65808,
      "name": "floatBufferViews",
      "target": 34963
    },
    {
      "buffer": 0,
      "byteLength": 360352,
      "byteOffset": 65808,
      "byteStride": 8,
      "name": "floatBufferViews",
      "target": 34962
    },
    {
      "buffer": 0,
      "byteLength": 270264,
      "byteOffset": 426160,
      "byteStride": 12,
      "name": "floatBufferViews",
      "target": 34962
    },
    {
      "buffer": 0,
      "byteLength": 180176,
      "byteOffset": 696424,
      "byteStride": 16,
      "name": "floatBufferViews",
      "target": 34962
    }
  ],
  "buffers": [
    {
      "byteLength": 876600,
      "uri": "scene.bin"
    }
  ],
  "images": [
    {
      "uri": "textures/Spaceship_MAT_baseColor.jpg"
    },
    {
      "uri": "textures/Spaceship_MAT_metallicRoughness.png"
    },
    {
      "uri": "textures/Spaceship_MAT_emissive.jpg"
    },
    {
      "uri": "textures/Spaceship_MAT_normal.png"
    }
  ],
  "materials": [
    {
      "doubleSided": true,
      "emissiveFactor": [
        1.0,
        1.0,
        1.0
      ],
      "emissiveTexture": {
        "index": 2
      },
      "name": "Spaceship_MAT",
      "normalTexture": {
        "index": 3
      },
      "pbrMetallicRoughness": {
        "baseColorTexture": {
          "index": 0
        },
        "metallicRoughnessTexture": {
          "index": 1
        }
      }
    }
  ],
  "meshes": [
    {
      "name": "Spaceship_Body_Spaceship_MAT_0",
      "primitives": [
        {
          "attributes": {
            "NORMAL": 1,
            "POSITION": 0,
            "TANGENT": 2,
            "TEXCOORD_0": 3,
            "TEXCOORD_1": 4,
            "TEXCOORD_2": 5,
            "TEXCOORD_3": 6
          },
          "indices": 7,
          "material": 0,
          "mode": 4
        }
      ]
    },
    {
      "name": "Spaceship_Weapon_R_Spaceship_MAT_0",
      "primitives": [
        {
          "attributes": {
            "NORMAL": 9,
            "POSITION": 8,
            "TANGENT": 10,
            "TEXCOORD_0": 11,
            "TEXCOORD_1": 12,
            "TEXCOORD_2": 13,
            "TEXCOORD_3": 14
          },
          "indices": 15,
          "material": 0,
          "mode": 4
        }
      ]
    },
    {
      "name": "Spaceship_Weapon_L_Spaceship_MAT_0",
      "primitives": [
        {
          "attributes": {
            "NORMAL": 17,
            "POSITION": 16,
            "TANGENT": 18,
            "TEXCOORD_0": 19,
            "TEXCOORD_1": 20,
            "TEXCOORD_2": 21,
            "TEXCOORD_3": 22
          },
          "indices": 23,
          "material": 0,
          "mode": 4
        }
      ]
    }
  ],
  "nodes": [
    {
      "children": [
        1
      ],
      "matrix": [
        -0.7337266802787781,
        1.5086703670382336e-16,
        -0.6794447302818298,
        0.0,
        -0.6794447302818298,
        -1.6292005084545604e-16,
        0.7337266802787781,
        0.0,
        0.0,
        1.0,
        2.220446049250313e-16,
        0.0,
        0.0,
        0.0,
        0.0,
        1.0
      ],
      "name": "Sketchfab_model"
    },
    {
      "children": [
        2
      ],
      "matrix": [
        0.009999999776482582,
        0.0,
        0.0,
        0.0,
        0.0,
        0.0,
        0.009999999776482582,
        0.0,
        0.0,
        -0.009999999776482582,
        0.0,
        0.0,
        0.0,
        0.0,
        0.0,
        1.0
      ],
      "name": "cabec59c939d4694af2fb3fbe18d4088.fbx"
    },
    {
      "children": [
        3
      ],
      "name": "RootNode"
    },
    {
      "children": [
        4,
        5,
        7
      ],
      "matrix": [
        1.0,
        0.0,
        0.0,
        0.0,
        0.0,
        0.9999999999999867,
        1.6292067073209113e-07,
        0.0,
        0.0,
        -1.6292067073209113e-07,
        0.9999999999999867,
        0.0,
        0.0,
        0.0,
        0.0,
        1.0
      ],
      "name": "Spaceship_Body"
    },
    {
      "mesh": 0,
      "name": "Spaceship_Body_Spaceship_MAT_0"
    },
    {
      "children": [
        6
      ],
      "matrix": [
        1.0,
        0.0,
        0.0,
        0.0,
        0.0,
        1.0,
        1.421085474167178e-14,
        0.0,
        0.0,
        -1.421085474167178e-14,
        1.0,
        0.0,
        81.95539855957031,
        -18.2742977142334,
        -206.39450073242188,
        1.0
      ],
      "name": "Spaceship_Weapon_R"
    },
    {
      "mesh": 1,
      "name": "Spaceship_Weapon_R_Spaceship_MAT_0"
    },
    {
      "children": [
        8
      ],
      "matrix": [
        1.0,
        0.0,
        0.0,
        0.0,
        0.0,
        1.0,
        1.421085474167178e-14,
        0.0,
        0.0,
        -1.421085474167178e-14,
        1.0,
        0.0,
        -67.32080078125,
        -18.260438919067383,
        -175.24400329589844,
        1.0
      ],
      "name": "Spaceship_Weapon_L"
    },
    {
      "mesh": 2,
      "name": "Spaceship_Weapon_L_Spaceship_MAT_0"
    }
  ],
  "samplers": [
    {
      "magFilter": 9729,
      "minFilter": 9987,
      "wrapS": 10497,
      "wrapT": 10497
    }
  ],
  "scene": 0,
  "scenes": [
    {
      "name": "Sketchfab_Scene",
      "nodes": [
        0
      ]
    }
  ],
  "textures": [
    {
      "sampler": 0,
      "source": 0
    },
    {
      "sampler": 0,
      "source": 1
    },
    {
      "sampler": 0,
      "source": 2
    },
    {
      "sampler": 0,
      "source": 3
    }
  ]
}
