{
  "accessors": [
    {
      "bufferView": 2,
      "componentType": 5126,
      "count": 1426,
      "max": [
        0.3677000105381012,
        -2.9863998889923096,
        -0.1103999987244606
      ],
      "min": [
        -0.4120999872684479,
        -3.573699951171875,
        -0.7110999822616577
      ],
      "type": "VEC3"
    },
    {
      "bufferView": 2,
      "byteOffset": 17112,
      "componentType": 5126,
      "count": 1426,
      "max": [
        1.0,
        1.0,
        1.0
      ],
      "min": [
        -1.0,
        -1.0,
        -1.0
      ],
      "type": "VEC3"
    },
    {
      "bufferView": 1,
      "componentType": 5126,
      "count": 1426,
      "max": [
        0.9973999857902527,
        0.7753000259399414
      ],
      "min": [
        0.12720000743865967,
        0.0019000000320374966
      ],
      "type": "VEC2"
    },
    {
      "bufferView": 0,
      "componentType": 5125,
      "count": 3546,
      "type": "SCALAR"
    },
    {
      "bufferView": 2,
      "byteOffset": 34224,
      "componentType": 5126,
      "count": 7137,
      "max": [
        2.8241000175476074,
        3.83870005607605,
        1.6433000564575195
      ],
      "min": [
        -2.9175000190734863,
        -3.83870005607605,
        -1.6433000564575195
      ],
      "type": "VEC3"
    },
    {
      "bufferView": 2,
      "byteOffset": 119868,
      "componentType": 5126,
      "count": 7137,
      "max": [
        1.0,
        1.0,
        1.0
      ],
      "min": [
        -1.0,
        -1.0,
        -1.0
      ],
      "type": "VEC3"
    },
    {
      "bufferView": 1,
      "byteOffset": 11408,
      "componentType": 5126,
      "count": 7137,
      "max": [
        0.9987999796867371,
        0.9930999875068665
      ],
      "min": [
        0.001500000013038516,
        0.005900000222027302
      ],
      "type": "VEC2"
    },
    {
      "bufferView": 0,
      "byteOffset": 14184,
      "componentType": 5125,
      "count": 25242,
      "type": "SCALAR"
    },
    {
      "bufferView": 2,
      "byteOffset": 205512,
      "componentType": 5126,
      "count": 7111,
      "max": [
        2.8241000175476074,
        3.83870005607605,
        1.6433000564575195
      ],
      "min": [
        -2.9175000190734863,
        -3.83870005607605,
        -1.6433000564575195
      ],
      "type": "VEC3"
    },
    {
      "bufferView": 2,
      "byteOffset": 290844,
      "componentType": 5126,
      "count": 7111,
      "max": [
        1.0,
        1.0,
        1.0
      ],
      "min": [
        -1.0,
        -1.0,
        -1.0
      ],
      "type": "VEC3"
    },
    {
      "bufferView": 1,
      "byteOffset": 68504,
      "componentType": 5126,
      "count": 7111,
      "max": [
        0.9984999895095825,
        0.989799976348877
      ],
      "min": [
        0.001500000013038516,
        0.0031999999191612005
      ],
      "type": "VEC2"
    },
    {
      "bufferView": 0,
      "byteOffset": 115152,
      "componentType": 5125,
      "count": 18144,
      "type": "SCALAR"
    }
  ],
  "asset": {
    "extras": {
      "author": "Chris Clark (https://sketchfab.com/Dalekseth)",
      "license": "CC-BY-4.0 (http://creativecommons.org/licenses/by/4.0/)",
      "source": "https://sketchfab.com/3d-models/eas-badger-5b143079f74e4722a654b9dd798ca24a",
      "title": "EAS Badger"
    },
    "generator": "Sketchfab-14.22.0",
    "version": "2.0"
  },
  "bufferViews": [
    {
      "buffer": 0,
      "byteLength": 187728,
      "name": "floatBufferViews",
      "target": 34963
    },
    {
      "buffer": 0,
      "byteLength": 125392,
      "byteOffset": 187728,
      "byteStride": 8,
      "name": "floatBufferViews",
      "target": 34962
    },
    {
      "buffer": 0,
      "byteLength": 376176,
      "byteOffset": 313120,
      "byteStride": 12,
      "name": "floatBufferViews",
      "target": 34962
    }
  ],
  "buffers": [
    {
      "byteLength": 689296,
      "uri": "scene.bin"
    }
  ],
  "images": [
    {
      "uri": "textures/02___Default_baseColor.png"
    },
    {
      "uri": "textures/Material__23_metallicRoughness.png"
    },
    {
      "uri": "textures/Material__23_emissive.png"
    }
  ],
  "materials": [
    {
      "doubleSided": true,
      "emissiveTexture": {
        "index": 0
      },
      "name": "02___Default",
      "pbrMetallicRoughness": {
        "baseColorTexture": {
          "index": 0
        },
        "metallicFactor": 0.0,
        "roughnessFactor": 0.45904597042581463
      }
    },
    {
      "doubleSided": true,
      "emissiveFactor": [
        1.0,
        1.0,
        1.0
      ],
      "emissiveTexture": {
        "index": 2
      },
      "name": "Material__23",
      "pbrMetallicRoughness": {
        "baseColorTexture": {
          "index": 0
        },
        "metallicFactor": 0.5531445429167022,
        "metallicRoughnessTexture": {
          "index": 1
        },
        "roughnessFactor": 0.6262876229718033
      }
    }
  ],
  "meshes": [
    {
      "name": "Object_0",
      "primitives": [
        {
          "attributes": {
            "NORMAL": 1,
            "POSITION": 0,
            "TEXCOORD_0": 2
          },
          "indices": 3,
          "material": 0,
          "mode": 4
        }
      ]
    },
    {
      "name": "Object_1",
      "primitives": [
        {
          "attributes": {
            "NORMAL": 5,
            "POSITION": 4,
            "TEXCOORD_0": 6
          },
          "indices": 7,
          "material": 1,
          "mode": 4
        }
      ]
    },
    {
      "name": "Object_2",
      "primitives": [
        {
          "attributes": {
            "NORMAL": 9,
            "POSITION": 8,
            "TEXCOORD_0": 10
          },
          "indices": 11,
          "material": 1,
          "mode": 4
        }
      ]
    }
  ],
  "nodes": [
    {
      "children": [
        1
      ],
      "matrix": [
        1.0,
        0.0,
        0.0,
        0.0,
        0.0,
        2.220446049250313e-16,
        -1.0,
        0.0,
        0.0,
        1.0,
        2.220446049250313e-16,
        0.0,
        0.0,
        0.0,
        0.0,
        1.0
      ],
      "name": "Sketchfab_model"
    },
    {
      "children": [
        2,
        3,
        4
      ],
      "name": "EABadger.obj.cleaner.materialmerger.gles"
    },
    {
      "mesh": 0,
      "name": "Object_2"
    },
    {
      "mesh": 1,
      "name": "Object_3"
    },
    {
      "mesh": 2,
      "name": "Object_4"
    }
  ],
  "samplers": [
    {
      "magFilter": 9729,
      "minFilter": 9987,
      "wrapS": 10497,
      "wrapT": 10497
    }
  ],
  "scene": 0,
  "scenes": [
    {
      "name": "Sketchfab_Scene",
      "nodes": [
        0
      ]
    }
  ],
  "textures": [
    {
      "sampler": 0,
      "source": 0
    },
    {
      "sampler": 0,
      "source": 1
    },
    {
      "sampler": 0,
      "source": 2
    }
  ]
}
