{
  "accessors": [
    {
      "bufferView": 2,
      "componentType": 5126,
      "count": 1004,
      "max": [
        3.452500104904175,
        2.136470079421997,
        -0.4282119870185852
      ],
      "min": [
        -3.452500104904175,
        1.3635400533676147,
        -0.679902970790863
      ],
      "type": "VEC3"
    },
    {
      "bufferView": 2,
      "byteOffset": 12048,
      "componentType": 5126,
      "count": 1004,
      "max": [
        0.7978401780128479,
        1.0,
        0.8245368003845215
      ],
      "min": [
        -0.7978341579437256,
        -1.0,
        -0.9134308695793152
      ],
      "type": "VEC3"
    },
    {
      "bufferView": 1,
      "componentType": 5126,
      "count": 1004,
      "max": [
        0.5584139823913574,
        0.1649090051651001
      ],
      "min": [
        0.47391700744628906,
        0.13919000327587128
      ],
      "type": "VEC2"
    },
    {
      "bufferView": 0,
      "componentType": 5125,
      "count": 2304,
      "type": "SCALAR"
    },
    {
      "bufferView": 2,
      "byteOffset": 24096,
      "componentType": 5126,
      "count": 6298,
      "max": [
        3.8094699382781982,
        2.8510499000549316,
        0.9150779843330383
      ],
      "min": [
        -3.8094699382781982,
        0.727849006652832,
        -0.6924369931221008
      ],
      "type": "VEC3"
    },
    {
      "bufferView": 2,
      "byteOffset": 99672,
      "componentType": 5126,
      "count": 6298,
      "max": [
        0.9998977780342102,
        1.0,
        0.9997774958610535
      ],
      "min": [
        -0.9999086260795593,
        -1.0,
        -0.9997623562812805
      ],
      "type": "VEC3"
    },
    {
      "bufferView": 1,
      "byteOffset": 8032,
      "componentType": 5126,
      "count": 6298,
      "max": [
        0.6826800107955933,
        0.3566400110721588
      ],
      "min": [
        0.3503980040550232,
        0.007092239800840616
      ],
      "type": "VEC2"
    },
    {
      "bufferView": 0,
      "byteOffset": 9216,
      "componentType": 5125,
      "count": 18720,
      "type": "SCALAR"
    },
    {
      "bufferView": 2,
      "byteOffset": 175248,
      "componentType": 5126,
      "count": 796,
      "max": [
        4.152890205383301,
        2.1145899295806885,
        1.7709399461746216
      ],
      "min": [
        -4.152890205383301,
        0.1853639930486679,
        0.032145000994205475
      ],
      "type": "VEC3"
    },
    {
      "bufferView": 2,
      "byteOffset": 184800,
      "componentType": 5126,
      "count": 796,
      "max": [
        0.9991376399993896,
        0.9713347554206848,
        0.9985266327857971
      ],
      "min": [
        -0.9991375207901001,
        -1.0,
        -0.9991174936294556
      ],
      "type": "VEC3"
    },
    {
      "bufferView": 1,
      "byteOffset": 58416,
      "componentType": 5126,
      "count": 796,
      "max": [
        0.6221209764480591,
        0.3602209985256195
      ],
      "min": [
        0.39240899682044983,
        0.008602799847722054
      ],
      "type": "VEC2"
    },
    {
      "bufferView": 0,
      "byteOffset": 84096,
      "componentType": 5125,
      "count": 2112,
      "type": "SCALAR"
    },
    {
      "bufferView": 2,
      "byteOffset": 194352,
      "componentType": 5126,
      "count": 330,
      "max": [
        1.1983599662780762,
        1.9375,
        1.913830041885376
      ],
      "min": [
        -1.1983400583267212,
        0.6775540113449097,
        -0.5333229899406433
      ],
      "type": "VEC3"
    },
    {
      "bufferView": 2,
      "byteOffset": 198312,
      "componentType": 5126,
      "count": 330,
      "max": [
        0.9679154753684998,
        0.9850236177444458,
        0.9431020021438599
      ],
      "min": [
        -0.9961522221565247,
        -0.9963738918304443,
        -0.9899504780769348
      ],
      "type": "VEC3"
    },
    {
      "bufferView": 1,
      "byteOffset": 64784,
      "componentType": 5126,
      "count": 330,
      "max": [
        0.9941220283508301,
        0.26777100563049316
      ],
      "min": [
        0.7523880004882813,
        0.010585400275886059
      ],
      "type": "VEC2"
    },
    {
      "bufferView": 0,
      "byteOffset": 92544,
      "componentType": 5125,
      "count": 1320,
      "type": "SCALAR"
    },
    {
      "bufferView": 2,
      "byteOffset": 202272,
      "componentType": 5126,
      "count": 48,
      "max": [
        0.14510999619960785,
        1.097830057144165,
        1.844499945640564
      ],
      "min": [
        -0.14510999619960785,
        0.6753469705581665,
        1.0433900356292725
      ],
      "type": "VEC3"
    },
    {
      "bufferView": 2,
      "byteOffset": 202848,
      "componentType": 5126,
      "count": 48,
      "max": [
        0.9990476369857788,
        0.04326247796416283,
        0.283497154712677
      ],
      "min": [
        -0.9990476369857788,
        -0.9581537842750549,
        -0.29835301637649536
      ],
      "type": "VEC3"
    },
    {
      "bufferView": 1,
      "byteOffset": 67424,
      "componentType": 5126,
      "count": 48,
      "max": [
        0.8853759765625,
        0.5915300250053406
      ],
      "min": [
        0.8412910103797913,
        0.5189129710197449
      ],
      "type": "VEC2"
    },
    {
      "bufferView": 0,
      "byteOffset": 97824,
      "componentType": 5125,
      "count": 240,
      "type": "SCALAR"
    },
    {
      "bufferView": 2,
      "byteOffset": 203424,
      "componentType": 5126,
      "count": 416,
      "max": [
        0.5872600078582764,
        1.5714999437332153,
        0.7710800170898438
      ],
      "min": [
        -0.5871649980545044,
        1.0601099729537964,
        0.2067369967699051
      ],
      "type": "VEC3"
    },
    {
      "bufferView": 2,
      "byteOffset": 208416,
      "componentType": 5126,
      "count": 416,
      "max": [
        0.987418532371521,
        0.9700604677200317,
        0.9612747430801392
      ],
      "min": [
        -0.9874183535575867,
        -0.9700732231140137,
        -0.9612772464752197
      ],
      "type": "VEC3"
    },
    {
      "bufferView": 1,
      "byteOffset": 67808,
      "componentType": 5126,
      "count": 416,
      "max": [
        0.7384269833564758,
        0.17712099850177765
      ],
      "min": [
        0.6899359822273254,
        0.10552600026130676
      ],
      "type": "VEC2"
    },
    {
      "bufferView": 0,
      "byteOffset": 98784,
      "componentType": 5125,
      "count": 1920,
      "type": "SCALAR"
    },
    {
      "bufferView": 2,
      "byteOffset": 213408,
      "componentType": 5126,
      "count": 34,
      "max": [
        1.3790899515151978,
        1.086300015449524,
        1.9749799966812134
      ],
      "min": [
        -1.3787599802017212,
        -2.786520004272461,
        1.325029969215393
      ],
      "type": "VEC3"
    },
    {
      "bufferView": 2,
      "byteOffset": 213816,
      "componentType": 5126,
      "count": 34,
      "max": [
        0.9907297492027283,
        0.4628782570362091,
        0.7849699854850769
      ],
      "min": [
        -0.9907296299934387,
        -0.9205855131149292,
        -0.6055709719657898
      ],
      "type": "VEC3"
    },
    {
      "bufferView": 1,
      "byteOffset": 71136,
      "componentType": 5126,
      "count": 34,
      "max": [
        0.9933879971504211,
        0.3605540096759796
      ],
      "min": [
        0.6877300143241882,
        0.28642401099205017
      ],
      "type": "VEC2"
    },
    {
      "bufferView": 0,
      "byteOffset": 106464,
      "componentType": 5125,
      "count": 120,
      "type": "SCALAR"
    },
    {
      "bufferView": 2,
      "byteOffset": 214224,
      "componentType": 5126,
      "count": 12,
      "max": [
        0.02500000037252903,
        1.0974500179290771,
        1.8444199562072754
      ],
      "min": [
        -0.02500000037252903,
        0.6757230162620544,
        1.0434600114822388
      ],
      "type": "VEC3"
    },
    {
      "bufferView": 2,
      "byteOffset": 214368,
      "componentType": 5126,
      "count": 12,
      "max": [
        1.0,
        -0.0,
        0.2833850681781769
      ],
      "min": [
        -1.0,
        -0.9590062499046326,
        -0.2984691262245178
      ],
      "type": "VEC3"
    },
    {
      "bufferView": 1,
      "byteOffset": 71408,
      "componentType": 5126,
      "count": 12,
      "max": [
        0.8368809819221497,
        0.5930449962615967
      ],
      "min": [
        0.8287990093231201,
        0.5204280018806458
      ],
      "type": "VEC2"
    },
    {
      "bufferView": 0,
      "byteOffset": 106944,
      "componentType": 5125,
      "count": 60,
      "type": "SCALAR"
    },
    {
      "bufferView": 2,
      "byteOffset": 214512,
      "componentType": 5126,
      "count": 156,
      "max": [
        3.137500047683716,
        0.9742400050163269,
        1.8249499797821045
      ],
      "min": [
        -3.137540102005005,
        0.7747439742088318,
        1.6476000547409058
      ],
      "type": "VEC3"
    },
    {
      "bufferView": 2,
      "byteOffset": 216384,
      "componentType": 5126,
      "count": 156,
      "max": [
        1.0,
        0.7065121531486511,
        0.883175790309906
      ],
      "min": [
        -1.0,
        -0.3051760196685791,
        -0.589134931564331
      ],
      "type": "VEC3"
    },
    {
      "bufferView": 1,
      "byteOffset": 71504,
      "componentType": 5126,
      "count": 156,
      "max": [
        0.7347540259361267,
        0.24659599363803864
      ],
      "min": [
        0.6928730010986328,
        0.20121000707149506
      ],
      "type": "VEC2"
    },
    {
      "bufferView": 0,
      "byteOffset": 107184,
      "componentType": 5125,
      "count": 384,
      "type": "SCALAR"
    },
    {
      "bufferView": 2,
      "byteOffset": 218256,
      "componentType": 5126,
      "count": 80,
      "max": [
        2.959049940109253,
        0.921953022480011,
        2.116309881210327
      ],
      "min": [
        -2.9587900638580322,
        -0.8542749881744385,
        1.6959999799728394
      ],
      "type": "VEC3"
    },
    {
      "bufferView": 2,
      "byteOffset": 219216,
      "componentType": 5126,
      "count": 80,
      "max": [
        0.9126783013343811,
        0.2336639016866684,
        0.9707735180854797
      ],
      "min": [
        -0.8224593997001648,
        -0.5402449369430542,
        -0.9707777500152588
      ],
      "type": "VEC3"
    },
    {
      "bufferView": 1,
      "byteOffset": 72752,
      "componentType": 5126,
      "count": 80,
      "max": [
        0.8530480265617371,
        0.6868429780006409
      ],
      "min": [
        0.7296090126037598,
        0.6172509789466858
      ],
      "type": "VEC2"
    },
    {
      "bufferView": 0,
      "byteOffset": 108720,
      "componentType": 5125,
      "count": 216,
      "type": "SCALAR"
    },
    {
      "bufferView": 2,
      "byteOffset": 220176,
      "componentType": 5126,
      "count": 24,
      "max": [
        3.350059986114502,
        0.8383349776268005,
        2.1013500690460205
      ],
      "min": [
        -3.3501100540161133,
        -0.6452599763870239,
        1.8039400577545166
      ],
      "type": "VEC3"
    },
    {
      "bufferView": 2,
      "byteOffset": 220464,
      "componentType": 5126,
      "count": 24,
      "max": [
        1.0,
        0.1648639589548111,
        0.986315906047821
      ],
      "min": [
        -1.0,
        -0.8446860909461975,
        -1.0417999874334782e-05
      ],
      "type": "VEC3"
    },
    {
      "bufferView": 1,
      "byteOffset": 73392,
      "componentType": 5126,
      "count": 24,
      "max": [
        0.8229129910469055,
        0.48563501238822937
      ],
      "min": [
        0.7633979916572571,
        0.3767090141773224
      ],
      "type": "VEC2"
    },
    {
      "bufferView": 0,
      "byteOffset": 109584,
      "componentType": 5125,
      "count": 72,
      "type": "SCALAR"
    },
    {
      "bufferView": 2,
      "byteOffset": 220752,
      "componentType": 5126,
      "count": 832,
      "max": [
        2.0563299655914307,
        -0.9562699794769287,
        1.4226499795913696
      ],
      "min": [
        -2.0560600757598877,
        -1.417739987373352,
        1.0816500186920166
      ],
      "type": "VEC3"
    },
    {
      "bufferView": 2,
      "byteOffset": 230736,
      "componentType": 5126,
      "count": 832,
      "max": [
        0.9359695315361023,
        0.9990379810333252,
        0.9931232333183289
      ],
      "min": [
        -0.9359713792800903,
        -0.9990379810333252,
        -0.9931246638298035
      ],
      "type": "VEC3"
    },
    {
      "bufferView": 1,
      "byteOffset": 73584,
      "componentType": 5126,
      "count": 832,
      "max": [
        0.4308429956436157,
        0.736847996711731
      ],
      "min": [
        0.3461500108242035,
        0.6734340190887451
      ],
      "type": "VEC2"
    },
    {
      "bufferView": 0,
      "byteOffset": 109872,
      "componentType": 5125,
      "count": 3840,
      "type": "SCALAR"
    },
    {
      "bufferView": 2,
      "byteOffset": 240720,
      "componentType": 5126,
      "count": 64,
      "max": [
        1.628559947013855,
        1.5824600458145142,
        1.6876699924468994
      ],
      "min": [
        -1.628499984741211,
        -0.2396399974822998,
        0.8038970232009888
      ],
      "type": "VEC3"
    },
    {
      "bufferView": 2,
      "byteOffset": 241488,
      "componentType": 5126,
      "count": 64,
      "max": [
        0.9439610242843628,
        0.6639697551727295,
        0.8493118286132813
      ],
      "min": [
        -0.8119202852249146,
        -0.9868630170822144,
        -0.978129506111145
      ],
      "type": "VEC3"
    },
    {
      "bufferView": 1,
      "byteOffset": 80240,
      "componentType": 5126,
      "count": 64,
      "max": [
        0.7267810106277466,
        0.47856101393699646
      ],
      "min": [
        0.57566899061203,
        0.416020005941391
      ],
      "type": "VEC2"
    },
    {
      "bufferView": 0,
      "byteOffset": 125232,
      "componentType": 5125,
      "count": 180,
      "type": "SCALAR"
    },
    {
      "bufferView": 2,
      "byteOffset": 242256,
      "componentType": 5126,
      "count": 532,
      "max": [
        2.423229932785034,
        1.5046700239181519,
        2.150019884109497
      ],
      "min": [
        -2.4231700897216797,
        -2.1500699520111084,
        0.9555310010910034
      ],
      "type": "VEC3"
    },
    {
      "bufferView": 2,
      "byteOffset": 248640,
      "componentType": 5126,
      "count": 532,
      "max": [
        0.9319950938224792,
        1.0,
        0.9961944818496704
      ],
      "min": [
        -0.9319950938224792,
        -0.9998592138290405,
        -0.9315013289451599
      ],
      "type": "VEC3"
    },
    {
      "bufferView": 1,
      "byteOffset": 80752,
      "componentType": 5126,
      "count": 532,
      "max": [
        0.7288640141487122,
        0.6943860054016113
      ],
      "min": [
        0.49153900146484375,
        0.4171450138092041
      ],
      "type": "VEC2"
    },
    {
      "bufferView": 0,
      "byteOffset": 125952,
      "componentType": 5125,
      "count": 1296,
      "type": "SCALAR"
    },
    {
      "bufferView": 2,
      "byteOffset": 255024,
      "componentType": 5126,
      "count": 1005,
      "max": [
        1.6892800331115723,
        3.200000047683716,
        0.2867189943790436
      ],
      "min": [
        -1.6888400316238403,
        1.7749899625778198,
        -0.20206299424171448
      ],
      "type": "VEC3"
    },
    {
      "bufferView": 2,
      "byteOffset": 267084,
      "componentType": 5126,
      "count": 1005,
      "max": [
        0.9961957335472107,
        1.0,
        0.996195375919342
      ],
      "min": [
        -0.9961958527565002,
        -1.0,
        -0.9961951375007629
      ],
      "type": "VEC3"
    },
    {
      "bufferView": 1,
      "byteOffset": 85008,
      "componentType": 5126,
      "count": 1005,
      "max": [
        0.36556801199913025,
        0.31035199761390686
      ],
      "min": [
        0.21150100231170654,
        0.18619899451732635
      ],
      "type": "VEC2"
    },
    {
      "bufferView": 0,
      "byteOffset": 131136,
      "componentType": 5125,
      "count": 2976,
      "type": "SCALAR"
    },
    {
      "bufferView": 2,
      "byteOffset": 279144,
      "componentType": 5126,
      "count": 378,
      "max": [
        1.3489500284194946,
        2.25,
        0.33278998732566833
      ],
      "min": [
        -1.348520040512085,
        1.7499899864196777,
        -0.16533300280570984
      ],
      "type": "VEC3"
    },
    {
      "bufferView": 2,
      "byteOffset": 283680,
      "componentType": 5126,
      "count": 378,
      "max": [
        0.9961966276168823,
        0.9235327839851379,
        0.8865848779678345
      ],
      "min": [
        -0.9961981177330017,
        -0.9204089045524597,
        -0.9534389972686768
      ],
      "type": "VEC3"
    },
    {
      "bufferView": 1,
      "byteOffset": 93048,
      "componentType": 5126,
      "count": 378,
      "max": [
        0.30170801281929016,
        0.3299199938774109
      ],
      "min": [
        0.21126900613307953,
        0.24051499366760254
      ],
      "type": "VEC2"
    },
    {
      "bufferView": 0,
      "byteOffset": 143040,
      "componentType": 5125,
      "count": 864,
      "type": "SCALAR"
    },
    {
      "bufferView": 2,
      "byteOffset": 288216,
      "componentType": 5126,
      "count": 310,
      "max": [
        0.9799990057945251,
        4.261109828948975,
        0.33683401346206665
      ],
      "min": [
        -0.9803100228309631,
        2.4957199096679688,
        -0.9173269867897034
      ],
      "type": "VEC3"
    },
    {
      "bufferView": 2,
      "byteOffset": 291936,
      "componentType": 5126,
      "count": 310,
      "max": [
        0.8985552787780762,
        0.7373007535934448,
        0.7864483594894409
      ],
      "min": [
        -0.898557722568512,
        -0.7527213096618652,
        -0.5213730335235596
      ],
      "type": "VEC3"
    },
    {
      "bufferView": 1,
      "byteOffset": 96072,
      "componentType": 5126,
      "count": 310,
      "max": [
        0.5260810256004333,
        0.8108720183372498
      ],
      "min": [
        0.44084998965263367,
        0.6550469994544983
      ],
      "type": "VEC2"
    },
    {
      "bufferView": 0,
      "byteOffset": 146496,
      "componentType": 5125,
      "count": 1368,
      "type": "SCALAR"
    },
    {
      "bufferView": 2,
      "byteOffset": 295656,
      "componentType": 5126,
      "count": 414,
      "max": [
        1.88864004611969,
        3.989650011062622,
        1.107450008392334
      ],
      "min": [
        -1.88864004611969,
        1.3414499759674072,
        -1.0636500120162964
      ],
      "type": "VEC3"
    },
    {
      "bufferView": 2,
      "byteOffset": 300624,
      "componentType": 5126,
      "count": 414,
      "max": [
        0.9999277591705322,
        0.9429973363876343,
        0.9519537687301636
      ],
      "min": [
        -0.9999277591705322,
        -0.971620500087738,
        -0.9323057532310486
      ],
      "type": "VEC3"
    },
    {
      "bufferView": 1,
      "byteOffset": 98552,
      "componentType": 5126,
      "count": 414,
      "max": [
        0.9941210150718689,
        0.6823040246963501
      ],
      "min": [
        0.7986770272254944,
        0.3978869915008545
      ],
      "type": "VEC2"
    },
    {
      "bufferView": 0,
      "byteOffset": 151968,
      "componentType": 5125,
      "count": 2016,
      "type": "SCALAR"
    },
    {
      "bufferView": 2,
      "byteOffset": 305592,
      "componentType": 5126,
      "count": 52,
      "max": [
        1.25,
        4.324649810791016,
        1.7003300189971924
      ],
      "min": [
        -1.25,
        1.2499899864196777,
        -0.9753620028495789
      ],
      "type": "VEC3"
    },
    {
      "bufferView": 2,
      "byteOffset": 306216,
      "componentType": 5126,
      "count": 52,
      "max": [
        0.8757567405700684,
        0.8014807105064392,
        0.9972180128097534
      ],
      "min": [
        -0.9405823349952698,
        -0.7335872650146484,
        -0.995335578918457
      ],
      "type": "VEC3"
    },
    {
      "bufferView": 1,
      "byteOffset": 101864,
      "componentType": 5126,
      "count": 52,
      "max": [
        0.3820520043373108,
        0.8290560245513916
      ],
      "min": [
        0.21452799439430237,
        0.7458490133285522
      ],
      "type": "VEC2"
    },
    {
      "bufferView": 0,
      "byteOffset": 160032,
      "componentType": 5125,
      "count": 192,
      "type": "SCALAR"
    },
    {
      "bufferView": 2,
      "byteOffset": 306840,
      "componentType": 5126,
      "count": 244,
      "max": [
        0.7915430068969727,
        3.9515700340270996,
        1.7669899463653564
      ],
      "min": [
        -0.7915390133857727,
        2.5099599361419678,
        0.451884001493454
      ],
      "type": "VEC3"
    },
    {
      "bufferView": 2,
      "byteOffset": 309768,
      "componentType": 5126,
      "count": 244,
      "max": [
        0.999846875667572,
        0.9798281192779541,
        0.9737542271614075
      ],
      "min": [
        -0.9998467564582825,
        -0.9899508953094482,
        -0.9903098940849304
      ],
      "type": "VEC3"
    },
    {
      "bufferView": 1,
      "byteOffset": 102280,
      "componentType": 5126,
      "count": 244,
      "max": [
        0.7465090155601501,
        0.08572360128164291
      ],
      "min": [
        0.6869969964027405,
        0.009558959864079952
      ],
      "type": "VEC2"
    },
    {
      "bufferView": 0,
      "byteOffset": 160800,
      "componentType": 5125,
      "count": 1512,
      "type": "SCALAR"
    },
    {
      "bufferView": 2,
      "byteOffset": 312696,
      "componentType": 5126,
      "count": 145,
      "max": [
        0.6967949867248535,
        3.750760078430176,
        1.8548500537872314
      ],
      "min": [
        -0.6967999935150146,
        1.2453399896621704,
        0.49921101331710815
      ],
      "type": "VEC3"
    },
    {
      "bufferView": 2,
      "byteOffset": 314436,
      "componentType": 5126,
      "count": 145,
      "max": [
        0.914543092250824,
        0.9998471140861511,
        0.999937117099762
      ],
      "min": [
        -0.9145449995994568,
        -0.48166322708129883,
        -0.14616502821445465
      ],
      "type": "VEC3"
    },
    {
      "bufferView": 1,
      "byteOffset": 104232,
      "componentType": 5126,
      "count": 145,
      "max": [
        0.34574198722839355,
        0.11999499797821045
      ],
      "min": [
        0.2862260043621063,
        0.042838700115680695
      ],
      "type": "VEC2"
    },
    {
      "bufferView": 0,
      "byteOffset": 166848,
      "componentType": 5125,
      "count": 792,
      "type": "SCALAR"
    },
    {
      "bufferView": 2,
      "byteOffset": 316176,
      "componentType": 5126,
      "count": 148,
      "max": [
        6.574790000915527,
        -0.979993999004364,
        2.9472599029541016
      ],
      "min": [
        -6.574930191040039,
        -2.622570037841797,
        2.133280038833618
      ],
      "type": "VEC3"
    },
    {
      "bufferView": 2,
      "byteOffset": 317952,
      "componentType": 5126,
      "count": 148,
      "max": [
        0.9537235498428345,
        1.0,
        0.953727662563324
      ],
      "min": [
        -0.9789694547653198,
        -0.8660294413566589,
        -0.9537273645401001
      ],
      "type": "VEC3"
    },
    {
      "bufferView": 1,
      "byteOffset": 105392,
      "componentType": 5126,
      "count": 148,
      "max": [
        0.3634929955005646,
        0.6063119769096375
      ],
      "min": [
        0.32521000504493713,
        0.5576729774475098
      ],
      "type": "VEC2"
    },
    {
      "bufferView": 0,
      "byteOffset": 170016,
      "componentType": 5125,
      "count": 432,
      "type": "SCALAR"
    },
    {
      "bufferView": 2,
      "byteOffset": 319728,
      "componentType": 5126,
      "count": 322,
      "max": [
        6.487199783325195,
        -1.1807500123977661,
        3.0787699222564697
      ],
      "min": [
        -6.487339973449707,
        -2.214979887008667,
        2.389580011367798
      ],
      "type": "VEC3"
    },
    {
      "bufferView": 2,
      "byteOffset": 323592,
      "componentType": 5126,
      "count": 322,
      "max": [
        0.9976874589920044,
        0.9310853481292725,
        0.9971323609352112
      ],
      "min": [
        -0.9976875185966492,
        -0.9310853481292725,
        -0.9697440266609192
      ],
      "type": "VEC3"
    },
    {
      "bufferView": 1,
      "byteOffset": 106576,
      "componentType": 5126,
      "count": 322,
      "max": [
        0.4483320116996765,
        0.5709609985351563
      ],
      "min": [
        0.41144999861717224,
        0.5549229979515076
      ],
      "type": "VEC2"
    },
    {
      "bufferView": 0,
      "byteOffset": 171744,
      "componentType": 5125,
      "count": 960,
      "type": "SCALAR"
    },
    {
      "bufferView": 2,
      "byteOffset": 327456,
      "componentType": 5126,
      "count": 437,
      "max": [
        7.610849857330322,
        4.343699932098389,
        3.252540111541748
      ],
      "min": [
        -7.610849857330322,
        -4.316070079803467,
        -1.2346400022506714
      ],
      "type": "VEC3"
    },
    {
      "bufferView": 2,
      "byteOffset": 332700,
      "componentType": 5126,
      "count": 437,
      "max": [
        0.999840497970581,
        0.9614262580871582,
        0.912326991558075
      ],
      "min": [
        -0.9998403787612915,
        -0.9937422275543213,
        -0.9653462171554565
      ],
      "type": "VEC3"
    },
    {
      "bufferView": 1,
      "byteOffset": 109152,
      "componentType": 5126,
      "count": 437,
      "max": [
        0.20144499838352203,
        0.42456498742103577
      ],
      "min": [
        0.005663239862769842,
        0.013604200445115566
      ],
      "type": "VEC2"
    },
    {
      "bufferView": 0,
      "byteOffset": 175584,
      "componentType": 5125,
      "count": 2106,
      "type": "SCALAR"
    },
    {
      "bufferView": 2,
      "byteOffset": 337944,
      "componentType": 5126,
      "count": 202,
      "max": [
        1.5216200351715088,
        4.315899848937988,
        2.2529799938201904
      ],
      "min": [
        -1.5216200351715088,
        -2.0353500843048096,
        -1.193560004234314
      ],
      "type": "VEC3"
    },
    {
      "bufferView": 2,
      "byteOffset": 340368,
      "componentType": 5126,
      "count": 202,
      "max": [
        0.999840497970581,
        0.8421158194541931,
        0.912326991558075
      ],
      "min": [
        -0.9998403787612915,
        -0.9704297780990601,
        -0.999520480632782
      ],
      "type": "VEC3"
    },
    {
      "bufferView": 1,
      "byteOffset": 112648,
      "componentType": 5126,
      "count": 202,
      "max": [
        0.45324400067329407,
        0.992389976978302
      ],
      "min": [
        0.23941700160503387,
        0.7898030281066895
      ],
      "type": "VEC2"
    },
    {
      "bufferView": 0,
      "byteOffset": 184008,
      "componentType": 5125,
      "count": 918,
      "type": "SCALAR"
    },
    {
      "bufferView": 2,
      "byteOffset": 342792,
      "componentType": 5126,
      "count": 40,
      "max": [
        6.250730037689209,
        -1.2638599872589111,
        2.944350004196167
      ],
      "min": [
        -6.250730037689209,
        -2.950779914855957,
        2.0751700401306152
      ],
      "type": "VEC3"
    },
    {
      "bufferView": 2,
      "byteOffset": 343272,
      "componentType": 5126,
      "count": 40,
      "max": [
        0.9764761328697205,
        0.9614262580871582,
        0.7437078356742859
      ],
      "min": [
        -0.971584141254425,
        -0.9740779995918274,
        -0.7510856986045837
      ],
      "type": "VEC3"
    },
    {
      "bufferView": 1,
      "byteOffset": 114264,
      "componentType": 5126,
      "count": 40,
      "max": [
        0.8199399709701538,
        0.5751940011978149
      ],
      "min": [
        0.701108992099762,
        0.49660900235176086
      ],
      "type": "VEC2"
    },
    {
      "bufferView": 0,
      "byteOffset": 187680,
      "componentType": 5125,
      "count": 120,
      "type": "SCALAR"
    },
    {
      "bufferView": 2,
      "byteOffset": 343752,
      "componentType": 5126,
      "count": 228,
      "max": [
        5.3070597648620605,
        3.1060400009155273,
        2.4186699390411377
      ],
      "min": [
        -5.3070597648620605,
        -3.0685300827026367,
        0.5092210173606873
      ],
      "type": "VEC3"
    },
    {
      "bufferView": 2,
      "byteOffset": 346488,
      "componentType": 5126,
      "count": 228,
      "max": [
        0.9729896187782288,
        0.9137316942214966,
        0.8945167660713196
      ],
      "min": [
        -0.9729885458946228,
        -0.9719578623771667,
        -0.9929289817810059
      ],
      "type": "VEC3"
    },
    {
      "bufferView": 1,
      "byteOffset": 114584,
      "componentType": 5126,
      "count": 228,
      "max": [
        0.7087380290031433,
        0.9904639720916748
      ],
      "min": [
        0.499752014875412,
        0.7081180214881897
      ],
      "type": "VEC2"
    },
    {
      "bufferView": 0,
      "byteOffset": 188160,
      "componentType": 5125,
      "count": 1032,
      "type": "SCALAR"
    },
    {
      "bufferView": 2,
      "byteOffset": 349224,
      "componentType": 5126,
      "count": 475,
      "max": [
        7.610849857330322,
        4.392879962921143,
        3.272209882736206
      ],
      "min": [
        -7.610849857330322,
        -4.316070079803467,
        -0.07070200145244598
      ],
      "type": "VEC3"
    },
    {
      "bufferView": 2,
      "byteOffset": 354924,
      "componentType": 5126,
      "count": 475,
      "max": [
        0.9939495325088501,
        0.9153974056243896,
        0.9980413317680359
      ],
      "min": [
        -0.9939495325088501,
        -0.9937422275543213,
        -0.9990904927253723
      ],
      "type": "VEC3"
    },
    {
      "bufferView": 1,
      "byteOffset": 116408,
      "componentType": 5126,
      "count": 475,
      "max": [
        0.2691420018672943,
        0.9924359917640686
      ],
      "min": [
        0.003673769999295473,
        0.4197689890861511
      ],
      "type": "VEC2"
    },
    {
      "bufferView": 0,
      "byteOffset": 192288,
      "componentType": 5125,
      "count": 2328,
      "type": "SCALAR"
    },
    {
      "bufferView": 2,
      "byteOffset": 360624,
      "componentType": 5126,
      "count": 50,
      "max": [
        1.4117499589920044,
        2.515209913253784,
        1.1689599752426147
      ],
      "min": [
        -1.4115500450134277,
        1.4622600078582764,
        0.22236299514770508
      ],
      "type": "VEC3"
    },
    {
      "bufferView": 2,
      "byteOffset": 361224,
      "componentType": 5126,
      "count": 50,
      "max": [
        0.9524592161178589,
        0.6617638468742371,
        0.8260319828987122
      ],
      "min": [
        -0.9524596333503723,
        -0.9695696234703064,
        -0.6913909912109375
      ],
      "type": "VEC3"
    },
    {
      "bufferView": 1,
      "byteOffset": 120208,
      "componentType": 5126,
      "count": 50,
      "max": [
        0.2468709945678711,
        0.630882978439331
      ],
      "min": [
        0.16457900404930115,
        0.5839840173721313
      ],
      "type": "VEC2"
    },
    {
      "bufferView": 0,
      "byteOffset": 201600,
      "componentType": 5125,
      "count": 192,
      "type": "SCALAR"
    },
    {
      "bufferView": 2,
      "byteOffset": 361824,
      "componentType": 5126,
      "count": 168,
      "max": [
        1.1487699747085571,
        1.2105799913406372,
        2.0740199089050293
      ],
      "min": [
        -1.1488200426101685,
        0.6618279814720154,
        1.5975799560546875
      ],
      "type": "VEC3"
    },
    {
      "bufferView": 2,
      "byteOffset": 363840,
      "componentType": 5126,
      "count": 168,
      "max": [
        0.9962072372436523,
        0.1750890016555786,
        0.4142422378063202
      ],
      "min": [
        -0.9962054491043091,
        -0.9175856113433838,
        -0.0469575934112072
      ],
      "type": "VEC3"
    },
    {
      "bufferView": 1,
      "byteOffset": 120608,
      "componentType": 5126,
      "count": 168,
      "max": [
        0.14695100486278534,
        0.26929399371147156
      ],
      "min": [
        0.10727400332689285,
        0.22995899617671967
      ],
      "type": "VEC2"
    },
    {
      "bufferView": 0,
      "byteOffset": 202368,
      "componentType": 5125,
      "count": 840,
      "type": "SCALAR"
    },
    {
      "bufferView": 2,
      "byteOffset": 365856,
      "componentType": 5126,
      "count": 204,
      "max": [
        1.625,
        2.75,
        1.6750099658966064
      ],
      "min": [
        -1.6249899864196777,
        0.9750000238418579,
        1.3250000476837158
      ],
      "type": "VEC3"
    },
    {
      "bufferView": 2,
      "byteOffset": 368304,
      "componentType": 5126,
      "count": 204,
      "max": [
        1.0,
        1.0,
        0.9570993781089783
      ],
      "min": [
        -1.0,
        -1.0,
        -1.0
      ],
      "type": "VEC3"
    },
    {
      "bufferView": 1,
      "byteOffset": 121952,
      "componentType": 5126,
      "count": 204,
      "max": [
        0.497420996427536,
        0.4765549898147583
      ],
      "min": [
        0.37104299664497375,
        0.366117000579834
      ],
      "type": "VEC2"
    },
    {
      "bufferView": 0,
      "byteOffset": 205728,
      "componentType": 5125,
      "count": 840,
      "type": "SCALAR"
    },
    {
      "bufferView": 2,
      "byteOffset": 370752,
      "componentType": 5126,
      "count": 44,
      "max": [
        4.139359951019287,
        1.5989700555801392,
        2.0336599349975586
      ],
      "min": [
        -4.139359951019287,
        -2.7540199756622314,
        1.4557600021362305
      ],
      "type": "VEC3"
    },
    {
      "bufferView": 2,
      "byteOffset": 371280,
      "componentType": 5126,
      "count": 44,
      "max": [
        0.9803445339202881,
        0.8249198794364929,
        0.9811376333236694
      ],
      "min": [
        -0.9803329706192017,
        -0.831179678440094,
        -0.9764187335968018
      ],
      "type": "VEC3"
    },
    {
      "bufferView": 1,
      "byteOffset": 123584,
      "componentType": 5126,
      "count": 44,
      "max": [
        0.3644239902496338,
        0.4765529930591583
      ],
      "min": [
        0.2659670114517212,
        0.3343439996242523
      ],
      "type": "VEC2"
    },
    {
      "bufferView": 0,
      "byteOffset": 209088,
      "componentType": 5125,
      "count": 168,
      "type": "SCALAR"
    },
    {
      "bufferView": 2,
      "byteOffset": 371808,
      "componentType": 5126,
      "count": 990,
      "max": [
        2.197580099105835,
        -2.05364990234375,
        2.0922999382019043
      ],
      "min": [
        -2.1975200176239014,
        -2.3485100269317627,
        1.202049970626831
      ],
      "type": "VEC3"
    },
    {
      "bufferView": 2,
      "byteOffset": 383688,
      "componentType": 5126,
      "count": 990,
      "max": [
        0.9944500923156738,
        0.9957151412963867,
        0.9953208565711975
      ],
      "min": [
        -0.994451105594635,
        -0.46597182750701904,
        -0.9974269866943359
      ],
      "type": "VEC3"
    },
    {
      "bufferView": 1,
      "byteOffset": 123936,
      "componentType": 5126,
      "count": 990,
      "max": [
        0.9948539733886719,
        0.3857809901237488
      ],
      "min": [
        0.8288000226020813,
        0.36913999915122986
      ],
      "type": "VEC2"
    },
    {
      "bufferView": 0,
      "byteOffset": 209760,
      "componentType": 5125,
      "count": 3240,
      "type": "SCALAR"
    },
    {
      "bufferView": 2,
      "byteOffset": 395568,
      "componentType": 5126,
      "count": 454,
      "max": [
        2.264130115509033,
        1.9562499523162842,
        2.232450008392334
      ],
      "min": [
        -2.2644200325012207,
        0.6437379717826843,
        1.6309700012207031
      ],
      "type": "VEC3"
    },
    {
      "bufferView": 2,
      "byteOffset": 401016,
      "componentType": 5126,
      "count": 454,
      "max": [
        0.9763361215591431,
        1.0,
        0.9763324856758118
      ],
      "min": [
        -0.992509126663208,
        -1.0,
        -0.9925141334533691
      ],
      "type": "VEC3"
    },
    {
      "bufferView": 1,
      "byteOffset": 131856,
      "componentType": 5126,
      "count": 454,
      "max": [
        0.9066240191459656,
        0.9591209888458252
      ],
      "min": [
        0.8093140125274658,
        0.7943530082702637
      ],
      "type": "VEC2"
    },
    {
      "bufferView": 0,
      "byteOffset": 222720,
      "componentType": 5125,
      "count": 1152,
      "type": "SCALAR"
    },
    {
      "bufferView": 2,
      "byteOffset": 406464,
      "componentType": 5126,
      "count": 2286,
      "max": [
        2.4489998817443848,
        -0.20061300694942474,
        3.2392001152038574
      ],
      "min": [
        -2.4492900371551514,
        -1.683750033378601,
        1.602970004081726
      ],
      "type": "VEC3"
    },
    {
      "bufferView": 2,
      "byteOffset": 433896,
      "componentType": 5126,
      "count": 2286,
      "max": [
        0.9982554912567139,
        1.0,
        0.9876348972320557
      ],
      "min": [
        -0.9978309869766235,
        -1.0,
        -0.9961958527565002
      ],
      "type": "VEC3"
    },
    {
      "bufferView": 1,
      "byteOffset": 135488,
      "componentType": 5126,
      "count": 2286,
      "max": [
        0.8604270219802856,
        0.9901530146598816
      ],
      "min": [
        0.7884759902954102,
        0.8085049986839294
      ],
      "type": "VEC2"
    },
    {
      "bufferView": 0,
      "byteOffset": 227328,
      "componentType": 5125,
      "count": 8796,
      "type": "SCALAR"
    },
    {
      "bufferView": 2,
      "byteOffset": 461328,
      "componentType": 5126,
      "count": 1840,
      "max": [
        2.6184000968933105,
        2.1745400428771973,
        3.3506600856781006
      ],
      "min": [
        -2.618690013885498,
        -1.6957499980926514,
        1.2793300151824951
      ],
      "type": "VEC3"
    },
    {
      "bufferView": 2,
      "byteOffset": 483408,
      "componentType": 5126,
      "count": 1840,
      "max": [
        0.9987346529960632,
        1.0,
        0.9876089096069336
      ],
      "min": [
        -0.998102605342865,
        -1.0,
        -0.9995142221450806
      ],
      "type": "VEC3"
    },
    {
      "bufferView": 1,
      "byteOffset": 153776,
      "componentType": 5126,
      "count": 1840,
      "max": [
        0.997061014175415,
        0.9924359917640686
      ],
      "min": [
        0.7075679898262024,
        0.6944019794464111
      ],
      "type": "VEC2"
    },
    {
      "bufferView": 0,
      "byteOffset": 262512,
      "componentType": 5125,
      "count": 5652,
      "type": "SCALAR"
    },
    {
      "bufferView": 2,
      "byteOffset": 505488,
      "componentType": 5126,
      "count": 56,
      "max": [
        2.800640106201172,
        2.5529398918151855,
        1.1079000234603882
      ],
      "min": [
        -2.7996299266815186,
        -0.6970599889755249,
        0.5079839825630188
      ],
      "type": "VEC3"
    },
    {
      "bufferView": 2,
      "byteOffset": 506160,
      "componentType": 5126,
      "count": 56,
      "max": [
        0.9840613603591919,
        0.9377756714820862,
        0.9775516390800476
      ],
      "min": [
        -0.8623030185699463,
        -0.9197244048118591,
        -0.7870621085166931
      ],
      "type": "VEC3"
    },
    {
      "bufferView": 1,
      "byteOffset": 168496,
      "componentType": 5126,
      "count": 56,
      "max": [
        0.09257899969816208,
        0.9697840213775635
      ],
      "min": [
        0.005143280141055584,
        0.8275750279426575
      ],
      "type": "VEC2"
    },
    {
      "bufferView": 0,
      "byteOffset": 285120,
      "componentType": 5125,
      "count": 216,
      "type": "SCALAR"
    },
    {
      "bufferView": 2,
      "byteOffset": 506832,
      "componentType": 5126,
      "count": 304,
      "max": [
        4.51869010925293,
        -0.15462499856948853,
        2.4007298946380615
      ],
      "min": [
        -4.718349933624268,
        -2.5233500003814697,
        1.7426999807357788
      ],
      "type": "VEC3"
    },
    {
      "bufferView": 2,
      "byteOffset": 510480,
      "componentType": 5126,
      "count": 304,
      "max": [
        0.9919062256813049,
        0.8672375082969666,
        0.9622546434402466
      ],
      "min": [
        -0.9919059872627258,
        -0.9564172625541687,
        -0.99281245470047
      ],
      "type": "VEC3"
    },
    {
      "bufferView": 1,
      "byteOffset": 168944,
      "componentType": 5126,
      "count": 304,
      "max": [
        0.10874500125646591,
        0.5809149742126465
      ],
      "min": [
        0.005879649892449379,
        0.43870601058006287
      ],
      "type": "VEC2"
    },
    {
      "bufferView": 0,
      "byteOffset": 285984,
      "componentType": 5125,
      "count": 1224,
      "type": "SCALAR"
    },
    {
      "bufferView": 2,
      "byteOffset": 514128,
      "componentType": 5126,
      "count": 84,
      "max": [
        3.642940044403076,
        1.5441800355911255,
        1.9579999446868896
      ],
      "min": [
        -3.642940044403076,
        0.5359129905700684,
        1.0419399738311768
      ],
      "type": "VEC3"
    },
    {
      "bufferView": 2,
      "byteOffset": 515136,
      "componentType": 5126,
      "count": 84,
      "max": [
        0.9857341051101685,
        0.9641952514648438,
        0.715410053730011
      ],
      "min": [
        -0.9857341051101685,
        -0.946873128414154,
        -0.9851130247116089
      ],
      "type": "VEC3"
    },
    {
      "bufferView": 1,
      "byteOffset": 171376,
      "componentType": 5126,
      "count": 84,
      "max": [
        0.7053539752960205,
        0.853289008140564
      ],
      "min": [
        0.581915020942688,
        0.7156190276145935
      ],
      "type": "VEC2"
    },
    {
      "bufferView": 0,
      "byteOffset": 290880,
      "componentType": 5125,
      "count": 360,
      "type": "SCALAR"
    },
    {
      "bufferView": 2,
      "byteOffset": 516144,
      "componentType": 5126,
      "count": 206,
      "max": [
        5.306469917297363,
        3.0879600048065186,
        2.358760118484497
      ],
      "min": [
        -5.306469917297363,
        0.006579999811947346,
        0.6510930061340332
      ],
      "type": "VEC3"
    },
    {
      "bufferView": 2,
      "byteOffset": 518616,
      "componentType": 5126,
      "count": 206,
      "max": [
        0.9601183533668518,
        0.9953551292419434,
        0.9457855224609375
      ],
      "min": [
        -0.8560171127319336,
        -0.8872788548469543,
        -0.9415943622589111
      ],
      "type": "VEC3"
    },
    {
      "bufferView": 1,
      "byteOffset": 172048,
      "componentType": 5126,
      "count": 206,
      "max": [
        0.29209598898887634,
        0.17249000072479248
      ],
      "min": [
        0.20906899869441986,
        0.03482009842991829
      ],
      "type": "VEC2"
    },
    {
      "bufferView": 0,
      "byteOffset": 292320,
      "componentType": 5125,
      "count": 1056,
      "type": "SCALAR"
    },
    {
      "bufferView": 2,
      "byteOffset": 521088,
      "componentType": 5126,
      "count": 384,
      "max": [
        3.499269962310791,
        1.3258099555969238,
        1.8481500148773193
      ],
      "min": [
        -3.4991800785064697,
        0.6116700172424316,
        1.114259958267212
      ],
      "type": "VEC3"
    },
    {
      "bufferView": 2,
      "byteOffset": 525696,
      "componentType": 5126,
      "count": 384,
      "max": [
        0.9697685241699219,
        0.5736191868782043,
        0.3135390281677246
      ],
      "min": [
        -0.9697750210762024,
        -0.9625324606895447,
        -0.46492594480514526
      ],
      "type": "VEC3"
    },
    {
      "bufferView": 1,
      "byteOffset": 173696,
      "componentType": 5126,
      "count": 384,
      "max": [
        0.3188839852809906,
        0.7367650270462036
      ],
      "min": [
        0.23218299448490143,
        0.66566002368927
      ],
      "type": "VEC2"
    },
    {
      "bufferView": 0,
      "byteOffset": 296544,
      "componentType": 5125,
      "count": 1920,
      "type": "SCALAR"
    },
    {
      "bufferView": 2,
      "byteOffset": 530304,
      "componentType": 5126,
      "count": 832,
      "max": [
        4.443329811096191,
        -2.5833399295806885,
        2.421839952468872
      ],
      "min": [
        -4.443019866943359,
        -2.7903900146484375,
        2.195240020751953
      ],
      "type": "VEC3"
    },
    {
      "bufferView": 2,
      "byteOffset": 540288,
      "componentType": 5126,
      "count": 832,
      "max": [
        0.9847836494445801,
        0.961487352848053,
        0.9687462449073792
      ],
      "min": [
        -0.9847651124000549,
        -0.9615489840507507,
        -0.9687674641609192
      ],
      "type": "VEC3"
    },
    {
      "bufferView": 1,
      "byteOffset": 176768,
      "componentType": 5126,
      "count": 832,
      "max": [
        0.9419530034065247,
        0.6898620128631592
      ],
      "min": [
        0.8581910133361816,
        0.6459890007972717
      ],
      "type": "VEC2"
    },
    {
      "bufferView": 0,
      "byteOffset": 304224,
      "componentType": 5125,
      "count": 3840,
      "type": "SCALAR"
    },
    {
      "bufferView": 2,
      "byteOffset": 550272,
      "componentType": 5126,
      "count": 180,
      "max": [
        2.0000100135803223,
        -1.9000200033187866,
        1.9000099897384644
      ],
      "min": [
        -1.9999500513076782,
        -2.1500298976898193,
        1.399999976158142
      ],
      "type": "VEC3"
    },
    {
      "bufferView": 2,
      "byteOffset": 552432,
      "componentType": 5126,
      "count": 180,
      "max": [
        0.9469109773635864,
        1.0,
        0.9469147324562073
      ],
      "min": [
        -0.9469143748283386,
        -1.0,
        -0.9469167590141296
      ],
      "type": "VEC3"
    },
    {
      "bufferView": 1,
      "byteOffset": 183424,
      "componentType": 5126,
      "count": 180,
      "max": [
        0.20573100447654724,
        0.9183059930801392
      ],
      "min": [
        0.18515799939632416,
        0.9016640186309814
      ],
      "type": "VEC2"
    },
    {
      "bufferView": 0,
      "byteOffset": 319584,
      "componentType": 5125,
      "count": 576,
      "type": "SCALAR"
    },
    {
      "bufferView": 2,
      "byteOffset": 554592,
      "componentType": 5126,
      "count": 28,
      "max": [
        6.970139980316162,
        -3.0985300540924072,
        3.1433799266815186
      ],
      "min": [
        -6.970320224761963,
        -4.101490020751953,
        2.7696900367736816
      ],
      "type": "VEC3"
    },
    {
      "bufferView": 2,
      "byteOffset": 554928,
      "componentType": 5126,
      "count": 28,
      "max": [
        0.9469303488731384,
        0.11848495900630951,
        0.9537663459777832
      ],
      "min": [
        -0.9469279050827026,
        -0.866094172000885,
        -0.2989208698272705
      ],
      "type": "VEC3"
    },
    {
      "bufferView": 1,
      "byteOffset": 184864,
      "componentType": 5126,
      "count": 28,
      "max": [
        0.5275520086288452,
        0.8940839767456055
      ],
      "min": [
        0.46215900778770447,
        0.8214669823646545
      ],
      "type": "VEC2"
    },
    {
      "bufferView": 0,
      "byteOffset": 321888,
      "componentType": 5125,
      "count": 72,
      "type": "SCALAR"
    },
    {
      "bufferView": 2,
      "byteOffset": 555264,
      "componentType": 5126,
      "count": 432,
      "max": [
        6.003530025482178,
        -1.5846799612045288,
        2.7863199710845947
      ],
      "min": [
        -6.0036702156066895,
        -2.565380096435547,
        2.4184300899505615
      ],
      "type": "VEC3"
    },
    {
      "bufferView": 2,
      "byteOffset": 560448,
      "componentType": 5126,
      "count": 432,
      "max": [
        0.9997997879981995,
        0.9474926590919495,
        0.9986739754676819
      ],
      "min": [
        -0.9997997879981995,
        -0.9474891424179077,
        -0.9953601360321045
      ],
      "type": "VEC3"
    },
    {
      "bufferView": 1,
      "byteOffset": 185088,
      "componentType": 5126,
      "count": 432,
      "max": [
        0.2865389883518219,
        0.9167969822883606
      ],
      "min": [
        0.24024899303913116,
        0.8789759874343872
      ],
      "type": "VEC2"
    },
    {
      "bufferView": 0,
      "byteOffset": 322176,
      "componentType": 5125,
      "count": 1152,
      "type": "SCALAR"
    },
    {
      "bufferView": 2,
      "byteOffset": 565632,
      "componentType": 5126,
      "count": 2784,
      "max": [
        6.524099826812744,
        -1.3450000286102295,
        2.9521100521087646
      ],
      "min": [
        -6.524240016937256,
        -2.8050599098205566,
        2.2353100776672363
      ],
      "type": "VEC3"
    },
    {
      "bufferView": 2,
      "byteOffset": 599040,
      "componentType": 5126,
      "count": 2784,
      "max": [
        0.9985828995704651,
        1.0,
        0.9999262094497681
      ],
      "min": [
        -0.998582661151886,
        -0.9999783635139465,
        -0.9953601360321045
      ],
      "type": "VEC3"
    },
    {
      "bufferView": 1,
      "byteOffset": 188544,
      "componentType": 5126,
      "count": 2784,
      "max": [
        0.4536769986152649,
        0.6550750136375427
      ],
      "min": [
        0.26652300357818604,
        0.48810699582099915
      ],
      "type": "VEC2"
    },
    {
      "bufferView": 0,
      "byteOffset": 326784,
      "componentType": 5125,
      "count": 8448,
      "type": "SCALAR"
    }
  ],
  "asset": {
    "extras": {
      "author": "razzie_mbessai (https://sketchfab.com/razzie_mbessai)",
      "license": "CC-BY-4.0 (http://creativecommons.org/licenses/by/4.0/)",
      "source": "https://sketchfab.com/3d-models/guardians-of-the-galaxy-warbird-spaceship-cda42feba4184e6ca51742fb992717d0",
      "title": "Guardians of the Galaxy Warbird spaceship"
    },
    "generator": "Sketchfab-12.66.0",
    "version": "2.0"
  },
  "bufferViews": [
    {
      "buffer": 0,
      "byteLength": 360576,
      "name": "floatBufferViews",
      "target": 34963
    },
    {
      "buffer": 0,
      "byteLength": 210816,
      "byteOffset": 360576,
      "byteStride": 8,
      "name": "floatBufferViews",
      "target": 34962
    },
    {
      "buffer": 0,
      "byteLength": 632448,
      "byteOffset": 571392,
      "byteStride": 12,
      "name": "floatBufferViews",
      "target": 34962
    }
  ],
  "buffers": [
    {
      "byteLength": 1203840,
      "uri": "scene.bin"
    }
  ],
  "images": [
    {
      "uri": "textures/BFGheatsinks_baseColor.png"
    },
    {
      "uri": "textures/aftInnerWinglet_metallicRoughness.png"
    }
  ],
  "materials": [
    {
      "doubleSided": true,
      "name": "BFGheatsinks",
      "pbrMetallicRoughness": {
        "baseColorTexture": {
          "index": 0
        },
        "metallicFactor": 0.0,
        "roughnessFactor": 0.99215686
      }
    },
    {
      "doubleSided": true,
      "name": "BFGs",
      "pbrMetallicRoughness": {
        "baseColorTexture": {
          "index": 0
        },
        "metallicFactor": 0.0,
        "roughnessFactor": 0.99215686
      }
    },
    {
      "doubleSided": true,
      "name": "BFGstruts",
      "pbrMetallicRoughness": {
        "baseColorTexture": {
          "index": 0
        },
        "metallicFactor": 0.0,
        "roughnessFactor": 0.99215686
      }
    },
    {
      "doubleSided": true,
      "name": "material",
      "pbrMetallicRoughness": {
        "baseColorTexture": {
          "index": 0
        },
        "metallicFactor": 0.35,
        "roughnessFactor": 0.65
      }
    },
    {
      "doubleSided": true,
      "name": "aftGrille",
      "pbrMetallicRoughness": {
        "baseColorTexture": {
          "index": 0
        },
        "metallicFactor": 0.35,
        "roughnessFactor": 0.65
      }
    },
    {
      "doubleSided": true,
      "name": "aftHeatsinks",
      "pbrMetallicRoughness": {
        "baseColorTexture": {
          "index": 0
        },
        "metallicFactor": 0.35,
        "roughnessFactor": 0.35
      }
    },
    {
      "doubleSided": true,
      "name": "aftInnerWinglet",
      "pbrMetallicRoughness": {
        "baseColorTexture": {
          "index": 0
        },
        "metallicFactor": 0.75,
        "metallicRoughnessTexture": {
          "index": 1
        },
        "roughnessFactor": 0.25
      }
    },
    {
      "doubleSided": true,
      "name": "aftMiddle",
      "pbrMetallicRoughness": {
        "baseColorTexture": {
          "index": 0
        },
        "metallicFactor": 0.0,
        "roughnessFactor": 0.99215686
      }
    },
    {
      "doubleSided": true,
      "name": "ailerons",
      "pbrMetallicRoughness": {
        "baseColorTexture": {
          "index": 0
        },
        "metallicFactor": 0.75,
        "metallicRoughnessTexture": {
          "index": 1
        },
        "roughnessFactor": 0.25
      }
    },
    {
      "doubleSided": true,
      "name": "airbrakesHinges",
      "pbrMetallicRoughness": {
        "baseColorTexture": {
          "index": 0
        },
        "metallicFactor": 0.0,
        "roughnessFactor": 0.99215686
      }
    },
    {
      "doubleSided": true,
      "name": "airbrakesInner",
      "pbrMetallicRoughness": {
        "baseColorTexture": {
          "index": 0
        },
        "metallicFactor": 0.75,
        "metallicRoughnessTexture": {
          "index": 1
        },
        "roughnessFactor": 0.25
      }
    },
    {
      "doubleSided": true,
      "name": "airbrakesOuter",
      "pbrMetallicRoughness": {
        "baseColorTexture": {
          "index": 0
        },
        "metallicFactor": 0.75,
        "metallicRoughnessTexture": {
          "index": 1
        },
        "roughnessFactor": 0.25
      }
    },
    {
      "doubleSided": true,
      "name": "boosterHeatsinks",
      "pbrMetallicRoughness": {
        "baseColorTexture": {
          "index": 0
        },
        "metallicFactor": 0.0,
        "roughnessFactor": 0.99215686
      }
    },
    {
      "doubleSided": true,
      "name": "boosterInnerWinglet",
      "pbrMetallicRoughness": {
        "baseColorTexture": {
          "index": 0
        },
        "metallicFactor": 0.0,
        "roughnessFactor": 0.99215686
      }
    },
    {
      "doubleSided": true,
      "name": "boosters",
      "pbrMetallicRoughness": {
        "baseColorTexture": {
          "index": 0
        },
        "metallicFactor": 0.0,
        "roughnessFactor": 0.99215686
      }
    },
    {
      "doubleSided": true,
      "name": "chinBlasters",
      "pbrMetallicRoughness": {
        "baseColorTexture": {
          "index": 0
        },
        "metallicFactor": 0.0,
        "roughnessFactor": 0.99215686
      }
    },
    {
      "doubleSided": true,
      "name": "chinBlastersSockets",
      "pbrMetallicRoughness": {
        "baseColorTexture": {
          "index": 0
        },
        "metallicFactor": 0.0,
        "roughnessFactor": 0.99215686
      }
    },
    {
      "doubleSided": true,
      "name": "chinVents",
      "pbrMetallicRoughness": {
        "baseColorTexture": {
          "index": 0
        },
        "metallicFactor": 0.0,
        "roughnessFactor": 0.99215686
      }
    },
    {
      "doubleSided": true,
      "name": "chinflaps",
      "pbrMetallicRoughness": {
        "baseColorTexture": {
          "index": 0
        },
        "metallicFactor": 0.75,
        "metallicRoughnessTexture": {
          "index": 1
        },
        "roughnessFactor": 0.25
      }
    },
    {
      "doubleSided": true,
      "name": "cockpitCabin",
      "pbrMetallicRoughness": {
        "baseColorTexture": {
          "index": 0
        },
        "metallicFactor": 0.0,
        "roughnessFactor": 0.99215686
      }
    },
    {
      "doubleSided": true,
      "name": "cockpitFrame",
      "pbrMetallicRoughness": {
        "baseColorTexture": {
          "index": 0
        },
        "metallicFactor": 0.0,
        "roughnessFactor": 0.99215686
      }
    },
    {
      "alphaMode": "BLEND",
      "doubleSided": true,
      "name": "cockpitGlass",
      "pbrMetallicRoughness": {
        "baseColorFactor": [
          0.0002454910269089689,
          0.017710449245726588,
          0.10556041286686094,
          0.9
        ],
        "metallicFactor": 0.0,
        "roughnessFactor": 0.075
      }
    },
    {
      "doubleSided": true,
      "name": "engineDiscs",
      "pbrMetallicRoughness": {
        "baseColorTexture": {
          "index": 0
        },
        "metallicFactor": 0.0,
        "roughnessFactor": 0.99215686
      }
    },
    {
      "doubleSided": true,
      "name": "engineHousing",
      "pbrMetallicRoughness": {
        "baseColorTexture": {
          "index": 0
        },
        "metallicFactor": 0.0,
        "roughnessFactor": 0.99215686
      }
    },
    {
      "doubleSided": true,
      "name": "engineRivets",
      "pbrMetallicRoughness": {
        "baseColorTexture": {
          "index": 0
        },
        "metallicFactor": 0.0,
        "roughnessFactor": 0.99215686
      }
    },
    {
      "doubleSided": true,
      "name": "engines",
      "pbrMetallicRoughness": {
        "baseColorTexture": {
          "index": 0
        },
        "metallicFactor": 0.0,
        "roughnessFactor": 0.99215686
      }
    },
    {
      "doubleSided": true,
      "name": "hullBottom",
      "pbrMetallicRoughness": {
        "baseColorTexture": {
          "index": 0
        },
        "metallicFactor": 0.75,
        "metallicRoughnessTexture": {
          "index": 1
        },
        "roughnessFactor": 0.25
      }
    },
    {
      "doubleSided": true,
      "name": "hullInner",
      "pbrMetallicRoughness": {
        "baseColorTexture": {
          "index": 0
        },
        "metallicFactor": 0.75,
        "metallicRoughnessTexture": {
          "index": 1
        },
        "roughnessFactor": 0.25
      }
    },
    {
      "doubleSided": true,
      "name": "hullInnerEngines",
      "pbrMetallicRoughness": {
        "baseColorTexture": {
          "index": 0
        },
        "metallicFactor": 0.75,
        "metallicRoughnessTexture": {
          "index": 1
        },
        "roughnessFactor": 0.25
      }
    },
    {
      "doubleSided": true,
      "name": "hullInnerWings",
      "pbrMetallicRoughness": {
        "baseColorTexture": {
          "index": 0
        },
        "metallicFactor": 0.0,
        "roughnessFactor": 0.99215686
      }
    },
    {
      "doubleSided": true,
      "name": "hullTop",
      "pbrMetallicRoughness": {
        "baseColorTexture": {
          "index": 0
        },
        "metallicFactor": 0.75,
        "metallicRoughnessTexture": {
          "index": 1
        },
        "roughnessFactor": 0.25
      }
    },
    {
      "doubleSided": true,
      "name": "jowl",
      "pbrMetallicRoughness": {
        "baseColorTexture": {
          "index": 0
        },
        "metallicFactor": 0.35,
        "roughnessFactor": 0.65
      }
    },
    {
      "doubleSided": true,
      "name": "roofVents",
      "pbrMetallicRoughness": {
        "baseColorTexture": {
          "index": 0
        },
        "metallicFactor": 0.35,
        "roughnessFactor": 0.65
      }
    },
    {
      "doubleSided": true,
      "name": "shoulderGuns",
      "pbrMetallicRoughness": {
        "baseColorTexture": {
          "index": 0
        },
        "metallicFactor": 0.35,
        "roughnessFactor": 0.65
      }
    },
    {
      "doubleSided": true,
      "name": "sideWinglets",
      "pbrMetallicRoughness": {
        "baseColorTexture": {
          "index": 0
        },
        "metallicFactor": 0.75,
        "metallicRoughnessTexture": {
          "index": 1
        },
        "roughnessFactor": 0.25
      }
    },
    {
      "doubleSided": true,
      "name": "tailpipeFalps",
      "pbrMetallicRoughness": {
        "baseColorTexture": {
          "index": 0
        },
        "metallicFactor": 0.35,
        "roughnessFactor": 0.65
      }
    },
    {
      "doubleSided": true,
      "name": "topGunBarrels",
      "pbrMetallicRoughness": {
        "baseColorTexture": {
          "index": 0
        },
        "metallicFactor": 0.35,
        "roughnessFactor": 0.65
      }
    },
    {
      "doubleSided": true,
      "name": "topGunHeatsinks",
      "pbrMetallicRoughness": {
        "baseColorTexture": {
          "index": 0
        },
        "metallicFactor": 0.35,
        "roughnessFactor": 0.65
      }
    },
    {
      "doubleSided": true,
      "name": "topGuns",
      "pbrMetallicRoughness": {
        "baseColorTexture": {
          "index": 0
        },
        "metallicFactor": 0.35,
        "roughnessFactor": 0.65
      }
    },
    {
      "doubleSided": true,
      "name": "undersideWinglets",
      "pbrMetallicRoughness": {
        "baseColorTexture": {
          "index": 0
        },
        "metallicFactor": 0.75,
        "metallicRoughnessTexture": {
          "index": 1
        },
        "roughnessFactor": 0.75
      }
    },
    {
      "doubleSided": true,
      "name": "wingDetails",
      "pbrMetallicRoughness": {
        "baseColorTexture": {
          "index": 0
        },
        "metallicFactor": 0.35,
        "roughnessFactor": 0.65
      }
    },
    {
      "doubleSided": true,
      "name": "wingExhausts",
      "pbrMetallicRoughness": {
        "baseColorTexture": {
          "index": 0
        },
        "metallicFactor": 0.35,
        "roughnessFactor": 0.65
      }
    },
    {
      "doubleSided": true,
      "name": "wingIntakes",
      "pbrMetallicRoughness": {
        "baseColorTexture": {
          "index": 0
        },
        "metallicFactor": 0.35,
        "roughnessFactor": 0.65
      }
    },
    {
      "doubleSided": true,
      "name": "wingVents",
      "pbrMetallicRoughness": {
        "baseColorTexture": {
          "index": 0
        },
        "metallicFactor": 0.0,
        "roughnessFactor": 0.65
      }
    },
    {
      "doubleSided": true,
      "name": "wingtipHeatsinks",
      "pbrMetallicRoughness": {
        "baseColorTexture": {
          "index": 0
        },
        "metallicFactor": 0.35,
        "roughnessFactor": 0.65
      }
    },
    {
      "doubleSided": true,
      "name": "xhaustBooster",
      "pbrMetallicRoughness": {
        "baseColorTexture": {
          "index": 0
        },
        "metallicFactor": 0.0,
        "roughnessFactor": 0.99215686
      }
    }
  ],
  "meshes": [
    {
      "name": "Object_0",
      "primitives": [
        {
          "attributes": {
            "NORMAL": 1,
            "POSITION": 0,
            "TEXCOORD_0": 2
          },
          "indices": 3,
          "material": 0,
          "mode": 4
        }
      ]
    },
    {
      "name": "Object_1",
      "primitives": [
        {
          "attributes": {
            "NORMAL": 5,
            "POSITION": 4,
            "TEXCOORD_0": 6
          },
          "indices": 7,
          "material": 1,
          "mode": 4
        }
      ]
    },
    {
      "name": "Object_2",
      "primitives": [
        {
          "attributes": {
            "NORMAL": 9,
            "POSITION": 8,
            "TEXCOORD_0": 10
          },
          "indices": 11,
          "material": 2,
          "mode": 4
        }
      ]
    },
    {
      "name": "Object_3",
      "primitives": [
        {
          "attributes": {
            "NORMAL": 13,
            "POSITION": 12,
            "TEXCOORD_0": 14
          },
          "indices": 15,
          "material": 3,
          "mode": 4
        }
      ]
    },
    {
      "name": "Object_4",
      "primitives": [
        {
          "attributes": {
            "NORMAL": 17,
            "POSITION": 16,
            "TEXCOORD_0": 18
          },
          "indices": 19,
          "material": 4,
          "mode": 4
        }
      ]
    },
    {
      "name": "Object_5",
      "primitives": [
        {
          "attributes": {
            "NORMAL": 21,
            "POSITION": 20,
            "TEXCOORD_0": 22
          },
          "indices": 23,
          "material": 5,
          "mode": 4
        }
      ]
    },
    {
      "name": "Object_6",
      "primitives": [
        {
          "attributes": {
            "NORMAL": 25,
            "POSITION": 24,
            "TEXCOORD_0": 26
          },
          "indices": 27,
          "material": 6,
          "mode": 4
        }
      ]
    },
    {
      "name": "Object_7",
      "primitives": [
        {
          "attributes": {
            "NORMAL": 29,
            "POSITION": 28,
            "TEXCOORD_0": 30
          },
          "indices": 31,
          "material": 7,
          "mode": 4
        }
      ]
    },
    {
      "name": "Object_8",
      "primitives": [
        {
          "attributes": {
            "NORMAL": 33,
            "POSITION": 32,
            "TEXCOORD_0": 34
          },
          "indices": 35,
          "material": 9,
          "mode": 4
        }
      ]
    },
    {
      "name": "Object_9",
      "primitives": [
        {
          "attributes": {
            "NORMAL": 37,
            "POSITION": 36,
            "TEXCOORD_0": 38
          },
          "indices": 39,
          "material": 10,
          "mode": 4
        }
      ]
    },
    {
      "name": "Object_10",
      "primitives": [
        {
          "attributes": {
            "NORMAL": 41,
            "POSITION": 40,
            "TEXCOORD_0": 42
          },
          "indices": 43,
          "material": 11,
          "mode": 4
        }
      ]
    },
    {
      "name": "Object_11",
      "primitives": [
        {
          "attributes": {
            "NORMAL": 45,
            "POSITION": 44,
            "TEXCOORD_0": 46
          },
          "indices": 47,
          "material": 12,
          "mode": 4
        }
      ]
    },
    {
      "name": "Object_12",
      "primitives": [
        {
          "attributes": {
            "NORMAL": 49,
            "POSITION": 48,
            "TEXCOORD_0": 50
          },
          "indices": 51,
          "material": 13,
          "mode": 4
        }
      ]
    },
    {
      "name": "Object_13",
      "primitives": [
        {
          "attributes": {
            "NORMAL": 53,
            "POSITION": 52,
            "TEXCOORD_0": 54
          },
          "indices": 55,
          "material": 14,
          "mode": 4
        }
      ]
    },
    {
      "name": "Object_14",
      "primitives": [
        {
          "attributes": {
            "NORMAL": 57,
            "POSITION": 56,
            "TEXCOORD_0": 58
          },
          "indices": 59,
          "material": 15,
          "mode": 4
        }
      ]
    },
    {
      "name": "Object_15",
      "primitives": [
        {
          "attributes": {
            "NORMAL": 61,
            "POSITION": 60,
            "TEXCOORD_0": 62
          },
          "indices": 63,
          "material": 16,
          "mode": 4
        }
      ]
    },
    {
      "name": "Object_16",
      "primitives": [
        {
          "attributes": {
            "NORMAL": 65,
            "POSITION": 64,
            "TEXCOORD_0": 66
          },
          "indices": 67,
          "material": 17,
          "mode": 4
        }
      ]
    },
    {
      "name": "Object_17",
      "primitives": [
        {
          "attributes": {
            "NORMAL": 69,
            "POSITION": 68,
            "TEXCOORD_0": 70
          },
          "indices": 71,
          "material": 18,
          "mode": 4
        }
      ]
    },
    {
      "name": "Object_18",
      "primitives": [
        {
          "attributes": {
            "NORMAL": 73,
            "POSITION": 72,
            "TEXCOORD_0": 74
          },
          "indices": 75,
          "material": 19,
          "mode": 4
        }
      ]
    },
    {
      "name": "Object_19",
      "primitives": [
        {
          "attributes": {
            "NORMAL": 77,
            "POSITION": 76,
            "TEXCOORD_0": 78
          },
          "indices": 79,
          "material": 20,
          "mode": 4
        }
      ]
    },
    {
      "name": "Object_20",
      "primitives": [
        {
          "attributes": {
            "NORMAL": 81,
            "POSITION": 80,
            "TEXCOORD_0": 82
          },
          "indices": 83,
          "material": 21,
          "mode": 4
        }
      ]
    },
    {
      "name": "Object_21",
      "primitives": [
        {
          "attributes": {
            "NORMAL": 85,
            "POSITION": 84,
            "TEXCOORD_0": 86
          },
          "indices": 87,
          "material": 23,
          "mode": 4
        }
      ]
    },
    {
      "name": "Object_22",
      "primitives": [
        {
          "attributes": {
            "NORMAL": 89,
            "POSITION": 88,
            "TEXCOORD_0": 90
          },
          "indices": 91,
          "material": 24,
          "mode": 4
        }
      ]
    },
    {
      "name": "Object_23",
      "primitives": [
        {
          "attributes": {
            "NORMAL": 93,
            "POSITION": 92,
            "TEXCOORD_0": 94
          },
          "indices": 95,
          "material": 26,
          "mode": 4
        }
      ]
    },
    {
      "name": "Object_24",
      "primitives": [
        {
          "attributes": {
            "NORMAL": 97,
            "POSITION": 96,
            "TEXCOORD_0": 98
          },
          "indices": 99,
          "material": 27,
          "mode": 4
        }
      ]
    },
    {
      "name": "Object_25",
      "primitives": [
        {
          "attributes": {
            "NORMAL": 101,
            "POSITION": 100,
            "TEXCOORD_0": 102
          },
          "indices": 103,
          "material": 28,
          "mode": 4
        }
      ]
    },
    {
      "name": "Object_26",
      "primitives": [
        {
          "attributes": {
            "NORMAL": 105,
            "POSITION": 104,
            "TEXCOORD_0": 106
          },
          "indices": 107,
          "material": 29,
          "mode": 4
        }
      ]
    },
    {
      "name": "Object_27",
      "primitives": [
        {
          "attributes": {
            "NORMAL": 109,
            "POSITION": 108,
            "TEXCOORD_0": 110
          },
          "indices": 111,
          "material": 30,
          "mode": 4
        }
      ]
    },
    {
      "name": "Object_28",
      "primitives": [
        {
          "attributes": {
            "NORMAL": 113,
            "POSITION": 112,
            "TEXCOORD_0": 114
          },
          "indices": 115,
          "material": 31,
          "mode": 4
        }
      ]
    },
    {
      "name": "Object_29",
      "primitives": [
        {
          "attributes": {
            "NORMAL": 117,
            "POSITION": 116,
            "TEXCOORD_0": 118
          },
          "indices": 119,
          "material": 32,
          "mode": 4
        }
      ]
    },
    {
      "name": "Object_30",
      "primitives": [
        {
          "attributes": {
            "NORMAL": 121,
            "POSITION": 120,
            "TEXCOORD_0": 122
          },
          "indices": 123,
          "material": 33,
          "mode": 4
        }
      ]
    },
    {
      "name": "Object_31",
      "primitives": [
        {
          "attributes": {
            "NORMAL": 125,
            "POSITION": 124,
            "TEXCOORD_0": 126
          },
          "indices": 127,
          "material": 34,
          "mode": 4
        }
      ]
    },
    {
      "name": "Object_32",
      "primitives": [
        {
          "attributes": {
            "NORMAL": 129,
            "POSITION": 128,
            "TEXCOORD_0": 130
          },
          "indices": 131,
          "material": 35,
          "mode": 4
        }
      ]
    },
    {
      "name": "Object_33",
      "primitives": [
        {
          "attributes": {
            "NORMAL": 133,
            "POSITION": 132,
            "TEXCOORD_0": 134
          },
          "indices": 135,
          "material": 36,
          "mode": 4
        }
      ]
    },
    {
      "name": "Object_34",
      "primitives": [
        {
          "attributes": {
            "NORMAL": 137,
            "POSITION": 136,
            "TEXCOORD_0": 138
          },
          "indices": 139,
          "material": 37,
          "mode": 4
        }
      ]
    },
    {
      "name": "Object_35",
      "primitives": [
        {
          "attributes": {
            "NORMAL": 141,
            "POSITION": 140,
            "TEXCOORD_0": 142
          },
          "indices": 143,
          "material": 38,
          "mode": 4
        }
      ]
    },
    {
      "name": "Object_36",
      "primitives": [
        {
          "attributes": {
            "NORMAL": 145,
            "POSITION": 144,
            "TEXCOORD_0": 146
          },
          "indices": 147,
          "material": 39,
          "mode": 4
        }
      ]
    },
    {
      "name": "Object_37",
      "primitives": [
        {
          "attributes": {
            "NORMAL": 149,
            "POSITION": 148,
            "TEXCOORD_0": 150
          },
          "indices": 151,
          "material": 40,
          "mode": 4
        }
      ]
    },
    {
      "name": "Object_38",
      "primitives": [
        {
          "attributes": {
            "NORMAL": 153,
            "POSITION": 152,
            "TEXCOORD_0": 154
          },
          "indices": 155,
          "material": 41,
          "mode": 4
        }
      ]
    },
    {
      "name": "Object_39",
      "primitives": [
        {
          "attributes": {
            "NORMAL": 157,
            "POSITION": 156,
            "TEXCOORD_0": 158
          },
          "indices": 159,
          "material": 42,
          "mode": 4
        }
      ]
    },
    {
      "name": "Object_40",
      "primitives": [
        {
          "attributes": {
            "NORMAL": 161,
            "POSITION": 160,
            "TEXCOORD_0": 162
          },
          "indices": 163,
          "material": 43,
          "mode": 4
        }
      ]
    },
    {
      "name": "Object_41",
      "primitives": [
        {
          "attributes": {
            "NORMAL": 165,
            "POSITION": 164,
            "TEXCOORD_0": 166
          },
          "indices": 167,
          "material": 44,
          "mode": 4
        }
      ]
    },
    {
      "name": "Object_42",
      "primitives": [
        {
          "attributes": {
            "NORMAL": 169,
            "POSITION": 168,
            "TEXCOORD_0": 170
          },
          "indices": 171,
          "material": 45,
          "mode": 4
        }
      ]
    },
    {
      "name": "Object_43",
      "primitives": [
        {
          "attributes": {
            "NORMAL": 173,
            "POSITION": 172,
            "TEXCOORD_0": 174
          },
          "indices": 175,
          "material": 8,
          "mode": 4
        }
      ]
    },
    {
      "name": "Object_44",
      "primitives": [
        {
          "attributes": {
            "NORMAL": 177,
            "POSITION": 176,
            "TEXCOORD_0": 178
          },
          "indices": 179,
          "material": 22,
          "mode": 4
        }
      ]
    },
    {
      "name": "Object_45",
      "primitives": [
        {
          "attributes": {
            "NORMAL": 181,
            "POSITION": 180,
            "TEXCOORD_0": 182
          },
          "indices": 183,
          "material": 25,
          "mode": 4
        }
      ]
    }
  ],
  "nodes": [
    {
      "children": [
        1
      ],
      "matrix": [
        -1.0,
        0.0,
        0.0,
        0.0,
        0.0,
        -2.220446049250313e-16,
        1.0,
        0.0,
        0.0,
        1.0,
        2.220446049250313e-16,
        0.0,
        -0.0028924942016601563,
        -2.4270035037677468e-17,
        0.10930252075195313,
        1.0
      ],
      "name": "Sketchfab_model"
    },
    {
      "children": [
        2,
        3,
        4,
        5,
        6,
        7,
        8,
        9,
        10,
        11,
        12,
        13,
        14,
        15,
        16,
        17,
        18,
        19,
        20,
        21,
        22,
        23,
        24,
        25,
        26,
        27,
        28,
        29,
        30,
        31,
        32,
        33,
        34,
        35,
        36,
        37,
        38,
        39,
        40,
        41,
        42,
        43,
        44,
        45,
        46,
        47
      ],
      "name": "GotG Warbird complete.obj.cleaner.materialmerger.gles"
    },
    {
      "mesh": 0,
      "name": "Object_2"
    },
    {
      "mesh": 1,
      "name": "Object_3"
    },
    {
      "mesh": 2,
      "name": "Object_4"
    },
    {
      "mesh": 3,
      "name": "Object_5"
    },
    {
      "mesh": 4,
      "name": "Object_6"
    },
    {
      "mesh": 5,
      "name": "Object_7"
    },
    {
      "mesh": 6,
      "name": "Object_8"
    },
    {
      "mesh": 7,
      "name": "Object_9"
    },
    {
      "mesh": 8,
      "name": "Object_10"
    },
    {
      "mesh": 9,
      "name": "Object_11"
    },
    {
      "mesh": 10,
      "name": "Object_12"
    },
    {
      "mesh": 11,
      "name": "Object_13"
    },
    {
      "mesh": 12,
      "name": "Object_14"
    },
    {
      "mesh": 13,
      "name": "Object_15"
    },
    {
      "mesh": 14,
      "name": "Object_16"
    },
    {
      "mesh": 15,
      "name": "Object_17"
    },
    {
      "mesh": 16,
      "name": "Object_18"
    },
    {
      "mesh": 17,
      "name": "Object_19"
    },
    {
      "mesh": 18,
      "name": "Object_20"
    },
    {
      "mesh": 19,
      "name": "Object_21"
    },
    {
      "mesh": 20,
      "name": "Object_22"
    },
    {
      "mesh": 21,
      "name": "Object_23"
    },
    {
      "mesh": 22,
      "name": "Object_24"
    },
    {
      "mesh": 23,
      "name": "Object_25"
    },
    {
      "mesh": 24,
      "name": "Object_26"
    },
    {
      "mesh": 25,
      "name": "Object_27"
    },
    {
      "mesh": 26,
      "name": "Object_28"
    },
    {
      "mesh": 27,
      "name": "Object_29"
    },
    {
      "mesh": 28,
      "name": "Object_30"
    },
    {
      "mesh": 29,
      "name": "Object_31"
    },
    {
      "mesh": 30,
      "name": "Object_32"
    },
    {
      "mesh": 31,
      "name": "Object_33"
    },
    {
      "mesh": 32,
      "name": "Object_34"
    },
    {
      "mesh": 33,
      "name": "Object_35"
    },
    {
      "mesh": 34,
      "name": "Object_36"
    },
    {
      "mesh": 35,
      "name": "Object_37"
    },
    {
      "mesh": 36,
      "name": "Object_38"
    },
    {
      "mesh": 37,
      "name": "Object_39"
    },
    {
      "mesh": 38,
      "name": "Object_40"
    },
    {
      "mesh": 39,
      "name": "Object_41"
    },
    {
      "mesh": 40,
      "name": "Object_42"
    },
    {
      "mesh": 41,
      "name": "Object_43"
    },
    {
      "mesh": 42,
      "name": "Object_44"
    },
    {
      "mesh": 43,
      "name": "Object_45"
    },
    {
      "mesh": 44,
      "name": "Object_46"
    },
    {
      "mesh": 45,
      "name": "Object_47"
    }
  ],
  "samplers": [
    {
      "magFilter": 9729,
      "minFilter": 9987,
      "wrapS": 10497,
      "wrapT": 10497
    }
  ],
  "scene": 0,
  "scenes": [
    {
      "name": "Sketchfab_Scene",
      "nodes": [
        0
      ]
    }
  ],
  "textures": [
    {
      "sampler": 0,
      "source": 0
    },
    {
      "sampler": 0,
      "source": 1
    }
  ]
}
