{
  "accessors": [
    {
      "bufferView": 2,
      "componentType": 5126,
      "count": 4819,
      "max": [
        1.5267499685287476,
        0.5536400079727173,
        0.2964800000190735
      ],
      "min": [
        -1.5267499685287476,
        -0.9498900175094604,
        -0.7986500263214111
      ],
      "type": "VEC3"
    },
    {
      "bufferView": 2,
      "byteOffset": 57828,
      "componentType": 5126,
      "count": 4819,
      "max": [
        0.9998307228088379,
        0.724435031414032,
        0.9999727606773376
      ],
      "min": [
        -0.999824047088623,
        -0.9785071611404419,
        -0.10297217965126038
      ],
      "type": "VEC3"
    },
    {
      "bufferView": 2,
      "byteOffset": 115656,
      "componentType": 5126,
      "count": 4819,
      "max": [
        1.0,
        1.0,
        1.0
      ],
      "min": [
        1.0,
        1.0,
        1.0
      ],
      "type": "VEC3"
    },
    {
      "bufferView": 1,
      "componentType": 5126,
      "count": 4819,
      "max": [
        2.9745900630950928,
        2.994999885559082
      ],
      "min": [
        -1.9950000047683716,
        -1.9950000047683716
      ],
      "type": "VEC2"
    },
    {
      "bufferView": 0,
      "componentType": 5125,
      "count": 22848,
      "type": "SCALAR"
    },
    {
      "bufferView": 2,
      "byteOffset": 173484,
      "componentType": 5126,
      "count": 3961,
      "max": [
        0.2858400046825409,
        0.9473400115966797,
        0.9624199867248535
      ],
      "min": [
        -0.2858400046825409,
        -0.9910100102424622,
        -0.9661999940872192
      ],
      "type": "VEC3"
    },
    {
      "bufferView": 2,
      "byteOffset": 221016,
      "componentType": 5126,
      "count": 3961,
      "max": [
        0.9525704979896545,
        0.9999932646751404,
        0.9999998211860657
      ],
      "min": [
        -0.9511315226554871,
        -0.9992668032646179,
        -0.8948831558227539
      ],
      "type": "VEC3"
    },
    {
      "bufferView": 2,
      "byteOffset": 268548,
      "componentType": 5126,
      "count": 3961,
      "max": [
        1.0,
        1.0,
        1.0
      ],
      "min": [
        0.9960799813270569,
        0.9960799813270569,
        0.9960799813270569
      ],
      "type": "VEC3"
    },
    {
      "bufferView": 1,
      "byteOffset": 38552,
      "componentType": 5126,
      "count": 3961,
      "max": [
        2.566420078277588,
        2.8509600162506104
      ],
      "min": [
        -1.9950000047683716,
        -1.9950000047683716
      ],
      "type": "VEC2"
    },
    {
      "bufferView": 0,
      "byteOffset": 91392,
      "componentType": 5125,
      "count": 18816,
      "type": "SCALAR"
    },
    {
      "bufferView": 2,
      "byteOffset": 316080,
      "componentType": 5126,
      "count": 2592,
      "max": [
        1.5151400566101074,
        0.8149700164794922,
        1.0785499811172485
      ],
      "min": [
        -1.5158799886703491,
        -0.735729992389679,
        -0.7967299818992615
      ],
      "type": "VEC3"
    },
    {
      "bufferView": 2,
      "byteOffset": 347184,
      "componentType": 5126,
      "count": 2592,
      "max": [
        0.998806893825531,
        0.9999963641166687,
        0.9999763369560242
      ],
      "min": [
        -0.998806893825531,
        -0.9989460706710815,
        -0.8535822033882141
      ],
      "type": "VEC3"
    },
    {
      "bufferView": 2,
      "byteOffset": 378288,
      "componentType": 5126,
      "count": 2592,
      "max": [
        1.0,
        1.0,
        1.0
      ],
      "min": [
        1.0,
        1.0,
        1.0
      ],
      "type": "VEC3"
    },
    {
      "bufferView": 1,
      "byteOffset": 70240,
      "componentType": 5126,
      "count": 2592,
      "max": [
        2.219480037689209,
        2.768660068511963
      ],
      "min": [
        -1.9950000047683716,
        -1.9950000047683716
      ],
      "type": "VEC2"
    },
    {
      "bufferView": 0,
      "byteOffset": 166656,
      "componentType": 5125,
      "count": 12288,
      "type": "SCALAR"
    },
    {
      "bufferView": 2,
      "byteOffset": 409392,
      "componentType": 5126,
      "count": 1814,
      "max": [
        0.513159990310669,
        0.6999199986457825,
        0.13097000122070313
      ],
      "min": [
        -0.5188699960708618,
        -0.9493399858474731,
        -1.273669958114624
      ],
      "type": "VEC3"
    },
    {
      "bufferView": 2,
      "byteOffset": 431160,
      "componentType": 5126,
      "count": 1814,
      "max": [
        0.8897557854652405,
        0.9987280964851379,
        0.9665782451629639
      ],
      "min": [
        -0.7992291450500488,
        -0.9946279525756836,
        -0.7523016333580017
      ],
      "type": "VEC3"
    },
    {
      "bufferView": 2,
      "byteOffset": 452928,
      "componentType": 5126,
      "count": 1814,
      "max": [
        1.0,
        1.0,
        1.0
      ],
      "min": [
        0.9960799813270569,
        0.9960799813270569,
        0.9960799813270569
      ],
      "type": "VEC3"
    },
    {
      "bufferView": 1,
      "byteOffset": 90976,
      "componentType": 5126,
      "count": 1814,
      "max": [
        1.0154000520706177,
        2.768660068511963
      ],
      "min": [
        -1.3419300317764282,
        -0.51350998878479
      ],
      "type": "VEC2"
    },
    {
      "bufferView": 0,
      "byteOffset": 215808,
      "componentType": 5125,
      "count": 8640,
      "type": "SCALAR"
    },
    {
      "bufferView": 2,
      "byteOffset": 474696,
      "componentType": 5126,
      "count": 65532,
      "max": [
        1.1134400367736816,
        0.9524800181388855,
        2.1396400928497314
      ],
      "min": [
        -1.6361099481582642,
        -1.0450700521469116,
        -1.4269499778747559
      ],
      "type": "VEC3"
    },
    {
      "bufferView": 2,
      "byteOffset": 1261080,
      "componentType": 5126,
      "count": 65532,
      "max": [
        1.0,
        0.9998196363449097,
        1.0
      ],
      "min": [
        -1.0,
        -1.0,
        -1.0
      ],
      "type": "VEC3"
    },
    {
      "bufferView": 2,
      "byteOffset": 2047464,
      "componentType": 5126,
      "count": 65532,
      "max": [
        1.0,
        1.0,
        1.0
      ],
      "min": [
        0.9960799813270569,
        0.9960799813270569,
        0.9960799813270569
      ],
      "type": "VEC3"
    },
    {
      "bufferView": 1,
      "byteOffset": 105488,
      "componentType": 5126,
      "count": 65532,
      "max": [
        2.9745900630950928,
        2.9744200706481934
      ],
      "min": [
        -1.9950000047683716,
        -1.9950000047683716
      ],
      "type": "VEC2"
    },
    {
      "bufferView": 0,
      "byteOffset": 250368,
      "componentType": 5125,
      "count": 310644,
      "type": "SCALAR"
    },
    {
      "bufferView": 2,
      "byteOffset": 2833848,
      "componentType": 5126,
      "count": 65532,
      "max": [
        1.6361099481582642,
        0.9524800181388855,
        2.1396400928497314
      ],
      "min": [
        -1.6361099481582642,
        -1.0450700521469116,
        -1.4269499778747559
      ],
      "type": "VEC3"
    },
    {
      "bufferView": 2,
      "byteOffset": 3620232,
      "componentType": 5126,
      "count": 65532,
      "max": [
        1.0,
        0.999999463558197,
        1.0
      ],
      "min": [
        -1.0,
        -1.0,
        -1.0
      ],
      "type": "VEC3"
    },
    {
      "bufferView": 2,
      "byteOffset": 4406616,
      "componentType": 5126,
      "count": 65532,
      "max": [
        1.0,
        1.0,
        1.0
      ],
      "min": [
        0.9960799813270569,
        0.9960799813270569,
        0.9960799813270569
      ],
      "type": "VEC3"
    },
    {
      "bufferView": 1,
      "byteOffset": 629744,
      "componentType": 5126,
      "count": 65532,
      "max": [
        2.994999885559082,
        2.994999885559082
      ],
      "min": [
        -1.9950000047683716,
        -1.9950000047683716
      ],
      "type": "VEC2"
    },
    {
      "bufferView": 0,
      "byteOffset": 1492944,
      "componentType": 5125,
      "count": 310569,
      "type": "SCALAR"
    },
    {
      "bufferView": 2,
      "byteOffset": 5193000,
      "componentType": 5126,
      "count": 791,
      "max": [
        0.7428100109100342,
        0.9325799942016602,
        -0.34463000297546387
      ],
      "min": [
        0.3177100121974945,
        0.5072399973869324,
        -1.0881999731063843
      ],
      "type": "VEC3"
    },
    {
      "bufferView": 2,
      "byteOffset": 5202492,
      "componentType": 5126,
      "count": 791,
      "max": [
        0.6817008852958679,
        0.9669701457023621,
        0.9999960064888
      ],
      "min": [
        -0.6593871116638184,
        -0.5750804543495178,
        -0.7901194095611572
      ],
      "type": "VEC3"
    },
    {
      "bufferView": 2,
      "byteOffset": 5211984,
      "componentType": 5126,
      "count": 791,
      "max": [
        1.0,
        1.0,
        1.0
      ],
      "min": [
        1.0,
        1.0,
        1.0
      ],
      "type": "VEC3"
    },
    {
      "bufferView": 1,
      "byteOffset": 1154000,
      "componentType": 5126,
      "count": 791,
      "max": [
        -0.12745000422000885,
        1.287179946899414
      ],
      "min": [
        -1.750100016593933,
        -1.8303899765014648
      ],
      "type": "VEC2"
    },
    {
      "bufferView": 0,
      "byteOffset": 2735220,
      "componentType": 5125,
      "count": 3699,
      "type": "SCALAR"
    }
  ],
  "asset": {
    "extras": {
      "author": "aung (https://sketchfab.com/aung)",
      "license": "CC-BY-4.0 (http://creativecommons.org/licenses/by/4.0/)",
      "source": "https://sketchfab.com/3d-models/space-ship-788a90ba58eb45c3898c59c404fb263c",
      "title": "Space Ship"
    },
    "generator": "Sketchfab-12.68.0",
    "version": "2.0"
  },
  "bufferViews": [
    {
      "buffer": 0,
      "byteLength": 2750016,
      "name": "floatBufferViews",
      "target": 34963
    },
    {
      "buffer": 0,
      "byteLength": 1160328,
      "byteOffset": 2750016,
      "byteStride": 8,
      "name": "floatBufferViews",
      "target": 34962
    },
    {
      "buffer": 0,
      "byteLength": 5221476,
      "byteOffset": 3910344,
      "byteStride": 12,
      "name": "floatBufferViews",
      "target": 34962
    }
  ],
  "buffers": [
    {
      "byteLength": 9131820,
      "uri": "scene.bin"
    }
  ],
  "extensionsRequired": [
    "KHR_materials_pbrSpecularGlossiness"
  ],
  "extensionsUsed": [
    "KHR_materials_pbrSpecularGlossiness"
  ],
  "materials": [
    {
      "alphaMode": "BLEND",
      "doubleSided": true,
      "emissiveFactor": [
        0.02856192670210524,
        0.6872267993601548,
        1.0
      ],
      "extensions": {
        "KHR_materials_pbrSpecularGlossiness": {
          "diffuseFactor": [
            0.0693571372228666,
            0.06812398106835842,
            0.06812398106835842,
            0.91
          ],
          "glossinessFactor": 0.9034482836723328,
          "specularFactor": [
            0.08379144221544264,
            0.12727873027324668,
            0.3843747973442077
          ]
        }
      },
      "name": "Material.005"
    },
    {
      "doubleSided": true,
      "extensions": {
        "KHR_materials_pbrSpecularGlossiness": {
          "diffuseFactor": [
            0.0,
            0.2350930710168809,
            1.0,
            1.0
          ],
          "glossinessFactor": 0.93,
          "specularFactor": [
            0.17901507171454967,
            0.0,
            1.0
          ]
        }
      },
      "name": "Material.002"
    },
    {
      "doubleSided": true,
      "extensions": {
        "KHR_materials_pbrSpecularGlossiness": {
          "diffuseFactor": [
            0.2438378681299503,
            0.2438378681299503,
            0.2438378681299503,
            1.0
          ],
          "glossinessFactor": 1.0,
          "specularFactor": [
            0.06725368186183119,
            0.06725368186183119,
            0.06725368186183119
          ]
        }
      },
      "name": "Material.008"
    },
    {
      "emissiveFactor": [
        0.4355165675126476,
        1.0,
        1.0
      ],
      "extensions": {
        "KHR_materials_pbrSpecularGlossiness": {
          "diffuseFactor": [
            0.0,
            0.025746366774050206,
            0.9700679790705267,
            1.0
          ],
          "glossinessFactor": 0.4,
          "specularFactor": [
            0.0,
            0.09250664767674631,
            1.0
          ]
        }
      },
      "name": "Material.003"
    },
    {
      "doubleSided": true,
      "extensions": {
        "KHR_materials_pbrSpecularGlossiness": {
          "diffuseFactor": [
            0.06725368186183119,
            0.06725368186183119,
            0.06725368186183119,
            1.0
          ],
          "glossinessFactor": 0.95,
          "specularFactor": [
            0.1883312463760376,
            0.1883312463760376,
            0.1883312463760376
          ]
        }
      },
      "name": "Material.004"
    }
  ],
  "meshes": [
    {
      "name": "newss_0",
      "primitives": [
        {
          "attributes": {
            "COLOR_0": 2,
            "NORMAL": 1,
            "POSITION": 0,
            "TEXCOORD_0": 3
          },
          "indices": 4,
          "material": 0,
          "mode": 4
        }
      ]
    },
    {
      "name": "newss_1",
      "primitives": [
        {
          "attributes": {
            "COLOR_0": 7,
            "NORMAL": 6,
            "POSITION": 5,
            "TEXCOORD_0": 8
          },
          "indices": 9,
          "material": 1,
          "mode": 4
        }
      ]
    },
    {
      "name": "newss_2",
      "primitives": [
        {
          "attributes": {
            "COLOR_0": 12,
            "NORMAL": 11,
            "POSITION": 10,
            "TEXCOORD_0": 13
          },
          "indices": 14,
          "material": 2,
          "mode": 4
        }
      ]
    },
    {
      "name": "newss_3",
      "primitives": [
        {
          "attributes": {
            "COLOR_0": 17,
            "NORMAL": 16,
            "POSITION": 15,
            "TEXCOORD_0": 18
          },
          "indices": 19,
          "material": 3,
          "mode": 4
        }
      ]
    },
    {
      "name": "newss_4",
      "primitives": [
        {
          "attributes": {
            "COLOR_0": 22,
            "NORMAL": 21,
            "POSITION": 20,
            "TEXCOORD_0": 23
          },
          "indices": 24,
          "material": 4,
          "mode": 4
        }
      ]
    },
    {
      "name": "newss_4",
      "primitives": [
        {
          "attributes": {
            "COLOR_0": 27,
            "NORMAL": 26,
            "POSITION": 25,
            "TEXCOORD_0": 28
          },
          "indices": 29,
          "material": 4,
          "mode": 4
        }
      ]
    },
    {
      "name": "newss_4",
      "primitives": [
        {
          "attributes": {
            "COLOR_0": 32,
            "NORMAL": 31,
            "POSITION": 30,
            "TEXCOORD_0": 33
          },
          "indices": 34,
          "material": 4,
          "mode": 4
        }
      ]
    }
  ],
  "nodes": [
    {
      "children": [
        1
      ],
      "matrix": [
        -2.9213001680498344e-16,
        2.9213001680498344e-16,
        -1.3156366348266602,
        0.0,
        -1.3156366348266602,
        -6.48658941682053e-32,
        2.9213001680498344e-16,
        0.0,
        0.0,
        1.3156366348266602,
        2.9213001680498344e-16,
        0.0,
        -0.11476367712020874,
        2.5030162735415722e-17,
        -0.11272583156824112,
        1.0
      ],
      "name": "Sketchfab_model"
    },
    {
      "children": [
        2
      ],
      "name": "Root"
    },
    {
      "children": [
        3,
        4,
        5,
        6,
        7,
        8,
        9
      ],
      "matrix": [
        0.0,
        -1.2053099999999999,
        -0.0,
        0.0,
        2.2675100000000006,
        0.0,
        0.0,
        0.0,
        -0.0,
        -0.0,
        0.3479300000000001,
        0.0,
        -0.008770000000000003,
        -0.0010200000000000003,
        1.04715,
        1.0
      ],
      "name": "newss"
    },
    {
      "mesh": 0,
      "name": "newss_0"
    },
    {
      "mesh": 1,
      "name": "newss_1"
    },
    {
      "mesh": 2,
      "name": "newss_2"
    },
    {
      "mesh": 3,
      "name": "newss_3"
    },
    {
      "mesh": 4,
      "name": "newss_4"
    },
    {
      "mesh": 5,
      "name": "newss_4"
    },
    {
      "mesh": 6,
      "name": "newss_4"
    }
  ],
  "scene": 0,
  "scenes": [
    {
      "name": "Sketchfab_Scene",
      "nodes": [
        0
      ]
    }
  ]
}
