{
  "accessors": [
    {
      "bufferView": 2,
      "componentType": 5126,
      "count": 334,
      "max": [
        2.085052013397217,
        3.1421985626220703,
        2.5504672527313232
      ],
      "min": [
        -2.085052013397217,
        -3.212031126022339,
        -1.2083522081375122
      ],
      "type": "VEC3"
    },
    {
      "bufferView": 2,
      "byteOffset": 4008,
      "componentType": 5126,
      "count": 334,
      "max": [
        0.9929049015045166,
        0.9999682307243347,
        0.9598232507705688
      ],
      "min": [
        -0.9929049015045166,
        -0.9978340268135071,
        -0.9861546754837036
      ],
      "type": "VEC3"
    },
    {
      "bufferView": 1,
      "componentType": 5126,
      "count": 334,
      "max": [
        0.5370159149169922,
        0.46267566084861755
      ],
      "min": [
        0.5238605737686157,
        0.44608601927757263
      ],
      "type": "VEC2"
    },
    {
      "bufferView": 0,
      "componentType": 5125,
      "count": 912,
      "type": "SCALAR"
    },
    {
      "bufferView": 2,
      "byteOffset": 8016,
      "componentType": 5126,
      "count": 156,
      "max": [
        1.0452739000320435,
        8.733979225158691,
        2.838935136795044
      ],
      "min": [
        -1.0452739000320435,
        2.7532105445861816,
        0.11799098551273346
      ],
      "type": "VEC3"
    },
    {
      "bufferView": 2,
      "byteOffset": 9888,
      "componentType": 5126,
      "count": 156,
      "max": [
        0.9895505309104919,
        0.945539116859436,
        0.9974042177200317
      ],
      "min": [
        -0.9895505309104919,
        -0.7193344831466675,
        -0.9924390316009521
      ],
      "type": "VEC3"
    },
    {
      "bufferView": 1,
      "byteOffset": 2672,
      "componentType": 5126,
      "count": 156,
      "max": [
        0.13141490519046783,
        0.8737743496894836
      ],
      "min": [
        0.12482062727212906,
        0.8707184195518494
      ],
      "type": "VEC2"
    },
    {
      "bufferView": 0,
      "byteOffset": 3648,
      "componentType": 5125,
      "count": 396,
      "type": "SCALAR"
    },
    {
      "bufferView": 2,
      "byteOffset": 11760,
      "componentType": 5126,
      "count": 228,
      "max": [
        2.667600154876709,
        5.356449127197266,
        2.2515528202056885
      ],
      "min": [
        -2.667600154876709,
        1.2329254150390625,
        1.04813551902771
      ],
      "type": "VEC3"
    },
    {
      "bufferView": 2,
      "byteOffset": 14496,
      "componentType": 5126,
      "count": 228,
      "max": [
        0.9997966885566711,
        0.9812945127487183,
        0.9914804697036743
      ],
      "min": [
        -0.9997966885566711,
        -0.9924355149269104,
        -0.9817667603492737
      ],
      "type": "VEC3"
    },
    {
      "bufferView": 1,
      "byteOffset": 3920,
      "componentType": 5126,
      "count": 228,
      "max": [
        0.4475621283054352,
        0.625738263130188
      ],
      "min": [
        0.3044276535511017,
        0.5424509048461914
      ],
      "type": "VEC2"
    },
    {
      "bufferView": 0,
      "byteOffset": 5232,
      "componentType": 5125,
      "count": 648,
      "type": "SCALAR"
    },
    {
      "bufferView": 2,
      "byteOffset": 17232,
      "componentType": 5126,
      "count": 44,
      "max": [
        0.035253383219242096,
        10.384881973266602,
        3.1069207191467285
      ],
      "min": [
        -0.035253383219242096,
        8.613807678222656,
        2.4328482151031494
      ],
      "type": "VEC3"
    },
    {
      "bufferView": 2,
      "byteOffset": 17760,
      "componentType": 5126,
      "count": 44,
      "max": [
        1.0,
        0.9554842710494995,
        0.9999686479568481
      ],
      "min": [
        -1.0,
        -0.9774266481399536,
        -0.984948456287384
      ],
      "type": "VEC3"
    },
    {
      "bufferView": 1,
      "byteOffset": 5744,
      "componentType": 5126,
      "count": 44,
      "max": [
        0.1684727668762207,
        0.9120416641235352
      ],
      "min": [
        0.1597478985786438,
        0.9020053744316101
      ],
      "type": "VEC2"
    },
    {
      "bufferView": 0,
      "byteOffset": 7824,
      "componentType": 5125,
      "count": 84,
      "type": "SCALAR"
    },
    {
      "bufferView": 2,
      "byteOffset": 18288,
      "componentType": 5126,
      "count": 162,
      "max": [
        0.8959527015686035,
        9.402582168579102,
        2.7575085163116455
      ],
      "min": [
        -0.8959527015686035,
        7.509544372558594,
        2.5613059997558594
      ],
      "type": "VEC3"
    },
    {
      "bufferView": 2,
      "byteOffset": 20232,
      "componentType": 5126,
      "count": 162,
      "max": [
        0.9881154894828796,
        0.9486585855484009,
        0.9850028157234192
      ],
      "min": [
        -0.9881154894828796,
        -0.9495019912719727,
        -0.99736487865448
      ],
      "type": "VEC3"
    },
    {
      "bufferView": 1,
      "byteOffset": 6096,
      "componentType": 5126,
      "count": 162,
      "max": [
        0.15927474200725555,
        0.8738320469856262
      ],
      "min": [
        0.11791069805622101,
        0.8500332236289978
      ],
      "type": "VEC2"
    },
    {
      "bufferView": 0,
      "byteOffset": 8160,
      "componentType": 5125,
      "count": 354,
      "type": "SCALAR"
    },
    {
      "bufferView": 2,
      "byteOffset": 22176,
      "componentType": 5126,
      "count": 168,
      "max": [
        2.2046573162078857,
        1.489693522453308,
        1.756873369216919
      ],
      "min": [
        -2.2046573162078857,
        1.2922691106796265,
        1.2447224855422974
      ],
      "type": "VEC3"
    },
    {
      "bufferView": 2,
      "byteOffset": 24192,
      "componentType": 5126,
      "count": 168,
      "max": [
        0.9202818274497986,
        -0.2862384617328644,
        0.8063080906867981
      ],
      "min": [
        -0.9202815890312195,
        -0.9873292446136475,
        -0.9472243189811707
      ],
      "type": "VEC3"
    },
    {
      "bufferView": 1,
      "byteOffset": 7392,
      "componentType": 5126,
      "count": 168,
      "max": [
        0.3899860978126526,
        0.5643509030342102
      ],
      "min": [
        0.3393312096595764,
        0.5415043830871582
      ],
      "type": "VEC2"
    },
    {
      "bufferView": 0,
      "byteOffset": 9576,
      "componentType": 5125,
      "count": 492,
      "type": "SCALAR"
    },
    {
      "bufferView": 2,
      "byteOffset": 26208,
      "componentType": 5126,
      "count": 498,
      "max": [
        2.1452629566192627,
        3.2698917388916016,
        2.7807059288024902
      ],
      "min": [
        -2.1452629566192627,
        -3.445674419403076,
        0.45281368494033813
      ],
      "type": "VEC3"
    },
    {
      "bufferView": 2,
      "byteOffset": 32184,
      "componentType": 5126,
      "count": 498,
      "max": [
        0.9721835851669312,
        0.9467803835868835,
        0.9976454973220825
      ],
      "min": [
        -0.9721835851669312,
        -0.9982144236564636,
        -0.997211754322052
      ],
      "type": "VEC3"
    },
    {
      "bufferView": 1,
      "byteOffset": 8736,
      "componentType": 5126,
      "count": 498,
      "max": [
        0.6852418780326843,
        0.6773543953895569
      ],
      "min": [
        0.40534889698028564,
        0.4282352328300476
      ],
      "type": "VEC2"
    },
    {
      "bufferView": 0,
      "byteOffset": 11544,
      "componentType": 5125,
      "count": 1392,
      "type": "SCALAR"
    },
    {
      "bufferView": 2,
      "byteOffset": 38160,
      "componentType": 5126,
      "count": 434,
      "max": [
        2.117032051086426,
        4.641969680786133,
        2.762953042984009
      ],
      "min": [
        -2.117032051086426,
        3.0661144256591797,
        1.8131587505340576
      ],
      "type": "VEC3"
    },
    {
      "bufferView": 2,
      "byteOffset": 43368,
      "componentType": 5126,
      "count": 434,
      "max": [
        0.993326723575592,
        0.9960765242576599,
        0.9935569763183594
      ],
      "min": [
        -0.993326723575592,
        -0.9983932375907898,
        -0.993503212928772
      ],
      "type": "VEC3"
    },
    {
      "bufferView": 1,
      "byteOffset": 12720,
      "componentType": 5126,
      "count": 434,
      "max": [
        0.4013538956642151,
        0.743314802646637
      ],
      "min": [
        0.3528350293636322,
        0.7062012553215027
      ],
      "type": "VEC2"
    },
    {
      "bufferView": 0,
      "byteOffset": 17112,
      "componentType": 5125,
      "count": 1032,
      "type": "SCALAR"
    },
    {
      "bufferView": 2,
      "byteOffset": 48576,
      "componentType": 5126,
      "count": 48,
      "max": [
        1.1879609823226929,
        -1.8761993646621704,
        0.4599790871143341
      ],
      "min": [
        -1.1879609823226929,
        -2.3854880332946777,
        0.2174122929573059
      ],
      "type": "VEC3"
    },
    {
      "bufferView": 2,
      "byteOffset": 49152,
      "componentType": 5126,
      "count": 48,
      "max": [
        0.9974910020828247,
        0.7156434655189514,
        0.9415733814239502
      ],
      "min": [
        -0.9974910020828247,
        -0.9709944128990173,
        -0.9866722226142883
      ],
      "type": "VEC3"
    },
    {
      "bufferView": 1,
      "byteOffset": 16192,
      "componentType": 5126,
      "count": 48,
      "max": [
        0.5740216374397278,
        0.33627763390541077
      ],
      "min": [
        0.5627485513687134,
        0.3290976583957672
      ],
      "type": "VEC2"
    },
    {
      "bufferView": 0,
      "byteOffset": 21240,
      "componentType": 5125,
      "count": 72,
      "type": "SCALAR"
    },
    {
      "bufferView": 2,
      "byteOffset": 49728,
      "componentType": 5126,
      "count": 168,
      "max": [
        1.5440242290496826,
        3.7583420276641846,
        2.0357584953308105
      ],
      "min": [
        -1.5440242290496826,
        2.9561595916748047,
        0.3397289514541626
      ],
      "type": "VEC3"
    },
    {
      "bufferView": 2,
      "byteOffset": 51744,
      "componentType": 5126,
      "count": 168,
      "max": [
        0.983188271522522,
        0.9876835942268372,
        0.9789475202560425
      ],
      "min": [
        -0.983188271522522,
        -0.9991217255592346,
        -0.8408406376838684
      ],
      "type": "VEC3"
    },
    {
      "bufferView": 1,
      "byteOffset": 16576,
      "componentType": 5126,
      "count": 168,
      "max": [
        0.5000530481338501,
        0.510658323764801
      ],
      "min": [
        0.5000530481338501,
        0.510658323764801
      ],
      "type": "VEC2"
    },
    {
      "bufferView": 0,
      "byteOffset": 21528,
      "componentType": 5125,
      "count": 312,
      "type": "SCALAR"
    },
    {
      "bufferView": 2,
      "byteOffset": 53760,
      "componentType": 5126,
      "count": 172,
      "max": [
        1.6327464580535889,
        4.158982276916504,
        1.5120491981506348
      ],
      "min": [
        -1.6327464580535889,
        2.303001642227173,
        0.11048978567123413
      ],
      "type": "VEC3"
    },
    {
      "bufferView": 2,
      "byteOffset": 55824,
      "componentType": 5126,
      "count": 172,
      "max": [
        0.7696409821510315,
        0.798327624797821,
        0.6359593868255615
      ],
      "min": [
        -0.7696409821510315,
        -0.5908629298210144,
        -0.8556493520736694
      ],
      "type": "VEC3"
    },
    {
      "bufferView": 1,
      "byteOffset": 17920,
      "componentType": 5126,
      "count": 172,
      "max": [
        0.5375111699104309,
        0.6607954502105713
      ],
      "min": [
        0.46752500534057617,
        0.5707154870033264
      ],
      "type": "VEC2"
    },
    {
      "bufferView": 0,
      "byteOffset": 22776,
      "componentType": 5125,
      "count": 432,
      "type": "SCALAR"
    },
    {
      "bufferView": 2,
      "byteOffset": 57888,
      "componentType": 5126,
      "count": 224,
      "max": [
        1.908837914466858,
        1.6588935852050781,
        1.8169200420379639
      ],
      "min": [
        -1.908837914466858,
        0.05004606023430824,
        1.0267295837402344
      ],
      "type": "VEC3"
    },
    {
      "bufferView": 2,
      "byteOffset": 60576,
      "componentType": 5126,
      "count": 224,
      "max": [
        0.9877633452415466,
        0.9809502363204956,
        0.9810332655906677
      ],
      "min": [
        -0.9877633452415466,
        -0.9809662103652954,
        -0.9810332655906677
      ],
      "type": "VEC3"
    },
    {
      "bufferView": 1,
      "byteOffset": 19296,
      "componentType": 5126,
      "count": 224,
      "max": [
        0.4955518841743469,
        0.5262479782104492
      ],
      "min": [
        0.48222312331199646,
        0.5168557167053223
      ],
      "type": "VEC2"
    },
    {
      "bufferView": 0,
      "byteOffset": 24504,
      "componentType": 5125,
      "count": 528,
      "type": "SCALAR"
    },
    {
      "bufferView": 2,
      "byteOffset": 63264,
      "componentType": 5126,
      "count": 712,
      "max": [
        0.7672765851020813,
        -1.7781729698181152,
        0.5955510139465332
      ],
      "min": [
        -0.7672765851020813,
        -3.4187171459198,
        -0.9462044835090637
      ],
      "type": "VEC3"
    },
    {
      "bufferView": 2,
      "byteOffset": 71808,
      "componentType": 5126,
      "count": 712,
      "max": [
        1.0,
        0.9999871850013733,
        0.9999871850013733
      ],
      "min": [
        -1.0,
        -0.9999873042106628,
        -0.9999871850013733
      ],
      "type": "VEC3"
    },
    {
      "bufferView": 1,
      "byteOffset": 21088,
      "componentType": 5126,
      "count": 712,
      "max": [
        0.7611500024795532,
        0.37416863441467285
      ],
      "min": [
        0.7112864255905151,
        0.2655062973499298
      ],
      "type": "VEC2"
    },
    {
      "bufferView": 0,
      "byteOffset": 26616,
      "componentType": 5125,
      "count": 1716,
      "type": "SCALAR"
    },
    {
      "bufferView": 2,
      "byteOffset": 80352,
      "componentType": 5126,
      "count": 664,
      "max": [
        1.2754809856414795,
        2.2673280239105225,
        -0.33877792954444885
      ],
      "min": [
        -1.2754809856414795,
        -3.436551332473755,
        -1.2727097272872925
      ],
      "type": "VEC3"
    },
    {
      "bufferView": 2,
      "byteOffset": 88320,
      "componentType": 5126,
      "count": 664,
      "max": [
        0.9909164309501648,
        0.984178900718689,
        0.9999529123306274
      ],
      "min": [
        -0.9909164309501648,
        -0.9997556209564209,
        -0.9999517798423767
      ],
      "type": "VEC3"
    },
    {
      "bufferView": 1,
      "byteOffset": 26784,
      "componentType": 5126,
      "count": 664,
      "max": [
        0.534965455532074,
        0.679493248462677
      ],
      "min": [
        0.3212754428386688,
        0.41285136342048645
      ],
      "type": "VEC2"
    },
    {
      "bufferView": 0,
      "byteOffset": 33480,
      "componentType": 5125,
      "count": 1908,
      "type": "SCALAR"
    },
    {
      "bufferView": 2,
      "byteOffset": 96288,
      "componentType": 5126,
      "count": 40,
      "max": [
        2.151604413986206,
        2.278848886489868,
        0.7657424807548523
      ],
      "min": [
        -2.151604413986206,
        1.0444570779800415,
        -0.0774899572134018
      ],
      "type": "VEC3"
    },
    {
      "bufferView": 2,
      "byteOffset": 96768,
      "componentType": 5126,
      "count": 40,
      "max": [
        0.9808436036109924,
        0.8112508058547974,
        0.9781315326690674
      ],
      "min": [
        -0.9808436036109924,
        -0.9562225341796875,
        -0.1694430410861969
      ],
      "type": "VEC3"
    },
    {
      "bufferView": 1,
      "byteOffset": 32096,
      "componentType": 5126,
      "count": 40,
      "max": [
        0.5000530481338501,
        0.510658323764801
      ],
      "min": [
        0.5000530481338501,
        0.510658323764801
      ],
      "type": "VEC2"
    },
    {
      "bufferView": 0,
      "byteOffset": 41112,
      "componentType": 5125,
      "count": 60,
      "type": "SCALAR"
    },
    {
      "bufferView": 2,
      "byteOffset": 97248,
      "componentType": 5126,
      "count": 112,
      "max": [
        0.5984089374542236,
        -0.2553105056285858,
        2.0341458320617676
      ],
      "min": [
        -0.5984089374542236,
        -2.0497329235076904,
        1.2038861513137817
      ],
      "type": "VEC3"
    },
    {
      "bufferView": 2,
      "byteOffset": 98592,
      "componentType": 5126,
      "count": 112,
      "max": [
        0.786759614944458,
        -0.20518793165683746,
        0.9694584608078003
      ],
      "min": [
        -0.7867596745491028,
        -0.7844372391700745,
        0.4511163830757141
      ],
      "type": "VEC3"
    },
    {
      "bufferView": 1,
      "byteOffset": 32416,
      "componentType": 5126,
      "count": 112,
      "max": [
        0.6857512593269348,
        0.5781970024108887
      ],
      "min": [
        0.5998783111572266,
        0.42723947763442993
      ],
      "type": "VEC2"
    },
    {
      "bufferView": 0,
      "byteOffset": 41352,
      "componentType": 5125,
      "count": 306,
      "type": "SCALAR"
    },
    {
      "bufferView": 2,
      "byteOffset": 99936,
      "componentType": 5126,
      "count": 88,
      "max": [
        1.512967824935913,
        9.172380447387695,
        2.749073028564453
      ],
      "min": [
        -1.512967824935913,
        8.288040161132813,
        1.8931474685668945
      ],
      "type": "VEC3"
    },
    {
      "bufferView": 2,
      "byteOffset": 100992,
      "componentType": 5126,
      "count": 88,
      "max": [
        0.9923549294471741,
        0.9999963045120239,
        0.9999895095825195
      ],
      "min": [
        -0.9923549294471741,
        -0.999998152256012,
        -0.9999884366989136
      ],
      "type": "VEC3"
    },
    {
      "bufferView": 1,
      "byteOffset": 33312,
      "componentType": 5126,
      "count": 88,
      "max": [
        0.46813321113586426,
        0.547218918800354
      ],
      "min": [
        0.4573293924331665,
        0.5400363206863403
      ],
      "type": "VEC2"
    },
    {
      "bufferView": 0,
      "byteOffset": 42576,
      "componentType": 5125,
      "count": 324,
      "type": "SCALAR"
    },
    {
      "bufferView": 2,
      "byteOffset": 102048,
      "componentType": 5126,
      "count": 68,
      "max": [
        1.753068447113037,
        1.533920168876648,
        0.6074742078781128
      ],
      "min": [
        -1.753068447113037,
        0.7704329490661621,
        0.1076081395149231
      ],
      "type": "VEC3"
    },
    {
      "bufferView": 2,
      "byteOffset": 102864,
      "componentType": 5126,
      "count": 68,
      "max": [
        0.9850546717643738,
        0.9864143133163452,
        0.9891290068626404
      ],
      "min": [
        -0.9850546717643738,
        -0.9499829411506653,
        -0.9996975660324097
      ],
      "type": "VEC3"
    },
    {
      "bufferView": 1,
      "byteOffset": 34016,
      "componentType": 5126,
      "count": 68,
      "max": [
        0.3133535087108612,
        0.7074814438819885
      ],
      "min": [
        0.3133535087108612,
        0.7074814438819885
      ],
      "type": "VEC2"
    },
    {
      "bufferView": 0,
      "byteOffset": 43872,
      "componentType": 5125,
      "count": 144,
      "type": "SCALAR"
    },
    {
      "bufferView": 2,
      "byteOffset": 103680,
      "componentType": 5126,
      "count": 24,
      "max": [
        0.6458758115768433,
        4.843407154083252,
        1.7372339963912964
      ],
      "min": [
        -0.6458758115768433,
        3.5889670848846436,
        0.789703369140625
      ],
      "type": "VEC3"
    },
    {
      "bufferView": 2,
      "byteOffset": 103968,
      "componentType": 5126,
      "count": 24,
      "max": [
        0.995759129524231,
        0.8668476343154907,
        0.7834956049919128
      ],
      "min": [
        -0.9962722659111023,
        -0.6213973164558411,
        -0.9757980704307556
      ],
      "type": "VEC3"
    },
    {
      "bufferView": 1,
      "byteOffset": 34560,
      "componentType": 5126,
      "count": 24,
      "max": [
        0.3465992510318756,
        0.7331972718238831
      ],
      "min": [
        0.3261900842189789,
        0.7179151773452759
      ],
      "type": "VEC2"
    },
    {
      "bufferView": 0,
      "byteOffset": 44448,
      "componentType": 5125,
      "count": 36,
      "type": "SCALAR"
    },
    {
      "bufferView": 2,
      "byteOffset": 104256,
      "componentType": 5126,
      "count": 96,
      "max": [
        0.8483632802963257,
        -3.1543145179748535,
        -0.5838672518730164
      ],
      "min": [
        -0.8483632802963257,
        -3.262773036956787,
        -1.0967495441436768
      ],
      "type": "VEC3"
    },
    {
      "bufferView": 2,
      "byteOffset": 105408,
      "componentType": 5126,
      "count": 96,
      "max": [
        0.7993150949478149,
        0.9965806007385254,
        0.8897760510444641
      ],
      "min": [
        -0.799315333366394,
        -0.9965804219245911,
        -0.8897766470909119
      ],
      "type": "VEC3"
    },
    {
      "bufferView": 1,
      "byteOffset": 34752,
      "componentType": 5126,
      "count": 96,
      "max": [
        0.8395488262176514,
        0.6369926929473877
      ],
      "min": [
        0.8345400094985962,
        0.6320852041244507
      ],
      "type": "VEC2"
    },
    {
      "bufferView": 0,
      "byteOffset": 44592,
      "componentType": 5125,
      "count": 240,
      "type": "SCALAR"
    },
    {
      "bufferView": 2,
      "byteOffset": 106560,
      "componentType": 5126,
      "count": 24,
      "max": [
        0.24062973260879517,
        3.522989273071289,
        1.0848268270492554
      ],
      "min": [
        -0.24062971770763397,
        2.2701144218444824,
        -0.2844202518463135
      ],
      "type": "VEC3"
    },
    {
      "bufferView": 2,
      "byteOffset": 106848,
      "componentType": 5126,
      "count": 24,
      "max": [
        0.9985684156417847,
        0.9378383159637451,
        0.86156165599823
      ],
      "min": [
        -0.9985684156417847,
        -1.0,
        -0.8615617752075195
      ],
      "type": "VEC3"
    },
    {
      "bufferView": 1,
      "byteOffset": 35520,
      "componentType": 5126,
      "count": 24,
      "max": [
        0.4769813120365143,
        0.5519327521324158
      ],
      "min": [
        0.4639624059200287,
        0.5299273729324341
      ],
      "type": "VEC2"
    },
    {
      "bufferView": 0,
      "byteOffset": 45552,
      "componentType": 5125,
      "count": 36,
      "type": "SCALAR"
    },
    {
      "bufferView": 2,
      "byteOffset": 107136,
      "componentType": 5126,
      "count": 48,
      "max": [
        0.29953432083129883,
        3.4016525745391846,
        0.6945803165435791
      ],
      "min": [
        -0.2995343804359436,
        3.029816150665283,
        0.17422232031822205
      ],
      "type": "VEC3"
    },
    {
      "bufferView": 2,
      "byteOffset": 107712,
      "componentType": 5126,
      "count": 48,
      "max": [
        1.0,
        0.9493876695632935,
        0.9493874907493591
      ],
      "min": [
        -1.0,
        -0.9493876695632935,
        -0.9493874907493591
      ],
      "type": "VEC3"
    },
    {
      "bufferView": 1,
      "byteOffset": 35712,
      "componentType": 5126,
      "count": 48,
      "max": [
        0.37299472093582153,
        0.7158658504486084
      ],
      "min": [
        0.3641453981399536,
        0.7081631422042847
      ],
      "type": "VEC2"
    },
    {
      "bufferView": 0,
      "byteOffset": 45696,
      "componentType": 5125,
      "count": 72,
      "type": "SCALAR"
    },
    {
      "bufferView": 2,
      "byteOffset": 108288,
      "componentType": 5126,
      "count": 128,
      "max": [
        2.678766965866089,
        2.435635805130005,
        2.0535831451416016
      ],
      "min": [
        -2.678766965866089,
        1.9456466436386108,
        1.170642614364624
      ],
      "type": "VEC3"
    },
    {
      "bufferView": 2,
      "byteOffset": 109824,
      "componentType": 5126,
      "count": 128,
      "max": [
        0.9933264851570129,
        0.9944687485694885,
        0.9905784726142883
      ],
      "min": [
        -0.9933264851570129,
        -0.9968373775482178,
        -0.9897505044937134
      ],
      "type": "VEC3"
    },
    {
      "bufferView": 1,
      "byteOffset": 36096,
      "componentType": 5126,
      "count": 128,
      "max": [
        0.27303582429885864,
        0.6382297277450562
      ],
      "min": [
        0.26384437084198,
        0.6308503150939941
      ],
      "type": "VEC2"
    },
    {
      "bufferView": 0,
      "byteOffset": 45984,
      "componentType": 5125,
      "count": 336,
      "type": "SCALAR"
    },
    {
      "bufferView": 2,
      "byteOffset": 111360,
      "componentType": 5126,
      "count": 48,
      "max": [
        0.9299600720405579,
        0.4288487434387207,
        -0.8533189296722412
      ],
      "min": [
        -0.9299600720405579,
        0.11830992996692657,
        -1.2278740406036377
      ],
      "type": "VEC3"
    },
    {
      "bufferView": 2,
      "byteOffset": 111936,
      "componentType": 5126,
      "count": 48,
      "max": [
        0.7659302353858948,
        0.9913203120231628,
        0.8682903051376343
      ],
      "min": [
        -0.7659302353858948,
        -0.9913203716278076,
        -0.8682900071144104
      ],
      "type": "VEC3"
    },
    {
      "bufferView": 1,
      "byteOffset": 37120,
      "componentType": 5126,
      "count": 48,
      "max": [
        0.3133535087108612,
        0.7074814438819885
      ],
      "min": [
        0.3133535087108612,
        0.7074814438819885
      ],
      "type": "VEC2"
    },
    {
      "bufferView": 0,
      "byteOffset": 47328,
      "componentType": 5125,
      "count": 120,
      "type": "SCALAR"
    },
    {
      "bufferView": 2,
      "byteOffset": 112512,
      "componentType": 5126,
      "count": 46,
      "max": [
        0.21902042627334595,
        0.6012998819351196,
        2.214077949523926
      ],
      "min": [
        -0.21902042627334595,
        0.14154575765132904,
        1.9847209453582764
      ],
      "type": "VEC3"
    },
    {
      "bufferView": 2,
      "byteOffset": 113064,
      "componentType": 5126,
      "count": 46,
      "max": [
        0.862051248550415,
        0.8063609600067139,
        0.9901854991912842
      ],
      "min": [
        -0.862051248550415,
        -0.9929898381233215,
        -0.9904319643974304
      ],
      "type": "VEC3"
    },
    {
      "bufferView": 1,
      "byteOffset": 37504,
      "componentType": 5126,
      "count": 46,
      "max": [
        0.533611536026001,
        0.6705220341682434
      ],
      "min": [
        0.5295989513397217,
        0.6659971475601196
      ],
      "type": "VEC2"
    },
    {
      "bufferView": 0,
      "byteOffset": 47808,
      "componentType": 5125,
      "count": 108,
      "type": "SCALAR"
    },
    {
      "bufferView": 2,
      "byteOffset": 113616,
      "componentType": 5126,
      "count": 48,
      "max": [
        1.5965356826782227,
        -1.6899688243865967,
        -0.01067306101322174
      ],
      "min": [
        -1.5965356826782227,
        -2.2934155464172363,
        -0.4313896894454956
      ],
      "type": "VEC3"
    },
    {
      "bufferView": 2,
      "byteOffset": 114192,
      "componentType": 5126,
      "count": 48,
      "max": [
        0.9991552233695984,
        0.9735281467437744,
        0.979931116104126
      ],
      "min": [
        -0.9991552233695984,
        -0.966367244720459,
        -0.9866573810577393
      ],
      "type": "VEC3"
    },
    {
      "bufferView": 1,
      "byteOffset": 37872,
      "componentType": 5126,
      "count": 48,
      "max": [
        0.14212572574615479,
        0.5184847116470337
      ],
      "min": [
        0.12804877758026123,
        0.5069193243980408
      ],
      "type": "VEC2"
    },
    {
      "bufferView": 0,
      "byteOffset": 48240,
      "componentType": 5125,
      "count": 72,
      "type": "SCALAR"
    },
    {
      "bufferView": 2,
      "byteOffset": 114768,
      "componentType": 5126,
      "count": 36,
      "max": [
        0.659917950630188,
        4.449344158172607,
        1.0223802328109741
      ],
      "min": [
        -0.659917950630188,
        3.2794790267944336,
        0.4947189390659332
      ],
      "type": "VEC3"
    },
    {
      "bufferView": 2,
      "byteOffset": 115200,
      "componentType": 5126,
      "count": 36,
      "max": [
        0.9972662329673767,
        0.2934390902519226,
        0.9719003438949585
      ],
      "min": [
        -0.9972662329673767,
        -0.7450492978096008,
        -0.9559747576713562
      ],
      "type": "VEC3"
    },
    {
      "bufferView": 1,
      "byteOffset": 38256,
      "componentType": 5126,
      "count": 36,
      "max": [
        0.30797404050827026,
        0.6943633556365967
      ],
      "min": [
        0.29896628856658936,
        0.6860530972480774
      ],
      "type": "VEC2"
    },
    {
      "bufferView": 0,
      "byteOffset": 48528,
      "componentType": 5125,
      "count": 48,
      "type": "SCALAR"
    },
    {
      "bufferView": 2,
      "byteOffset": 115632,
      "componentType": 5126,
      "count": 148,
      "max": [
        0.6317782402038574,
        8.465398788452148,
        2.922600030899048
      ],
      "min": [
        -0.6317782402038574,
        4.493066310882568,
        2.4313158988952637
      ],
      "type": "VEC3"
    },
    {
      "bufferView": 2,
      "byteOffset": 117408,
      "componentType": 5126,
      "count": 148,
      "max": [
        0.9981946349143982,
        0.9279118776321411,
        0.9976485967636108
      ],
      "min": [
        -0.9981946349143982,
        -0.9977037906646729,
        -0.9976747632026672
      ],
      "type": "VEC3"
    },
    {
      "bufferView": 1,
      "byteOffset": 38544,
      "componentType": 5126,
      "count": 148,
      "max": [
        0.7798106670379639,
        0.8192849159240723
      ],
      "min": [
        0.2844265103340149,
        0.7148063778877258
      ],
      "type": "VEC2"
    },
    {
      "bufferView": 0,
      "byteOffset": 48720,
      "componentType": 5125,
      "count": 372,
      "type": "SCALAR"
    },
    {
      "bufferView": 2,
      "byteOffset": 119184,
      "componentType": 5126,
      "count": 32,
      "max": [
        0.12051372230052948,
        8.840035438537598,
        2.8714637756347656
      ],
      "min": [
        -0.12051379680633545,
        8.553077697753906,
        2.4872593879699707
      ],
      "type": "VEC3"
    },
    {
      "bufferView": 2,
      "byteOffset": 119568,
      "componentType": 5126,
      "count": 32,
      "max": [
        1.0,
        0.9907429814338684,
        0.9907425045967102
      ],
      "min": [
        -1.0,
        -0.990742564201355,
        -0.9907426238059998
      ],
      "type": "VEC3"
    },
    {
      "bufferView": 1,
      "byteOffset": 39728,
      "componentType": 5126,
      "count": 32,
      "max": [
        0.30629727244377136,
        0.6912932395935059
      ],
      "min": [
        0.3033392131328583,
        0.6870654821395874
      ],
      "type": "VEC2"
    },
    {
      "bufferView": 0,
      "byteOffset": 50208,
      "componentType": 5125,
      "count": 84,
      "type": "SCALAR"
    },
    {
      "bufferView": 2,
      "byteOffset": 119952,
      "componentType": 5126,
      "count": 432,
      "max": [
        2.89548921585083,
        3.3422508239746094,
        2.269044876098633
      ],
      "min": [
        -2.89548921585083,
        2.6213138103485107,
        0.9998867511749268
      ],
      "type": "VEC3"
    },
    {
      "bufferView": 2,
      "byteOffset": 125136,
      "componentType": 5126,
      "count": 432,
      "max": [
        1.0,
        0.9957169890403748,
        0.9184499979019165
      ],
      "min": [
        -1.0,
        -0.9957169890403748,
        -0.9184498190879822
      ],
      "type": "VEC3"
    },
    {
      "bufferView": 1,
      "byteOffset": 39984,
      "componentType": 5126,
      "count": 432,
      "max": [
        0.3133535087108612,
        0.7074814438819885
      ],
      "min": [
        0.3133535087108612,
        0.7074814438819885
      ],
      "type": "VEC2"
    },
    {
      "bufferView": 0,
      "byteOffset": 50544,
      "componentType": 5125,
      "count": 720,
      "type": "SCALAR"
    },
    {
      "bufferView": 2,
      "byteOffset": 130320,
      "componentType": 5126,
      "count": 128,
      "max": [
        1.320002794265747,
        9.215378761291504,
        2.5919911861419678
      ],
      "min": [
        -1.320002794265747,
        8.790435791015625,
        1.8971632719039917
      ],
      "type": "VEC3"
    },
    {
      "bufferView": 2,
      "byteOffset": 131856,
      "componentType": 5126,
      "count": 128,
      "max": [
        0.9929866194725037,
        0.9999955296516418,
        0.9238284826278687
      ],
      "min": [
        -0.9929865598678589,
        -0.9999962449073792,
        -0.918161153793335
      ],
      "type": "VEC3"
    },
    {
      "bufferView": 1,
      "byteOffset": 43440,
      "componentType": 5126,
      "count": 128,
      "max": [
        0.5111963152885437,
        0.673714816570282
      ],
      "min": [
        0.46702471375465393,
        0.584590494632721
      ],
      "type": "VEC2"
    },
    {
      "bufferView": 0,
      "byteOffset": 53424,
      "componentType": 5125,
      "count": 372,
      "type": "SCALAR"
    },
    {
      "bufferView": 2,
      "byteOffset": 133392,
      "componentType": 5126,
      "count": 310,
      "max": [
        0.7520691752433777,
        6.165533065795898,
        2.387269973754883
      ],
      "min": [
        -0.7520691752433777,
        4.903176307678223,
        1.5198580026626587
      ],
      "type": "VEC3"
    },
    {
      "bufferView": 2,
      "byteOffset": 137112,
      "componentType": 5126,
      "count": 310,
      "max": [
        0.998153030872345,
        0.9293363094329834,
        0.9765816330909729
      ],
      "min": [
        -0.9981530904769897,
        -0.977299153804779,
        -0.9306831359863281
      ],
      "type": "VEC3"
    },
    {
      "bufferView": 1,
      "byteOffset": 44464,
      "componentType": 5126,
      "count": 310,
      "max": [
        0.5075658559799194,
        0.675462007522583
      ],
      "min": [
        0.46532344818115234,
        0.5758177638053894
      ],
      "type": "VEC2"
    },
    {
      "bufferView": 0,
      "byteOffset": 54912,
      "componentType": 5125,
      "count": 720,
      "type": "SCALAR"
    },
    {
      "bufferView": 2,
      "byteOffset": 140832,
      "componentType": 5126,
      "count": 64,
      "max": [
        0.2469225972890854,
        2.739037036895752,
        -0.29410576820373535
      ],
      "min": [
        -0.24692252278327942,
        1.5508546829223633,
        -0.9828087091445923
      ],
      "type": "VEC3"
    },
    {
      "bufferView": 2,
      "byteOffset": 141600,
      "componentType": 5126,
      "count": 64,
      "max": [
        1.0,
        0.8516592383384705,
        0.9076131582260132
      ],
      "min": [
        -1.0,
        -0.9076184630393982,
        -0.9064178466796875
      ],
      "type": "VEC3"
    },
    {
      "bufferView": 1,
      "byteOffset": 46944,
      "componentType": 5126,
      "count": 64,
      "max": [
        0.5306241512298584,
        0.6773048043251038
      ],
      "min": [
        0.5183181166648865,
        0.663612425327301
      ],
      "type": "VEC2"
    },
    {
      "bufferView": 0,
      "byteOffset": 57792,
      "componentType": 5125,
      "count": 108,
      "type": "SCALAR"
    },
    {
      "bufferView": 2,
      "byteOffset": 142368,
      "componentType": 5126,
      "count": 128,
      "max": [
        1.3359136581420898,
        -1.0168923139572144,
        -0.27111658453941345
      ],
      "min": [
        -1.3359136581420898,
        -1.6056430339813232,
        -1.0356847047805786
      ],
      "type": "VEC3"
    },
    {
      "bufferView": 2,
      "byteOffset": 143904,
      "componentType": 5126,
      "count": 128,
      "max": [
        0.9215328693389893,
        0.9526724815368652,
        0.9269105792045593
      ],
      "min": [
        -0.921532928943634,
        -0.9526728391647339,
        -0.7688692212104797
      ],
      "type": "VEC3"
    },
    {
      "bufferView": 1,
      "byteOffset": 47456,
      "componentType": 5126,
      "count": 128,
      "max": [
        0.5276846885681152,
        0.6673707365989685
      ],
      "min": [
        0.519559383392334,
        0.6564908623695374
      ],
      "type": "VEC2"
    },
    {
      "bufferView": 0,
      "byteOffset": 58224,
      "componentType": 5125,
      "count": 216,
      "type": "SCALAR"
    },
    {
      "bufferView": 2,
      "byteOffset": 145440,
      "componentType": 5126,
      "count": 772,
      "max": [
        0.2782326638698578,
        2.234977960586548,
        0.021029865369200706
      ],
      "min": [
        -0.3093627095222473,
        0.7918370366096497,
        -0.91961669921875
      ],
      "type": "VEC3"
    },
    {
      "bufferView": 2,
      "byteOffset": 154704,
      "componentType": 5126,
      "count": 772,
      "max": [
        1.0,
        0.9999622106552124,
        0.9980660080909729
      ],
      "min": [
        -1.0,
        -0.9997956156730652,
        -0.9996388554573059
      ],
      "type": "VEC3"
    },
    {
      "bufferView": 1,
      "byteOffset": 48480,
      "componentType": 5126,
      "count": 772,
      "max": [
        0.8126235008239746,
        0.6772969961166382
      ],
      "min": [
        0.7989579439163208,
        0.6657953262329102
      ],
      "type": "VEC2"
    },
    {
      "bufferView": 0,
      "byteOffset": 59088,
      "componentType": 5125,
      "count": 1380,
      "type": "SCALAR"
    },
    {
      "bufferView": 2,
      "byteOffset": 163968,
      "componentType": 5126,
      "count": 1288,
      "max": [
        1.2541781663894653,
        -0.949432909488678,
        -0.08366987109184265
      ],
      "min": [
        -1.2541781663894653,
        -1.5263292789459229,
        -0.9491467475891113
      ],
      "type": "VEC3"
    },
    {
      "bufferView": 2,
      "byteOffset": 179424,
      "componentType": 5126,
      "count": 1288,
      "max": [
        0.986763596534729,
        0.9583259224891663,
        0.9802796840667725
      ],
      "min": [
        -0.9867634773254395,
        -0.9583261609077454,
        -0.9733876585960388
      ],
      "type": "VEC3"
    },
    {
      "bufferView": 1,
      "byteOffset": 54656,
      "componentType": 5126,
      "count": 1288,
      "max": [
        0.5000530481338501,
        0.510658323764801
      ],
      "min": [
        0.5000530481338501,
        0.510658323764801
      ],
      "type": "VEC2"
    },
    {
      "bufferView": 0,
      "byteOffset": 64608,
      "componentType": 5125,
      "count": 2304,
      "type": "SCALAR"
    },
    {
      "bufferView": 2,
      "byteOffset": 194880,
      "componentType": 5126,
      "count": 64,
      "max": [
        0.8810828328132629,
        -1.0659699440002441,
        -0.58467698097229
      ],
      "min": [
        -0.8810828328132629,
        -1.4475206136703491,
        -0.7085603475570679
      ],
      "type": "VEC3"
    },
    {
      "bufferView": 2,
      "byteOffset": 195648,
      "componentType": 5126,
      "count": 64,
      "max": [
        0.9699546098709106,
        0.9699550271034241,
        1.0
      ],
      "min": [
        -0.9699546098709106,
        -0.9699544310569763,
        -1.0
      ],
      "type": "VEC3"
    },
    {
      "bufferView": 1,
      "byteOffset": 64960,
      "componentType": 5126,
      "count": 64,
      "max": [
        0.8367602825164795,
        0.65849769115448
      ],
      "min": [
        0.8330349922180176,
        0.6545674204826355
      ],
      "type": "VEC2"
    },
    {
      "bufferView": 0,
      "byteOffset": 73824,
      "componentType": 5125,
      "count": 168,
      "type": "SCALAR"
    },
    {
      "bufferView": 2,
      "byteOffset": 196416,
      "componentType": 5126,
      "count": 60,
      "max": [
        1.3434879779815674,
        4.093411922454834,
        2.4588329792022705
      ],
      "min": [
        -1.3434879779815674,
        3.3819427490234375,
        1.6425840854644775
      ],
      "type": "VEC3"
    },
    {
      "bufferView": 2,
      "byteOffset": 197136,
      "componentType": 5126,
      "count": 60,
      "max": [
        0.9841762185096741,
        0.9969900846481323,
        0.8299003839492798
      ],
      "min": [
        -0.9841761589050293,
        -0.9969900846481323,
        -0.9811862707138062
      ],
      "type": "VEC3"
    },
    {
      "bufferView": 1,
      "byteOffset": 65472,
      "componentType": 5126,
      "count": 60,
      "max": [
        0.2879825234413147,
        0.6832683086395264
      ],
      "min": [
        0.28547966480255127,
        0.6810328364372253
      ],
      "type": "VEC2"
    },
    {
      "bufferView": 0,
      "byteOffset": 74496,
      "componentType": 5125,
      "count": 96,
      "type": "SCALAR"
    },
    {
      "bufferView": 2,
      "byteOffset": 197856,
      "componentType": 5126,
      "count": 192,
      "max": [
        1.9006329774856567,
        2.87528920173645,
        0.653014600276947
      ],
      "min": [
        -1.9006329774856567,
        2.5104057788848877,
        0.35584983229637146
      ],
      "type": "VEC3"
    },
    {
      "bufferView": 2,
      "byteOffset": 200160,
      "componentType": 5126,
      "count": 192,
      "max": [
        0.9900032877922058,
        0.9885156154632568,
        0.9984974265098572
      ],
      "min": [
        -0.9900033473968506,
        -0.9885155558586121,
        -0.9984974265098572
      ],
      "type": "VEC3"
    },
    {
      "bufferView": 1,
      "byteOffset": 65952,
      "componentType": 5126,
      "count": 192,
      "max": [
        0.3133535087108612,
        0.7074814438819885
      ],
      "min": [
        0.3133535087108612,
        0.7074814438819885
      ],
      "type": "VEC2"
    },
    {
      "bufferView": 0,
      "byteOffset": 74880,
      "componentType": 5125,
      "count": 552,
      "type": "SCALAR"
    },
    {
      "bufferView": 2,
      "byteOffset": 202464,
      "componentType": 5126,
      "count": 1200,
      "max": [
        2.048297882080078,
        3.9723007678985596,
        1.9685864448547363
      ],
      "min": [
        -2.048297882080078,
        2.1068191528320313,
        0.23602423071861267
      ],
      "type": "VEC3"
    },
    {
      "bufferView": 2,
      "byteOffset": 216864,
      "componentType": 5126,
      "count": 1200,
      "max": [
        0.9948265552520752,
        0.9998469352722168,
        0.9990662336349487
      ],
      "min": [
        -0.9948265552520752,
        -0.9998853206634521,
        -0.9994627237319946
      ],
      "type": "VEC3"
    },
    {
      "bufferView": 1,
      "byteOffset": 67488,
      "componentType": 5126,
      "count": 1200,
      "max": [
        0.6189391016960144,
        0.3305540680885315
      ],
      "min": [
        0.5842126607894897,
        0.18783684074878693
      ],
      "type": "VEC2"
    },
    {
      "bufferView": 0,
      "byteOffset": 77088,
      "componentType": 5125,
      "count": 6912,
      "type": "SCALAR"
    },
    {
      "bufferView": 2,
      "byteOffset": 231264,
      "componentType": 5126,
      "count": 24,
      "max": [
        0.14994549751281738,
        8.540801048278809,
        2.6016204357147217
      ],
      "min": [
        -0.14994549751281738,
        7.939384460449219,
        2.2739248275756836
      ],
      "type": "VEC3"
    },
    {
      "bufferView": 2,
      "byteOffset": 231552,
      "componentType": 5126,
      "count": 24,
      "max": [
        0.9977422952651978,
        0.9906764030456543,
        0.9923370480537415
      ],
      "min": [
        -0.9977422952651978,
        -0.8756352066993713,
        -0.914601743221283
      ],
      "type": "VEC3"
    },
    {
      "bufferView": 1,
      "byteOffset": 77088,
      "componentType": 5126,
      "count": 24,
      "max": [
        0.3133535087108612,
        0.7074814438819885
      ],
      "min": [
        0.3133535087108612,
        0.7074814438819885
      ],
      "type": "VEC2"
    },
    {
      "bufferView": 0,
      "byteOffset": 104736,
      "componentType": 5125,
      "count": 36,
      "type": "SCALAR"
    },
    {
      "bufferView": 2,
      "byteOffset": 231840,
      "componentType": 5126,
      "count": 48,
      "max": [
        1.4138237237930298,
        3.8931281566619873,
        1.9642692804336548
      ],
      "min": [
        -1.4138237237930298,
        3.6505770683288574,
        1.7086586952209473
      ],
      "type": "VEC3"
    },
    {
      "bufferView": 2,
      "byteOffset": 232416,
      "componentType": 5126,
      "count": 48,
      "max": [
        0.9850314259529114,
        0.9965232610702515,
        0.9841352701187134
      ],
      "min": [
        -0.9850314259529114,
        -0.9965232610702515,
        -0.9841352701187134
      ],
      "type": "VEC3"
    },
    {
      "bufferView": 1,
      "byteOffset": 77280,
      "componentType": 5126,
      "count": 48,
      "max": [
        0.3133535087108612,
        0.7074814438819885
      ],
      "min": [
        0.3133535087108612,
        0.7074814438819885
      ],
      "type": "VEC2"
    },
    {
      "bufferView": 0,
      "byteOffset": 104880,
      "componentType": 5125,
      "count": 72,
      "type": "SCALAR"
    },
    {
      "bufferView": 2,
      "byteOffset": 232992,
      "componentType": 5126,
      "count": 1012,
      "max": [
        4.222804069519043,
        3.030449390411377,
        1.4303700923919678
      ],
      "min": [
        -4.222804069519043,
        -2.6851160526275635,
        -0.33569878339767456
      ],
      "type": "VEC3"
    },
    {
      "bufferView": 2,
      "byteOffset": 245136,
      "componentType": 5126,
      "count": 1012,
      "max": [
        0.9363428950309753,
        0.9942238330841064,
        0.9813843369483948
      ],
      "min": [
        -0.9363435506820679,
        -0.976783037185669,
        -0.9923990368843079
      ],
      "type": "VEC3"
    },
    {
      "bufferView": 1,
      "byteOffset": 77664,
      "componentType": 5126,
      "count": 1012,
      "max": [
        0.39556896686553955,
        0.6876012086868286
      ],
      "min": [
        0.1417306810617447,
        0.42237550020217896
      ],
      "type": "VEC2"
    },
    {
      "bufferView": 0,
      "byteOffset": 105168,
      "componentType": 5125,
      "count": 2400,
      "type": "SCALAR"
    },
    {
      "bufferView": 2,
      "byteOffset": 257280,
      "componentType": 5126,
      "count": 1552,
      "max": [
        2.085036516189575,
        3.6250157356262207,
        1.5318865776062012
      ],
      "min": [
        -2.085036516189575,
        -2.0638229846954346,
        -0.2925551235675812
      ],
      "type": "VEC3"
    },
    {
      "bufferView": 2,
      "byteOffset": 275904,
      "componentType": 5126,
      "count": 1552,
      "max": [
        0.9980887770652771,
        0.9992034435272217,
        0.9991950988769531
      ],
      "min": [
        -0.9980887770652771,
        -0.9982888698577881,
        -0.9992071390151978
      ],
      "type": "VEC3"
    },
    {
      "bufferView": 1,
      "byteOffset": 85760,
      "componentType": 5126,
      "count": 1552,
      "max": [
        0.4935838282108307,
        0.5422869920730591
      ],
      "min": [
        0.470581591129303,
        0.5174676179885864
      ],
      "type": "VEC2"
    },
    {
      "bufferView": 0,
      "byteOffset": 114768,
      "componentType": 5125,
      "count": 9216,
      "type": "SCALAR"
    },
    {
      "bufferView": 2,
      "byteOffset": 294528,
      "componentType": 5126,
      "count": 48,
      "max": [
        0.8239612579345703,
        4.493175983428955,
        2.7444963455200195
      ],
      "min": [
        -0.7454835772514343,
        2.4777026176452637,
        2.290102243423462
      ],
      "type": "VEC3"
    },
    {
      "bufferView": 2,
      "byteOffset": 295104,
      "componentType": 5126,
      "count": 48,
      "max": [
        0.9999837875366211,
        0.2805285155773163,
        0.9949017763137817
      ],
      "min": [
        -0.9993183612823486,
        -0.19193556904792786,
        -0.9850678443908691
      ],
      "type": "VEC3"
    },
    {
      "bufferView": 1,
      "byteOffset": 98176,
      "componentType": 5126,
      "count": 48,
      "max": [
        0.0,
        0.0
      ],
      "min": [
        0.0,
        0.0
      ],
      "type": "VEC2"
    },
    {
      "bufferView": 0,
      "byteOffset": 151632,
      "componentType": 5125,
      "count": 192,
      "type": "SCALAR"
    },
    {
      "bufferView": 2,
      "byteOffset": 295680,
      "componentType": 5126,
      "count": 264,
      "max": [
        1.5231032371520996,
        -2.1588010787963867,
        0.16751322150230408
      ],
      "min": [
        -1.5231032371520996,
        -2.7145633697509766,
        -0.4384532570838928
      ],
      "type": "VEC3"
    },
    {
      "bufferView": 2,
      "byteOffset": 298848,
      "componentType": 5126,
      "count": 264,
      "max": [
        1.0,
        0.20729640126228333,
        0.9782858490943909
      ],
      "min": [
        -1.0,
        -0.9782828092575073,
        -0.9845353960990906
      ],
      "type": "VEC3"
    },
    {
      "bufferView": 1,
      "byteOffset": 98560,
      "componentType": 5126,
      "count": 264,
      "max": [
        0.5805073976516724,
        0.269484281539917
      ],
      "min": [
        0.5241411924362183,
        0.23279894888401031
      ],
      "type": "VEC2"
    },
    {
      "bufferView": 0,
      "byteOffset": 152400,
      "componentType": 5125,
      "count": 780,
      "type": "SCALAR"
    }
  ],
  "asset": {
    "extras": {
      "author": "antonbelyaev (https://sketchfab.com/antonbelyaev)",
      "license": "CC-BY-4.0 (http://creativecommons.org/licenses/by/4.0/)",
      "source": "https://sketchfab.com/3d-models/spaceship-draft-e55baed5f6fe41139a19c2e80ab45488",
      "title": "Spaceship Draft"
    },
    "generator": "Sketchfab-15.46.0",
    "version": "2.0"
  },
  "bufferViews": [
    {
      "buffer": 0,
      "byteLength": 155520,
      "name": "floatBufferViews",
      "target": 34963
    },
    {
      "buffer": 0,
      "byteLength": 100672,
      "byteOffset": 155520,
      "byteStride": 8,
      "name": "floatBufferViews",
      "target": 34962
    },
    {
      "buffer": 0,
      "byteLength": 302016,
      "byteOffset": 256192,
      "byteStride": 12,
      "name": "floatBufferViews",
      "target": 34962
    }
  ],
  "buffers": [
    {
      "byteLength": 558208,
      "uri": "scene.bin"
    }
  ],
  "extensionsUsed": [
    "KHR_materials_clearcoat"
  ],
  "images": [
    {
      "uri": "textures/Material_baseColor.png"
    }
  ],
  "materials": [
    {
      "doubleSided": true,
      "extensions": {
        "KHR_materials_clearcoat": {
          "clearcoatFactor": 0.27276273603881457,
          "clearcoatRoughnessFactor": 0.5226682595604101
        }
      },
      "name": "Material",
      "pbrMetallicRoughness": {
        "baseColorTexture": {
          "index": 0
        },
        "metallicFactor": 0.0
      }
    }
  ],
  "meshes": [
    {
      "name": "Cube_Material_0",
      "primitives": [
        {
          "attributes": {
            "NORMAL": 1,
            "POSITION": 0,
            "TEXCOORD_0": 2
          },
          "indices": 3,
          "material": 0,
          "mode": 4
        }
      ]
    },
    {
      "name": "Cube.001_Material_0",
      "primitives": [
        {
          "attributes": {
            "NORMAL": 5,
            "POSITION": 4,
            "TEXCOORD_0": 6
          },
          "indices": 7,
          "material": 0,
          "mode": 4
        }
      ]
    },
    {
      "name": "Cylinder_Material_0",
      "primitives": [
        {
          "attributes": {
            "NORMAL": 9,
            "POSITION": 8,
            "TEXCOORD_0": 10
          },
          "indices": 11,
          "material": 0,
          "mode": 4
        }
      ]
    },
    {
      "name": "Cube.002_Material_0",
      "primitives": [
        {
          "attributes": {
            "NORMAL": 13,
            "POSITION": 12,
            "TEXCOORD_0": 14
          },
          "indices": 15,
          "material": 0,
          "mode": 4
        }
      ]
    },
    {
      "name": "Cube.004_Material_0",
      "primitives": [
        {
          "attributes": {
            "NORMAL": 17,
            "POSITION": 16,
            "TEXCOORD_0": 18
          },
          "indices": 19,
          "material": 0,
          "mode": 4
        }
      ]
    },
    {
      "name": "Cylinder.003_Material_0",
      "primitives": [
        {
          "attributes": {
            "NORMAL": 21,
            "POSITION": 20,
            "TEXCOORD_0": 22
          },
          "indices": 23,
          "material": 0,
          "mode": 4
        }
      ]
    },
    {
      "name": "Cube.005_Material_0",
      "primitives": [
        {
          "attributes": {
            "NORMAL": 25,
            "POSITION": 24,
            "TEXCOORD_0": 26
          },
          "indices": 27,
          "material": 0,
          "mode": 4
        }
      ]
    },
    {
      "name": "Plane.001_Material_0",
      "primitives": [
        {
          "attributes": {
            "NORMAL": 29,
            "POSITION": 28,
            "TEXCOORD_0": 30
          },
          "indices": 31,
          "material": 0,
          "mode": 4
        }
      ]
    },
    {
      "name": "Cube.006_Material_0",
      "primitives": [
        {
          "attributes": {
            "NORMAL": 33,
            "POSITION": 32,
            "TEXCOORD_0": 34
          },
          "indices": 35,
          "material": 0,
          "mode": 4
        }
      ]
    },
    {
      "name": "Cube.007_Material_0",
      "primitives": [
        {
          "attributes": {
            "NORMAL": 37,
            "POSITION": 36,
            "TEXCOORD_0": 38
          },
          "indices": 39,
          "material": 0,
          "mode": 4
        }
      ]
    },
    {
      "name": "Cube.008_Material_0",
      "primitives": [
        {
          "attributes": {
            "NORMAL": 41,
            "POSITION": 40,
            "TEXCOORD_0": 42
          },
          "indices": 43,
          "material": 0,
          "mode": 4
        }
      ]
    },
    {
      "name": "Plane.002_Material_0",
      "primitives": [
        {
          "attributes": {
            "NORMAL": 45,
            "POSITION": 44,
            "TEXCOORD_0": 46
          },
          "indices": 47,
          "material": 0,
          "mode": 4
        }
      ]
    },
    {
      "name": "Cylinder.001_Material_0",
      "primitives": [
        {
          "attributes": {
            "NORMAL": 49,
            "POSITION": 48,
            "TEXCOORD_0": 50
          },
          "indices": 51,
          "material": 0,
          "mode": 4
        }
      ]
    },
    {
      "name": "Cube.009_Material_0",
      "primitives": [
        {
          "attributes": {
            "NORMAL": 53,
            "POSITION": 52,
            "TEXCOORD_0": 54
          },
          "indices": 55,
          "material": 0,
          "mode": 4
        }
      ]
    },
    {
      "name": "Plane.003_Material_0",
      "primitives": [
        {
          "attributes": {
            "NORMAL": 57,
            "POSITION": 56,
            "TEXCOORD_0": 58
          },
          "indices": 59,
          "material": 0,
          "mode": 4
        }
      ]
    },
    {
      "name": "Plane.004_Material_0",
      "primitives": [
        {
          "attributes": {
            "NORMAL": 61,
            "POSITION": 60,
            "TEXCOORD_0": 62
          },
          "indices": 63,
          "material": 0,
          "mode": 4
        }
      ]
    },
    {
      "name": "Cylinder.004_Material_0",
      "primitives": [
        {
          "attributes": {
            "NORMAL": 65,
            "POSITION": 64,
            "TEXCOORD_0": 66
          },
          "indices": 67,
          "material": 0,
          "mode": 4
        }
      ]
    },
    {
      "name": "Cube.003_Material_0",
      "primitives": [
        {
          "attributes": {
            "NORMAL": 69,
            "POSITION": 68,
            "TEXCOORD_0": 70
          },
          "indices": 71,
          "material": 0,
          "mode": 4
        }
      ]
    },
    {
      "name": "Cube.010_Material_0",
      "primitives": [
        {
          "attributes": {
            "NORMAL": 73,
            "POSITION": 72,
            "TEXCOORD_0": 74
          },
          "indices": 75,
          "material": 0,
          "mode": 4
        }
      ]
    },
    {
      "name": "Cylinder.005_Material_0",
      "primitives": [
        {
          "attributes": {
            "NORMAL": 77,
            "POSITION": 76,
            "TEXCOORD_0": 78
          },
          "indices": 79,
          "material": 0,
          "mode": 4
        }
      ]
    },
    {
      "name": "Cube.011_Material_0",
      "primitives": [
        {
          "attributes": {
            "NORMAL": 81,
            "POSITION": 80,
            "TEXCOORD_0": 82
          },
          "indices": 83,
          "material": 0,
          "mode": 4
        }
      ]
    },
    {
      "name": "Cube.012_Material_0",
      "primitives": [
        {
          "attributes": {
            "NORMAL": 85,
            "POSITION": 84,
            "TEXCOORD_0": 86
          },
          "indices": 87,
          "material": 0,
          "mode": 4
        }
      ]
    },
    {
      "name": "Cylinder.006_Material_0",
      "primitives": [
        {
          "attributes": {
            "NORMAL": 89,
            "POSITION": 88,
            "TEXCOORD_0": 90
          },
          "indices": 91,
          "material": 0,
          "mode": 4
        }
      ]
    },
    {
      "name": "Cylinder.008_Material_0",
      "primitives": [
        {
          "attributes": {
            "NORMAL": 93,
            "POSITION": 92,
            "TEXCOORD_0": 94
          },
          "indices": 95,
          "material": 0,
          "mode": 4
        }
      ]
    },
    {
      "name": "Cube.014_Material_0",
      "primitives": [
        {
          "attributes": {
            "NORMAL": 97,
            "POSITION": 96,
            "TEXCOORD_0": 98
          },
          "indices": 99,
          "material": 0,
          "mode": 4
        }
      ]
    },
    {
      "name": "Cube.015_Material_0",
      "primitives": [
        {
          "attributes": {
            "NORMAL": 101,
            "POSITION": 100,
            "TEXCOORD_0": 102
          },
          "indices": 103,
          "material": 0,
          "mode": 4
        }
      ]
    },
    {
      "name": "Cube.017_Material_0",
      "primitives": [
        {
          "attributes": {
            "NORMAL": 105,
            "POSITION": 104,
            "TEXCOORD_0": 106
          },
          "indices": 107,
          "material": 0,
          "mode": 4
        }
      ]
    },
    {
      "name": "Cube.016_Material_0",
      "primitives": [
        {
          "attributes": {
            "NORMAL": 109,
            "POSITION": 108,
            "TEXCOORD_0": 110
          },
          "indices": 111,
          "material": 0,
          "mode": 4
        }
      ]
    },
    {
      "name": "Cylinder.002_Material_0",
      "primitives": [
        {
          "attributes": {
            "NORMAL": 113,
            "POSITION": 112,
            "TEXCOORD_0": 114
          },
          "indices": 115,
          "material": 0,
          "mode": 4
        }
      ]
    },
    {
      "name": "Cylinder.009_Material_0",
      "primitives": [
        {
          "attributes": {
            "NORMAL": 117,
            "POSITION": 116,
            "TEXCOORD_0": 118
          },
          "indices": 119,
          "material": 0,
          "mode": 4
        }
      ]
    },
    {
      "name": "Cylinder.010_Material_0",
      "primitives": [
        {
          "attributes": {
            "NORMAL": 121,
            "POSITION": 120,
            "TEXCOORD_0": 122
          },
          "indices": 123,
          "material": 0,
          "mode": 4
        }
      ]
    },
    {
      "name": "Cube.018_Material_0",
      "primitives": [
        {
          "attributes": {
            "NORMAL": 125,
            "POSITION": 124,
            "TEXCOORD_0": 126
          },
          "indices": 127,
          "material": 0,
          "mode": 4
        }
      ]
    },
    {
      "name": "Plane.006_Material_0",
      "primitives": [
        {
          "attributes": {
            "NORMAL": 129,
            "POSITION": 128,
            "TEXCOORD_0": 130
          },
          "indices": 131,
          "material": 0,
          "mode": 4
        }
      ]
    },
    {
      "name": "Plane.007_Material_0",
      "primitives": [
        {
          "attributes": {
            "NORMAL": 133,
            "POSITION": 132,
            "TEXCOORD_0": 134
          },
          "indices": 135,
          "material": 0,
          "mode": 4
        }
      ]
    },
    {
      "name": "Plane.005_Material_0",
      "primitives": [
        {
          "attributes": {
            "NORMAL": 137,
            "POSITION": 136,
            "TEXCOORD_0": 138
          },
          "indices": 139,
          "material": 0,
          "mode": 4
        }
      ]
    },
    {
      "name": "Plane.008_Material_0",
      "primitives": [
        {
          "attributes": {
            "NORMAL": 141,
            "POSITION": 140,
            "TEXCOORD_0": 142
          },
          "indices": 143,
          "material": 0,
          "mode": 4
        }
      ]
    },
    {
      "name": "Cylinder.014_Material_0",
      "primitives": [
        {
          "attributes": {
            "NORMAL": 145,
            "POSITION": 144,
            "TEXCOORD_0": 146
          },
          "indices": 147,
          "material": 0,
          "mode": 4
        }
      ]
    },
    {
      "name": "Cube.019_Material_0",
      "primitives": [
        {
          "attributes": {
            "NORMAL": 149,
            "POSITION": 148,
            "TEXCOORD_0": 150
          },
          "indices": 151,
          "material": 0,
          "mode": 4
        }
      ]
    },
    {
      "name": "Cylinder.007_Material_0",
      "primitives": [
        {
          "attributes": {
            "NORMAL": 153,
            "POSITION": 152,
            "TEXCOORD_0": 154
          },
          "indices": 155,
          "material": 0,
          "mode": 4
        }
      ]
    },
    {
      "name": "BezierCurve_Material_0",
      "primitives": [
        {
          "attributes": {
            "NORMAL": 157,
            "POSITION": 156,
            "TEXCOORD_0": 158
          },
          "indices": 159,
          "material": 0,
          "mode": 4
        }
      ]
    },
    {
      "name": "Cube.020_Material_0",
      "primitives": [
        {
          "attributes": {
            "NORMAL": 161,
            "POSITION": 160,
            "TEXCOORD_0": 162
          },
          "indices": 163,
          "material": 0,
          "mode": 4
        }
      ]
    },
    {
      "name": "Cube.013_Material_0",
      "primitives": [
        {
          "attributes": {
            "NORMAL": 165,
            "POSITION": 164,
            "TEXCOORD_0": 166
          },
          "indices": 167,
          "material": 0,
          "mode": 4
        }
      ]
    },
    {
      "name": "Plane.009_Material_0",
      "primitives": [
        {
          "attributes": {
            "NORMAL": 169,
            "POSITION": 168,
            "TEXCOORD_0": 170
          },
          "indices": 171,
          "material": 0,
          "mode": 4
        }
      ]
    },
    {
      "name": "BezierCurve.001_Material_0",
      "primitives": [
        {
          "attributes": {
            "NORMAL": 173,
            "POSITION": 172,
            "TEXCOORD_0": 174
          },
          "indices": 175,
          "material": 0,
          "mode": 4
        }
      ]
    },
    {
      "name": "BezierCurve.002_Material_0",
      "primitives": [
        {
          "attributes": {
            "NORMAL": 177,
            "POSITION": 176,
            "TEXCOORD_0": 178
          },
          "indices": 179,
          "material": 0,
          "mode": 4
        }
      ]
    },
    {
      "name": "Cylinder.011_Material_0",
      "primitives": [
        {
          "attributes": {
            "NORMAL": 181,
            "POSITION": 180,
            "TEXCOORD_0": 182
          },
          "indices": 183,
          "material": 0,
          "mode": 4
        }
      ]
    }
  ],
  "nodes": [
    {
      "children": [
        1
      ],
      "matrix": [
        1.0,
        0.0,
        0.0,
        0.0,
        0.0,
        2.220446049250313e-16,
        -1.0,
        0.0,
        0.0,
        1.0,
        2.220446049250313e-16,
        0.0,
        0.0,
        0.0,
        0.0,
        1.0
      ],
      "name": "Sketchfab_model"
    },
    {
      "children": [
        2
      ],
      "matrix": [
        1.0,
        0.0,
        0.0,
        0.0,
        0.0,
        0.0,
        1.0,
        0.0,
        0.0,
        -1.0,
        0.0,
        0.0,
        0.0,
        0.0,
        0.0,
        1.0
      ],
      "name": "b126318f0c224b418629b8ddfc9af219.fbx"
    },
    {
      "children": [
        3,
        5,
        7,
        9,
        11,
        13,
        15,
        17,
        19,
        21,
        23,
        25,
        27,
        29,
        31,
        33,
        35,
        37,
        39,
        41,
        43,
        45,
        47,
        49,
        51,
        53,
        55,
        57,
        59,
        61,
        63,
        65,
        67,
        69,
        71,
        73,
        75,
        77,
        79,
        81,
        83,
        85,
        87,
        89,
        91,
        93
      ],
      "name": "RootNode"
    },
    {
      "children": [
        4
      ],
      "matrix": [
        100.0,
        0.0,
        0.0,
        0.0,
        0.0,
        -1.629206793918314e-05,
        -99.99999999999868,
        0.0,
        0.0,
        99.99999999999868,
        -1.629206793918314e-05,
        0.0,
        0.0,
        0.0,
        0.0,
        1.0
      ],
      "name": "Cube"
    },
    {
      "mesh": 0,
      "name": "Cube_Material_0"
    },
    {
      "children": [
        6
      ],
      "matrix": [
        100.0,
        0.0,
        0.0,
        0.0,
        0.0,
        -1.629206793918314e-05,
        -99.99999999999868,
        0.0,
        0.0,
        99.99999999999868,
        -1.629206793918314e-05,
        0.0,
        0.0,
        0.0,
        0.0,
        1.0
      ],
      "name": "Cube.001"
    },
    {
      "mesh": 1,
      "name": "Cube.001_Material_0"
    },
    {
      "children": [
        8
      ],
      "matrix": [
        100.0,
        0.0,
        0.0,
        0.0,
        0.0,
        -1.629206793918314e-05,
        -99.99999999999868,
        0.0,
        0.0,
        99.99999999999868,
        -1.629206793918314e-05,
        0.0,
        0.0,
        0.0,
        0.0,
        1.0
      ],
      "name": "Cylinder"
    },
    {
      "mesh": 2,
      "name": "Cylinder_Material_0"
    },
    {
      "children": [
        10
      ],
      "matrix": [
        100.0,
        0.0,
        0.0,
        0.0,
        0.0,
        -1.629206793918314e-05,
        -99.99999999999868,
        0.0,
        0.0,
        99.99999999999868,
        -1.629206793918314e-05,
        0.0,
        0.0,
        0.0,
        0.0,
        1.0
      ],
      "name": "Cube.002"
    },
    {
      "mesh": 3,
      "name": "Cube.002_Material_0"
    },
    {
      "children": [
        12
      ],
      "matrix": [
        100.0,
        0.0,
        0.0,
        0.0,
        0.0,
        -1.629206793918314e-05,
        -99.99999999999868,
        0.0,
        0.0,
        99.99999999999868,
        -1.629206793918314e-05,
        0.0,
        0.0,
        0.0,
        0.0,
        1.0
      ],
      "name": "Cube.004"
    },
    {
      "mesh": 4,
      "name": "Cube.004_Material_0"
    },
    {
      "children": [
        14
      ],
      "matrix": [
        100.0,
        0.0,
        0.0,
        0.0,
        0.0,
        -1.629206793918314e-05,
        -99.99999999999868,
        0.0,
        0.0,
        99.99999999999868,
        -1.629206793918314e-05,
        0.0,
        0.0,
        0.0,
        0.0,
        1.0
      ],
      "name": "Cylinder.003"
    },
    {
      "mesh": 5,
      "name": "Cylinder.003_Material_0"
    },
    {
      "children": [
        16
      ],
      "matrix": [
        100.0,
        0.0,
        0.0,
        0.0,
        0.0,
        -1.629206793918314e-05,
        -99.99999999999868,
        0.0,
        0.0,
        99.99999999999868,
        -1.629206793918314e-05,
        0.0,
        0.0,
        0.0,
        0.0,
        1.0
      ],
      "name": "Cube.005"
    },
    {
      "mesh": 6,
      "name": "Cube.005_Material_0"
    },
    {
      "children": [
        18
      ],
      "matrix": [
        100.0,
        0.0,
        0.0,
        0.0,
        0.0,
        -1.629206793918314e-05,
        -99.99999999999868,
        0.0,
        0.0,
        99.99999999999868,
        -1.629206793918314e-05,
        0.0,
        0.0,
        0.0,
        0.0,
        1.0
      ],
      "name": "Plane.001"
    },
    {
      "mesh": 7,
      "name": "Plane.001_Material_0"
    },
    {
      "children": [
        20
      ],
      "matrix": [
        100.0,
        0.0,
        0.0,
        0.0,
        0.0,
        -1.629206793918314e-05,
        -99.99999999999868,
        0.0,
        0.0,
        99.99999999999868,
        -1.629206793918314e-05,
        0.0,
        0.0,
        0.0,
        0.0,
        1.0
      ],
      "name": "Cube.006"
    },
    {
      "mesh": 8,
      "name": "Cube.006_Material_0"
    },
    {
      "children": [
        22
      ],
      "matrix": [
        100.0,
        0.0,
        0.0,
        0.0,
        0.0,
        -1.629206793918314e-05,
        -99.99999999999868,
        0.0,
        0.0,
        99.99999999999868,
        -1.629206793918314e-05,
        0.0,
        0.0,
        0.0,
        0.0,
        1.0
      ],
      "name": "Cube.007"
    },
    {
      "mesh": 9,
      "name": "Cube.007_Material_0"
    },
    {
      "children": [
        24
      ],
      "matrix": [
        100.0,
        0.0,
        0.0,
        0.0,
        0.0,
        -1.629206793918314e-05,
        -99.99999999999868,
        0.0,
        0.0,
        99.99999999999868,
        -1.629206793918314e-05,
        0.0,
        0.0,
        0.0,
        0.0,
        1.0
      ],
      "name": "Cube.008"
    },
    {
      "mesh": 10,
      "name": "Cube.008_Material_0"
    },
    {
      "children": [
        26
      ],
      "matrix": [
        100.0,
        0.0,
        0.0,
        0.0,
        0.0,
        -1.629206793918314e-05,
        -99.99999999999868,
        0.0,
        0.0,
        99.99999999999868,
        -1.629206793918314e-05,
        0.0,
        0.0,
        0.0,
        0.0,
        1.0
      ],
      "name": "Plane.002"
    },
    {
      "mesh": 11,
      "name": "Plane.002_Material_0"
    },
    {
      "children": [
        28
      ],
      "matrix": [
        100.0,
        0.0,
        0.0,
        0.0,
        0.0,
        -1.629206793918314e-05,
        -99.99999999999868,
        0.0,
        0.0,
        99.99999999999868,
        -1.629206793918314e-05,
        0.0,
        0.0,
        0.0,
        0.0,
        1.0
      ],
      "name": "Cylinder.001"
    },
    {
      "mesh": 12,
      "name": "Cylinder.001_Material_0"
    },
    {
      "children": [
        30
      ],
      "matrix": [
        100.0,
        0.0,
        0.0,
        0.0,
        0.0,
        -1.629206793918314e-05,
        -99.99999999999868,
        0.0,
        0.0,
        99.99999999999868,
        -1.629206793918314e-05,
        0.0,
        0.0,
        0.0,
        0.0,
        1.0
      ],
      "name": "Cube.009"
    },
    {
      "mesh": 13,
      "name": "Cube.009_Material_0"
    },
    {
      "children": [
        32
      ],
      "matrix": [
        100.0,
        0.0,
        0.0,
        0.0,
        0.0,
        -1.629206793918314e-05,
        -99.99999999999868,
        0.0,
        0.0,
        99.99999999999868,
        -1.629206793918314e-05,
        0.0,
        0.0,
        0.0,
        0.0,
        1.0
      ],
      "name": "Plane.003"
    },
    {
      "mesh": 14,
      "name": "Plane.003_Material_0"
    },
    {
      "children": [
        34
      ],
      "matrix": [
        100.0,
        0.0,
        0.0,
        0.0,
        0.0,
        -1.629206793918314e-05,
        -99.99999999999868,
        0.0,
        0.0,
        99.99999999999868,
        -1.629206793918314e-05,
        0.0,
        0.0,
        0.0,
        0.0,
        1.0
      ],
      "name": "Plane.004"
    },
    {
      "mesh": 15,
      "name": "Plane.004_Material_0"
    },
    {
      "children": [
        36
      ],
      "matrix": [
        55.21863555908203,
        0.0,
        0.0,
        0.0,
        0.0,
        -8.996257620375585e-06,
        -55.2186355590813,
        0.0,
        0.0,
        55.2186355590813,
        -8.996257620375585e-06,
        0.0,
        0.0,
        0.0,
        0.0,
        1.0
      ],
      "name": "Cylinder.004"
    },
    {
      "mesh": 16,
      "name": "Cylinder.004_Material_0"
    },
    {
      "children": [
        38
      ],
      "matrix": [
        100.0,
        0.0,
        0.0,
        0.0,
        0.0,
        -1.629206793918314e-05,
        -99.99999999999868,
        0.0,
        0.0,
        99.99999999999868,
        -1.629206793918314e-05,
        0.0,
        0.0,
        0.0,
        0.0,
        1.0
      ],
      "name": "Cube.003"
    },
    {
      "mesh": 17,
      "name": "Cube.003_Material_0"
    },
    {
      "children": [
        40
      ],
      "matrix": [
        100.0,
        0.0,
        0.0,
        0.0,
        0.0,
        -1.629206793918314e-05,
        -99.99999999999868,
        0.0,
        0.0,
        99.99999999999868,
        -1.629206793918314e-05,
        0.0,
        0.0,
        0.0,
        0.0,
        1.0
      ],
      "name": "Cube.010"
    },
    {
      "mesh": 18,
      "name": "Cube.010_Material_0"
    },
    {
      "children": [
        42
      ],
      "matrix": [
        100.0,
        0.0,
        0.0,
        0.0,
        0.0,
        -1.629206793918314e-05,
        -99.99999999999868,
        0.0,
        0.0,
        99.99999999999868,
        -1.629206793918314e-05,
        0.0,
        0.0,
        0.0,
        0.0,
        1.0
      ],
      "name": "Cylinder.005"
    },
    {
      "mesh": 19,
      "name": "Cylinder.005_Material_0"
    },
    {
      "children": [
        44
      ],
      "matrix": [
        100.0,
        0.0,
        0.0,
        0.0,
        0.0,
        -1.629206793918314e-05,
        -99.99999999999868,
        0.0,
        0.0,
        99.99999999999868,
        -1.629206793918314e-05,
        0.0,
        0.0,
        0.0,
        0.0,
        1.0
      ],
      "name": "Cube.011"
    },
    {
      "mesh": 20,
      "name": "Cube.011_Material_0"
    },
    {
      "children": [
        46
      ],
      "matrix": [
        100.0,
        0.0,
        0.0,
        0.0,
        0.0,
        -1.629206793918314e-05,
        -99.99999999999868,
        0.0,
        0.0,
        99.99999999999868,
        -1.629206793918314e-05,
        0.0,
        0.0,
        0.0,
        0.0,
        1.0
      ],
      "name": "Cube.012"
    },
    {
      "mesh": 21,
      "name": "Cube.012_Material_0"
    },
    {
      "children": [
        48
      ],
      "matrix": [
        100.0,
        0.0,
        0.0,
        0.0,
        0.0,
        -1.629206793918314e-05,
        -99.99999999999868,
        0.0,
        0.0,
        99.99999999999868,
        -1.629206793918314e-05,
        0.0,
        0.0,
        0.0,
        0.0,
        1.0
      ],
      "name": "Cylinder.006"
    },
    {
      "mesh": 22,
      "name": "Cylinder.006_Material_0"
    },
    {
      "children": [
        50
      ],
      "matrix": [
        100.0,
        0.0,
        0.0,
        0.0,
        0.0,
        -1.629206793918314e-05,
        -99.99999999999868,
        0.0,
        0.0,
        99.99999999999868,
        -1.629206793918314e-05,
        0.0,
        0.0,
        0.0,
        0.0,
        1.0
      ],
      "name": "Cylinder.008"
    },
    {
      "mesh": 23,
      "name": "Cylinder.008_Material_0"
    },
    {
      "children": [
        52
      ],
      "matrix": [
        100.0,
        0.0,
        0.0,
        0.0,
        0.0,
        -1.629206793918314e-05,
        -99.99999999999868,
        0.0,
        0.0,
        99.99999999999868,
        -1.629206793918314e-05,
        0.0,
        0.0,
        0.0,
        0.0,
        1.0
      ],
      "name": "Cube.014"
    },
    {
      "mesh": 24,
      "name": "Cube.014_Material_0"
    },
    {
      "children": [
        54
      ],
      "matrix": [
        100.0,
        0.0,
        0.0,
        0.0,
        0.0,
        -1.629206793918314e-05,
        -99.99999999999868,
        0.0,
        0.0,
        99.99999999999868,
        -1.629206793918314e-05,
        0.0,
        0.0,
        0.0,
        0.0,
        1.0
      ],
      "name": "Cube.015"
    },
    {
      "mesh": 25,
      "name": "Cube.015_Material_0"
    },
    {
      "children": [
        56
      ],
      "matrix": [
        100.0,
        0.0,
        0.0,
        0.0,
        0.0,
        -1.629206793918314e-05,
        -99.99999999999868,
        0.0,
        0.0,
        99.99999999999868,
        -1.629206793918314e-05,
        0.0,
        0.0,
        0.0,
        0.0,
        1.0
      ],
      "name": "Cube.017"
    },
    {
      "mesh": 26,
      "name": "Cube.017_Material_0"
    },
    {
      "children": [
        58
      ],
      "matrix": [
        100.0,
        0.0,
        0.0,
        0.0,
        0.0,
        -1.629206793918314e-05,
        -99.99999999999868,
        0.0,
        0.0,
        99.99999999999868,
        -1.629206793918314e-05,
        0.0,
        0.0,
        0.0,
        0.0,
        1.0
      ],
      "name": "Cube.016"
    },
    {
      "mesh": 27,
      "name": "Cube.016_Material_0"
    },
    {
      "children": [
        60
      ],
      "matrix": [
        100.0,
        0.0,
        0.0,
        0.0,
        0.0,
        -1.629206793918314e-05,
        -99.99999999999868,
        0.0,
        0.0,
        99.99999999999868,
        -1.629206793918314e-05,
        0.0,
        0.0,
        0.0,
        0.0,
        1.0
      ],
      "name": "Cylinder.002"
    },
    {
      "mesh": 28,
      "name": "Cylinder.002_Material_0"
    },
    {
      "children": [
        62
      ],
      "matrix": [
        100.0,
        0.0,
        0.0,
        0.0,
        0.0,
        -1.629206793918314e-05,
        -99.99999999999868,
        0.0,
        0.0,
        99.99999999999868,
        -1.629206793918314e-05,
        0.0,
        0.0,
        0.0,
        0.0,
        1.0
      ],
      "name": "Cylinder.009"
    },
    {
      "mesh": 29,
      "name": "Cylinder.009_Material_0"
    },
    {
      "children": [
        64
      ],
      "matrix": [
        55.21863555908203,
        0.0,
        0.0,
        0.0,
        0.0,
        -8.996257620375585e-06,
        -55.2186355590813,
        0.0,
        0.0,
        55.2186355590813,
        -8.996257620375585e-06,
        0.0,
        0.0,
        0.0,
        0.0,
        1.0
      ],
      "name": "Cylinder.010"
    },
    {
      "mesh": 30,
      "name": "Cylinder.010_Material_0"
    },
    {
      "children": [
        66
      ],
      "matrix": [
        100.0,
        0.0,
        0.0,
        0.0,
        0.0,
        -1.629206793918314e-05,
        -99.99999999999868,
        0.0,
        0.0,
        99.99999999999868,
        -1.629206793918314e-05,
        0.0,
        0.0,
        0.0,
        0.0,
        1.0
      ],
      "name": "Cube.018"
    },
    {
      "mesh": 31,
      "name": "Cube.018_Material_0"
    },
    {
      "children": [
        68
      ],
      "matrix": [
        100.0,
        0.0,
        0.0,
        0.0,
        0.0,
        -1.629206793918314e-05,
        -99.99999999999868,
        0.0,
        0.0,
        99.99999999999868,
        -1.629206793918314e-05,
        0.0,
        0.0,
        0.0,
        0.0,
        1.0
      ],
      "name": "Plane.006"
    },
    {
      "mesh": 32,
      "name": "Plane.006_Material_0"
    },
    {
      "children": [
        70
      ],
      "matrix": [
        100.0,
        0.0,
        0.0,
        0.0,
        0.0,
        -1.629206793918314e-05,
        -99.99999999999868,
        0.0,
        0.0,
        99.99999999999868,
        -1.629206793918314e-05,
        0.0,
        0.0,
        0.0,
        0.0,
        1.0
      ],
      "name": "Plane.007"
    },
    {
      "mesh": 33,
      "name": "Plane.007_Material_0"
    },
    {
      "children": [
        72
      ],
      "matrix": [
        100.0,
        0.0,
        0.0,
        0.0,
        0.0,
        -1.629206793918314e-05,
        -99.99999999999868,
        0.0,
        0.0,
        99.99999999999868,
        -1.629206793918314e-05,
        0.0,
        0.0,
        0.0,
        0.0,
        1.0
      ],
      "name": "Plane.005"
    },
    {
      "mesh": 34,
      "name": "Plane.005_Material_0"
    },
    {
      "children": [
        74
      ],
      "matrix": [
        100.0,
        0.0,
        0.0,
        0.0,
        0.0,
        -1.629206793918314e-05,
        -99.99999999999868,
        0.0,
        0.0,
        99.99999999999868,
        -1.629206793918314e-05,
        0.0,
        0.0,
        0.0,
        0.0,
        1.0
      ],
      "name": "Plane.008"
    },
    {
      "mesh": 35,
      "name": "Plane.008_Material_0"
    },
    {
      "children": [
        76
      ],
      "matrix": [
        100.0,
        0.0,
        0.0,
        0.0,
        0.0,
        -1.629206793918314e-05,
        -99.99999999999868,
        0.0,
        0.0,
        99.99999999999868,
        -1.629206793918314e-05,
        0.0,
        0.0,
        0.0,
        0.0,
        1.0
      ],
      "name": "Cylinder.014"
    },
    {
      "mesh": 36,
      "name": "Cylinder.014_Material_0"
    },
    {
      "children": [
        78
      ],
      "matrix": [
        100.0,
        0.0,
        0.0,
        0.0,
        0.0,
        -1.629206793918314e-05,
        -99.99999999999868,
        0.0,
        0.0,
        99.99999999999868,
        -1.629206793918314e-05,
        0.0,
        0.0,
        0.0,
        0.0,
        1.0
      ],
      "name": "Cube.019"
    },
    {
      "mesh": 37,
      "name": "Cube.019_Material_0"
    },
    {
      "children": [
        80
      ],
      "matrix": [
        100.0,
        0.0,
        0.0,
        0.0,
        0.0,
        -1.629206793918314e-05,
        -99.99999999999868,
        0.0,
        0.0,
        99.99999999999868,
        -1.629206793918314e-05,
        0.0,
        0.0,
        0.0,
        0.0,
        1.0
      ],
      "name": "Cylinder.007"
    },
    {
      "mesh": 38,
      "name": "Cylinder.007_Material_0"
    },
    {
      "children": [
        82
      ],
      "matrix": [
        100.0,
        0.0,
        0.0,
        0.0,
        0.0,
        -1.629206793918314e-05,
        -99.99999999999868,
        0.0,
        0.0,
        99.99999999999868,
        -1.629206793918314e-05,
        0.0,
        0.0,
        0.0,
        0.0,
        1.0
      ],
      "name": "BezierCurve"
    },
    {
      "mesh": 39,
      "name": "BezierCurve_Material_0"
    },
    {
      "children": [
        84
      ],
      "matrix": [
        100.0,
        0.0,
        0.0,
        0.0,
        0.0,
        -1.629206793918314e-05,
        -99.99999999999868,
        0.0,
        0.0,
        99.99999999999868,
        -1.629206793918314e-05,
        0.0,
        0.0,
        0.0,
        0.0,
        1.0
      ],
      "name": "Cube.020"
    },
    {
      "mesh": 40,
      "name": "Cube.020_Material_0"
    },
    {
      "children": [
        86
      ],
      "matrix": [
        100.0,
        0.0,
        0.0,
        0.0,
        0.0,
        -1.629206793918314e-05,
        -99.99999999999868,
        0.0,
        0.0,
        99.99999999999868,
        -1.629206793918314e-05,
        0.0,
        0.0,
        0.0,
        0.0,
        1.0
      ],
      "name": "Cube.013"
    },
    {
      "mesh": 41,
      "name": "Cube.013_Material_0"
    },
    {
      "children": [
        88
      ],
      "matrix": [
        100.0,
        0.0,
        0.0,
        0.0,
        0.0,
        -1.629206793918314e-05,
        -99.99999999999868,
        0.0,
        0.0,
        99.99999999999868,
        -1.629206793918314e-05,
        0.0,
        0.0,
        0.0,
        0.0,
        1.0
      ],
      "name": "Plane.009"
    },
    {
      "mesh": 42,
      "name": "Plane.009_Material_0"
    },
    {
      "children": [
        90
      ],
      "matrix": [
        100.0,
        0.0,
        0.0,
        0.0,
        0.0,
        -1.629206793918314e-05,
        -99.99999999999868,
        0.0,
        0.0,
        99.99999999999868,
        -1.629206793918314e-05,
        0.0,
        0.0,
        0.0,
        0.0,
        1.0
      ],
      "name": "BezierCurve.001"
    },
    {
      "mesh": 43,
      "name": "BezierCurve.001_Material_0"
    },
    {
      "children": [
        92
      ],
      "matrix": [
        100.0,
        0.0,
        0.0,
        0.0,
        0.0,
        -1.629206793918314e-05,
        -99.99999999999868,
        0.0,
        0.0,
        99.99999999999868,
        -1.629206793918314e-05,
        0.0,
        0.0,
        0.0,
        0.0,
        1.0
      ],
      "name": "BezierCurve.002"
    },
    {
      "mesh": 44,
      "name": "BezierCurve.002_Material_0"
    },
    {
      "children": [
        94
      ],
      "matrix": [
        100.0,
        0.0,
        0.0,
        0.0,
        0.0,
        -1.629206793918314e-05,
        -99.99999999999868,
        0.0,
        0.0,
        99.99999999999868,
        -1.629206793918314e-05,
        0.0,
        0.0,
        0.0,
        0.0,
        1.0
      ],
      "name": "Cylinder.011"
    },
    {
      "mesh": 45,
      "name": "Cylinder.011_Material_0"
    }
  ],
  "samplers": [
    {
      "magFilter": 9729,
      "minFilter": 9987,
      "wrapS": 10497,
      "wrapT": 10497
    }
  ],
  "scene": 0,
  "scenes": [
    {
      "name": "Sketchfab_Scene",
      "nodes": [
        0
      ]
    }
  ],
  "textures": [
    {
      "sampler": 0,
      "source": 0
    }
  ]
}
