{
  "accessors": [
    {
      "bufferView": 2,
      "componentType": 5126,
      "count": 1611,
      "max": [
        2.6886744499206543,
        14.075591087341309,
        0.3230895400047302
      ],
      "min": [
        -2.6886746883392334,
        4.904306411743164,
        -17.222732543945313
      ],
      "type": "VEC3"
    },
    {
      "bufferView": 2,
      "byteOffset": 19332,
      "componentType": 5126,
      "count": 1611,
      "max": [
        0.9999344944953918,
        1.0,
        0.9998105764389038
      ],
      "min": [
        -0.9999344944953918,
        -1.0,
        -0.9788177609443665
      ],
      "type": "VEC3"
    },
    {
      "bufferView": 3,
      "componentType": 5126,
      "count": 1611,
      "max": [
        1.0,
        0.9999344348907471,
        0.9999948740005493,
        1.0
      ],
      "min": [
        -1.0,
        -0.9999344348907471,
        -1.0,
        1.0
      ],
      "type": "VEC4"
    },
    {
      "bufferView": 1,
      "componentType": 5126,
      "count": 1611,
      "max": [
        1.0,
        0.6332517862319946
      ],
      "min": [
        0.0,
        0.0
      ],
      "type": "VEC2"
    },
    {
      "bufferView": 0,
      "componentType": 5125,
      "count": 6072,
      "type": "SCALAR"
    },
    {
      "bufferView": 2,
      "byteOffset": 38664,
      "componentType": 5126,
      "count": 25,
      "max": [
        2.450451374053955,
        12.57749080657959,
        -0.3166402578353882
      ],
      "min": [
        -2.450451374053955,
        5.043440818786621,
        -2.6053261756896973
      ],
      "type": "VEC3"
    },
    {
      "bufferView": 2,
      "byteOffset": 38964,
      "componentType": 5126,
      "count": 25,
      "max": [
        0.2836710512638092,
        0.3637639582157135,
        0.9702281951904297
      ],
      "min": [
        -0.28367099165916443,
        0.2106640636920929,
        0.9201928973197937
      ],
      "type": "VEC3"
    },
    {
      "bufferView": 3,
      "byteOffset": 25776,
      "componentType": 5126,
      "count": 25,
      "max": [
        0.018595600500702858,
        0.975031852722168,
        -0.22192886471748352,
        1.0
      ],
      "min": [
        -0.01859210804104805,
        0.9314912557601929,
        -0.3637639880180359,
        1.0
      ],
      "type": "VEC4"
    },
    {
      "bufferView": 1,
      "byteOffset": 12888,
      "componentType": 5126,
      "count": 25,
      "max": [
        0.7106059789657593,
        0.6969813108444214
      ],
      "min": [
        0.4048205614089966,
        0.5014368891716003
      ],
      "type": "VEC2"
    },
    {
      "bufferView": 0,
      "byteOffset": 24288,
      "componentType": 5125,
      "count": 96,
      "type": "SCALAR"
    },
    {
      "bufferView": 2,
      "byteOffset": 39264,
      "componentType": 5126,
      "count": 30,
      "max": [
        1.2667649984359741,
        13.893790245056152,
        -8.925374984741211
      ],
      "min": [
        -1.2667649984359741,
        13.330345153808594,
        -9.42395305633545
      ],
      "type": "VEC3"
    },
    {
      "bufferView": 2,
      "byteOffset": 39624,
      "componentType": 5126,
      "count": 30,
      "max": [
        0.20719139277935028,
        0.8558522462844849,
        0.8442431092262268
      ],
      "min": [
        -0.20719163119792938,
        -0.835525393486023,
        -0.5496024489402771
      ],
      "type": "VEC3"
    },
    {
      "bufferView": 3,
      "byteOffset": 26176,
      "componentType": 5126,
      "count": 30,
      "max": [
        -0.9606021642684937,
        0.26630860567092896,
        0.07951966673135757,
        1.0
      ],
      "min": [
        -0.9999621510505676,
        -0.266308456659317,
        -0.07951955497264862,
        1.0
      ],
      "type": "VEC4"
    },
    {
      "bufferView": 1,
      "byteOffset": 13088,
      "componentType": 5126,
      "count": 30,
      "max": [
        0.11943113803863525,
        0.6584562063217163
      ],
      "min": [
        0.016536951065063477,
        0.6155740022659302
      ],
      "type": "VEC2"
    },
    {
      "bufferView": 0,
      "byteOffset": 24672,
      "componentType": 5125,
      "count": 72,
      "type": "SCALAR"
    },
    {
      "bufferView": 2,
      "byteOffset": 39984,
      "componentType": 5126,
      "count": 30,
      "max": [
        1.4743729829788208,
        13.56554889678955,
        -8.943544387817383
      ],
      "min": [
        -1.4743729829788208,
        12.942835807800293,
        -9.415918350219727
      ],
      "type": "VEC3"
    },
    {
      "bufferView": 2,
      "byteOffset": 40344,
      "componentType": 5126,
      "count": 30,
      "max": [
        0.19656217098236084,
        0.8251747488975525,
        0.8318560123443604
      ],
      "min": [
        -0.19656193256378174,
        -0.8251741528511047,
        -0.5648785829544067
      ],
      "type": "VEC3"
    },
    {
      "bufferView": 3,
      "byteOffset": 26656,
      "componentType": 5126,
      "count": 30,
      "max": [
        -0.9568914771080017,
        0.27996712923049927,
        0.07730966806411743,
        1.0
      ],
      "min": [
        -0.9998794198036194,
        -0.27996647357940674,
        -0.07731149345636368,
        1.0
      ],
      "type": "VEC4"
    },
    {
      "bufferView": 1,
      "byteOffset": 13328,
      "componentType": 5126,
      "count": 30,
      "max": [
        0.1278333067893982,
        0.6990517377853394
      ],
      "min": [
        0.008134663105010986,
        0.6584562063217163
      ],
      "type": "VEC2"
    },
    {
      "bufferView": 0,
      "byteOffset": 24960,
      "componentType": 5125,
      "count": 72,
      "type": "SCALAR"
    },
    {
      "bufferView": 2,
      "byteOffset": 40704,
      "componentType": 5126,
      "count": 30,
      "max": [
        1.451051115989685,
        13.18857479095459,
        -8.915968894958496
      ],
      "min": [
        -1.451051115989685,
        12.53974723815918,
        -9.428863525390625
      ],
      "type": "VEC3"
    },
    {
      "bufferView": 2,
      "byteOffset": 41064,
      "componentType": 5126,
      "count": 30,
      "max": [
        0.19376227259635925,
        0.8318567872047424,
        0.8318592309951782
      ],
      "min": [
        -0.19376258552074432,
        -0.8318567872047424,
        -0.5549904704093933
      ],
      "type": "VEC3"
    },
    {
      "bufferView": 3,
      "byteOffset": 27136,
      "componentType": 5126,
      "count": 30,
      "max": [
        -0.957708477973938,
        0.2776867151260376,
        0.07539568841457367,
        1.0
      ],
      "min": [
        -0.9998517632484436,
        -0.2776870131492615,
        -0.07539570331573486,
        1.0
      ],
      "type": "VEC4"
    },
    {
      "bufferView": 1,
      "byteOffset": 13568,
      "componentType": 5126,
      "count": 30,
      "max": [
        0.12706226110458374,
        0.6155740022659302
      ],
      "min": [
        0.00890582799911499,
        0.5708218216896057
      ],
      "type": "VEC2"
    },
    {
      "bufferView": 0,
      "byteOffset": 25248,
      "componentType": 5125,
      "count": 72,
      "type": "SCALAR"
    },
    {
      "bufferView": 2,
      "byteOffset": 41424,
      "componentType": 5126,
      "count": 227,
      "max": [
        0.7326933741569519,
        12.912640571594238,
        -2.344277858734131
      ],
      "min": [
        -0.7326934337615967,
        12.554363250732422,
        -6.767599105834961
      ],
      "type": "VEC3"
    },
    {
      "bufferView": 2,
      "byteOffset": 44148,
      "componentType": 5126,
      "count": 227,
      "max": [
        1.0,
        1.0,
        0.9402597546577454
      ],
      "min": [
        -1.0,
        -0.356201171875,
        -1.0
      ],
      "type": "VEC3"
    },
    {
      "bufferView": 3,
      "byteOffset": 27616,
      "componentType": 5126,
      "count": 227,
      "max": [
        0.6480017900466919,
        0.9823651909828186,
        0.35345783829689026,
        1.0
      ],
      "min": [
        -0.7922983169555664,
        -1.0,
        -1.0,
        1.0
      ],
      "type": "VEC4"
    },
    {
      "bufferView": 1,
      "byteOffset": 13808,
      "componentType": 5126,
      "count": 227,
      "max": [
        0.7185890674591064,
        0.4467395544052124
      ],
      "min": [
        0.5222358107566833,
        0.3748495578765869
      ],
      "type": "VEC2"
    },
    {
      "bufferView": 0,
      "byteOffset": 25536,
      "componentType": 5125,
      "count": 420,
      "type": "SCALAR"
    },
    {
      "bufferView": 2,
      "byteOffset": 46872,
      "componentType": 5126,
      "count": 322,
      "max": [
        1.8811864852905273,
        13.494646072387695,
        -0.17608630657196045
      ],
      "min": [
        -1.8811864852905273,
        12.436187744140625,
        -3.0272674560546875
      ],
      "type": "VEC3"
    },
    {
      "bufferView": 2,
      "byteOffset": 50736,
      "componentType": 5126,
      "count": 322,
      "max": [
        1.0,
        0.9999298453330994,
        0.9778459668159485
      ],
      "min": [
        -1.0,
        -1.0,
        -0.9854583740234375
      ],
      "type": "VEC3"
    },
    {
      "bufferView": 3,
      "byteOffset": 31248,
      "componentType": 5126,
      "count": 322,
      "max": [
        0.9923622608184814,
        0.9999958276748657,
        1.0,
        1.0
      ],
      "min": [
        -0.6170991063117981,
        -0.9854580163955688,
        -0.9999904036521912,
        1.0
      ],
      "type": "VEC4"
    },
    {
      "bufferView": 1,
      "byteOffset": 15624,
      "componentType": 5126,
      "count": 322,
      "max": [
        0.17108848690986633,
        0.9740254282951355
      ],
      "min": [
        0.010346174240112305,
        0.7165194749832153
      ],
      "type": "VEC2"
    },
    {
      "bufferView": 0,
      "byteOffset": 27216,
      "componentType": 5125,
      "count": 864,
      "type": "SCALAR"
    },
    {
      "bufferView": 2,
      "byteOffset": 54600,
      "componentType": 5126,
      "count": 169,
      "max": [
        -0.9394683837890625,
        13.243003845214844,
        -1.0201289653778076
      ],
      "min": [
        -1.4010353088378906,
        12.897390365600586,
        -1.453460931777954
      ],
      "type": "VEC3"
    },
    {
      "bufferView": 2,
      "byteOffset": 56628,
      "componentType": 5126,
      "count": 169,
      "max": [
        0.8222735524177551,
        0.9929602146148682,
        0.9976978898048401
      ],
      "min": [
        -0.9970571398735046,
        -0.36943843960762024,
        -0.6689346432685852
      ],
      "type": "VEC3"
    },
    {
      "bufferView": 3,
      "byteOffset": 36400,
      "componentType": 5126,
      "count": 169,
      "max": [
        0.8981041312217712,
        0.748749315738678,
        0.9904863238334656,
        1.0
      ],
      "min": [
        -0.998996913433075,
        -0.941309928894043,
        -0.6442723274230957,
        1.0
      ],
      "type": "VEC4"
    },
    {
      "bufferView": 1,
      "byteOffset": 18200,
      "componentType": 5126,
      "count": 169,
      "max": [
        0.06461977958679199,
        0.8073388934135437
      ],
      "min": [
        0.0312231183052063,
        0.7773590087890625
      ],
      "type": "VEC2"
    },
    {
      "bufferView": 0,
      "byteOffset": 30672,
      "componentType": 5125,
      "count": 714,
      "type": "SCALAR"
    },
    {
      "bufferView": 2,
      "byteOffset": 58656,
      "componentType": 5126,
      "count": 169,
      "max": [
        1.4010341167449951,
        13.24300479888916,
        -1.020129919052124
      ],
      "min": [
        0.9394679069519043,
        12.897392272949219,
        -1.453460693359375
      ],
      "type": "VEC3"
    },
    {
      "bufferView": 2,
      "byteOffset": 60684,
      "componentType": 5126,
      "count": 169,
      "max": [
        0.9970575571060181,
        0.9929606318473816,
        0.9976967573165894
      ],
      "min": [
        -0.8222740292549133,
        -0.36942943930625916,
        -0.6689369678497314
      ],
      "type": "VEC3"
    },
    {
      "bufferView": 3,
      "byteOffset": 39104,
      "componentType": 5126,
      "count": 169,
      "max": [
        0.9999409317970276,
        0.755142092704773,
        0.9583187103271484,
        1.0
      ],
      "min": [
        -0.8716021180152893,
        -0.9373011589050293,
        -0.7991806268692017,
        1.0
      ],
      "type": "VEC4"
    },
    {
      "bufferView": 1,
      "byteOffset": 19552,
      "componentType": 5126,
      "count": 169,
      "max": [
        0.06395658850669861,
        0.8242021203041077
      ],
      "min": [
        0.03122234344482422,
        0.7696858644485474
      ],
      "type": "VEC2"
    },
    {
      "bufferView": 0,
      "byteOffset": 33528,
      "componentType": 5125,
      "count": 714,
      "type": "SCALAR"
    },
    {
      "bufferView": 2,
      "byteOffset": 62712,
      "componentType": 5126,
      "count": 180,
      "max": [
        0.4374649226665497,
        13.123650550842285,
        -13.796304702758789
      ],
      "min": [
        -0.4374640882015228,
        12.710866928100586,
        -15.463908195495605
      ],
      "type": "VEC3"
    },
    {
      "bufferView": 2,
      "byteOffset": 64872,
      "componentType": 5126,
      "count": 180,
      "max": [
        1.0,
        1.0,
        1.0
      ],
      "min": [
        -1.0,
        0.0,
        -1.0
      ],
      "type": "VEC3"
    },
    {
      "bufferView": 3,
      "byteOffset": 41808,
      "componentType": 5126,
      "count": 180,
      "max": [
        0.9993513822555542,
        0.9998775124549866,
        0.6293206810951233,
        1.0
      ],
      "min": [
        -0.9573289155960083,
        -0.9994920492172241,
        -0.5675058960914612,
        1.0
      ],
      "type": "VEC4"
    },
    {
      "bufferView": 1,
      "byteOffset": 20904,
      "componentType": 5126,
      "count": 180,
      "max": [
        0.5552480220794678,
        0.9806737303733826
      ],
      "min": [
        0.4225008189678192,
        0.8656784892082214
      ],
      "type": "VEC2"
    },
    {
      "bufferView": 0,
      "byteOffset": 36384,
      "componentType": 5125,
      "count": 660,
      "type": "SCALAR"
    },
    {
      "bufferView": 2,
      "byteOffset": 67032,
      "componentType": 5126,
      "count": 146,
      "max": [
        0.1408827155828476,
        15.200108528137207,
        -14.068431854248047
      ],
      "min": [
        -0.14088325202465057,
        13.033066749572754,
        -16.752553939819336
      ],
      "type": "VEC3"
    },
    {
      "bufferView": 2,
      "byteOffset": 68784,
      "componentType": 5126,
      "count": 146,
      "max": [
        0.9983806014060974,
        0.9539141058921814,
        0.8222225308418274
      ],
      "min": [
        -0.9983806014060974,
        -0.9627336859703064,
        -0.905299186706543
      ],
      "type": "VEC3"
    },
    {
      "bufferView": 3,
      "byteOffset": 44688,
      "componentType": 5126,
      "count": 146,
      "max": [
        0.843601644039154,
        0.6753793358802795,
        0.8973050713539124,
        1.0
      ],
      "min": [
        -0.9877557754516602,
        -0.7629681825637817,
        -0.9150607585906982,
        1.0
      ],
      "type": "VEC4"
    },
    {
      "bufferView": 1,
      "byteOffset": 22344,
      "componentType": 5126,
      "count": 146,
      "max": [
        0.5676054954528809,
        0.9095228314399719
      ],
      "min": [
        0.36951014399528503,
        0.728499710559845
      ],
      "type": "VEC2"
    },
    {
      "bufferView": 0,
      "byteOffset": 39024,
      "componentType": 5125,
      "count": 288,
      "type": "SCALAR"
    },
    {
      "bufferView": 2,
      "byteOffset": 70536,
      "componentType": 5126,
      "count": 264,
      "max": [
        0.6966456770896912,
        12.698139190673828,
        -15.905139923095703
      ],
      "min": [
        -0.6966460347175598,
        11.304847717285156,
        -17.64885139465332
      ],
      "type": "VEC3"
    },
    {
      "bufferView": 2,
      "byteOffset": 73704,
      "componentType": 5126,
      "count": 264,
      "max": [
        0.9962971210479736,
        0.9942570328712463,
        -0.03697289526462555
      ],
      "min": [
        -0.9962971806526184,
        -0.9993163347244263,
        -1.0
      ],
      "type": "VEC3"
    },
    {
      "bufferView": 3,
      "byteOffset": 47024,
      "componentType": 5126,
      "count": 264,
      "max": [
        1.0,
        0.9997888207435608,
        0.4595179259777069,
        1.0
      ],
      "min": [
        -0.9432001113891602,
        -0.9997993111610413,
        -0.45420438051223755,
        1.0
      ],
      "type": "VEC4"
    },
    {
      "bufferView": 1,
      "byteOffset": 23512,
      "componentType": 5126,
      "count": 264,
      "max": [
        0.3143531382083893,
        0.7677451968193054
      ],
      "min": [
        0.15381541848182678,
        0.6185704469680786
      ],
      "type": "VEC2"
    },
    {
      "bufferView": 0,
      "byteOffset": 40176,
      "componentType": 5125,
      "count": 540,
      "type": "SCALAR"
    },
    {
      "bufferView": 2,
      "byteOffset": 76872,
      "componentType": 5126,
      "count": 114,
      "max": [
        -0.4239070415496826,
        12.436202049255371,
        -16.860801696777344
      ],
      "min": [
        -0.7915358543395996,
        11.520695686340332,
        -19.0048885345459
      ],
      "type": "VEC3"
    },
    {
      "bufferView": 2,
      "byteOffset": 78240,
      "componentType": 5126,
      "count": 114,
      "max": [
        0.9954302906990051,
        0.9710688591003418,
        0.9163275361061096
      ],
      "min": [
        -0.9935330152511597,
        -0.9710679054260254,
        -0.8694159984588623
      ],
      "type": "VEC3"
    },
    {
      "bufferView": 3,
      "byteOffset": 51248,
      "componentType": 5126,
      "count": 114,
      "max": [
        0.9130498766899109,
        0.8337891697883606,
        0.9952033758163452,
        1.0
      ],
      "min": [
        -0.8615520596504211,
        -0.8624145984649658,
        -0.9935025572776794,
        -1.0
      ],
      "type": "VEC4"
    },
    {
      "bufferView": 1,
      "byteOffset": 25624,
      "componentType": 5126,
      "count": 114,
      "max": [
        0.3558148145675659,
        0.8811399340629578
      ],
      "min": [
        0.18080300092697144,
        0.8342467546463013
      ],
      "type": "VEC2"
    },
    {
      "bufferView": 0,
      "byteOffset": 42336,
      "componentType": 5125,
      "count": 276,
      "type": "SCALAR"
    },
    {
      "bufferView": 2,
      "byteOffset": 79608,
      "componentType": 5126,
      "count": 114,
      "max": [
        0.45775341987609863,
        11.554540634155273,
        -16.860801696777344
      ],
      "min": [
        -0.45775365829467773,
        11.18691349029541,
        -19.0048885345459
      ],
      "type": "VEC3"
    },
    {
      "bufferView": 2,
      "byteOffset": 80976,
      "componentType": 5126,
      "count": 114,
      "max": [
        0.9710681438446045,
        0.9954301714897156,
        0.9163329005241394
      ],
      "min": [
        -0.9710679650306702,
        -0.9935329556465149,
        -0.8694144487380981
      ],
      "type": "VEC3"
    },
    {
      "bufferView": 3,
      "byteOffset": 53072,
      "componentType": 5126,
      "count": 114,
      "max": [
        0.8821130394935608,
        0.8983332514762878,
        0.9949801564216614,
        1.0
      ],
      "min": [
        -0.8309158086776733,
        -0.8613553047180176,
        -0.993350088596344,
        -1.0
      ],
      "type": "VEC4"
    },
    {
      "bufferView": 1,
      "byteOffset": 26536,
      "componentType": 5126,
      "count": 114,
      "max": [
        0.3558826446533203,
        0.9279962778091431
      ],
      "min": [
        0.18073523044586182,
        0.8811399936676025
      ],
      "type": "VEC2"
    },
    {
      "bufferView": 0,
      "byteOffset": 43440,
      "componentType": 5125,
      "count": 276,
      "type": "SCALAR"
    },
    {
      "bufferView": 2,
      "byteOffset": 82344,
      "componentType": 5126,
      "count": 114,
      "max": [
        0.7915353775024414,
        12.436203002929688,
        -16.860801696777344
      ],
      "min": [
        0.4239082336425781,
        11.520695686340332,
        -19.0048885345459
      ],
      "type": "VEC3"
    },
    {
      "bufferView": 2,
      "byteOffset": 83712,
      "componentType": 5126,
      "count": 114,
      "max": [
        0.9935330748558044,
        0.9710684418678284,
        0.916329026222229
      ],
      "min": [
        -0.9954303503036499,
        -0.9710643887519836,
        -0.8694243431091309
      ],
      "type": "VEC3"
    },
    {
      "bufferView": 3,
      "byteOffset": 54896,
      "componentType": 5126,
      "count": 114,
      "max": [
        0.8615448474884033,
        0.8968926668167114,
        0.9937017560005188,
        1.0
      ],
      "min": [
        -0.9201620817184448,
        -0.8189154863357544,
        -0.9934369325637817,
        -1.0
      ],
      "type": "VEC4"
    },
    {
      "bufferView": 1,
      "byteOffset": 27448,
      "componentType": 5126,
      "count": 114,
      "max": [
        0.35592401027679443,
        0.8342467546463013
      ],
      "min": [
        0.18069392442703247,
        0.786702036857605
      ],
      "type": "VEC2"
    },
    {
      "bufferView": 0,
      "byteOffset": 44544,
      "componentType": 5125,
      "count": 276,
      "type": "SCALAR"
    },
    {
      "bufferView": 2,
      "byteOffset": 85080,
      "componentType": 5126,
      "count": 114,
      "max": [
        0.45775389671325684,
        12.76998233795166,
        -16.860801696777344
      ],
      "min": [
        -0.45775341987609863,
        12.402355194091797,
        -19.00489044189453
      ],
      "type": "VEC3"
    },
    {
      "bufferView": 2,
      "byteOffset": 86448,
      "componentType": 5126,
      "count": 114,
      "max": [
        0.971068263053894,
        0.9935330748558044,
        0.9163184762001038
      ],
      "min": [
        -0.9710686206817627,
        -0.9954302310943604,
        -0.8693866729736328
      ],
      "type": "VEC3"
    },
    {
      "bufferView": 3,
      "byteOffset": 56720,
      "componentType": 5126,
      "count": 114,
      "max": [
        0.8494777679443359,
        0.8574987053871155,
        0.9952936768531799,
        1.0
      ],
      "min": [
        -0.851817786693573,
        -0.8988690376281738,
        -0.992535412311554,
        -1.0
      ],
      "type": "VEC4"
    },
    {
      "bufferView": 1,
      "byteOffset": 28360,
      "componentType": 5126,
      "count": 114,
      "max": [
        0.35612592101097107,
        0.9743391275405884
      ],
      "min": [
        0.18049204349517822,
        0.9279962778091431
      ],
      "type": "VEC2"
    },
    {
      "bufferView": 0,
      "byteOffset": 45648,
      "componentType": 5125,
      "count": 276,
      "type": "SCALAR"
    },
    {
      "bufferView": 2,
      "byteOffset": 87816,
      "componentType": 5126,
      "count": 368,
      "max": [
        -61.24903869628906,
        298.27288818359375,
        150.85720825195313
      ],
      "min": [
        -119.79704284667969,
        240.71678161621094,
        -11.501800537109375
      ],
      "type": "VEC3"
    },
    {
      "bufferView": 2,
      "byteOffset": 92232,
      "componentType": 5126,
      "count": 368,
      "max": [
        0.9797757863998413,
        0.9803311824798584,
        0.9969485998153687
      ],
      "min": [
        -0.9957889914512634,
        -0.976462185382843,
        -0.9969491958618164
      ],
      "type": "VEC3"
    },
    {
      "bufferView": 3,
      "byteOffset": 58544,
      "componentType": 5126,
      "count": 368,
      "max": [
        0.9870337843894958,
        0.9617692828178406,
        0.931425154209137,
        1.0
      ],
      "min": [
        -0.8916528224945068,
        -0.9769191145896912,
        -0.9980039596557617,
        -1.0
      ],
      "type": "VEC4"
    },
    {
      "bufferView": 1,
      "byteOffset": 29272,
      "componentType": 5126,
      "count": 368,
      "max": [
        0.7953811883926392,
        0.9797210097312927
      ],
      "min": [
        0.5694526433944702,
        0.6872914433479309
      ],
      "type": "VEC2"
    },
    {
      "bufferView": 0,
      "byteOffset": 46752,
      "componentType": 5125,
      "count": 720,
      "type": "SCALAR"
    },
    {
      "bufferView": 2,
      "byteOffset": 96648,
      "componentType": 5126,
      "count": 368,
      "max": [
        119.79708862304688,
        298.27294921875,
        150.85720825195313
      ],
      "min": [
        61.249114990234375,
        240.71678161621094,
        -11.5018310546875
      ],
      "type": "VEC3"
    },
    {
      "bufferView": 2,
      "byteOffset": 101064,
      "componentType": 5126,
      "count": 368,
      "max": [
        0.9957888126373291,
        0.9803441166877747,
        0.9969487190246582
      ],
      "min": [
        -0.9797762036323547,
        -0.9764619469642639,
        -0.9969512224197388
      ],
      "type": "VEC3"
    },
    {
      "bufferView": 3,
      "byteOffset": 64432,
      "componentType": 5126,
      "count": 368,
      "max": [
        0.9870333075523376,
        0.9769169092178345,
        0.9980040192604065,
        1.0
      ],
      "min": [
        -0.8915964365005493,
        -0.9617688059806824,
        -0.9310892820358276,
        1.0
      ],
      "type": "VEC4"
    },
    {
      "bufferView": 1,
      "byteOffset": 32216,
      "componentType": 5126,
      "count": 368,
      "max": [
        0.9961792826652527,
        0.9897668361663818
      ],
      "min": [
        0.7702507972717285,
        0.6973370909690857
      ],
      "type": "VEC2"
    },
    {
      "bufferView": 0,
      "byteOffset": 49632,
      "componentType": 5125,
      "count": 720,
      "type": "SCALAR"
    },
    {
      "bufferView": 2,
      "byteOffset": 105480,
      "componentType": 5126,
      "count": 300,
      "max": [
        1.9244766235351563,
        13.11670207977295,
        -12.119324684143066
      ],
      "min": [
        -1.9244766235351563,
        11.623424530029297,
        -13.555983543395996
      ],
      "type": "VEC3"
    },
    {
      "bufferView": 2,
      "byteOffset": 109080,
      "componentType": 5126,
      "count": 300,
      "max": [
        0.9968523383140564,
        1.0,
        0.9877108335494995
      ],
      "min": [
        -0.9968522787094116,
        -0.8006352186203003,
        -0.987711489200592
      ],
      "type": "VEC3"
    },
    {
      "bufferView": 3,
      "byteOffset": 70320,
      "componentType": 5126,
      "count": 300,
      "max": [
        0.9730592966079712,
        0.996611475944519,
        0.9613639116287231,
        1.0
      ],
      "min": [
        -0.3803529739379883,
        -0.9966114163398743,
        -0.9613639116287231,
        1.0
      ],
      "type": "VEC4"
    },
    {
      "bufferView": 1,
      "byteOffset": 35160,
      "componentType": 5126,
      "count": 300,
      "max": [
        0.9040196537971497,
        0.8691139221191406
      ],
      "min": [
        0.09598034620285034,
        0.1869584619998932
      ],
      "type": "VEC2"
    },
    {
      "bufferView": 0,
      "byteOffset": 52512,
      "componentType": 5125,
      "count": 1056,
      "type": "SCALAR"
    },
    {
      "bufferView": 2,
      "byteOffset": 112680,
      "componentType": 5126,
      "count": 91,
      "max": [
        -3.5450611114501953,
        13.901521682739258,
        -15.336233139038086
      ],
      "min": [
        -3.977572441101074,
        12.824432373046875,
        -17.7276668548584
      ],
      "type": "VEC3"
    },
    {
      "bufferView": 2,
      "byteOffset": 113772,
      "componentType": 5126,
      "count": 91,
      "max": [
        0.9954303503036499,
        0.9710666537284851,
        0.9989771842956543
      ],
      "min": [
        -0.9935329556465149,
        -0.9710659384727478,
        -0.869378387928009
      ],
      "type": "VEC3"
    },
    {
      "bufferView": 3,
      "byteOffset": 75120,
      "componentType": 5126,
      "count": 91,
      "max": [
        0.9443055391311646,
        0.7354263067245483,
        0.9954389333724976,
        1.0
      ],
      "min": [
        -0.8992947936058044,
        -0.8243774771690369,
        -0.9954308867454529,
        1.0
      ],
      "type": "VEC4"
    },
    {
      "bufferView": 1,
      "byteOffset": 37560,
      "componentType": 5126,
      "count": 91,
      "max": [
        0.26585495471954346,
        0.2903236746788025
      ],
      "min": [
        0.07850635051727295,
        0.23546981811523438
      ],
      "type": "VEC2"
    },
    {
      "bufferView": 0,
      "byteOffset": 56736,
      "componentType": 5125,
      "count": 204,
      "type": "SCALAR"
    },
    {
      "bufferView": 2,
      "byteOffset": 114864,
      "componentType": 5126,
      "count": 91,
      "max": [
        -2.5077919960021973,
        14.294211387634277,
        -15.336233139038086
      ],
      "min": [
        -3.58488130569458,
        13.861700057983398,
        -17.7276668548584
      ],
      "type": "VEC3"
    },
    {
      "bufferView": 2,
      "byteOffset": 115956,
      "componentType": 5126,
      "count": 91,
      "max": [
        0.9710670709609985,
        0.9935328960418701,
        0.9989770650863647
      ],
      "min": [
        -0.971066951751709,
        -0.9954302906990051,
        -0.8693788647651672
      ],
      "type": "VEC3"
    },
    {
      "bufferView": 3,
      "byteOffset": 76576,
      "componentType": 5126,
      "count": 91,
      "max": [
        0.7370593547821045,
        0.8992813229560852,
        0.9954434633255005,
        1.0
      ],
      "min": [
        -0.8233628273010254,
        -0.9443254470825195,
        -0.9954414367675781,
        1.0
      ],
      "type": "VEC4"
    },
    {
      "bufferView": 1,
      "byteOffset": 38288,
      "componentType": 5126,
      "count": 91,
      "max": [
        0.19060605764389038,
        0.2438337504863739
      ],
      "min": [
        0.003204524517059326,
        0.18897292017936707
      ],
      "type": "VEC2"
    },
    {
      "bufferView": 0,
      "byteOffset": 57552,
      "componentType": 5125,
      "count": 204,
      "type": "SCALAR"
    },
    {
      "bufferView": 2,
      "byteOffset": 117048,
      "componentType": 5126,
      "count": 91,
      "max": [
        -2.1151018142700195,
        13.901519775390625,
        -15.336233139038086
      ],
      "min": [
        -2.5476131439208984,
        12.824430465698242,
        -17.7276668548584
      ],
      "type": "VEC3"
    },
    {
      "bufferView": 2,
      "byteOffset": 118140,
      "componentType": 5126,
      "count": 91,
      "max": [
        0.9935329556465149,
        0.9710662364959717,
        0.9989772439002991
      ],
      "min": [
        -0.9954303503036499,
        -0.9710671305656433,
        -0.8693794012069702
      ],
      "type": "VEC3"
    },
    {
      "bufferView": 3,
      "byteOffset": 78032,
      "componentType": 5126,
      "count": 91,
      "max": [
        0.8993191719055176,
        0.826013445854187,
        0.9954261183738708,
        1.0
      ],
      "min": [
        -0.9443268775939941,
        -0.7327942252159119,
        -0.9953973293304443,
        1.0
      ],
      "type": "VEC4"
    },
    {
      "bufferView": 1,
      "byteOffset": 39016,
      "componentType": 5126,
      "count": 91,
      "max": [
        0.18983912467956543,
        0.32913458347320557
      ],
      "min": [
        0.002577543258666992,
        0.27429282665252686
      ],
      "type": "VEC2"
    },
    {
      "bufferView": 0,
      "byteOffset": 58368,
      "componentType": 5125,
      "count": 204,
      "type": "SCALAR"
    },
    {
      "bufferView": 2,
      "byteOffset": 119232,
      "componentType": 5126,
      "count": 91,
      "max": [
        -2.5077919960021973,
        12.864252090454102,
        -15.336233139038086
      ],
      "min": [
        -3.58488130569458,
        12.431740760803223,
        -17.7276668548584
      ],
      "type": "VEC3"
    },
    {
      "bufferView": 2,
      "byteOffset": 120324,
      "componentType": 5126,
      "count": 91,
      "max": [
        0.9710664749145508,
        0.9954302906990051,
        0.99897700548172
      ],
      "min": [
        -0.9710677862167358,
        -0.9935328364372253,
        -0.8693768978118896
      ],
      "type": "VEC3"
    },
    {
      "bufferView": 3,
      "byteOffset": 79488,
      "componentType": 5126,
      "count": 91,
      "max": [
        0.826213002204895,
        0.9443058371543884,
        0.9954241514205933,
        1.0
      ],
      "min": [
        -0.7324286699295044,
        -0.8993242383003235,
        -0.9953919053077698,
        1.0
      ],
      "type": "VEC4"
    },
    {
      "bufferView": 1,
      "byteOffset": 39744,
      "componentType": 5126,
      "count": 91,
      "max": [
        0.2641412615776062,
        0.3742167055606842
      ],
      "min": [
        0.07689040899276733,
        0.319376677274704
      ],
      "type": "VEC2"
    },
    {
      "bufferView": 0,
      "byteOffset": 59184,
      "componentType": 5125,
      "count": 204,
      "type": "SCALAR"
    },
    {
      "bufferView": 2,
      "byteOffset": 121416,
      "componentType": 5126,
      "count": 2303,
      "max": [
        -44.554176330566406,
        391.9652099609375,
        -103.75823974609375
      ],
      "min": [
        -180.2159881591797,
        277.142333984375,
        -388.74285888671875
      ],
      "type": "VEC3"
    },
    {
      "bufferView": 2,
      "byteOffset": 149052,
      "componentType": 5126,
      "count": 2303,
      "max": [
        1.0,
        1.0,
        1.0
      ],
      "min": [
        -1.0,
        -1.0,
        -1.0
      ],
      "type": "VEC3"
    },
    {
      "bufferView": 3,
      "byteOffset": 80944,
      "componentType": 5126,
      "count": 2303,
      "max": [
        1.0,
        1.0,
        1.0,
        1.0
      ],
      "min": [
        -1.0,
        -1.0,
        -1.0,
        1.0
      ],
      "type": "VEC4"
    },
    {
      "bufferView": 1,
      "byteOffset": 40472,
      "componentType": 5126,
      "count": 2303,
      "max": [
        0.38829243183135986,
        0.8150867819786072
      ],
      "min": [
        0.0,
        1.233816146850586e-05
      ],
      "type": "VEC2"
    },
    {
      "bufferView": 0,
      "byteOffset": 60000,
      "componentType": 5125,
      "count": 6954,
      "type": "SCALAR"
    },
    {
      "bufferView": 2,
      "byteOffset": 176688,
      "componentType": 5126,
      "count": 91,
      "max": [
        2.5476131439208984,
        13.901517868041992,
        -15.336233139038086
      ],
      "min": [
        2.1151018142700195,
        12.82442855834961,
        -17.7276668548584
      ],
      "type": "VEC3"
    },
    {
      "bufferView": 2,
      "byteOffset": 177780,
      "componentType": 5126,
      "count": 91,
      "max": [
        0.9954302906990051,
        0.9710665345191956,
        0.9989769458770752
      ],
      "min": [
        -0.9935330152511597,
        -0.9710667133331299,
        -0.8693724274635315
      ],
      "type": "VEC3"
    },
    {
      "bufferView": 3,
      "byteOffset": 117792,
      "componentType": 5126,
      "count": 91,
      "max": [
        0.8993121981620789,
        0.732794463634491,
        0.9953973293304443,
        1.0
      ],
      "min": [
        -0.9442851543426514,
        -0.8260125517845154,
        -0.9954262375831604,
        1.0
      ],
      "type": "VEC4"
    },
    {
      "bufferView": 1,
      "byteOffset": 58896,
      "componentType": 5126,
      "count": 91,
      "max": [
        0.997422456741333,
        0.32912224531173706
      ],
      "min": [
        0.8101608753204346,
        0.27428048849105835
      ],
      "type": "VEC2"
    },
    {
      "bufferView": 0,
      "byteOffset": 87816,
      "componentType": 5125,
      "count": 204,
      "type": "SCALAR"
    },
    {
      "bufferView": 2,
      "byteOffset": 178872,
      "componentType": 5126,
      "count": 91,
      "max": [
        3.58488130569458,
        12.864250183105469,
        -15.336233139038086
      ],
      "min": [
        2.5077919960021973,
        12.43173885345459,
        -17.7276668548584
      ],
      "type": "VEC3"
    },
    {
      "bufferView": 2,
      "byteOffset": 179964,
      "componentType": 5126,
      "count": 91,
      "max": [
        0.9710674285888672,
        0.9954303503036499,
        0.9989769458770752
      ],
      "min": [
        -0.9710667729377747,
        -0.9935328364372253,
        -0.8693738579750061
      ],
      "type": "VEC3"
    },
    {
      "bufferView": 3,
      "byteOffset": 119248,
      "componentType": 5126,
      "count": 91,
      "max": [
        0.8262142539024353,
        0.8993245959281921,
        0.9953919053077698,
        1.0
      ],
      "min": [
        -0.7324288487434387,
        -0.9443062543869019,
        -0.9954241514205933,
        1.0
      ],
      "type": "VEC4"
    },
    {
      "bufferView": 1,
      "byteOffset": 59624,
      "componentType": 5126,
      "count": 91,
      "max": [
        0.9231095910072327,
        0.3742043673992157
      ],
      "min": [
        0.7358587384223938,
        0.3193643391132355
      ],
      "type": "VEC2"
    },
    {
      "bufferView": 0,
      "byteOffset": 88632,
      "componentType": 5125,
      "count": 204,
      "type": "SCALAR"
    },
    {
      "bufferView": 2,
      "byteOffset": 181056,
      "componentType": 5126,
      "count": 91,
      "max": [
        3.977572441101074,
        13.901519775390625,
        -15.336233139038086
      ],
      "min": [
        3.5450611114501953,
        12.824430465698242,
        -17.7276668548584
      ],
      "type": "VEC3"
    },
    {
      "bufferView": 2,
      "byteOffset": 182148,
      "componentType": 5126,
      "count": 91,
      "max": [
        0.9935330152511597,
        0.9710667133331299,
        0.99897700548172
      ],
      "min": [
        -0.9954303503036499,
        -0.9710661172866821,
        -0.8693724274635315
      ],
      "type": "VEC3"
    },
    {
      "bufferView": 3,
      "byteOffset": 120704,
      "componentType": 5126,
      "count": 91,
      "max": [
        0.9443468451499939,
        0.8243768811225891,
        0.9954309463500977,
        1.0
      ],
      "min": [
        -0.899287760257721,
        -0.7354265451431274,
        -0.995438814163208,
        1.0
      ],
      "type": "VEC4"
    },
    {
      "bufferView": 1,
      "byteOffset": 60352,
      "componentType": 5126,
      "count": 91,
      "max": [
        0.921493649482727,
        0.290311336517334
      ],
      "min": [
        0.7341450452804565,
        0.23545747995376587
      ],
      "type": "VEC2"
    },
    {
      "bufferView": 0,
      "byteOffset": 89448,
      "componentType": 5125,
      "count": 204,
      "type": "SCALAR"
    },
    {
      "bufferView": 2,
      "byteOffset": 183240,
      "componentType": 5126,
      "count": 91,
      "max": [
        3.58488130569458,
        14.294209480285645,
        -15.336233139038086
      ],
      "min": [
        2.5077919960021973,
        13.861698150634766,
        -17.7276668548584
      ],
      "type": "VEC3"
    },
    {
      "bufferView": 2,
      "byteOffset": 184332,
      "componentType": 5126,
      "count": 91,
      "max": [
        0.9710672497749329,
        0.9935330152511597,
        0.9989769458770752
      ],
      "min": [
        -0.9710671305656433,
        -0.9954303503036499,
        -0.8693769574165344
      ],
      "type": "VEC3"
    },
    {
      "bufferView": 3,
      "byteOffset": 122160,
      "componentType": 5126,
      "count": 91,
      "max": [
        0.7370595335960388,
        0.9443264007568359,
        0.9954414367675781,
        1.0
      ],
      "min": [
        -0.8233630061149597,
        -0.8992823958396912,
        -0.9954434633255005,
        1.0
      ],
      "type": "VEC4"
    },
    {
      "bufferView": 1,
      "byteOffset": 61080,
      "componentType": 5126,
      "count": 91,
      "max": [
        0.9967954754829407,
        0.2438214123249054
      ],
      "min": [
        0.8093939423561096,
        0.18896058201789856
      ],
      "type": "VEC2"
    },
    {
      "bufferView": 0,
      "byteOffset": 90264,
      "componentType": 5125,
      "count": 204,
      "type": "SCALAR"
    },
    {
      "bufferView": 2,
      "byteOffset": 185424,
      "componentType": 5126,
      "count": 2336,
      "max": [
        180.2159881591797,
        391.96514892578125,
        -103.75823974609375
      ],
      "min": [
        44.554176330566406,
        277.14227294921875,
        -388.74285888671875
      ],
      "type": "VEC3"
    },
    {
      "bufferView": 2,
      "byteOffset": 213456,
      "componentType": 5126,
      "count": 2336,
      "max": [
        1.0,
        1.0,
        1.0
      ],
      "min": [
        -1.0,
        -1.0,
        -1.0
      ],
      "type": "VEC3"
    },
    {
      "bufferView": 3,
      "byteOffset": 123616,
      "componentType": 5126,
      "count": 2336,
      "max": [
        1.0,
        1.0,
        1.0,
        1.0
      ],
      "min": [
        -1.0,
        -1.0,
        -1.0,
        1.0
      ],
      "type": "VEC4"
    },
    {
      "bufferView": 1,
      "byteOffset": 61808,
      "componentType": 5126,
      "count": 2336,
      "max": [
        1.0,
        0.8150744438171387
      ],
      "min": [
        0.6117075681686401,
        0.0
      ],
      "type": "VEC2"
    },
    {
      "bufferView": 0,
      "byteOffset": 91080,
      "componentType": 5125,
      "count": 6954,
      "type": "SCALAR"
    },
    {
      "bufferView": 2,
      "byteOffset": 241488,
      "componentType": 5126,
      "count": 2663,
      "max": [
        365.559326171875,
        246.54489135742188,
        82.43727111816406
      ],
      "min": [
        72.49900817871094,
        67.83008575439453,
        -71.48692321777344
      ],
      "type": "VEC3"
    },
    {
      "bufferView": 2,
      "byteOffset": 273444,
      "componentType": 5126,
      "count": 2663,
      "max": [
        0.9985871315002441,
        0.9875490665435791,
        0.9990490674972534
      ],
      "min": [
        -0.9985871315002441,
        -0.9969853162765503,
        -0.9999614953994751
      ],
      "type": "VEC3"
    },
    {
      "bufferView": 3,
      "byteOffset": 160992,
      "componentType": 5126,
      "count": 2663,
      "max": [
        0.998754620552063,
        0.9997940063476563,
        0.999731719493866,
        1.0
      ],
      "min": [
        -0.9985846281051636,
        -0.9979684948921204,
        -0.9978668689727783,
        -1.0
      ],
      "type": "VEC4"
    },
    {
      "bufferView": 1,
      "byteOffset": 80496,
      "componentType": 5126,
      "count": 2663,
      "max": [
        0.8137989640235901,
        0.9951763153076172
      ],
      "min": [
        0.5,
        -1.233816146850586e-05
      ],
      "type": "VEC2"
    },
    {
      "bufferView": 0,
      "byteOffset": 118896,
      "componentType": 5125,
      "count": 8010,
      "type": "SCALAR"
    },
    {
      "bufferView": 2,
      "byteOffset": 305400,
      "componentType": 5126,
      "count": 2663,
      "max": [
        -72.73715209960938,
        247.10498046875,
        82.46601867675781
      ],
      "min": [
        -361.8879089355469,
        68.47679901123047,
        -71.93014526367188
      ],
      "type": "VEC3"
    },
    {
      "bufferView": 2,
      "byteOffset": 337356,
      "componentType": 5126,
      "count": 2663,
      "max": [
        0.9985871315002441,
        0.9875490665435791,
        0.9990490674972534
      ],
      "min": [
        -0.9985871911048889,
        -0.9969853162765503,
        -0.9999615550041199
      ],
      "type": "VEC3"
    },
    {
      "bufferView": 3,
      "byteOffset": 203600,
      "componentType": 5126,
      "count": 2663,
      "max": [
        0.9987546801567078,
        0.9979685544967651,
        0.9978669285774231,
        1.0
      ],
      "min": [
        -0.9985846281051636,
        -0.9997940063476563,
        -0.999731719493866,
        -1.0
      ],
      "type": "VEC4"
    },
    {
      "bufferView": 1,
      "byteOffset": 101800,
      "componentType": 5126,
      "count": 2663,
      "max": [
        0.5,
        0.9951886534690857
      ],
      "min": [
        0.1862010359764099,
        0.0
      ],
      "type": "VEC2"
    },
    {
      "bufferView": 0,
      "byteOffset": 150936,
      "componentType": 5125,
      "count": 8010,
      "type": "SCALAR"
    },
    {
      "bufferView": 2,
      "byteOffset": 369312,
      "componentType": 5126,
      "count": 2851,
      "max": [
        -15.409356117248535,
        75.41975402832031,
        116.08116149902344
      ],
      "min": [
        -109.43083190917969,
        41.37884521484375,
        15.513015747070313
      ],
      "type": "VEC3"
    },
    {
      "bufferView": 2,
      "byteOffset": 403524,
      "componentType": 5126,
      "count": 2851,
      "max": [
        0.9993255138397217,
        0.9999881386756897,
        0.99998939037323
      ],
      "min": [
        -1.0,
        -0.9999881386756897,
        -0.9999891519546509
      ],
      "type": "VEC3"
    },
    {
      "bufferView": 3,
      "byteOffset": 246208,
      "componentType": 5126,
      "count": 2851,
      "max": [
        0.9999949336051941,
        0.9998046159744263,
        0.9993036985397339,
        1.0
      ],
      "min": [
        -0.9999995827674866,
        -0.9999693632125854,
        -0.9982895851135254,
        1.0
      ],
      "type": "VEC4"
    },
    {
      "bufferView": 1,
      "byteOffset": 123104,
      "componentType": 5126,
      "count": 2851,
      "max": [
        0.1871466040611267,
        1.0018150806427002
      ],
      "min": [
        0.0017273426055908203,
        0.8323740363121033
      ],
      "type": "VEC2"
    },
    {
      "bufferView": 0,
      "byteOffset": 182976,
      "componentType": 5125,
      "count": 8202,
      "type": "SCALAR"
    },
    {
      "bufferView": 2,
      "byteOffset": 437736,
      "componentType": 5126,
      "count": 2851,
      "max": [
        109.43083190917969,
        75.41973876953125,
        116.08116149902344
      ],
      "min": [
        15.409358978271484,
        41.37882995605469,
        15.513015747070313
      ],
      "type": "VEC3"
    },
    {
      "bufferView": 2,
      "byteOffset": 471948,
      "componentType": 5126,
      "count": 2851,
      "max": [
        1.0,
        0.9999881386756897,
        0.99998939037323
      ],
      "min": [
        -0.9993255138397217,
        -0.9999881982803345,
        -0.9999891519546509
      ],
      "type": "VEC3"
    },
    {
      "bufferView": 3,
      "byteOffset": 291824,
      "componentType": 5126,
      "count": 2851,
      "max": [
        0.9999949932098389,
        0.9999693632125854,
        0.9982895255088806,
        1.0
      ],
      "min": [
        -0.9999996423721313,
        -0.9998044967651367,
        -0.9993034601211548,
        1.0
      ],
      "type": "VEC4"
    },
    {
      "bufferView": 1,
      "byteOffset": 145912,
      "componentType": 5126,
      "count": 2851,
      "max": [
        0.9982726573944092,
        1.0018028020858765
      ],
      "min": [
        0.8128533959388733,
        0.8323616981506348
      ],
      "type": "VEC2"
    },
    {
      "bufferView": 0,
      "byteOffset": 215784,
      "componentType": 5125,
      "count": 8202,
      "type": "SCALAR"
    },
    {
      "bufferView": 2,
      "byteOffset": 506160,
      "componentType": 5126,
      "count": 530,
      "max": [
        2.6095428466796875,
        12.849205017089844,
        2.819549560546875
      ],
      "min": [
        -2.6095428466796875,
        5.0986175537109375,
        -2.490631103515625
      ],
      "type": "VEC3"
    },
    {
      "bufferView": 2,
      "byteOffset": 512520,
      "componentType": 5126,
      "count": 530,
      "max": [
        0.998678982257843,
        0.9990500807762146,
        0.9983472228050232
      ],
      "min": [
        -0.998678982257843,
        -0.9990504384040833,
        -0.9983476996421814
      ],
      "type": "VEC3"
    },
    {
      "bufferView": 1,
      "byteOffset": 168720,
      "componentType": 5126,
      "count": 530,
      "max": [
        1.0,
        1.006765604019165
      ],
      "min": [
        0.0,
        0.7204987406730652
      ],
      "type": "VEC2"
    },
    {
      "bufferView": 0,
      "byteOffset": 248592,
      "componentType": 5125,
      "count": 2580,
      "type": "SCALAR"
    },
    {
      "bufferView": 2,
      "byteOffset": 518880,
      "componentType": 5126,
      "count": 3483,
      "max": [
        -100.43592071533203,
        271.3662414550781,
        494.18658447265625
      ],
      "min": [
        -214.03219604492188,
        23.065309524536133,
        95.04380798339844
      ],
      "type": "VEC3"
    },
    {
      "bufferView": 2,
      "byteOffset": 560676,
      "componentType": 5126,
      "count": 3483,
      "max": [
        1.0,
        0.9997488856315613,
        0.9995047450065613
      ],
      "min": [
        -1.0,
        -1.0,
        -0.9962470531463623
      ],
      "type": "VEC3"
    },
    {
      "bufferView": 1,
      "byteOffset": 172960,
      "componentType": 5126,
      "count": 3483,
      "max": [
        0.3824737071990967,
        0.7285519242286682
      ],
      "min": [
        0.0,
        0.0
      ],
      "type": "VEC2"
    },
    {
      "bufferView": 0,
      "byteOffset": 258912,
      "componentType": 5125,
      "count": 10236,
      "type": "SCALAR"
    },
    {
      "bufferView": 2,
      "byteOffset": 602472,
      "componentType": 5126,
      "count": 3529,
      "max": [
        5.4449286460876465,
        11.807801246643066,
        6.139126777648926
      ],
      "min": [
        2.5550668239593506,
        5.491084098815918,
        -4.0149946212768555
      ],
      "type": "VEC3"
    },
    {
      "bufferView": 2,
      "byteOffset": 644820,
      "componentType": 5126,
      "count": 3529,
      "max": [
        1.0,
        0.9997497797012329,
        0.9994989037513733
      ],
      "min": [
        -1.0,
        -1.0,
        -0.9962494969367981
      ],
      "type": "VEC3"
    },
    {
      "bufferView": 1,
      "byteOffset": 200824,
      "componentType": 5126,
      "count": 3529,
      "max": [
        1.0,
        0.7285519242286682
      ],
      "min": [
        0.6175262928009033,
        0.0
      ],
      "type": "VEC2"
    },
    {
      "bufferView": 0,
      "byteOffset": 299856,
      "componentType": 5125,
      "count": 10236,
      "type": "SCALAR"
    }
  ],
  "asset": {
    "extras": {
      "author": "Iñaki \"nani\" Zabalgoitia (https://sketchfab.com/nanizablab)",
      "license": "CC-BY-NC-SA-4.0 (http://creativecommons.org/licenses/by-nc-sa/4.0/)",
      "source": "https://sketchfab.com/3d-models/cartoon-spaceship-53233fb9cf9e45b1b339267ad623ea15",
      "title": "Cartoon Spaceship"
    },
    "generator": "Sketchfab-16.16.0",
    "version": "2.0"
  },
  "bufferViews": [
    {
      "buffer": 0,
      "byteLength": 340800,
      "name": "floatBufferViews",
      "target": 34963
    },
    {
      "buffer": 0,
      "byteLength": 229056,
      "byteOffset": 340800,
      "byteStride": 8,
      "name": "floatBufferViews",
      "target": 34962
    },
    {
      "buffer": 0,
      "byteLength": 687168,
      "byteOffset": 569856,
      "byteStride": 12,
      "name": "floatBufferViews",
      "target": 34962
    },
    {
      "buffer": 0,
      "byteLength": 337440,
      "byteOffset": 1257024,
      "byteStride": 16,
      "name": "floatBufferViews",
      "target": 34962
    }
  ],
  "buffers": [
    {
      "byteLength": 1594464,
      "uri": "scene.bin"
    }
  ],
  "images": [
    {
      "uri": "textures/aiStandardSurface1_baseColor.png"
    },
    {
      "uri": "textures/aiStandardSurface1_metallicRoughness.png"
    },
    {
      "uri": "textures/aiStandardSurface1_normal.png"
    },
    {
      "uri": "textures/aiStandardSurface2_baseColor.png"
    },
    {
      "uri": "textures/aiStandardSurface2_metallicRoughness.png"
    },
    {
      "uri": "textures/aiStandardSurface2_normal.png"
    },
    {
      "uri": "textures/aiStandardSurface6_baseColor.png"
    },
    {
      "uri": "textures/aiStandardSurface6_metallicRoughness.png"
    }
  ],
  "materials": [
    {
      "doubleSided": true,
      "name": "aiStandardSurface1",
      "normalTexture": {
        "index": 2
      },
      "pbrMetallicRoughness": {
        "baseColorTexture": {
          "index": 0
        },
        "metallicRoughnessTexture": {
          "index": 1
        }
      }
    },
    {
      "doubleSided": true,
      "name": "aiStandardSurface2",
      "normalTexture": {
        "index": 5
      },
      "pbrMetallicRoughness": {
        "baseColorTexture": {
          "index": 3
        },
        "metallicRoughnessTexture": {
          "index": 4
        }
      }
    },
    {
      "alphaMode": "BLEND",
      "doubleSided": true,
      "name": "aiStandardSurface6",
      "pbrMetallicRoughness": {
        "baseColorFactor": [
          1.0,
          1.0,
          1.0,
          0.11486880221864078
        ],
        "baseColorTexture": {
          "index": 6
        },
        "metallicRoughnessTexture": {
          "index": 7
        }
      }
    },
    {
      "alphaMode": "BLEND",
      "doubleSided": true,
      "name": "aiStandardSurface3",
      "pbrMetallicRoughness": {
        "baseColorTexture": {
          "index": 6
        },
        "metallicRoughnessTexture": {
          "index": 7
        }
      }
    }
  ],
  "meshes": [
    {
      "name": "body_aiStandardSurface1_0",
      "primitives": [
        {
          "attributes": {
            "NORMAL": 1,
            "POSITION": 0,
            "TANGENT": 2,
            "TEXCOORD_0": 3
          },
          "indices": 4,
          "material": 0,
          "mode": 4
        }
      ]
    },
    {
      "name": "cabin_bg_aiStandardSurface1_0",
      "primitives": [
        {
          "attributes": {
            "NORMAL": 6,
            "POSITION": 5,
            "TANGENT": 7,
            "TEXCOORD_0": 8
          },
          "indices": 9,
          "material": 0,
          "mode": 4
        }
      ]
    },
    {
      "name": "pCube5_aiStandardSurface1_0",
      "primitives": [
        {
          "attributes": {
            "NORMAL": 11,
            "POSITION": 10,
            "TANGENT": 12,
            "TEXCOORD_0": 13
          },
          "indices": 14,
          "material": 0,
          "mode": 4
        }
      ]
    },
    {
      "name": "pCube3_aiStandardSurface1_0",
      "primitives": [
        {
          "attributes": {
            "NORMAL": 16,
            "POSITION": 15,
            "TANGENT": 17,
            "TEXCOORD_0": 18
          },
          "indices": 19,
          "material": 0,
          "mode": 4
        }
      ]
    },
    {
      "name": "pCube4_aiStandardSurface1_0",
      "primitives": [
        {
          "attributes": {
            "NORMAL": 21,
            "POSITION": 20,
            "TANGENT": 22,
            "TEXCOORD_0": 23
          },
          "indices": 24,
          "material": 0,
          "mode": 4
        }
      ]
    },
    {
      "name": "top_detail_aiStandardSurface1_0",
      "primitives": [
        {
          "attributes": {
            "NORMAL": 26,
            "POSITION": 25,
            "TANGENT": 27,
            "TEXCOORD_0": 28
          },
          "indices": 29,
          "material": 0,
          "mode": 4
        }
      ]
    },
    {
      "name": "headpiece_main_aiStandardSurface1_0",
      "primitives": [
        {
          "attributes": {
            "NORMAL": 31,
            "POSITION": 30,
            "TANGENT": 32,
            "TEXCOORD_0": 33
          },
          "indices": 34,
          "material": 0,
          "mode": 4
        }
      ]
    },
    {
      "name": "polySurface131_aiStandardSurface1_0",
      "primitives": [
        {
          "attributes": {
            "NORMAL": 36,
            "POSITION": 35,
            "TANGENT": 37,
            "TEXCOORD_0": 38
          },
          "indices": 39,
          "material": 0,
          "mode": 4
        }
      ]
    },
    {
      "name": "polySurface130_aiStandardSurface1_0",
      "primitives": [
        {
          "attributes": {
            "NORMAL": 41,
            "POSITION": 40,
            "TANGENT": 42,
            "TEXCOORD_0": 43
          },
          "indices": 44,
          "material": 0,
          "mode": 4
        }
      ]
    },
    {
      "name": "pCylinder23_aiStandardSurface1_0",
      "primitives": [
        {
          "attributes": {
            "NORMAL": 46,
            "POSITION": 45,
            "TANGENT": 47,
            "TEXCOORD_0": 48
          },
          "indices": 49,
          "material": 0,
          "mode": 4
        }
      ]
    },
    {
      "name": "pCube16_aiStandardSurface1_0",
      "primitives": [
        {
          "attributes": {
            "NORMAL": 51,
            "POSITION": 50,
            "TANGENT": 52,
            "TEXCOORD_0": 53
          },
          "indices": 54,
          "material": 0,
          "mode": 4
        }
      ]
    },
    {
      "name": "thruster_back_middle_aiStandardSurface1_0",
      "primitives": [
        {
          "attributes": {
            "NORMAL": 56,
            "POSITION": 55,
            "TANGENT": 57,
            "TEXCOORD_0": 58
          },
          "indices": 59,
          "material": 0,
          "mode": 4
        }
      ]
    },
    {
      "name": "polySurface150_aiStandardSurface1_0",
      "primitives": [
        {
          "attributes": {
            "NORMAL": 61,
            "POSITION": 60,
            "TANGENT": 62,
            "TEXCOORD_0": 63
          },
          "indices": 64,
          "material": 0,
          "mode": 4
        }
      ]
    },
    {
      "name": "polySurface151_aiStandardSurface1_0",
      "primitives": [
        {
          "attributes": {
            "NORMAL": 66,
            "POSITION": 65,
            "TANGENT": 67,
            "TEXCOORD_0": 68
          },
          "indices": 69,
          "material": 0,
          "mode": 4
        }
      ]
    },
    {
      "name": "polySurface152_aiStandardSurface1_0",
      "primitives": [
        {
          "attributes": {
            "NORMAL": 71,
            "POSITION": 70,
            "TANGENT": 72,
            "TEXCOORD_0": 73
          },
          "indices": 74,
          "material": 0,
          "mode": 4
        }
      ]
    },
    {
      "name": "polySurface153_aiStandardSurface1_0",
      "primitives": [
        {
          "attributes": {
            "NORMAL": 76,
            "POSITION": 75,
            "TANGENT": 77,
            "TEXCOORD_0": 78
          },
          "indices": 79,
          "material": 0,
          "mode": 4
        }
      ]
    },
    {
      "name": "polySurface145_aiStandardSurface1_0",
      "primitives": [
        {
          "attributes": {
            "NORMAL": 81,
            "POSITION": 80,
            "TANGENT": 82,
            "TEXCOORD_0": 83
          },
          "indices": 84,
          "material": 0,
          "mode": 4
        }
      ]
    },
    {
      "name": "polySurface134_aiStandardSurface1_0",
      "primitives": [
        {
          "attributes": {
            "NORMAL": 86,
            "POSITION": 85,
            "TANGENT": 87,
            "TEXCOORD_0": 88
          },
          "indices": 89,
          "material": 0,
          "mode": 4
        }
      ]
    },
    {
      "name": "polySurface46_aiStandardSurface2_0",
      "primitives": [
        {
          "attributes": {
            "NORMAL": 91,
            "POSITION": 90,
            "TANGENT": 92,
            "TEXCOORD_0": 93
          },
          "indices": 94,
          "material": 1,
          "mode": 4
        }
      ]
    },
    {
      "name": "polySurface54_aiStandardSurface2_0",
      "primitives": [
        {
          "attributes": {
            "NORMAL": 96,
            "POSITION": 95,
            "TANGENT": 97,
            "TEXCOORD_0": 98
          },
          "indices": 99,
          "material": 1,
          "mode": 4
        }
      ]
    },
    {
      "name": "polySurface55_aiStandardSurface2_0",
      "primitives": [
        {
          "attributes": {
            "NORMAL": 101,
            "POSITION": 100,
            "TANGENT": 102,
            "TEXCOORD_0": 103
          },
          "indices": 104,
          "material": 1,
          "mode": 4
        }
      ]
    },
    {
      "name": "polySurface52_aiStandardSurface2_0",
      "primitives": [
        {
          "attributes": {
            "NORMAL": 106,
            "POSITION": 105,
            "TANGENT": 107,
            "TEXCOORD_0": 108
          },
          "indices": 109,
          "material": 1,
          "mode": 4
        }
      ]
    },
    {
      "name": "polySurface53_aiStandardSurface2_0",
      "primitives": [
        {
          "attributes": {
            "NORMAL": 111,
            "POSITION": 110,
            "TANGENT": 112,
            "TEXCOORD_0": 113
          },
          "indices": 114,
          "material": 1,
          "mode": 4
        }
      ]
    },
    {
      "name": "polySurface159_aiStandardSurface2_0",
      "primitives": [
        {
          "attributes": {
            "NORMAL": 116,
            "POSITION": 115,
            "TANGENT": 117,
            "TEXCOORD_0": 118
          },
          "indices": 119,
          "material": 1,
          "mode": 4
        }
      ]
    },
    {
      "name": "polySurface48_aiStandardSurface2_0",
      "primitives": [
        {
          "attributes": {
            "NORMAL": 121,
            "POSITION": 120,
            "TANGENT": 122,
            "TEXCOORD_0": 123
          },
          "indices": 124,
          "material": 1,
          "mode": 4
        }
      ]
    },
    {
      "name": "polySurface49_aiStandardSurface2_0",
      "primitives": [
        {
          "attributes": {
            "NORMAL": 126,
            "POSITION": 125,
            "TANGENT": 127,
            "TEXCOORD_0": 128
          },
          "indices": 129,
          "material": 1,
          "mode": 4
        }
      ]
    },
    {
      "name": "polySurface50_aiStandardSurface2_0",
      "primitives": [
        {
          "attributes": {
            "NORMAL": 131,
            "POSITION": 130,
            "TANGENT": 132,
            "TEXCOORD_0": 133
          },
          "indices": 134,
          "material": 1,
          "mode": 4
        }
      ]
    },
    {
      "name": "polySurface51_aiStandardSurface2_0",
      "primitives": [
        {
          "attributes": {
            "NORMAL": 136,
            "POSITION": 135,
            "TANGENT": 137,
            "TEXCOORD_0": 138
          },
          "indices": 139,
          "material": 1,
          "mode": 4
        }
      ]
    },
    {
      "name": "polySurface158_aiStandardSurface2_0",
      "primitives": [
        {
          "attributes": {
            "NORMAL": 141,
            "POSITION": 140,
            "TANGENT": 142,
            "TEXCOORD_0": 143
          },
          "indices": 144,
          "material": 1,
          "mode": 4
        }
      ]
    },
    {
      "name": "polySurface90_aiStandardSurface2_0",
      "primitives": [
        {
          "attributes": {
            "NORMAL": 146,
            "POSITION": 145,
            "TANGENT": 147,
            "TEXCOORD_0": 148
          },
          "indices": 149,
          "material": 1,
          "mode": 4
        }
      ]
    },
    {
      "name": "polySurface121_aiStandardSurface2_0",
      "primitives": [
        {
          "attributes": {
            "NORMAL": 151,
            "POSITION": 150,
            "TANGENT": 152,
            "TEXCOORD_0": 153
          },
          "indices": 154,
          "material": 1,
          "mode": 4
        }
      ]
    },
    {
      "name": "polySurface61_aiStandardSurface2_0",
      "primitives": [
        {
          "attributes": {
            "NORMAL": 156,
            "POSITION": 155,
            "TANGENT": 157,
            "TEXCOORD_0": 158
          },
          "indices": 159,
          "material": 1,
          "mode": 4
        }
      ]
    },
    {
      "name": "polySurface59_aiStandardSurface2_0",
      "primitives": [
        {
          "attributes": {
            "NORMAL": 161,
            "POSITION": 160,
            "TANGENT": 162,
            "TEXCOORD_0": 163
          },
          "indices": 164,
          "material": 1,
          "mode": 4
        }
      ]
    },
    {
      "name": "glass_aiStandardSurface6_0",
      "primitives": [
        {
          "attributes": {
            "NORMAL": 166,
            "POSITION": 165,
            "TEXCOORD_0": 167
          },
          "indices": 168,
          "material": 2,
          "mode": 4
        }
      ]
    },
    {
      "name": "polySurface65_aiStandardSurface3_0",
      "primitives": [
        {
          "attributes": {
            "NORMAL": 170,
            "POSITION": 169,
            "TEXCOORD_0": 171
          },
          "indices": 172,
          "material": 3,
          "mode": 4
        }
      ]
    },
    {
      "name": "polySurface66_aiStandardSurface3_0",
      "primitives": [
        {
          "attributes": {
            "NORMAL": 174,
            "POSITION": 173,
            "TEXCOORD_0": 175
          },
          "indices": 176,
          "material": 3,
          "mode": 4
        }
      ]
    }
  ],
  "nodes": [
    {
      "children": [
        1
      ],
      "matrix": [
        1.0,
        0.0,
        0.0,
        0.0,
        0.0,
        2.220446049250313e-16,
        -1.0,
        0.0,
        0.0,
        1.0,
        2.220446049250313e-16,
        0.0,
        0.0,
        0.0,
        0.0,
        1.0
      ],
      "name": "Sketchfab_model"
    },
    {
      "children": [
        2
      ],
      "matrix": [
        0.009999999776482582,
        0.0,
        0.0,
        0.0,
        0.0,
        0.0,
        0.009999999776482582,
        0.0,
        0.0,
        -0.009999999776482582,
        0.0,
        0.0,
        0.0,
        0.0,
        0.0,
        1.0
      ],
      "name": "animated2.fbx"
    },
    {
      "children": [
        3
      ],
      "name": "RootNode"
    },
    {
      "children": [
        4,
        47,
        83
      ],
      "matrix": [
        39.308494567871094,
        0.0,
        0.0,
        0.0,
        0.0,
        39.308494567871094,
        0.0,
        0.0,
        0.0,
        0.0,
        39.308494567871094,
        0.0,
        0.0,
        -192.78089904785156,
        252.8670654296875,
        1.0
      ],
      "name": "Robot_geo"
    },
    {
      "children": [
        5,
        7,
        9,
        16,
        18,
        25,
        30,
        42
      ],
      "name": "body_UV"
    },
    {
      "children": [
        6
      ],
      "name": "body"
    },
    {
      "mesh": 0,
      "name": "body_aiStandardSurface1_0"
    },
    {
      "children": [
        8
      ],
      "name": "cabin_bg"
    },
    {
      "mesh": 1,
      "name": "cabin_bg_aiStandardSurface1_0"
    },
    {
      "children": [
        10,
        12,
        14
      ],
      "matrix": [
        1.0,
        0.0,
        0.0,
        0.0,
        0.0,
        0.978031747938893,
        0.20845599061574993,
        0.0,
        0.0,
        -0.20845599061574993,
        0.978031747938893,
        0.0,
        0.0,
        -1.5191235542297363,
        -2.961446523666382,
        1.0
      ],
      "name": "upper_vent_grill"
    },
    {
      "children": [
        11
      ],
      "name": "pCube5"
    },
    {
      "mesh": 2,
      "name": "pCube5_aiStandardSurface1_0"
    },
    {
      "children": [
        13
      ],
      "name": "pCube3"
    },
    {
      "mesh": 3,
      "name": "pCube3_aiStandardSurface1_0"
    },
    {
      "children": [
        15
      ],
      "name": "pCube4"
    },
    {
      "mesh": 4,
      "name": "pCube4_aiStandardSurface1_0"
    },
    {
      "children": [
        17
      ],
      "name": "top_detail"
    },
    {
      "mesh": 5,
      "name": "top_detail_aiStandardSurface1_0"
    },
    {
      "children": [
        19,
        21,
        23
      ],
      "name": "headpiece"
    },
    {
      "children": [
        20
      ],
      "name": "headpiece_main"
    },
    {
      "mesh": 6,
      "name": "headpiece_main_aiStandardSurface1_0"
    },
    {
      "children": [
        22
      ],
      "name": "polySurface131"
    },
    {
      "mesh": 7,
      "name": "polySurface131_aiStandardSurface1_0"
    },
    {
      "children": [
        24
      ],
      "name": "polySurface130"
    },
    {
      "mesh": 8,
      "name": "polySurface130_aiStandardSurface1_0"
    },
    {
      "children": [
        26,
        28
      ],
      "matrix": [
        1.4037703275680542,
        0.0,
        0.0,
        0.0,
        0.0,
        1.4037703275680542,
        0.0,
        0.0,
        0.0,
        0.0,
        1.4037703275680542,
        0.0,
        -1.7026961529609252e-07,
        -5.156429290771484,
        6.0247650146484375,
        1.0
      ],
      "name": "tail"
    },
    {
      "children": [
        27
      ],
      "name": "pCylinder23"
    },
    {
      "mesh": 9,
      "name": "pCylinder23_aiStandardSurface1_0"
    },
    {
      "children": [
        29
      ],
      "name": "pCube16"
    },
    {
      "mesh": 10,
      "name": "pCube16_aiStandardSurface1_0"
    },
    {
      "children": [
        31,
        33
      ],
      "name": "middle_back_thruster"
    },
    {
      "children": [
        32
      ],
      "name": "thruster_back_middle"
    },
    {
      "mesh": 11,
      "name": "thruster_back_middle_aiStandardSurface1_0"
    },
    {
      "children": [
        34,
        36,
        38,
        40
      ],
      "name": "thruster_back_fins"
    },
    {
      "children": [
        35
      ],
      "name": "polySurface150"
    },
    {
      "mesh": 12,
      "name": "polySurface150_aiStandardSurface1_0"
    },
    {
      "children": [
        37
      ],
      "name": "polySurface151"
    },
    {
      "mesh": 13,
      "name": "polySurface151_aiStandardSurface1_0"
    },
    {
      "children": [
        39
      ],
      "name": "polySurface152"
    },
    {
      "mesh": 14,
      "name": "polySurface152_aiStandardSurface1_0"
    },
    {
      "children": [
        41
      ],
      "name": "polySurface153"
    },
    {
      "mesh": 15,
      "name": "polySurface153_aiStandardSurface1_0"
    },
    {
      "children": [
        43,
        45
      ],
      "name": "vents"
    },
    {
      "children": [
        44
      ],
      "matrix": [
        0.0254397951066494,
        0.0,
        0.0,
        0.0,
        0.0,
        0.0254397951066494,
        0.0,
        0.0,
        0.0,
        0.0,
        0.0254397951066494,
        0.0,
        -1.4210854715202004e-14,
        4.904306411743164,
        -6.432886123657227,
        1.0
      ],
      "name": "polySurface145"
    },
    {
      "mesh": 16,
      "name": "polySurface145_aiStandardSurface1_0"
    },
    {
      "children": [
        46
      ],
      "matrix": [
        0.0254397951066494,
        0.0,
        0.0,
        0.0,
        0.0,
        0.0254397951066494,
        0.0,
        0.0,
        0.0,
        0.0,
        0.0254397951066494,
        0.0,
        8.526512829121202e-14,
        4.904306411743164,
        -6.432886123657227,
        1.0
      ],
      "name": "polySurface134"
    },
    {
      "mesh": 17,
      "name": "polySurface134_aiStandardSurface1_0"
    },
    {
      "children": [
        48,
        73,
        78
      ],
      "name": "duplicates_UV"
    },
    {
      "children": [
        49,
        51,
        62
      ],
      "name": "thruster_back"
    },
    {
      "children": [
        50
      ],
      "name": "polySurface46"
    },
    {
      "mesh": 18,
      "name": "polySurface46_aiStandardSurface2_0"
    },
    {
      "children": [
        52,
        54,
        56,
        58,
        60
      ],
      "matrix": [
        1.0,
        0.0,
        0.0,
        0.0,
        0.0,
        1.0,
        0.0,
        0.0,
        0.0,
        0.0,
        1.0,
        0.0,
        0.0,
        0.0,
        8.881784197001252e-16,
        1.0
      ],
      "name": "group1"
    },
    {
      "children": [
        53
      ],
      "matrix": [
        1.0,
        0.0,
        0.0,
        0.0,
        0.0,
        1.0,
        0.0,
        0.0,
        0.0,
        0.0,
        1.0,
        0.0,
        0.0,
        0.0,
        8.881784197001252e-16,
        1.0
      ],
      "name": "polySurface54"
    },
    {
      "mesh": 19,
      "name": "polySurface54_aiStandardSurface2_0"
    },
    {
      "children": [
        55
      ],
      "matrix": [
        1.0,
        0.0,
        0.0,
        0.0,
        0.0,
        1.0,
        0.0,
        0.0,
        0.0,
        0.0,
        1.0,
        0.0,
        0.0,
        0.0,
        8.881784197001252e-16,
        1.0
      ],
      "name": "polySurface55"
    },
    {
      "mesh": 20,
      "name": "polySurface55_aiStandardSurface2_0"
    },
    {
      "children": [
        57
      ],
      "matrix": [
        1.0,
        0.0,
        0.0,
        0.0,
        0.0,
        1.0,
        0.0,
        0.0,
        0.0,
        0.0,
        1.0,
        0.0,
        0.0,
        0.0,
        8.881784197001252e-16,
        1.0
      ],
      "name": "polySurface52"
    },
    {
      "mesh": 21,
      "name": "polySurface52_aiStandardSurface2_0"
    },
    {
      "children": [
        59
      ],
      "matrix": [
        1.0,
        0.0,
        0.0,
        0.0,
        0.0,
        1.0,
        0.0,
        0.0,
        0.0,
        0.0,
        1.0,
        0.0,
        0.0,
        0.0,
        8.881784197001252e-16,
        1.0
      ],
      "name": "polySurface53"
    },
    {
      "mesh": 22,
      "name": "polySurface53_aiStandardSurface2_0"
    },
    {
      "children": [
        61
      ],
      "matrix": [
        0.0254397951066494,
        0.0,
        0.0,
        0.0,
        0.0,
        0.0254397951066494,
        0.0,
        0.0,
        0.0,
        0.0,
        0.0254397951066494,
        0.0,
        0.0,
        4.904306411743164,
        -6.432886123657227,
        1.0
      ],
      "name": "polySurface159"
    },
    {
      "mesh": 23,
      "name": "polySurface159_aiStandardSurface2_0"
    },
    {
      "children": [
        63,
        65,
        67,
        69,
        71
      ],
      "matrix": [
        1.0,
        0.0,
        0.0,
        0.0,
        0.0,
        1.0,
        0.0,
        0.0,
        0.0,
        0.0,
        1.0,
        0.0,
        0.0,
        0.0,
        8.881784197001252e-16,
        1.0
      ],
      "name": "group2"
    },
    {
      "children": [
        64
      ],
      "matrix": [
        1.0,
        0.0,
        0.0,
        0.0,
        0.0,
        1.0,
        0.0,
        0.0,
        0.0,
        0.0,
        1.0,
        0.0,
        0.0,
        0.0,
        8.881784197001252e-16,
        1.0
      ],
      "name": "polySurface48"
    },
    {
      "mesh": 24,
      "name": "polySurface48_aiStandardSurface2_0"
    },
    {
      "children": [
        66
      ],
      "matrix": [
        1.0,
        0.0,
        0.0,
        0.0,
        0.0,
        1.0,
        0.0,
        0.0,
        0.0,
        0.0,
        1.0,
        0.0,
        0.0,
        0.0,
        8.881784197001252e-16,
        1.0
      ],
      "name": "polySurface49"
    },
    {
      "mesh": 25,
      "name": "polySurface49_aiStandardSurface2_0"
    },
    {
      "children": [
        68
      ],
      "matrix": [
        1.0,
        0.0,
        0.0,
        0.0,
        0.0,
        1.0,
        0.0,
        0.0,
        0.0,
        0.0,
        1.0,
        0.0,
        0.0,
        0.0,
        8.881784197001252e-16,
        1.0
      ],
      "name": "polySurface50"
    },
    {
      "mesh": 26,
      "name": "polySurface50_aiStandardSurface2_0"
    },
    {
      "children": [
        70
      ],
      "matrix": [
        1.0,
        0.0,
        0.0,
        0.0,
        0.0,
        1.0,
        0.0,
        0.0,
        0.0,
        0.0,
        1.0,
        0.0,
        0.0,
        0.0,
        8.881784197001252e-16,
        1.0
      ],
      "name": "polySurface51"
    },
    {
      "mesh": 27,
      "name": "polySurface51_aiStandardSurface2_0"
    },
    {
      "children": [
        72
      ],
      "matrix": [
        0.0254397951066494,
        0.0,
        0.0,
        0.0,
        0.0,
        0.0254397951066494,
        0.0,
        0.0,
        0.0,
        0.0,
        0.0254397951066494,
        0.0,
        0.0,
        4.904306411743164,
        -6.432886123657227,
        1.0
      ],
      "name": "polySurface158"
    },
    {
      "mesh": 28,
      "name": "polySurface158_aiStandardSurface2_0"
    },
    {
      "children": [
        74,
        76
      ],
      "matrix": [
        1.0,
        0.0,
        0.0,
        0.0,
        0.0,
        1.0,
        0.0,
        0.0,
        0.0,
        0.0,
        1.0,
        0.0,
        0.0,
        0.0,
        8.881784197001252e-16,
        1.0
      ],
      "name": "wings"
    },
    {
      "children": [
        75
      ],
      "matrix": [
        0.0254397951066494,
        0.0,
        0.0,
        0.0,
        0.0,
        0.0254397951066494,
        0.0,
        0.0,
        0.0,
        0.0,
        0.0254397951066494,
        0.0,
        -5.684341886080802e-14,
        4.904306411743164,
        -6.432886123657227,
        1.0
      ],
      "name": "polySurface90"
    },
    {
      "mesh": 29,
      "name": "polySurface90_aiStandardSurface2_0"
    },
    {
      "children": [
        77
      ],
      "matrix": [
        0.0254397951066494,
        0.0,
        0.0,
        0.0,
        0.0,
        0.0254397951066494,
        0.0,
        0.0,
        0.0,
        0.0,
        0.0254397951066494,
        0.0,
        5.684341886080802e-14,
        4.904306411743164,
        -6.432886123657227,
        1.0
      ],
      "name": "polySurface121"
    },
    {
      "mesh": 30,
      "name": "polySurface121_aiStandardSurface2_0"
    },
    {
      "children": [
        79,
        81
      ],
      "matrix": [
        0.0254397951066494,
        0.0,
        0.0,
        0.0,
        0.0,
        0.0254397951066494,
        0.0,
        0.0,
        0.0,
        0.0,
        0.0254397951066494,
        0.0,
        0.0,
        4.904306411743164,
        -6.432886123657227,
        1.0
      ],
      "name": "thrusters_belly"
    },
    {
      "children": [
        80
      ],
      "name": "polySurface61"
    },
    {
      "mesh": 31,
      "name": "polySurface61_aiStandardSurface2_0"
    },
    {
      "children": [
        82
      ],
      "name": "polySurface59"
    },
    {
      "mesh": 32,
      "name": "polySurface59_aiStandardSurface2_0"
    },
    {
      "children": [
        84,
        86,
        88
      ],
      "name": "Guns_glass_UV"
    },
    {
      "children": [
        85
      ],
      "name": "glass"
    },
    {
      "mesh": 33,
      "name": "glass_aiStandardSurface6_0"
    },
    {
      "children": [
        87
      ],
      "matrix": [
        0.0254397951066494,
        0.0,
        0.0,
        0.0,
        0.0,
        0.0254397951066494,
        0.0,
        0.0,
        0.0,
        0.0,
        0.0254397951066494,
        0.0,
        -5.684341886080802e-14,
        4.904306411743164,
        -6.432886123657227,
        1.0
      ],
      "name": "polySurface65"
    },
    {
      "mesh": 34,
      "name": "polySurface65_aiStandardSurface3_0"
    },
    {
      "children": [
        89
      ],
      "name": "polySurface66"
    },
    {
      "mesh": 35,
      "name": "polySurface66_aiStandardSurface3_0"
    }
  ],
  "samplers": [
    {
      "magFilter": 9729,
      "minFilter": 9987,
      "wrapS": 10497,
      "wrapT": 10497
    }
  ],
  "scene": 0,
  "scenes": [
    {
      "name": "Sketchfab_Scene",
      "nodes": [
        0
      ]
    }
  ],
  "textures": [
    {
      "sampler": 0,
      "source": 0
    },
    {
      "sampler": 0,
      "source": 1
    },
    {
      "sampler": 0,
      "source": 2
    },
    {
      "sampler": 0,
      "source": 3
    },
    {
      "sampler": 0,
      "source": 4
    },
    {
      "sampler": 0,
      "source": 5
    },
    {
      "sampler": 0,
      "source": 6
    },
    {
      "sampler": 0,
      "source": 7
    }
  ]
}
