{
  "accessors": [
    {
      "bufferView": 2,
      "componentType": 5126,
      "count": 1993,
      "max": [
        423.389892578125,
        122.10549926757813,
        74.36572265625
      ],
      "min": [
        -210.4144287109375,
        -199.09783935546875,
        -28.83924674987793
      ],
      "type": "VEC3"
    },
    {
      "bufferView": 2,
      "byteOffset": 23916,
      "componentType": 5126,
      "count": 1993,
      "max": [
        1.0,
        1.0,
        1.0
      ],
      "min": [
        -1.0,
        -1.0,
        -1.0
      ],
      "type": "VEC3"
    },
    {
      "bufferView": 3,
      "componentType": 5126,
      "count": 1993,
      "max": [
        1.0,
        0.9999926090240479,
        0.9999999403953552,
        1.0
      ],
      "min": [
        -1.0,
        -0.9999889135360718,
        -0.9975026845932007,
        -1.0
      ],
      "type": "VEC4"
    },
    {
      "bufferView": 1,
      "componentType": 5126,
      "count": 1993,
      "max": [
        0.9967030882835388,
        0.9812886714935303
      ],
      "min": [
        0.002071589231491089,
        0.07917073369026184
      ],
      "type": "VEC2"
    },
    {
      "bufferView": 0,
      "componentType": 5125,
      "count": 4830,
      "type": "SCALAR"
    }
  ],
  "asset": {
    "extras": {
      "author": "Rob_scikor (https://sketchfab.com/Rob_scikor)",
      "license": "CC-BY-4.0 (http://creativecommons.org/licenses/by/4.0/)",
      "source": "https://sketchfab.com/3d-models/alien-military-aircraft-5309fc6b88f1435b838cb95628148161",
      "title": "Alien Military Aircraft"
    },
    "generator": "Sketchfab-12.66.0",
    "version": "2.0"
  },
  "bufferViews": [
    {
      "buffer": 0,
      "byteLength": 19320,
      "name": "floatBufferViews",
      "target": 34963
    },
    {
      "buffer": 0,
      "byteLength": 15944,
      "byteOffset": 19320,
      "byteStride": 8,
      "name": "floatBufferViews",
      "target": 34962
    },
    {
      "buffer": 0,
      "byteLength": 47832,
      "byteOffset": 35264,
      "byteStride": 12,
      "name": "floatBufferViews",
      "target": 34962
    },
    {
      "buffer": 0,
      "byteLength": 31888,
      "byteOffset": 83096,
      "byteStride": 16,
      "name": "floatBufferViews",
      "target": 34962
    }
  ],
  "buffers": [
    {
      "byteLength": 114984,
      "uri": "scene.bin"
    }
  ],
  "images": [
    {
      "uri": "textures/Scene_-_Root_baseColor.png"
    },
    {
      "uri": "textures/Scene_-_Root_metallicRoughness.png"
    },
    {
      "uri": "textures/Scene_-_Root_emissive.png"
    },
    {
      "uri": "textures/Scene_-_Root_normal.png"
    }
  ],
  "materials": [
    {
      "doubleSided": true,
      "emissiveFactor": [
        1.0,
        1.0,
        1.0
      ],
      "emissiveTexture": {
        "index": 2
      },
      "name": "Scene_-_Root",
      "normalTexture": {
        "index": 3
      },
      "pbrMetallicRoughness": {
        "baseColorTexture": {
          "index": 0
        },
        "metallicRoughnessTexture": {
          "index": 1
        },
        "roughnessFactor": 0.2382683058813515
      }
    }
  ],
  "meshes": [
    {
      "name": "Line002__0",
      "primitives": [
        {
          "attributes": {
            "NORMAL": 1,
            "POSITION": 0,
            "TANGENT": 2,
            "TEXCOORD_0": 3
          },
          "indices": 4,
          "material": 0,
          "mode": 4
        }
      ]
    }
  ],
  "nodes": [
    {
      "children": [
        1
      ],
      "matrix": [
        1.0,
        0.0,
        0.0,
        0.0,
        0.0,
        2.220446049250313e-16,
        -1.0,
        0.0,
        0.0,
        1.0,
        2.220446049250313e-16,
        0.0,
        0.0,
        0.0,
        0.0,
        1.0
      ],
      "name": "Sketchfab_model"
    },
    {
      "children": [
        2
      ],
      "matrix": [
        1.0,
        0.0,
        0.0,
        0.0,
        0.0,
        0.0,
        1.0,
        0.0,
        0.0,
        -1.0,
        0.0,
        0.0,
        0.0,
        0.0,
        0.0,
        1.0
      ],
      "name": "190e74df1dca40cb9dfa38a7e2adbcd2.fbx"
    },
    {
      "children": [
        3
      ],
      "name": "RootNode"
    },
    {
      "children": [
        4
      ],
      "matrix": [
        -0.9999999999999885,
        -1.5099580265055072e-07,
        -1.2246469849340659e-16,
        0.0,
        -2.2922197076437284e-14,
        1.5099580252808664e-07,
        0.9999999999999885,
        0.0,
        -1.5099580265054897e-07,
        0.9999999999999771,
        -1.5099580252808664e-07,
        0.0,
        0.0,
        0.0,
        0.0,
        1.0
      ],
      "name": "Line002"
    },
    {
      "children": [
        5
      ],
      "matrix": [
        1.0,
        0.0,
        -0.0,
        0.0,
        0.0,
        1.0,
        0.0,
        0.0,
        0.0,
        0.0,
        1.0,
        0.0,
        -106.48771667480469,
        51.239349365234375,
        -7.736926818324719e-06,
        1.0
      ],
      "name": "Object_4"
    },
    {
      "mesh": 0,
      "name": "Line002__0"
    }
  ],
  "samplers": [
    {
      "magFilter": 9729,
      "minFilter": 9987,
      "wrapS": 10497,
      "wrapT": 10497
    }
  ],
  "scene": 0,
  "scenes": [
    {
      "name": "Sketchfab_Scene",
      "nodes": [
        0
      ]
    }
  ],
  "textures": [
    {
      "sampler": 0,
      "source": 0
    },
    {
      "sampler": 0,
      "source": 1
    },
    {
      "sampler": 0,
      "source": 2
    },
    {
      "sampler": 0,
      "source": 3
    }
  ]
}
