{
  "accessors": [
    {
      "bufferView": 2,
      "componentType": 5126,
      "count": 6886,
      "max": [
        2.3538830280303955,
        11.307879447937012,
        4.489192962646484
      ],
      "min": [
        -2.3538830280303955,
        -4.8846259117126465,
        -2.73866605758667
      ],
      "type": "VEC3"
    },
    {
      "bufferView": 2,
      "byteOffset": 82632,
      "componentType": 5126,
      "count": 6886,
      "max": [
        1.0,
        1.0,
        1.0
      ],
      "min": [
        -1.0,
        -1.0,
        -1.0
      ],
      "type": "VEC3"
    },
    {
      "bufferView": 1,
      "componentType": 5126,
      "count": 6886,
      "max": [
        0.8750001192092896,
        1.0000001192092896
      ],
      "min": [
        0.125,
        0.0
      ],
      "type": "VEC2"
    },
    {
      "bufferView": 0,
      "componentType": 5125,
      "count": 37416,
      "type": "SCALAR"
    },
    {
      "bufferView": 2,
      "byteOffset": 165264,
      "componentType": 5126,
      "count": 90,
      "max": [
        2.049906015396118,
        2.3322954177856445,
        3.8435802459716797
      ],
      "min": [
        -2.049906015396118,
        -1.996657133102417,
        3.2813286781311035
      ],
      "type": "VEC3"
    },
    {
      "bufferView": 2,
      "byteOffset": 166344,
      "componentType": 5126,
      "count": 90,
      "max": [
        0.9999996423721313,
        0.13989999890327454,
        0.009218454360961914
      ],
      "min": [
        -0.9999996423721313,
        -0.15926237404346466,
        -0.01066835131496191
      ],
      "type": "VEC3"
    },
    {
      "bufferView": 1,
      "byteOffset": 55088,
      "componentType": 5126,
      "count": 90,
      "max": [
        0.8051183223724365,
        0.6665089130401611
      ],
      "min": [
        0.6948825120925903,
        0.5827099680900574
      ],
      "type": "VEC2"
    },
    {
      "bufferView": 0,
      "byteOffset": 149664,
      "componentType": 5125,
      "count": 384,
      "type": "SCALAR"
    },
    {
      "bufferView": 2,
      "byteOffset": 167424,
      "componentType": 5126,
      "count": 199,
      "max": [
        0.7427693009376526,
        2.7448649406433105,
        4.695936679840088
      ],
      "min": [
        -0.7427693009376526,
        -2.4130873680114746,
        4.1540727615356445
      ],
      "type": "VEC3"
    },
    {
      "bufferView": 2,
      "byteOffset": 169812,
      "componentType": 5126,
      "count": 199,
      "max": [
        0.830346941947937,
        0.8004124760627747,
        1.0
      ],
      "min": [
        -0.830346941947937,
        -0.8078896999359131,
        0.5569838285446167
      ],
      "type": "VEC3"
    },
    {
      "bufferView": 1,
      "byteOffset": 55808,
      "componentType": 5126,
      "count": 199,
      "max": [
        0.805117130279541,
        0.680117130279541
      ],
      "min": [
        0.694882869720459,
        0.569882869720459
      ],
      "type": "VEC2"
    },
    {
      "bufferView": 0,
      "byteOffset": 151200,
      "componentType": 5125,
      "count": 960,
      "type": "SCALAR"
    },
    {
      "bufferView": 2,
      "byteOffset": 172200,
      "componentType": 5126,
      "count": 85,
      "max": [
        1.132129430770874,
        -4.746772766113281,
        3.7892112731933594
      ],
      "min": [
        -1.132129430770874,
        -4.749873161315918,
        3.3122003078460693
      ],
      "type": "VEC3"
    },
    {
      "bufferView": 2,
      "byteOffset": 173220,
      "componentType": 5126,
      "count": 85,
      "max": [
        0.005214376375079155,
        -0.9999864101409912,
        3.8803427742095664e-05
      ],
      "min": [
        -0.005216246470808983,
        -1.0,
        -0.00014701904729008675
      ],
      "type": "VEC3"
    },
    {
      "bufferView": 1,
      "byteOffset": 57400,
      "componentType": 5126,
      "count": 85,
      "max": [
        0.7978062033653259,
        0.6801171898841858
      ],
      "min": [
        0.7019780874252319,
        0.6727731227874756
      ],
      "type": "VEC2"
    },
    {
      "bufferView": 0,
      "byteOffset": 155040,
      "componentType": 5125,
      "count": 384,
      "type": "SCALAR"
    },
    {
      "bufferView": 2,
      "byteOffset": 174240,
      "componentType": 5126,
      "count": 162,
      "max": [
        1.7281652688980103,
        1.1514472961425781,
        -0.08059178292751312
      ],
      "min": [
        -1.7281652688980103,
        -1.4381085634231567,
        -1.568939208984375
      ],
      "type": "VEC3"
    },
    {
      "bufferView": 2,
      "byteOffset": 176184,
      "componentType": 5126,
      "count": 162,
      "max": [
        1.0,
        0.29081419110298157,
        0.467492938041687
      ],
      "min": [
        -1.0,
        -0.29081422090530396,
        -0.4674925208091736
      ],
      "type": "VEC3"
    },
    {
      "bufferView": 1,
      "byteOffset": 58080,
      "componentType": 5126,
      "count": 162,
      "max": [
        0.6048191785812378,
        0.7298191785812378
      ],
      "min": [
        0.39518076181411743,
        0.02018076740205288
      ],
      "type": "VEC2"
    },
    {
      "bufferView": 0,
      "byteOffset": 156576,
      "componentType": 5125,
      "count": 768,
      "type": "SCALAR"
    },
    {
      "bufferView": 2,
      "byteOffset": 178128,
      "componentType": 5126,
      "count": 160,
      "max": [
        1.8289076089859009,
        12.165495872497559,
        3.943422555923462
      ],
      "min": [
        -1.8344942331314087,
        11.967857360839844,
        3.1714963912963867
      ],
      "type": "VEC3"
    },
    {
      "bufferView": 2,
      "byteOffset": 180048,
      "componentType": 5126,
      "count": 160,
      "max": [
        0.9999714493751526,
        1.0,
        0.9999834895133972
      ],
      "min": [
        -0.9999724626541138,
        -1.2104143934266176e-05,
        -0.9999644160270691
      ],
      "type": "VEC3"
    },
    {
      "bufferView": 1,
      "byteOffset": 59376,
      "componentType": 5126,
      "count": 160,
      "max": [
        0.7978062033653259,
        0.5771940350532532
      ],
      "min": [
        0.7021939158439636,
        0.5703919529914856
      ],
      "type": "VEC2"
    },
    {
      "bufferView": 0,
      "byteOffset": 159648,
      "componentType": 5125,
      "count": 432,
      "type": "SCALAR"
    },
    {
      "bufferView": 2,
      "byteOffset": 181968,
      "componentType": 5126,
      "count": 80,
      "max": [
        0.669126033782959,
        12.249332427978516,
        3.048980712890625
      ],
      "min": [
        -0.6691259741783142,
        12.05120849609375,
        2.586249828338623
      ],
      "type": "VEC3"
    },
    {
      "bufferView": 2,
      "byteOffset": 182928,
      "componentType": 5126,
      "count": 80,
      "max": [
        0.9999999403953552,
        0.9999972581863403,
        1.0
      ],
      "min": [
        -1.0,
        -1.209650235978188e-05,
        -1.0
      ],
      "type": "VEC3"
    },
    {
      "bufferView": 1,
      "byteOffset": 60656,
      "componentType": 5126,
      "count": 80,
      "max": [
        0.7923585176467896,
        0.5763608813285828
      ],
      "min": [
        0.7076415419578552,
        0.5698829293251038
      ],
      "type": "VEC2"
    },
    {
      "bufferView": 0,
      "byteOffset": 161376,
      "componentType": 5125,
      "count": 216,
      "type": "SCALAR"
    },
    {
      "bufferView": 2,
      "byteOffset": 183888,
      "componentType": 5126,
      "count": 151,
      "max": [
        1.0,
        1.0,
        1.0
      ],
      "min": [
        -0.9999999403953552,
        -1.0,
        -1.0
      ],
      "type": "VEC3"
    },
    {
      "bufferView": 2,
      "byteOffset": 185700,
      "componentType": 5126,
      "count": 151,
      "max": [
        1.0,
        1.0,
        1.0
      ],
      "min": [
        -1.0,
        -1.0,
        -1.0
      ],
      "type": "VEC3"
    },
    {
      "bufferView": 1,
      "byteOffset": 61296,
      "componentType": 5126,
      "count": 151,
      "max": [
        1.0,
        1.0
      ],
      "min": [
        0.0,
        0.0
      ],
      "type": "VEC2"
    },
    {
      "bufferView": 0,
      "byteOffset": 162240,
      "componentType": 5125,
      "count": 672,
      "type": "SCALAR"
    },
    {
      "bufferView": 2,
      "byteOffset": 187512,
      "componentType": 5126,
      "count": 42,
      "max": [
        1.5783798694610596,
        11.9683256149292,
        3.752624750137329
      ],
      "min": [
        -1.582625389099121,
        11.967857360839844,
        3.3623769283294678
      ],
      "type": "VEC3"
    },
    {
      "bufferView": 2,
      "byteOffset": 188016,
      "componentType": 5126,
      "count": 42,
      "max": [
        0.0007770791416987777,
        1.0,
        2.350450995436404e-05
      ],
      "min": [
        -0.0007858927128836513,
        0.9999997019767761,
        -6.3605834839108866e-06
      ],
      "type": "VEC3"
    },
    {
      "bufferView": 1,
      "byteOffset": 62504,
      "componentType": 5126,
      "count": 42,
      "max": [
        0.7978062033653259,
        0.5771939754486084
      ],
      "min": [
        0.7022465467453003,
        0.5720934867858887
      ],
      "type": "VEC2"
    },
    {
      "bufferView": 0,
      "byteOffset": 164928,
      "componentType": 5125,
      "count": 144,
      "type": "SCALAR"
    },
    {
      "bufferView": 2,
      "byteOffset": 188520,
      "componentType": 5126,
      "count": 21,
      "max": [
        0.5085116028785706,
        12.05195140838623,
        2.933445692062378
      ],
      "min": [
        -0.5085114240646362,
        12.05120849609375,
        2.7006964683532715
      ],
      "type": "VEC3"
    },
    {
      "bufferView": 2,
      "byteOffset": 188772,
      "componentType": 5126,
      "count": 21,
      "max": [
        0.0008198979776352644,
        0.9999973177909851,
        -0.0023398573976010084
      ],
      "min": [
        -0.0008245669305324554,
        0.9999969005584717,
        -0.00238437601365149
      ],
      "type": "VEC3"
    },
    {
      "bufferView": 1,
      "byteOffset": 62840,
      "componentType": 5126,
      "count": 21,
      "max": [
        0.7817689180374146,
        0.5747413635253906
      ],
      "min": [
        0.718231201171875,
        0.5698829293251038
      ],
      "type": "VEC2"
    },
    {
      "bufferView": 0,
      "byteOffset": 165504,
      "componentType": 5125,
      "count": 72,
      "type": "SCALAR"
    },
    {
      "bufferView": 2,
      "byteOffset": 189024,
      "componentType": 5126,
      "count": 66,
      "max": [
        0.6488745808601379,
        2.3582592010498047,
        4.513211250305176
      ],
      "min": [
        -0.6488745212554932,
        -2.316101551055908,
        4.279524803161621
      ],
      "type": "VEC3"
    },
    {
      "bufferView": 2,
      "byteOffset": 189816,
      "componentType": 5126,
      "count": 66,
      "max": [
        0.8107029795646667,
        0.23119357228279114,
        0.848524808883667
      ],
      "min": [
        -0.8107031583786011,
        -0.6629565358161926,
        0.5832625031471252
      ],
      "type": "VEC3"
    },
    {
      "bufferView": 1,
      "byteOffset": 63008,
      "componentType": 5126,
      "count": 66,
      "max": [
        0.7966647744178772,
        0.6760358214378357
      ],
      "min": [
        0.7033352851867676,
        0.5804768800735474
      ],
      "type": "VEC2"
    },
    {
      "bufferView": 0,
      "byteOffset": 165792,
      "componentType": 5125,
      "count": 192,
      "type": "SCALAR"
    },
    {
      "bufferView": 2,
      "byteOffset": 190608,
      "componentType": 5126,
      "count": 4116,
      "max": [
        1.9349632263183594,
        12.362234115600586,
        4.16423225402832
      ],
      "min": [
        -1.9349632263183594,
        -4.884659767150879,
        -1.8400357961654663
      ],
      "type": "VEC3"
    },
    {
      "bufferView": 2,
      "byteOffset": 240000,
      "componentType": 5126,
      "count": 4116,
      "max": [
        0.9999993443489075,
        1.0,
        1.0
      ],
      "min": [
        -0.9999993443489075,
        -0.9999995827674866,
        -0.9999993443489075
      ],
      "type": "VEC3"
    },
    {
      "bufferView": 1,
      "byteOffset": 63536,
      "componentType": 5126,
      "count": 4116,
      "max": [
        0.8147335648536682,
        0.6897333860397339
      ],
      "min": [
        0.0,
        0.0
      ],
      "type": "VEC2"
    },
    {
      "bufferView": 0,
      "byteOffset": 166560,
      "componentType": 5125,
      "count": 20808,
      "type": "SCALAR"
    },
    {
      "bufferView": 2,
      "byteOffset": 289392,
      "componentType": 5126,
      "count": 151,
      "max": [
        1.0,
        1.0,
        1.0
      ],
      "min": [
        -0.9999999403953552,
        -1.0,
        -1.0
      ],
      "type": "VEC3"
    },
    {
      "bufferView": 2,
      "byteOffset": 291204,
      "componentType": 5126,
      "count": 151,
      "max": [
        1.0,
        1.0,
        1.0
      ],
      "min": [
        -1.0,
        -1.0,
        -1.0
      ],
      "type": "VEC3"
    },
    {
      "bufferView": 1,
      "byteOffset": 96464,
      "componentType": 5126,
      "count": 151,
      "max": [
        1.0,
        1.0
      ],
      "min": [
        0.0,
        0.0
      ],
      "type": "VEC2"
    },
    {
      "bufferView": 0,
      "byteOffset": 249792,
      "componentType": 5125,
      "count": 672,
      "type": "SCALAR"
    }
  ],
  "asset": {
    "extras": {
      "author": "Jacob Quintana (https://sketchfab.com/jacobq1004)",
      "license": "CC-BY-4.0 (http://creativecommons.org/licenses/by/4.0/)",
      "source": "https://sketchfab.com/3d-models/planet-mountain-dew-voltage-space-ship-814ebd622efc449e870bde65e3d56728",
      "title": "Planet Mountain Dew - Voltage Space Ship"
    },
    "generator": "Sketchfab-15.30.0",
    "version": "2.0"
  },
  "bufferViews": [
    {
      "buffer": 0,
      "byteLength": 252480,
      "name": "floatBufferViews",
      "target": 34963
    },
    {
      "buffer": 0,
      "byteLength": 97672,
      "byteOffset": 252480,
      "byteStride": 8,
      "name": "floatBufferViews",
      "target": 34962
    },
    {
      "buffer": 0,
      "byteLength": 293016,
      "byteOffset": 350152,
      "byteStride": 12,
      "name": "floatBufferViews",
      "target": 34962
    }
  ],
  "buffers": [
    {
      "byteLength": 643168,
      "uri": "scene.bin"
    }
  ],
  "extensionsUsed": [
    "KHR_materials_specular",
    "KHR_materials_emissive_strength"
  ],
  "materials": [
    {
      "doubleSided": true,
      "extensions": {
        "KHR_materials_specular": {
          "specularColorFactor": [
            1.0,
            1.0,
            1.0
          ],
          "specularFactor": 0.8943157602442042
        }
      },
      "name": "Material",
      "pbrMetallicRoughness": {
        "baseColorFactor": [
          0.242832,
          0.367731,
          0.8,
          1.0
        ],
        "metallicFactor": 0.5837548629058937,
        "roughnessFactor": 0.4893182894090028
      }
    },
    {
      "doubleSided": true,
      "extensions": {
        "KHR_materials_specular": {
          "specularColorFactor": [
            1.0,
            1.0,
            1.0
          ],
          "specularFactor": 0.8760474721654801
        }
      },
      "name": "Material.002",
      "pbrMetallicRoughness": {
        "baseColorFactor": [
          0.027662999999999986,
          0.035994200000000004,
          0.0871401,
          1.0
        ],
        "metallicFactor": 0.4619662757143995,
        "roughnessFactor": 0.3918874196558073
      }
    },
    {
      "doubleSided": true,
      "extensions": {
        "KHR_materials_specular": {
          "specularColorFactor": [
            1.0,
            1.0,
            1.0
          ],
          "specularFactor": 1.0
        }
      },
      "name": "Material.001",
      "pbrMetallicRoughness": {
        "baseColorFactor": [
          0.0871402,
          0.0871402,
          0.0871402,
          1.0
        ],
        "metallicFactor": 0.35844597660162936,
        "roughnessFactor": 0.47105000133027863
      }
    },
    {
      "doubleSided": true,
      "emissiveFactor": [
        0.28534,
        0.508991,
        1.0
      ],
      "extensions": {
        "KHR_materials_emissive_strength": {
          "emissiveStrength": 10.0
        }
      },
      "name": "Material.004",
      "pbrMetallicRoughness": {
        "baseColorFactor": [
          0.8,
          0.8,
          0.8,
          1.0
        ],
        "metallicFactor": 0.0,
        "roughnessFactor": 0.8211145618000169
      }
    },
    {
      "doubleSided": true,
      "extensions": {
        "KHR_materials_specular": {
          "specularColorFactor": [
            1.0,
            1.0,
            1.0
          ],
          "specularFactor": 1.0
        }
      },
      "name": "Material.003",
      "pbrMetallicRoughness": {
        "baseColorFactor": [
          0.0,
          0.0,
          0.0,
          1.0
        ],
        "metallicFactor": 0.0,
        "roughnessFactor": 0.0
      }
    }
  ],
  "meshes": [
    {
      "name": "Cube_Material_0",
      "primitives": [
        {
          "attributes": {
            "NORMAL": 1,
            "POSITION": 0,
            "TEXCOORD_0": 2
          },
          "indices": 3,
          "material": 0,
          "mode": 4
        }
      ]
    },
    {
      "name": "Cube.001_Material.002_0",
      "primitives": [
        {
          "attributes": {
            "NORMAL": 5,
            "POSITION": 4,
            "TEXCOORD_0": 6
          },
          "indices": 7,
          "material": 1,
          "mode": 4
        }
      ]
    },
    {
      "name": "Cube.002_Material.002_0",
      "primitives": [
        {
          "attributes": {
            "NORMAL": 9,
            "POSITION": 8,
            "TEXCOORD_0": 10
          },
          "indices": 11,
          "material": 1,
          "mode": 4
        }
      ]
    },
    {
      "name": "Cube.003_Material.002_0",
      "primitives": [
        {
          "attributes": {
            "NORMAL": 13,
            "POSITION": 12,
            "TEXCOORD_0": 14
          },
          "indices": 15,
          "material": 1,
          "mode": 4
        }
      ]
    },
    {
      "name": "Cube.004_Material.002_0",
      "primitives": [
        {
          "attributes": {
            "NORMAL": 17,
            "POSITION": 16,
            "TEXCOORD_0": 18
          },
          "indices": 19,
          "material": 1,
          "mode": 4
        }
      ]
    },
    {
      "name": "Cube.005_Material.001_0",
      "primitives": [
        {
          "attributes": {
            "NORMAL": 21,
            "POSITION": 20,
            "TEXCOORD_0": 22
          },
          "indices": 23,
          "material": 2,
          "mode": 4
        }
      ]
    },
    {
      "name": "Cube.006_Material.001_0",
      "primitives": [
        {
          "attributes": {
            "NORMAL": 25,
            "POSITION": 24,
            "TEXCOORD_0": 26
          },
          "indices": 27,
          "material": 2,
          "mode": 4
        }
      ]
    },
    {
      "name": "Sphere_Material.001_0",
      "primitives": [
        {
          "attributes": {
            "NORMAL": 29,
            "POSITION": 28,
            "TEXCOORD_0": 30
          },
          "indices": 31,
          "material": 2,
          "mode": 4
        }
      ]
    },
    {
      "name": "Cube.007_Material.004_0",
      "primitives": [
        {
          "attributes": {
            "NORMAL": 33,
            "POSITION": 32,
            "TEXCOORD_0": 34
          },
          "indices": 35,
          "material": 3,
          "mode": 4
        }
      ]
    },
    {
      "name": "Cube.008_Material.004_0",
      "primitives": [
        {
          "attributes": {
            "NORMAL": 37,
            "POSITION": 36,
            "TEXCOORD_0": 38
          },
          "indices": 39,
          "material": 3,
          "mode": 4
        }
      ]
    },
    {
      "name": "Cube.009_Material.003_0",
      "primitives": [
        {
          "attributes": {
            "NORMAL": 41,
            "POSITION": 40,
            "TEXCOORD_0": 42
          },
          "indices": 43,
          "material": 4,
          "mode": 4
        }
      ]
    },
    {
      "name": "Cube.010_Material.002_0",
      "primitives": [
        {
          "attributes": {
            "NORMAL": 45,
            "POSITION": 44,
            "TEXCOORD_0": 46
          },
          "indices": 47,
          "material": 1,
          "mode": 4
        }
      ]
    },
    {
      "name": "Sphere.001_Material.004_0",
      "primitives": [
        {
          "attributes": {
            "NORMAL": 49,
            "POSITION": 48,
            "TEXCOORD_0": 50
          },
          "indices": 51,
          "material": 3,
          "mode": 4
        }
      ]
    }
  ],
  "nodes": [
    {
      "children": [
        1
      ],
      "matrix": [
        1.0,
        0.0,
        0.0,
        0.0,
        0.0,
        2.220446049250313e-16,
        -1.0,
        0.0,
        0.0,
        1.0,
        2.220446049250313e-16,
        0.0,
        0.0,
        0.0,
        0.0,
        1.0
      ],
      "name": "Sketchfab_model"
    },
    {
      "children": [
        2
      ],
      "matrix": [
        0.009999999776482582,
        0.0,
        0.0,
        0.0,
        0.0,
        0.0,
        0.009999999776482582,
        0.0,
        0.0,
        -0.009999999776482582,
        0.0,
        0.0,
        0.0,
        0.0,
        0.0,
        1.0
      ],
      "name": "9cad5f0ff67f4584b44ae3878a26d2d0.fbx"
    },
    {
      "children": [
        3,
        5,
        7,
        9,
        11,
        13,
        15,
        17,
        19,
        21,
        23,
        25,
        27
      ],
      "name": "RootNode"
    },
    {
      "children": [
        4
      ],
      "matrix": [
        100.0,
        0.0,
        0.0,
        0.0,
        0.0,
        -1.629206793918314e-05,
        -99.99999999999868,
        0.0,
        0.0,
        99.99999999999868,
        -1.629206793918314e-05,
        0.0,
        0.0,
        0.0,
        0.0,
        1.0
      ],
      "name": "Cube"
    },
    {
      "mesh": 0,
      "name": "Cube_Material_0"
    },
    {
      "children": [
        6
      ],
      "matrix": [
        100.0,
        0.0,
        0.0,
        0.0,
        0.0,
        -1.629206793918314e-05,
        -99.99999999999868,
        0.0,
        0.0,
        99.99999999999868,
        -1.629206793918314e-05,
        0.0,
        0.0,
        0.0,
        0.0,
        1.0
      ],
      "name": "Cube.001"
    },
    {
      "mesh": 1,
      "name": "Cube.001_Material.002_0"
    },
    {
      "children": [
        8
      ],
      "matrix": [
        100.0,
        0.0,
        0.0,
        0.0,
        0.0,
        -1.629206793918314e-05,
        -99.99999999999868,
        0.0,
        0.0,
        99.99999999999868,
        -1.629206793918314e-05,
        0.0,
        0.0,
        0.0,
        0.0,
        1.0
      ],
      "name": "Cube.002"
    },
    {
      "mesh": 2,
      "name": "Cube.002_Material.002_0"
    },
    {
      "children": [
        10
      ],
      "matrix": [
        100.0,
        0.0,
        0.0,
        0.0,
        0.0,
        -1.629206793918314e-05,
        -99.99999999999868,
        0.0,
        0.0,
        99.99999999999868,
        -1.629206793918314e-05,
        0.0,
        0.0,
        0.0,
        0.0,
        1.0
      ],
      "name": "Cube.003"
    },
    {
      "mesh": 3,
      "name": "Cube.003_Material.002_0"
    },
    {
      "children": [
        12
      ],
      "matrix": [
        100.0,
        0.0,
        0.0,
        0.0,
        0.0,
        -1.629206793918314e-05,
        -99.99999999999868,
        0.0,
        0.0,
        99.99999999999868,
        -1.629206793918314e-05,
        0.0,
        0.0,
        0.0,
        0.0,
        1.0
      ],
      "name": "Cube.004"
    },
    {
      "mesh": 4,
      "name": "Cube.004_Material.002_0"
    },
    {
      "children": [
        14
      ],
      "matrix": [
        100.0,
        0.0,
        0.0,
        0.0,
        0.0,
        -1.629206793918314e-05,
        -99.99999999999868,
        0.0,
        0.0,
        99.99999999999868,
        -1.629206793918314e-05,
        0.0,
        0.0,
        0.0,
        0.0,
        1.0
      ],
      "name": "Cube.005"
    },
    {
      "mesh": 5,
      "name": "Cube.005_Material.001_0"
    },
    {
      "children": [
        16
      ],
      "matrix": [
        100.0,
        0.0,
        0.0,
        0.0,
        0.0,
        -1.629206793918314e-05,
        -99.99999999999868,
        0.0,
        0.0,
        99.99999999999868,
        -1.629206793918314e-05,
        0.0,
        0.0,
        0.0,
        0.0,
        1.0
      ],
      "name": "Cube.006"
    },
    {
      "mesh": 6,
      "name": "Cube.006_Material.001_0"
    },
    {
      "children": [
        18
      ],
      "matrix": [
        97.95968627929688,
        2.1751419838466485e-14,
        2.1751419838466485e-14,
        0.0,
        -2.1751420789251223e-14,
        97.95968627929678,
        4.28195388340138e-06,
        0.0,
        -3.5281261910014784e-14,
        -6.945419847182691e-06,
        158.89268493652327,
        0.0,
        1.752998381220408e-14,
        -82.66648864746094,
        69.45182037353516,
        1.0
      ],
      "name": "Sphere"
    },
    {
      "mesh": 7,
      "name": "Sphere_Material.001_0"
    },
    {
      "children": [
        20
      ],
      "matrix": [
        100.0,
        0.0,
        0.0,
        0.0,
        0.0,
        -1.629206793918314e-05,
        -99.99999999999868,
        0.0,
        0.0,
        99.99999999999868,
        -1.629206793918314e-05,
        0.0,
        0.0,
        0.0,
        0.0,
        1.0
      ],
      "name": "Cube.007"
    },
    {
      "mesh": 8,
      "name": "Cube.007_Material.004_0"
    },
    {
      "children": [
        22
      ],
      "matrix": [
        100.0,
        0.0,
        0.0,
        0.0,
        0.0,
        -1.629206793918314e-05,
        -99.99999999999868,
        0.0,
        0.0,
        99.99999999999868,
        -1.629206793918314e-05,
        0.0,
        0.0,
        0.0,
        0.0,
        1.0
      ],
      "name": "Cube.008"
    },
    {
      "mesh": 9,
      "name": "Cube.008_Material.004_0"
    },
    {
      "children": [
        24
      ],
      "matrix": [
        100.0,
        0.0,
        0.0,
        0.0,
        0.0,
        -1.629206793918314e-05,
        -99.99999999999868,
        0.0,
        0.0,
        99.99999999999868,
        -1.629206793918314e-05,
        0.0,
        0.0,
        0.0,
        0.0,
        1.0
      ],
      "name": "Cube.009"
    },
    {
      "mesh": 10,
      "name": "Cube.009_Material.003_0"
    },
    {
      "children": [
        26
      ],
      "matrix": [
        100.0,
        0.0,
        0.0,
        0.0,
        0.0,
        -1.629206793918314e-05,
        -99.99999999999868,
        0.0,
        0.0,
        99.99999999999868,
        -1.629206793918314e-05,
        0.0,
        0.0,
        0.0,
        0.0,
        1.0
      ],
      "name": "Cube.010"
    },
    {
      "mesh": 11,
      "name": "Cube.010_Material.002_0"
    },
    {
      "children": [
        28
      ],
      "matrix": [
        50.878177642822266,
        1.129722620074018e-14,
        1.129722485400603e-14,
        0.0,
        -1.1297226694557551e-14,
        50.878177642822216,
        2.2239557782670323e-06,
        0.0,
        -1.1710735662567605e-14,
        -2.3053590345877035e-06,
        52.74046707153315,
        0.0,
        1.752998381220408e-14,
        -82.63121032714844,
        -490.9289245605469,
        1.0
      ],
      "name": "Sphere.001"
    },
    {
      "mesh": 12,
      "name": "Sphere.001_Material.004_0"
    }
  ],
  "scene": 0,
  "scenes": [
    {
      "name": "Sketchfab_Scene",
      "nodes": [
        0
      ]
    }
  ]
}
