{
  "accessors": [
    {
      "bufferView": 1,
      "componentType": 5126,
      "count": 885,
      "max": [
        5.171953201293945,
        6.072016716003418,
        2.289015531539917
      ],
      "min": [
        -4.8065314292907715,
        -6.253893852233887,
        -0.7224329710006714
      ],
      "type": "VEC3"
    },
    {
      "bufferView": 1,
      "byteOffset": 10620,
      "componentType": 5126,
      "count": 885,
      "max": [
        1.0,
        1.0,
        1.0
      ],
      "min": [
        -1.0,
        -1.0,
        -1.0
      ],
      "type": "VEC3"
    },
    {
      "bufferView": 0,
      "componentType": 5125,
      "count": 1752,
      "type": "SCALAR"
    },
    {
      "bufferView": 1,
      "byteOffset": 21240,
      "componentType": 5126,
      "count": 308,
      "max": [
        4.7784528732299805,
        5.247896194458008,
        1.0350579023361206
      ],
      "min": [
        -4.7784528732299805,
        -1.2185702323913574,
        -0.2823828160762787
      ],
      "type": "VEC3"
    },
    {
      "bufferView": 1,
      "byteOffset": 24936,
      "componentType": 5126,
      "count": 308,
      "max": [
        0.2351001799106598,
        1.0,
        0.9715188145637512
      ],
      "min": [
        -0.2351001799106598,
        -1.0,
        0.0
      ],
      "type": "VEC3"
    },
    {
      "bufferView": 0,
      "byteOffset": 7008,
      "componentType": 5125,
      "count": 996,
      "type": "SCALAR"
    },
    {
      "bufferView": 1,
      "byteOffset": 28632,
      "componentType": 5126,
      "count": 5195,
      "max": [
        5.171953201293945,
        6.072016716003418,
        2.289015531539917
      ],
      "min": [
        -5.171953201293945,
        -6.253893852233887,
        -0.7224329710006714
      ],
      "type": "VEC3"
    },
    {
      "bufferView": 1,
      "byteOffset": 90972,
      "componentType": 5126,
      "count": 5195,
      "max": [
        1.0,
        1.0,
        1.0
      ],
      "min": [
        -1.0,
        -1.0,
        -1.0
      ],
      "type": "VEC3"
    },
    {
      "bufferView": 0,
      "byteOffset": 10992,
      "componentType": 5125,
      "count": 19599,
      "type": "SCALAR"
    },
    {
      "bufferView": 1,
      "byteOffset": 153312,
      "componentType": 5126,
      "count": 40,
      "max": [
        3.063765048980713,
        5.232699871063232,
        0.3284497857093811
      ],
      "min": [
        -3.063765048980713,
        -4.338375568389893,
        -0.09604624658823013
      ],
      "type": "VEC3"
    },
    {
      "bufferView": 1,
      "byteOffset": 153792,
      "componentType": 5126,
      "count": 40,
      "max": [
        0.9696055054664612,
        0.24467359483242035,
        0.99934321641922
      ],
      "min": [
        -0.9696055054664612,
        -0.3350498676300049,
        0.0
      ],
      "type": "VEC3"
    },
    {
      "bufferView": 0,
      "byteOffset": 89388,
      "componentType": 5125,
      "count": 60,
      "type": "SCALAR"
    },
    {
      "bufferView": 1,
      "byteOffset": 154272,
      "componentType": 5126,
      "count": 352,
      "max": [
        3.5335066318511963,
        5.376680374145508,
        1.1500864028930664
      ],
      "min": [
        -3.5335066318511963,
        -1.3224544525146484,
        -0.2741346061229706
      ],
      "type": "VEC3"
    },
    {
      "bufferView": 1,
      "byteOffset": 158496,
      "componentType": 5126,
      "count": 352,
      "max": [
        0.9998334050178528,
        0.040018096566200256,
        0.9998346567153931
      ],
      "min": [
        -0.9998334050178528,
        -0.9357895255088806,
        -0.9998276829719543
      ],
      "type": "VEC3"
    },
    {
      "bufferView": 0,
      "byteOffset": 89628,
      "componentType": 5125,
      "count": 924,
      "type": "SCALAR"
    }
  ],
  "asset": {
    "extras": {
      "author": "Simon T Griffiths (https://sketchfab.com/RubberMan)",
      "license": "CC-BY-4.0 (http://creativecommons.org/licenses/by/4.0/)",
      "source": "https://sketchfab.com/3d-models/spaceship-62bc24af352849d788c31e41e7e8d807",
      "title": "Spaceship"
    },
    "generator": "Sketchfab-12.66.0",
    "version": "2.0"
  },
  "bufferViews": [
    {
      "buffer": 0,
      "byteLength": 93324,
      "name": "floatBufferViews",
      "target": 34963
    },
    {
      "buffer": 0,
      "byteLength": 162720,
      "byteOffset": 93324,
      "byteStride": 12,
      "name": "floatBufferViews",
      "target": 34962
    }
  ],
  "buffers": [
    {
      "byteLength": 256044,
      "uri": "scene.bin"
    }
  ],
  "materials": [
    {
      "doubleSided": true,
      "name": "Black",
      "pbrMetallicRoughness": {
        "baseColorFactor": [
          0.0,
          0.0,
          0.0,
          1.0
        ],
        "metallicFactor": 0.0,
        "roughnessFactor": 0.9757353186204382
      }
    },
    {
      "doubleSided": true,
      "name": "Metal",
      "pbrMetallicRoughness": {
        "baseColorFactor": [
          0.180392,
          0.278431,
          0.329412,
          1.0
        ],
        "roughnessFactor": 0.5548780487804879
      }
    },
    {
      "doubleSided": true,
      "name": "green",
      "pbrMetallicRoughness": {
        "baseColorFactor": [
          0.5803919999999999,
          0.968627,
          0.5254900000000001,
          1.0
        ],
        "roughnessFactor": 0.16463414634146345
      }
    },
    {
      "doubleSided": true,
      "name": "orange",
      "pbrMetallicRoughness": {
        "baseColorFactor": [
          0.972549,
          0.854902,
          0.447059,
          1.0
        ],
        "roughnessFactor": 0.0
      }
    }
  ],
  "meshes": [
    {
      "name": "Object_0",
      "primitives": [
        {
          "attributes": {
            "NORMAL": 1,
            "POSITION": 0
          },
          "indices": 2,
          "material": 1,
          "mode": 4
        }
      ]
    },
    {
      "name": "Object_1",
      "primitives": [
        {
          "attributes": {
            "NORMAL": 4,
            "POSITION": 3
          },
          "indices": 5,
          "material": 0,
          "mode": 4
        }
      ]
    },
    {
      "name": "Object_2",
      "primitives": [
        {
          "attributes": {
            "NORMAL": 7,
            "POSITION": 6
          },
          "indices": 8,
          "material": 1,
          "mode": 4
        }
      ]
    },
    {
      "name": "Object_3",
      "primitives": [
        {
          "attributes": {
            "NORMAL": 10,
            "POSITION": 9
          },
          "indices": 11,
          "material": 2,
          "mode": 4
        }
      ]
    },
    {
      "name": "Object_4",
      "primitives": [
        {
          "attributes": {
            "NORMAL": 13,
            "POSITION": 12
          },
          "indices": 14,
          "material": 3,
          "mode": 4
        }
      ]
    }
  ],
  "nodes": [
    {
      "children": [
        1
      ],
      "matrix": [
        1.0,
        0.0,
        0.0,
        0.0,
        0.0,
        2.220446049250313e-16,
        -1.0,
        0.0,
        0.0,
        1.0,
        2.220446049250313e-16,
        0.0,
        0.0,
        0.0,
        0.0,
        1.0
      ],
      "name": "Sketchfab_model"
    },
    {
      "children": [
        2,
        3,
        4,
        5,
        6
      ],
      "name": "TheLobster.obj.cleaner.materialmerger.gles"
    },
    {
      "mesh": 0,
      "name": "Object_2"
    },
    {
      "mesh": 1,
      "name": "Object_3"
    },
    {
      "mesh": 2,
      "name": "Object_4"
    },
    {
      "mesh": 3,
      "name": "Object_5"
    },
    {
      "mesh": 4,
      "name": "Object_6"
    }
  ],
  "scene": 0,
  "scenes": [
    {
      "name": "Sketchfab_Scene",
      "nodes": [
        0
      ]
    }
  ]
}
