{
  "accessors": [
    {
      "bufferView": 2,
      "componentType": 5126,
      "count": 626,
      "max": [
        71.81378936767578,
        41.83503723144531,
        90.6882553100586
      ],
      "min": [
        -71.81378936767578,
        -41.83503723144531,
        -90.6882553100586
      ],
      "type": "VEC3"
    },
    {
      "bufferView": 2,
      "byteOffset": 7512,
      "componentType": 5126,
      "count": 626,
      "max": [
        0.9992802143096924,
        0.9996114373207092,
        1.0
      ],
      "min": [
        -0.9992802143096924,
        -0.9984194040298462,
        -0.9992715120315552
      ],
      "type": "VEC3"
    },
    {
      "bufferView": 1,
      "componentType": 5126,
      "count": 626,
      "max": [
        0.9790295958518982,
        0.9915482401847839
      ],
      "min": [
        0.02475103922188282,
        0.014248251914978027
      ],
      "type": "VEC2"
    },
    {
      "bufferView": 0,
      "componentType": 5125,
      "count": 1152,
      "type": "SCALAR"
    },
    {
      "bufferView": 2,
      "byteOffset": 15024,
      "componentType": 5126,
      "count": 232,
      "max": [
        120.74867248535156,
        28.573667526245117,
        202.06398010253906
      ],
      "min": [
        -120.74867248535156,
        -27.715456008911133,
        -48.25571823120117
      ],
      "type": "VEC3"
    },
    {
      "bufferView": 2,
      "byteOffset": 17808,
      "componentType": 5126,
      "count": 232,
      "max": [
        0.9974912405014038,
        0.9983264803886414,
        0.6290673613548279
      ],
      "min": [
        -0.9974912405014038,
        -0.99817955493927,
        -0.9985257387161255
      ],
      "type": "VEC3"
    },
    {
      "bufferView": 1,
      "byteOffset": 5008,
      "componentType": 5126,
      "count": 232,
      "max": [
        0.9731540083885193,
        0.9868525862693787
      ],
      "min": [
        0.022470936179161072,
        0.02344512939453125
      ],
      "type": "VEC2"
    },
    {
      "bufferView": 0,
      "byteOffset": 4608,
      "componentType": 5125,
      "count": 552,
      "type": "SCALAR"
    },
    {
      "bufferView": 2,
      "byteOffset": 20592,
      "componentType": 5126,
      "count": 276,
      "max": [
        61.843971252441406,
        8.291247367858887,
        99.66303253173828
      ],
      "min": [
        -61.843971252441406,
        -8.291247367858887,
        -99.66303253173828
      ],
      "type": "VEC3"
    },
    {
      "bufferView": 2,
      "byteOffset": 23904,
      "componentType": 5126,
      "count": 276,
      "max": [
        1.0,
        1.0,
        0.6211943030357361
      ],
      "min": [
        -1.0,
        -1.0,
        -0.9860639572143555
      ],
      "type": "VEC3"
    },
    {
      "bufferView": 1,
      "byteOffset": 6864,
      "componentType": 5126,
      "count": 276,
      "max": [
        0.5142916440963745,
        0.989771842956543
      ],
      "min": [
        0.05452481657266617,
        0.014987587928771973
      ],
      "type": "VEC2"
    },
    {
      "bufferView": 0,
      "byteOffset": 6816,
      "componentType": 5125,
      "count": 576,
      "type": "SCALAR"
    }
  ],
  "asset": {
    "extras": {
      "author": "3Dimentional (https://sketchfab.com/insectscorch)",
      "license": "CC-BY-4.0 (http://creativecommons.org/licenses/by/4.0/)",
      "source": "https://sketchfab.com/3d-models/space-ship-for-games-b1a1d1309a344390a08e60c08eb1248b",
      "title": "Space Ship for Games"
    },
    "generator": "Sketchfab-12.67.0",
    "version": "2.0"
  },
  "bufferViews": [
    {
      "buffer": 0,
      "byteLength": 9120,
      "name": "floatBufferViews",
      "target": 34963
    },
    {
      "buffer": 0,
      "byteLength": 9072,
      "byteOffset": 9120,
      "byteStride": 8,
      "name": "floatBufferViews",
      "target": 34962
    },
    {
      "buffer": 0,
      "byteLength": 27216,
      "byteOffset": 18192,
      "byteStride": 12,
      "name": "floatBufferViews",
      "target": 34962
    }
  ],
  "buffers": [
    {
      "byteLength": 45408,
      "uri": "scene.bin"
    }
  ],
  "images": [
    {
      "uri": "textures/mat_cuerpo_baseColor.jpg"
    },
    {
      "uri": "textures/mat_alas_baseColor.jpg"
    },
    {
      "uri": "textures/mat_canon_baseColor.jpg"
    }
  ],
  "materials": [
    {
      "doubleSided": true,
      "name": "mat_cuerpo",
      "pbrMetallicRoughness": {
        "baseColorTexture": {
          "index": 0
        },
        "metallicFactor": 0.0,
        "roughnessFactor": 0.6
      }
    },
    {
      "doubleSided": true,
      "name": "mat_alas",
      "pbrMetallicRoughness": {
        "baseColorTexture": {
          "index": 1
        },
        "metallicFactor": 0.0,
        "roughnessFactor": 0.6
      }
    },
    {
      "doubleSided": true,
      "name": "mat_canon",
      "pbrMetallicRoughness": {
        "baseColorTexture": {
          "index": 2
        },
        "metallicFactor": 0.0,
        "roughnessFactor": 0.6
      }
    }
  ],
  "meshes": [
    {
      "name": "Object_0",
      "primitives": [
        {
          "attributes": {
            "NORMAL": 1,
            "POSITION": 0,
            "TEXCOORD_0": 2
          },
          "indices": 3,
          "material": 0,
          "mode": 4
        }
      ]
    },
    {
      "name": "Object_1",
      "primitives": [
        {
          "attributes": {
            "NORMAL": 5,
            "POSITION": 4,
            "TEXCOORD_0": 6
          },
          "indices": 7,
          "material": 1,
          "mode": 4
        }
      ]
    },
    {
      "name": "Object_2",
      "primitives": [
        {
          "attributes": {
            "NORMAL": 9,
            "POSITION": 8,
            "TEXCOORD_0": 10
          },
          "indices": 11,
          "material": 2,
          "mode": 4
        }
      ]
    }
  ],
  "nodes": [
    {
      "children": [
        1
      ],
      "matrix": [
        1.0,
        0.0,
        0.0,
        0.0,
        0.0,
        2.220446049250313e-16,
        -1.0,
        0.0,
        0.0,
        1.0,
        2.220446049250313e-16,
        0.0,
        0.0,
        0.0,
        0.0,
        1.0
      ],
      "name": "Sketchfab_model"
    },
    {
      "children": [
        2
      ],
      "matrix": [
        1.0,
        0.0,
        0.0,
        0.0,
        0.0,
        0.0,
        1.0,
        0.0,
        0.0,
        -1.0,
        0.0,
        0.0,
        0.0,
        0.0,
        0.0,
        1.0
      ],
      "name": "d66f3dbd3ed2409d8b0cbafaae3526f4.fbx"
    },
    {
      "children": [
        3
      ],
      "name": "RootNode"
    },
    {
      "children": [
        4,
        6,
        8
      ],
      "matrix": [
        1.0,
        0.0,
        0.0,
        0.0,
        0.0,
        1.0,
        0.0,
        0.0,
        0.0,
        0.0,
        1.0,
        0.0,
        0.0,
        50.0,
        0.0,
        1.0
      ],
      "name": "nave"
    },
    {
      "children": [
        5
      ],
      "matrix": [
        1.0,
        0.0,
        0.0,
        0.0,
        0.0,
        1.0,
        0.0,
        0.0,
        0.0,
        0.0,
        1.0,
        0.0,
        0.0,
        18.3217304649465,
        14.6264627517711,
        1.0
      ],
      "name": "cuerpo"
    },
    {
      "mesh": 0,
      "name": "Object_5"
    },
    {
      "children": [
        7
      ],
      "matrix": [
        1.0,
        0.0,
        0.0,
        0.0,
        0.0,
        1.0,
        0.0,
        0.0,
        0.0,
        0.0,
        1.0,
        0.0,
        0.0,
        -8.14434033176023,
        -73.0091089811737,
        1.0
      ],
      "name": "alas"
    },
    {
      "mesh": 1,
      "name": "Object_7"
    },
    {
      "children": [
        9
      ],
      "matrix": [
        1.0,
        0.0,
        0.0,
        0.0,
        0.0,
        1.0,
        0.0,
        0.0,
        0.0,
        0.0,
        1.0,
        0.0,
        -1.59872115546023e-14,
        39.9669248892837,
        45.5743837926929,
        1.0
      ],
      "name": "canon"
    },
    {
      "mesh": 2,
      "name": "Object_9"
    }
  ],
  "samplers": [
    {
      "magFilter": 9729,
      "minFilter": 9987,
      "wrapS": 10497,
      "wrapT": 10497
    }
  ],
  "scene": 0,
  "scenes": [
    {
      "name": "Sketchfab_Scene",
      "nodes": [
        0
      ]
    }
  ],
  "textures": [
    {
      "sampler": 0,
      "source": 0
    },
    {
      "sampler": 0,
      "source": 1
    },
    {
      "sampler": 0,
      "source": 2
    }
  ]
}
