{
  "accessors": [
    {
      "bufferView": 2,
      "componentType": 5126,
      "count": 1086,
      "max": [
        0.20079778134822845,
        2.944068670272827,
        -0.2879072427749634
      ],
      "min": [
        -0.20079778134822845,
        2.5822677612304688,
        -0.7807744145393372
      ],
      "type": "VEC3"
    },
    {
      "bufferView": 2,
      "byteOffset": 13032,
      "componentType": 5126,
      "count": 1086,
      "max": [
        0.9952247738838196,
        -0.08192053437232971,
        0.9146774411201477
      ],
      "min": [
        -0.9952282309532166,
        -0.9945364594459534,
        -0.6367449760437012
      ],
      "type": "VEC3"
    },
    {
      "bufferView": 1,
      "componentType": 5126,
      "count": 1086,
      "max": [
        0.4654688835144043,
        0.885604977607727
      ],
      "min": [
        0.44533219933509827,
        0.8317558765411377
      ],
      "type": "VEC2"
    },
    {
      "bufferView": 0,
      "componentType": 5125,
      "count": 4800,
      "type": "SCALAR"
    },
    {
      "bufferView": 2,
      "byteOffset": 26064,
      "componentType": 5126,
      "count": 65532,
      "max": [
        2.4316389560699463,
        5.005263328552246,
        0.6579635739326477
      ],
      "min": [
        -2.4316389560699463,
        -0.9147560596466064,
        -0.9146438837051392
      ],
      "type": "VEC3"
    },
    {
      "bufferView": 2,
      "byteOffset": 812448,
      "componentType": 5126,
      "count": 65532,
      "max": [
        0.9999874234199524,
        1.0,
        1.0
      ],
      "min": [
        -0.9999874234199524,
        -1.0,
        -1.0
      ],
      "type": "VEC3"
    },
    {
      "bufferView": 1,
      "byteOffset": 8688,
      "componentType": 5126,
      "count": 65532,
      "max": [
        1.0000001192092896,
        0.995774507522583
      ],
      "min": [
        0.010336057282984257,
        0.0038490300066769123
      ],
      "type": "VEC2"
    },
    {
      "bufferView": 0,
      "byteOffset": 19200,
      "componentType": 5125,
      "count": 339060,
      "type": "SCALAR"
    },
    {
      "bufferView": 2,
      "byteOffset": 1598832,
      "componentType": 5126,
      "count": 11047,
      "max": [
        1.3969838619232178e-09,
        4.759286880493164,
        0.6579635739326477
      ],
      "min": [
        -1.222002387046814,
        -0.9042231440544128,
        -0.9146438837051392
      ],
      "type": "VEC3"
    },
    {
      "bufferView": 2,
      "byteOffset": 1731396,
      "componentType": 5126,
      "count": 11047,
      "max": [
        0.9995671510696411,
        0.9993572235107422,
        1.0
      ],
      "min": [
        -0.9994492530822754,
        -0.9970636367797852,
        -1.0
      ],
      "type": "VEC3"
    },
    {
      "bufferView": 1,
      "byteOffset": 532944,
      "componentType": 5126,
      "count": 11047,
      "max": [
        0.9533286690711975,
        0.995774507522583
      ],
      "min": [
        0.07507774233818054,
        0.0302742887288332
      ],
      "type": "VEC2"
    },
    {
      "bufferView": 0,
      "byteOffset": 1375440,
      "componentType": 5125,
      "count": 56844,
      "type": "SCALAR"
    },
    {
      "bufferView": 2,
      "byteOffset": 1863960,
      "componentType": 5126,
      "count": 12755,
      "max": [
        2.4742441177368164,
        4.53631591796875,
        0.3032187819480896
      ],
      "min": [
        -2.4742441177368164,
        -0.8980045318603516,
        -0.8070998191833496
      ],
      "type": "VEC3"
    },
    {
      "bufferView": 2,
      "byteOffset": 2017020,
      "componentType": 5126,
      "count": 12755,
      "max": [
        0.9987276196479797,
        0.9926427602767944,
        1.0
      ],
      "min": [
        -0.9987282752990723,
        -0.9872734546661377,
        -0.9999979734420776
      ],
      "type": "VEC3"
    },
    {
      "bufferView": 1,
      "byteOffset": 621320,
      "componentType": 5126,
      "count": 12755,
      "max": [
        0.9689271450042725,
        0.9897276163101196
      ],
      "min": [
        0.0,
        0.0
      ],
      "type": "VEC2"
    },
    {
      "bufferView": 0,
      "byteOffset": 1602816,
      "componentType": 5125,
      "count": 62304,
      "type": "SCALAR"
    }
  ],
  "asset": {
    "extras": {
      "author": "d-alien (https://sketchfab.com/daleziemianski)",
      "license": "CC-BY-4.0 (http://creativecommons.org/licenses/by/4.0/)",
      "source": "https://sketchfab.com/3d-models/spaceship-20220201-0e8852a1e4c94ba9ac62dec42dd43f8b",
      "title": "Spaceship-20220201"
    },
    "generator": "Sketchfab-12.66.0",
    "version": "2.0"
  },
  "bufferViews": [
    {
      "buffer": 0,
      "byteLength": 1852032,
      "name": "floatBufferViews",
      "target": 34963
    },
    {
      "buffer": 0,
      "byteLength": 723360,
      "byteOffset": 1852032,
      "byteStride": 8,
      "name": "floatBufferViews",
      "target": 34962
    },
    {
      "buffer": 0,
      "byteLength": 2170080,
      "byteOffset": 2575392,
      "byteStride": 12,
      "name": "floatBufferViews",
      "target": 34962
    }
  ],
  "buffers": [
    {
      "byteLength": 4745472,
      "uri": "scene.bin"
    }
  ],
  "materials": [
    {
      "doubleSided": true,
      "name": "dark_glass",
      "pbrMetallicRoughness": {
        "baseColorFactor": [
          0.0,
          0.0,
          0.0,
          1.0
        ],
        "metallicFactor": 0.0,
        "roughnessFactor": 0.00454545
      }
    },
    {
      "doubleSided": true,
      "name": "metal",
      "pbrMetallicRoughness": {
        "baseColorFactor": [
          0.0312782,
          0.0183776,
          0.0425578,
          1.0
        ],
        "roughnessFactor": 0.218182
      }
    },
    {
      "doubleSided": true,
      "emissiveFactor": [
        0.0128367,
        0.0128367,
        0.0128367
      ],
      "name": "accent",
      "pbrMetallicRoughness": {
        "baseColorFactor": [
          0.0687328,
          0.0369213,
          0.965099,
          1.0
        ],
        "metallicFactor": 0.9866981011619211,
        "roughnessFactor": 0.1050729924788258
      }
    }
  ],
  "meshes": [
    {
      "name": "Object_0",
      "primitives": [
        {
          "attributes": {
            "NORMAL": 1,
            "POSITION": 0,
            "TEXCOORD_0": 2
          },
          "indices": 3,
          "material": 0,
          "mode": 4
        }
      ]
    },
    {
      "name": "Object_1",
      "primitives": [
        {
          "attributes": {
            "NORMAL": 5,
            "POSITION": 4,
            "TEXCOORD_0": 6
          },
          "indices": 7,
          "material": 1,
          "mode": 4
        }
      ]
    },
    {
      "name": "Object_2",
      "primitives": [
        {
          "attributes": {
            "NORMAL": 9,
            "POSITION": 8,
            "TEXCOORD_0": 10
          },
          "indices": 11,
          "material": 1,
          "mode": 4
        }
      ]
    },
    {
      "name": "Object_3",
      "primitives": [
        {
          "attributes": {
            "NORMAL": 13,
            "POSITION": 12,
            "TEXCOORD_0": 14
          },
          "indices": 15,
          "material": 2,
          "mode": 4
        }
      ]
    }
  ],
  "nodes": [
    {
      "children": [
        1
      ],
      "matrix": [
        3.0460662841796875,
        0.0,
        0.0,
        0.0,
        0.0,
        6.763625846461369e-16,
        -3.0460662841796875,
        0.0,
        0.0,
        3.0460662841796875,
        6.763625846461369e-16,
        0.0,
        0.0,
        0.0,
        0.0,
        1.0
      ],
      "name": "Sketchfab_model"
    },
    {
      "children": [
        2
      ],
      "name": "root"
    },
    {
      "children": [
        3
      ],
      "matrix": [
        1.0,
        0.0,
        0.0,
        0.0,
        0.0,
        2.220446049250313e-16,
        1.0,
        0.0,
        0.0,
        -1.0,
        2.220446049250313e-16,
        0.0,
        0.0,
        0.0,
        0.0,
        1.0
      ],
      "name": "GLTF_SceneRootNode"
    },
    {
      "children": [
        4,
        5,
        6,
        7
      ],
      "matrix": [
        1.0,
        0.0,
        0.0,
        0.0,
        0.0,
        0.0,
        1.0,
        0.0,
        0.0,
        -1.0,
        0.0,
        0.0,
        0.0,
        0.30480000376701355,
        0.0,
        1.0
      ],
      "name": "Plane_2"
    },
    {
      "mesh": 0,
      "name": "Object_4"
    },
    {
      "mesh": 1,
      "name": "Object_5"
    },
    {
      "mesh": 2,
      "name": "Object_6"
    },
    {
      "mesh": 3,
      "name": "Object_7"
    }
  ],
  "scene": 0,
  "scenes": [
    {
      "name": "Sketchfab_Scene",
      "nodes": [
        0
      ]
    }
  ]
}
