{
  "accessors": [
    {
      "bufferView": 2,
      "componentType": 5126,
      "count": 13339,
      "max": [
        1.3415625095367432,
        4.332732200622559,
        2.099036455154419
      ],
      "min": [
        -1.8743685483932495,
        -4.302224159240723,
        -2.099036455154419
      ],
      "type": "VEC3"
    },
    {
      "bufferView": 2,
      "byteOffset": 160068,
      "componentType": 5126,
      "count": 13339,
      "max": [
        0.9992693066596985,
        1.0,
        1.0
      ],
      "min": [
        -0.9999954104423523,
        -0.9999991059303284,
        -1.0
      ],
      "type": "VEC3"
    },
    {
      "bufferView": 1,
      "componentType": 5126,
      "count": 13339,
      "max": [
        1.0000001192092896,
        1.000000238418579
      ],
      "min": [
        0.0,
        0.0
      ],
      "type": "VEC2"
    },
    {
      "bufferView": 0,
      "componentType": 5125,
      "count": 59904,
      "type": "SCALAR"
    },
    {
      "bufferView": 2,
      "byteOffset": 320136,
      "componentType": 5126,
      "count": 3752,
      "max": [
        1.439125418663025,
        4.234145641326904,
        2.104320526123047
      ],
      "min": [
        -1.7281732559204102,
        -4.195435047149658,
        -2.104320526123047
      ],
      "type": "VEC3"
    },
    {
      "bufferView": 2,
      "byteOffset": 365160,
      "componentType": 5126,
      "count": 3752,
      "max": [
        0.9999963045120239,
        1.0,
        1.0
      ],
      "min": [
        -0.9999940395355225,
        -0.9999997019767761,
        -1.0
      ],
      "type": "VEC3"
    },
    {
      "bufferView": 1,
      "byteOffset": 106712,
      "componentType": 5126,
      "count": 3752,
      "max": [
        1.0000001192092896,
        1.0000001192092896
      ],
      "min": [
        0.0,
        0.0
      ],
      "type": "VEC2"
    },
    {
      "bufferView": 0,
      "byteOffset": 239616,
      "componentType": 5125,
      "count": 16992,
      "type": "SCALAR"
    },
    {
      "bufferView": 2,
      "byteOffset": 410184,
      "componentType": 5126,
      "count": 4423,
      "max": [
        1.4360800981521606,
        4.315457820892334,
        1.5513979196548462
      ],
      "min": [
        -1.7669702768325806,
        -4.3066020011901855,
        -1.5513978004455566
      ],
      "type": "VEC3"
    },
    {
      "bufferView": 2,
      "byteOffset": 463260,
      "componentType": 5126,
      "count": 4423,
      "max": [
        1.0,
        1.0,
        1.0
      ],
      "min": [
        -0.9999990463256836,
        -1.0,
        -1.0
      ],
      "type": "VEC3"
    },
    {
      "bufferView": 1,
      "byteOffset": 136728,
      "componentType": 5126,
      "count": 4423,
      "max": [
        1.000000238418579,
        1.000000238418579
      ],
      "min": [
        0.0,
        0.0
      ],
      "type": "VEC2"
    },
    {
      "bufferView": 0,
      "byteOffset": 307584,
      "componentType": 5125,
      "count": 19632,
      "type": "SCALAR"
    },
    {
      "bufferView": 2,
      "byteOffset": 516336,
      "componentType": 5126,
      "count": 150,
      "max": [
        1.8006744384765625,
        -0.0003410298959352076,
        2.104320526123047
      ],
      "min": [
        -0.557884693145752,
        -0.7931265234947205,
        -2.104320526123047
      ],
      "type": "VEC3"
    },
    {
      "bufferView": 2,
      "byteOffset": 518136,
      "componentType": 5126,
      "count": 150,
      "max": [
        0.982725977897644,
        0.5311715602874756,
        1.0
      ],
      "min": [
        -0.0022489125840365887,
        -0.5294328927993774,
        -1.0
      ],
      "type": "VEC3"
    },
    {
      "bufferView": 1,
      "byteOffset": 172112,
      "componentType": 5126,
      "count": 150,
      "max": [
        0.9617795348167419,
        0.5535128712654114
      ],
      "min": [
        0.0,
        0.0
      ],
      "type": "VEC2"
    },
    {
      "bufferView": 0,
      "byteOffset": 386112,
      "componentType": 5125,
      "count": 576,
      "type": "SCALAR"
    },
    {
      "bufferView": 2,
      "byteOffset": 519936,
      "componentType": 5126,
      "count": 594,
      "max": [
        -1.0539971590042114,
        3.988849401473999,
        0.2023499608039856
      ],
      "min": [
        -1.7272469997406006,
        -4.068995952606201,
        -0.2023499608039856
      ],
      "type": "VEC3"
    },
    {
      "bufferView": 2,
      "byteOffset": 527064,
      "componentType": 5126,
      "count": 594,
      "max": [
        -0.30501094460487366,
        0.5985645055770874,
        0.9523462653160095
      ],
      "min": [
        -1.0,
        -0.6003358960151672,
        -0.9523433446884155
      ],
      "type": "VEC3"
    },
    {
      "bufferView": 1,
      "byteOffset": 173312,
      "componentType": 5126,
      "count": 594,
      "max": [
        0.18968161940574646,
        1.0000003576278687
      ],
      "min": [
        0.0,
        0.0
      ],
      "type": "VEC2"
    },
    {
      "bufferView": 0,
      "byteOffset": 388416,
      "componentType": 5125,
      "count": 2208,
      "type": "SCALAR"
    },
    {
      "bufferView": 2,
      "byteOffset": 534192,
      "componentType": 5126,
      "count": 294,
      "max": [
        -1.0539971590042114,
        3.669414520263672,
        0.13242392241954803
      ],
      "min": [
        -1.678207278251648,
        -3.6223855018615723,
        -0.13242392241954803
      ],
      "type": "VEC3"
    },
    {
      "bufferView": 2,
      "byteOffset": 537720,
      "componentType": 5126,
      "count": 294,
      "max": [
        -0.9998271465301514,
        0.0049673509784042835,
        0.018583709374070168
      ],
      "min": [
        -1.0,
        -0.005004556849598885,
        -0.01859021745622158
      ],
      "type": "VEC3"
    },
    {
      "bufferView": 1,
      "byteOffset": 178064,
      "componentType": 5126,
      "count": 294,
      "max": [
        0.18968160450458527,
        1.000000238418579
      ],
      "min": [
        0.0,
        0.0
      ],
      "type": "VEC2"
    },
    {
      "bufferView": 0,
      "byteOffset": 397248,
      "componentType": 5125,
      "count": 1344,
      "type": "SCALAR"
    },
    {
      "bufferView": 2,
      "byteOffset": 541248,
      "componentType": 5126,
      "count": 311,
      "max": [
        1.2119883298873901,
        0.637070894241333,
        0.20533673465251923
      ],
      "min": [
        1.1987406015396118,
        -0.615867555141449,
        -0.20533674955368042
      ],
      "type": "VEC3"
    },
    {
      "bufferView": 2,
      "byteOffset": 544980,
      "componentType": 5126,
      "count": 311,
      "max": [
        0.9999999403953552,
        0.9372574687004089,
        0.951776921749115
      ],
      "min": [
        0.2345517873764038,
        -0.9352502226829529,
        -0.9517761468887329
      ],
      "type": "VEC3"
    },
    {
      "bufferView": 1,
      "byteOffset": 180416,
      "componentType": 5126,
      "count": 311,
      "max": [
        1.000000238418579,
        1.0000001192092896
      ],
      "min": [
        0.9999999403953552,
        0.005749497562646866
      ],
      "type": "VEC2"
    },
    {
      "bufferView": 0,
      "byteOffset": 402624,
      "componentType": 5125,
      "count": 1248,
      "type": "SCALAR"
    },
    {
      "bufferView": 2,
      "byteOffset": 548712,
      "componentType": 5126,
      "count": 207,
      "max": [
        1.299033284187317,
        0.641664445400238,
        0.2089880108833313
      ],
      "min": [
        1.2688058614730835,
        -0.6205650568008423,
        -0.2089879959821701
      ],
      "type": "VEC3"
    },
    {
      "bufferView": 2,
      "byteOffset": 551196,
      "componentType": 5126,
      "count": 207,
      "max": [
        0.0022416841238737106,
        1.0,
        1.0
      ],
      "min": [
        -9.003083505376708e-06,
        -1.0,
        -1.0
      ],
      "type": "VEC3"
    },
    {
      "bufferView": 1,
      "byteOffset": 182904,
      "componentType": 5126,
      "count": 207,
      "max": [
        1.0000001192092896,
        1.0000001192092896
      ],
      "min": [
        1.0,
        0.0
      ],
      "type": "VEC2"
    },
    {
      "bufferView": 0,
      "byteOffset": 407616,
      "componentType": 5125,
      "count": 960,
      "type": "SCALAR"
    },
    {
      "bufferView": 2,
      "byteOffset": 553680,
      "componentType": 5126,
      "count": 21979,
      "max": [
        1.804968237876892,
        -0.4441894292831421,
        1.6816710233688354
      ],
      "min": [
        -0.8563229441642761,
        -1.1254065036773682,
        -1.681670904159546
      ],
      "type": "VEC3"
    },
    {
      "bufferView": 2,
      "byteOffset": 817428,
      "componentType": 5126,
      "count": 21979,
      "max": [
        0.9999963045120239,
        0.9999876618385315,
        0.9999785423278809
      ],
      "min": [
        -0.9999843835830688,
        -0.9999999403953552,
        -0.9999785423278809
      ],
      "type": "VEC3"
    },
    {
      "bufferView": 1,
      "byteOffset": 184560,
      "componentType": 5126,
      "count": 21979,
      "max": [
        0.8294088840484619,
        0.30107536911964417
      ],
      "min": [
        0.0,
        0.0
      ],
      "type": "VEC2"
    },
    {
      "bufferView": 0,
      "byteOffset": 411456,
      "componentType": 5125,
      "count": 98976,
      "type": "SCALAR"
    },
    {
      "bufferView": 2,
      "byteOffset": 1081176,
      "componentType": 5126,
      "count": 10922,
      "max": [
        1.541404366493225,
        -0.576860249042511,
        1.6795737743377686
      ],
      "min": [
        -0.8076852560043335,
        -1.069059133529663,
        -1.6795737743377686
      ],
      "type": "VEC3"
    },
    {
      "bufferView": 2,
      "byteOffset": 1212240,
      "componentType": 5126,
      "count": 10922,
      "max": [
        0.7993202209472656,
        0.92534339427948,
        0.999998152256012
      ],
      "min": [
        -0.9495337605476379,
        -0.9954668283462524,
        -0.999998152256012
      ],
      "type": "VEC3"
    },
    {
      "bufferView": 1,
      "byteOffset": 360392,
      "componentType": 5126,
      "count": 10922,
      "max": [
        0.8294069170951843,
        0.3010753095149994
      ],
      "min": [
        0.0,
        0.0
      ],
      "type": "VEC2"
    },
    {
      "bufferView": 0,
      "byteOffset": 807360,
      "componentType": 5125,
      "count": 18432,
      "type": "SCALAR"
    },
    {
      "bufferView": 2,
      "byteOffset": 1343304,
      "componentType": 5126,
      "count": 852,
      "max": [
        1.7884697914123535,
        -0.7328053712844849,
        1.5182572603225708
      ],
      "min": [
        1.582394003868103,
        -0.9179746508598328,
        -1.5182572603225708
      ],
      "type": "VEC3"
    },
    {
      "bufferView": 2,
      "byteOffset": 1353528,
      "componentType": 5126,
      "count": 852,
      "max": [
        0.9999850392341614,
        0.14059481024742126,
        0.8939738869667053
      ],
      "min": [
        0.3465496897697449,
        -0.9377132654190063,
        -0.8939732313156128
      ],
      "type": "VEC3"
    },
    {
      "bufferView": 1,
      "byteOffset": 447768,
      "componentType": 5126,
      "count": 852,
      "max": [
        0.745945394039154,
        0.06657254695892334
      ],
      "min": [
        0.0,
        0.0
      ],
      "type": "VEC2"
    },
    {
      "bufferView": 0,
      "byteOffset": 881088,
      "componentType": 5125,
      "count": 3264,
      "type": "SCALAR"
    },
    {
      "bufferView": 2,
      "byteOffset": 1363752,
      "componentType": 5126,
      "count": 235,
      "max": [
        -0.84201979637146,
        -0.7301512956619263,
        1.5346331596374512
      ],
      "min": [
        -0.8421780467033386,
        -0.8114427328109741,
        -1.5346330404281616
      ],
      "type": "VEC3"
    },
    {
      "bufferView": 2,
      "byteOffset": 1366572,
      "componentType": 5126,
      "count": 235,
      "max": [
        -0.9999901652336121,
        0.002969697117805481,
        0.004280656576156616
      ],
      "min": [
        -1.0,
        -0.002920114202424884,
        -0.004280657507479191
      ],
      "type": "VEC3"
    },
    {
      "bufferView": 1,
      "byteOffset": 454584,
      "componentType": 5126,
      "count": 235,
      "max": [
        0.470879465341568,
        0.24945484101772308
      ],
      "min": [
        0.47087931632995605,
        0.051542919129133224
      ],
      "type": "VEC2"
    },
    {
      "bufferView": 0,
      "byteOffset": 894144,
      "componentType": 5125,
      "count": 768,
      "type": "SCALAR"
    },
    {
      "bufferView": 2,
      "byteOffset": 1369392,
      "componentType": 5126,
      "count": 5450,
      "max": [
        0.7366885542869568,
        -0.715124785900116,
        1.6793832778930664
      ],
      "min": [
        -0.8446765542030334,
        -0.8582004308700562,
        -1.6793832778930664
      ],
      "type": "VEC3"
    },
    {
      "bufferView": 2,
      "byteOffset": 1434792,
      "componentType": 5126,
      "count": 5450,
      "max": [
        0.06016337499022484,
        0.7410905361175537,
        1.0
      ],
      "min": [
        -1.0,
        -0.7406857013702393,
        -1.0
      ],
      "type": "VEC3"
    },
    {
      "bufferView": 1,
      "byteOffset": 456464,
      "componentType": 5126,
      "count": 5450,
      "max": [
        0.47087952494621277,
        0.27742695808410645
      ],
      "min": [
        0.0,
        0.0
      ],
      "type": "VEC2"
    },
    {
      "bufferView": 0,
      "byteOffset": 897216,
      "componentType": 5125,
      "count": 10560,
      "type": "SCALAR"
    },
    {
      "bufferView": 2,
      "byteOffset": 1500192,
      "componentType": 5126,
      "count": 440,
      "max": [
        -0.642889142036438,
        -0.8379547595977783,
        1.4425640106201172
      ],
      "min": [
        -0.7934584617614746,
        -0.8688722252845764,
        -1.4425640106201172
      ],
      "type": "VEC3"
    },
    {
      "bufferView": 2,
      "byteOffset": 1505472,
      "componentType": 5126,
      "count": 440,
      "max": [
        0.8537266254425049,
        0.2991725206375122,
        0.9995867609977722
      ],
      "min": [
        -0.8819737434387207,
        -0.15830020606517792,
        -0.9995865821838379
      ],
      "type": "VEC3"
    },
    {
      "bufferView": 1,
      "byteOffset": 500064,
      "componentType": 5126,
      "count": 440,
      "max": [
        0.47087952494621277,
        0.0
      ],
      "min": [
        0.47087934613227844,
        0.0
      ],
      "type": "VEC2"
    },
    {
      "bufferView": 0,
      "byteOffset": 939456,
      "componentType": 5125,
      "count": 1536,
      "type": "SCALAR"
    },
    {
      "bufferView": 2,
      "byteOffset": 1510752,
      "componentType": 5126,
      "count": 2304,
      "max": [
        0.713939368724823,
        -0.7426745891571045,
        1.6792548894882202
      ],
      "min": [
        -0.7861278653144836,
        -0.8836919069290161,
        -1.6792548894882202
      ],
      "type": "VEC3"
    },
    {
      "bufferView": 2,
      "byteOffset": 1538400,
      "componentType": 5126,
      "count": 2304,
      "max": [
        0.1695403754711151,
        0.9855291843414307,
        0.9999009370803833
      ],
      "min": [
        -0.0646572858095169,
        -0.06485632061958313,
        -0.9999006390571594
      ],
      "type": "VEC3"
    },
    {
      "bufferView": 1,
      "byteOffset": 503584,
      "componentType": 5126,
      "count": 2304,
      "max": [
        0.0,
        0.0
      ],
      "min": [
        0.0,
        0.0
      ],
      "type": "VEC2"
    },
    {
      "bufferView": 0,
      "byteOffset": 945600,
      "componentType": 5125,
      "count": 3456,
      "type": "SCALAR"
    },
    {
      "bufferView": 2,
      "byteOffset": 1566048,
      "componentType": 5126,
      "count": 842,
      "max": [
        1.140220046043396,
        4.341728210449219,
        0.02332412265241146
      ],
      "min": [
        -1.2383015155792236,
        -4.31725549697876,
        -0.02332412265241146
      ],
      "type": "VEC3"
    },
    {
      "bufferView": 2,
      "byteOffset": 1576152,
      "componentType": 5126,
      "count": 842,
      "max": [
        0.9997653365135193,
        0.9999918937683105,
        0.9999637603759766
      ],
      "min": [
        -0.9999514818191528,
        -0.9999778270721436,
        -0.9999638199806213
      ],
      "type": "VEC3"
    },
    {
      "bufferView": 1,
      "byteOffset": 522016,
      "componentType": 5126,
      "count": 842,
      "max": [
        1.0000001192092896,
        1.0000001192092896
      ],
      "min": [
        0.07651706039905548,
        0.0
      ],
      "type": "VEC2"
    },
    {
      "bufferView": 0,
      "byteOffset": 959424,
      "componentType": 5125,
      "count": 4224,
      "type": "SCALAR"
    }
  ],
  "asset": {
    "extras": {
      "author": "ramieous (https://sketchfab.com/ramieous)",
      "license": "CC-BY-4.0 (http://creativecommons.org/licenses/by/4.0/)",
      "source": "https://sketchfab.com/3d-models/libra-moth-9384c7853bb34c19bd5f0eae3fff5365",
      "title": "Libra Moth"
    },
    "generator": "Sketchfab-15.5.0",
    "version": "2.0"
  },
  "bufferViews": [
    {
      "buffer": 0,
      "byteLength": 976320,
      "name": "floatBufferViews",
      "target": 34963
    },
    {
      "buffer": 0,
      "byteLength": 528752,
      "byteOffset": 976320,
      "byteStride": 8,
      "name": "floatBufferViews",
      "target": 34962
    },
    {
      "buffer": 0,
      "byteLength": 1586256,
      "byteOffset": 1505072,
      "byteStride": 12,
      "name": "floatBufferViews",
      "target": 34962
    }
  ],
  "buffers": [
    {
      "byteLength": 3091328,
      "uri": "scene.bin"
    }
  ],
  "extensionsUsed": [
    "KHR_materials_clearcoat",
    "KHR_materials_specular",
    "KHR_materials_emissive_strength"
  ],
  "materials": [
    {
      "doubleSided": true,
      "emissiveFactor": [
        0.00719358,
        0.00719358,
        0.00719358
      ],
      "extensions": {
        "KHR_materials_clearcoat": {
          "clearcoatFactor": 1.0,
          "clearcoatRoughnessFactor": 0.04
        }
      },
      "name": "Material.015",
      "pbrMetallicRoughness": {
        "baseColorFactor": [
          0.025916400000000006,
          0.02049760000000001,
          0.046960400000000006,
          1.0
        ],
        "metallicFactor": 0.6372979800449176,
        "roughnessFactor": 0.0588965526718932
      }
    },
    {
      "doubleSided": true,
      "extensions": {
        "KHR_materials_clearcoat": {
          "clearcoatFactor": 1.0,
          "clearcoatRoughnessFactor": 0.04
        },
        "KHR_materials_specular": {
          "specularColorFactor": [
            1.0,
            1.0,
            1.0
          ],
          "specularFactor": 0.5522324492056246
        }
      },
      "name": "Material.017",
      "pbrMetallicRoughness": {
        "baseColorFactor": [
          0.774271,
          0.774271,
          0.774271,
          1.0
        ],
        "roughnessFactor": 0.15003819285684994
      }
    },
    {
      "doubleSided": true,
      "name": "Material.020",
      "pbrMetallicRoughness": {
        "baseColorFactor": [
          0.00240733,
          0.00257929,
          0.00247362,
          1.0
        ],
        "metallicFactor": 0.0,
        "roughnessFactor": 0.999769490856703
      }
    },
    {
      "doubleSided": true,
      "emissiveFactor": [
        0.9389833187662747,
        0.8902064079184644,
        0.8902064079184644
      ],
      "extensions": {
        "KHR_materials_clearcoat": {
          "clearcoatFactor": 1.0,
          "clearcoatRoughnessFactor": 0.04
        },
        "KHR_materials_emissive_strength": {
          "emissiveStrength": 9.65407884710762
        }
      },
      "name": "Material.025",
      "pbrMetallicRoughness": {
        "baseColorFactor": [
          0.8,
          0.8,
          0.8,
          1.0
        ],
        "metallicFactor": 0.9167990099454517,
        "roughnessFactor": 0.016363787252246742
      }
    },
    {
      "doubleSided": true,
      "extensions": {
        "KHR_materials_clearcoat": {
          "clearcoatFactor": 1.0,
          "clearcoatRoughnessFactor": 0.04
        },
        "KHR_materials_emissive_strength": {
          "emissiveStrength": 10.0
        }
      },
      "name": "Material.018",
      "pbrMetallicRoughness": {
        "baseColorFactor": [
          0.5465368257863205,
          0.8391227570024272,
          0.7996945197065051,
          1.0
        ],
        "metallicFactor": 0.0,
        "roughnessFactor": 0.2229515050048153
      }
    },
    {
      "doubleSided": true,
      "emissiveFactor": [
        0.02225966873363115,
        0.16669127163973677,
        0.302722256656075
      ],
      "extensions": {
        "KHR_materials_clearcoat": {
          "clearcoatFactor": 1.0,
          "clearcoatRoughnessFactor": 0.04
        },
        "KHR_materials_emissive_strength": {
          "emissiveStrength": 10.0
        },
        "KHR_materials_specular": {
          "specularColorFactor": [
            1.0,
            1.0,
            1.0
          ],
          "specularFactor": 0.3213402940704008
        }
      },
      "name": "Material.016",
      "pbrMetallicRoughness": {
        "baseColorFactor": [
          0.1593795632476261,
          0.794505025003877,
          0.42796480173429763,
          1.0
        ],
        "metallicFactor": 0.3577969501443835,
        "roughnessFactor": 0.36270201995508244
      }
    },
    {
      "doubleSided": true,
      "emissiveFactor": [
        0.014894121240046632,
        0.9044534480096122,
        0.026271212555004007
      ],
      "extensions": {
        "KHR_materials_clearcoat": {
          "clearcoatFactor": 1.0,
          "clearcoatRoughnessFactor": 0.04
        },
        "KHR_materials_emissive_strength": {
          "emissiveStrength": 9.350273379824431
        }
      },
      "name": "Material.019",
      "pbrMetallicRoughness": {
        "baseColorFactor": [
          0.19727554187330626,
          0.8482173019344753,
          0.3798687132417407,
          1.0
        ],
        "metallicFactor": 0.0,
        "roughnessFactor": 0.1439620835111861
      }
    },
    {
      "doubleSided": true,
      "emissiveFactor": [
        0.9331280157815742,
        0.002737976718868804,
        0.03422312120742549
      ],
      "extensions": {
        "KHR_materials_clearcoat": {
          "clearcoatFactor": 1.0,
          "clearcoatRoughnessFactor": 0.04
        },
        "KHR_materials_emissive_strength": {
          "emissiveStrength": 8.742662445258052
        }
      },
      "name": "Material.021",
      "pbrMetallicRoughness": {
        "baseColorFactor": [
          0.894550670518953,
          0.0030128558235264506,
          0.0030128558235264506,
          1.0
        ],
        "metallicFactor": 0.7831246043408484,
        "roughnessFactor": 0.24117983304180668
      }
    },
    {
      "doubleSided": true,
      "extensions": {
        "KHR_materials_clearcoat": {
          "clearcoatFactor": 1.0,
          "clearcoatRoughnessFactor": 0.04
        }
      },
      "name": "Material.002",
      "pbrMetallicRoughness": {
        "baseColorFactor": [
          0.025916400000000006,
          0.02049760000000001,
          0.046960400000000006,
          1.0
        ],
        "metallicFactor": 0.0,
        "roughnessFactor": 0.04066822463490183
      }
    },
    {
      "doubleSided": true,
      "name": "Material.007",
      "pbrMetallicRoughness": {
        "baseColorFactor": [
          0.00240733,
          0.00257929,
          0.00247362,
          1.0
        ],
        "metallicFactor": 0.0,
        "roughnessFactor": 0.999769490856703
      }
    },
    {
      "alphaMode": "BLEND",
      "doubleSided": true,
      "emissiveFactor": [
        0.01629071211362685,
        0.003964575691263529,
        0.003964575691263529
      ],
      "extensions": {
        "KHR_materials_clearcoat": {
          "clearcoatFactor": 1.0,
          "clearcoatRoughnessFactor": 0.04
        }
      },
      "name": "Material.024",
      "pbrMetallicRoughness": {
        "baseColorFactor": [
          0.0835316,
          0.02461,
          0.0168747,
          0.9897123220934171
        ],
        "metallicFactor": 0.9471795566737706,
        "roughnessFactor": 0.13180986481985857
      }
    },
    {
      "doubleSided": true,
      "emissiveFactor": [
        0.019173558291752806,
        0.462142274861012,
        0.4213230751992918
      ],
      "extensions": {
        "KHR_materials_clearcoat": {
          "clearcoatFactor": 1.0,
          "clearcoatRoughnessFactor": 0.04
        },
        "KHR_materials_emissive_strength": {
          "emissiveStrength": 9.167990099454517
        }
      },
      "name": "Material.006",
      "pbrMetallicRoughness": {
        "baseColorFactor": [
          0.282114462315422,
          0.7631958563963999,
          0.8482173019344755,
          1.0
        ],
        "metallicFactor": 0.0,
        "roughnessFactor": 0.8040408205773457
      }
    },
    {
      "doubleSided": true,
      "extensions": {
        "KHR_materials_clearcoat": {
          "clearcoatFactor": 1.0,
          "clearcoatRoughnessFactor": 0.04
        }
      },
      "name": "Material.004",
      "pbrMetallicRoughness": {
        "baseColorFactor": [
          0.010890675859859644,
          0.011353369671834302,
          0.011468233898551092,
          1.0
        ],
        "metallicFactor": 0.0,
        "roughnessFactor": 0.4842242068683581
      }
    },
    {
      "doubleSided": true,
      "emissiveFactor": [
        0.9678055872892634,
        0.0024454958749420873,
        0.0024454958749420873
      ],
      "extensions": {
        "KHR_materials_emissive_strength": {
          "emissiveStrength": 6.737546361189003
        }
      },
      "name": "Material.005",
      "pbrMetallicRoughness": {
        "baseColorFactor": [
          0.8851689040709597,
          0.008990260816387399,
          0.008990260816387399,
          1.0
        ],
        "metallicFactor": 0.0,
        "roughnessFactor": 0.22902761435047914
      }
    },
    {
      "alphaMode": "BLEND",
      "doubleSided": true,
      "emissiveFactor": [
        0.007528549999999995,
        0.11627299999999988,
        1.0
      ],
      "extensions": {
        "KHR_materials_clearcoat": {
          "clearcoatFactor": 1.0,
          "clearcoatRoughnessFactor": 0.04
        },
        "KHR_materials_emissive_strength": {
          "emissiveStrength": 3.4
        }
      },
      "name": "Material.022",
      "pbrMetallicRoughness": {
        "baseColorFactor": [
          0.20677199999999998,
          0.32940596377019343,
          0.8275569999999999,
          0.0965242482808408
        ],
        "metallicFactor": 0.9471795566737706,
        "roughnessFactor": 0.22902761435047914
      }
    },
    {
      "doubleSided": true,
      "emissiveFactor": [
        0.9293318771116339,
        0.0024022219876915357,
        0.0024022219876915357
      ],
      "extensions": {
        "KHR_materials_clearcoat": {
          "clearcoatFactor": 1.0,
          "clearcoatRoughnessFactor": 0.04
        },
        "KHR_materials_emissive_strength": {
          "emissiveStrength": 9.65407884710762
        }
      },
      "name": "Material.023",
      "pbrMetallicRoughness": {
        "baseColorFactor": [
          0.8851689040709597,
          0.0026750634511326673,
          0.0026750634511326673,
          1.0
        ],
        "metallicFactor": 0.880342353871469,
        "roughnessFactor": 0.010287677906582915
      }
    }
  ],
  "meshes": [
    {
      "name": "Plane.003_Material.015_0",
      "primitives": [
        {
          "attributes": {
            "NORMAL": 1,
            "POSITION": 0,
            "TEXCOORD_0": 2
          },
          "indices": 3,
          "material": 0,
          "mode": 4
        }
      ]
    },
    {
      "name": "Plane.003_Material.017_0",
      "primitives": [
        {
          "attributes": {
            "NORMAL": 5,
            "POSITION": 4,
            "TEXCOORD_0": 6
          },
          "indices": 7,
          "material": 1,
          "mode": 4
        }
      ]
    },
    {
      "name": "Plane.003_Material.020_0",
      "primitives": [
        {
          "attributes": {
            "NORMAL": 9,
            "POSITION": 8,
            "TEXCOORD_0": 10
          },
          "indices": 11,
          "material": 2,
          "mode": 4
        }
      ]
    },
    {
      "name": "Plane.003_Material.025_0",
      "primitives": [
        {
          "attributes": {
            "NORMAL": 13,
            "POSITION": 12,
            "TEXCOORD_0": 14
          },
          "indices": 15,
          "material": 3,
          "mode": 4
        }
      ]
    },
    {
      "name": "Plane.003_Material.018_0",
      "primitives": [
        {
          "attributes": {
            "NORMAL": 17,
            "POSITION": 16,
            "TEXCOORD_0": 18
          },
          "indices": 19,
          "material": 4,
          "mode": 4
        }
      ]
    },
    {
      "name": "Plane.003_Material.016_0",
      "primitives": [
        {
          "attributes": {
            "NORMAL": 21,
            "POSITION": 20,
            "TEXCOORD_0": 22
          },
          "indices": 23,
          "material": 5,
          "mode": 4
        }
      ]
    },
    {
      "name": "Plane.003_Material.019_0",
      "primitives": [
        {
          "attributes": {
            "NORMAL": 25,
            "POSITION": 24,
            "TEXCOORD_0": 26
          },
          "indices": 27,
          "material": 6,
          "mode": 4
        }
      ]
    },
    {
      "name": "Plane.003_Material.021_0",
      "primitives": [
        {
          "attributes": {
            "NORMAL": 29,
            "POSITION": 28,
            "TEXCOORD_0": 30
          },
          "indices": 31,
          "material": 7,
          "mode": 4
        }
      ]
    },
    {
      "name": "Plane.003_Material.002_0",
      "primitives": [
        {
          "attributes": {
            "NORMAL": 33,
            "POSITION": 32,
            "TEXCOORD_0": 34
          },
          "indices": 35,
          "material": 8,
          "mode": 4
        }
      ]
    },
    {
      "name": "Plane.003_Material.007_0",
      "primitives": [
        {
          "attributes": {
            "NORMAL": 37,
            "POSITION": 36,
            "TEXCOORD_0": 38
          },
          "indices": 39,
          "material": 9,
          "mode": 4
        }
      ]
    },
    {
      "name": "Plane.003_Material.024_0",
      "primitives": [
        {
          "attributes": {
            "NORMAL": 41,
            "POSITION": 40,
            "TEXCOORD_0": 42
          },
          "indices": 43,
          "material": 10,
          "mode": 4
        }
      ]
    },
    {
      "name": "Plane.003_Material.006_0",
      "primitives": [
        {
          "attributes": {
            "NORMAL": 45,
            "POSITION": 44,
            "TEXCOORD_0": 46
          },
          "indices": 47,
          "material": 11,
          "mode": 4
        }
      ]
    },
    {
      "name": "Plane.003_Material.004_0",
      "primitives": [
        {
          "attributes": {
            "NORMAL": 49,
            "POSITION": 48,
            "TEXCOORD_0": 50
          },
          "indices": 51,
          "material": 12,
          "mode": 4
        }
      ]
    },
    {
      "name": "Plane.003_Material.005_0",
      "primitives": [
        {
          "attributes": {
            "NORMAL": 53,
            "POSITION": 52,
            "TEXCOORD_0": 54
          },
          "indices": 55,
          "material": 13,
          "mode": 4
        }
      ]
    },
    {
      "name": "Plane.003_Material.022_0",
      "primitives": [
        {
          "attributes": {
            "NORMAL": 57,
            "POSITION": 56,
            "TEXCOORD_0": 58
          },
          "indices": 59,
          "material": 14,
          "mode": 4
        }
      ]
    },
    {
      "name": "Plane.003_Material.023_0",
      "primitives": [
        {
          "attributes": {
            "NORMAL": 61,
            "POSITION": 60,
            "TEXCOORD_0": 62
          },
          "indices": 63,
          "material": 15,
          "mode": 4
        }
      ]
    }
  ],
  "nodes": [
    {
      "children": [
        1
      ],
      "matrix": [
        1.0,
        0.0,
        0.0,
        0.0,
        0.0,
        2.220446049250313e-16,
        -1.0,
        0.0,
        0.0,
        1.0,
        2.220446049250313e-16,
        0.0,
        0.0,
        0.0,
        0.0,
        1.0
      ],
      "name": "Sketchfab_model"
    },
    {
      "children": [
        2
      ],
      "matrix": [
        0.009999999776482582,
        0.0,
        0.0,
        0.0,
        0.0,
        0.0,
        0.009999999776482582,
        0.0,
        0.0,
        -0.009999999776482582,
        0.0,
        0.0,
        0.0,
        0.0,
        0.0,
        1.0
      ],
      "name": "e19113d61ccd40ad885beade9521a583.fbx"
    },
    {
      "children": [
        3,
        20,
        23,
        26,
        29,
        32
      ],
      "name": "RootNode"
    },
    {
      "children": [
        4,
        5,
        6,
        7,
        8,
        9,
        10,
        11,
        12,
        13,
        14,
        15,
        16,
        17,
        18,
        19
      ],
      "matrix": [
        7.549789959870878e-06,
        0.0,
        99.9999999999997,
        0.0,
        1.5099579909783665e-05,
        -99.99999999999885,
        -1.1399865659576347e-12,
        0.0,
        99.99999999999856,
        1.5099579909783707e-05,
        -7.549789948768648e-06,
        0.0,
        -1.4559388160705566,
        -0.1612260937690735,
        493.9501647949219,
        1.0
      ],
      "name": "Plane.003"
    },
    {
      "mesh": 0,
      "name": "Plane.003_Material.015_0"
    },
    {
      "mesh": 1,
      "name": "Plane.003_Material.017_0"
    },
    {
      "mesh": 2,
      "name": "Plane.003_Material.020_0"
    },
    {
      "mesh": 3,
      "name": "Plane.003_Material.025_0"
    },
    {
      "mesh": 4,
      "name": "Plane.003_Material.018_0"
    },
    {
      "mesh": 5,
      "name": "Plane.003_Material.016_0"
    },
    {
      "mesh": 6,
      "name": "Plane.003_Material.019_0"
    },
    {
      "mesh": 7,
      "name": "Plane.003_Material.021_0"
    },
    {
      "mesh": 8,
      "name": "Plane.003_Material.002_0"
    },
    {
      "mesh": 9,
      "name": "Plane.003_Material.007_0"
    },
    {
      "mesh": 10,
      "name": "Plane.003_Material.024_0"
    },
    {
      "mesh": 11,
      "name": "Plane.003_Material.006_0"
    },
    {
      "mesh": 12,
      "name": "Plane.003_Material.004_0"
    },
    {
      "mesh": 13,
      "name": "Plane.003_Material.005_0"
    },
    {
      "mesh": 14,
      "name": "Plane.003_Material.022_0"
    },
    {
      "mesh": 15,
      "name": "Plane.003_Material.023_0"
    },
    {
      "children": [
        21
      ],
      "matrix": [
        100.0,
        0.0,
        0.0,
        0.0,
        0.0,
        99.99999999999972,
        -7.5497901264043296e-06,
        0.0,
        0.0,
        7.5497901264043296e-06,
        99.99999999999972,
        0.0,
        -2.0495057106018066,
        447.7054443359375,
        370.1524658203125,
        1.0
      ],
      "name": "tp ant"
    },
    {
      "children": [
        22
      ],
      "matrix": [
        1.0,
        0.0,
        0.0,
        0.0,
        0.0,
        2.220446049250313e-16,
        1.0,
        0.0,
        0.0,
        -1.0,
        2.220446049250313e-16,
        0.0,
        0.0,
        0.0,
        0.0,
        1.0
      ],
      "name": "Object_21"
    },
    {
      "name": "Object_22"
    },
    {
      "children": [
        24
      ],
      "matrix": [
        100.0,
        3.3527803317687053e-21,
        -4.4408920985006274e-14,
        0.0,
        -3.3527801794350604e-21,
        -99.99999999999889,
        -1.5099579909783709e-05,
        0.0,
        -4.4408920985006274e-14,
        1.5099579909783709e-05,
        -99.99999999999889,
        0.0,
        -2.0495057106018066,
        -456.73004150390625,
        370.1524658203125,
        1.0
      ],
      "name": "bot ant"
    },
    {
      "children": [
        25
      ],
      "matrix": [
        1.0,
        0.0,
        0.0,
        0.0,
        0.0,
        2.220446049250313e-16,
        1.0,
        0.0,
        0.0,
        -1.0,
        2.220446049250313e-16,
        0.0,
        0.0,
        0.0,
        0.0,
        1.0
      ],
      "name": "Object_24"
    },
    {
      "name": "Object_25"
    },
    {
      "children": [
        27
      ],
      "matrix": [
        100.0,
        -2.2204459169014154e-14,
        -2.220445255156925e-14,
        0.0,
        2.220445952191379e-14,
        3.139164788112936e-05,
        99.99999999999507,
        0.0,
        -2.2204452198669503e-14,
        -99.99999999999507,
        3.139164788112936e-05,
        0.0,
        -2.0495057106018066,
        -357.4342956542969,
        560.4659423828125,
        1.0
      ],
      "name": "bot b ant"
    },
    {
      "children": [
        28
      ],
      "matrix": [
        1.0,
        0.0,
        0.0,
        0.0,
        0.0,
        2.220446049250313e-16,
        1.0,
        0.0,
        0.0,
        -1.0,
        2.220446049250313e-16,
        0.0,
        0.0,
        0.0,
        0.0,
        1.0
      ],
      "name": "Object_27"
    },
    {
      "name": "Object_28"
    },
    {
      "children": [
        30
      ],
      "matrix": [
        100.0,
        -2.2204459169014154e-14,
        -2.220445255156925e-14,
        0.0,
        2.220445952191379e-14,
        3.139164788112936e-05,
        99.99999999999507,
        0.0,
        -2.2204452198669503e-14,
        -99.99999999999507,
        3.139164788112936e-05,
        0.0,
        -2.0495057106018066,
        417.42822265625,
        571.5477294921875,
        1.0
      ],
      "name": "top b ant"
    },
    {
      "children": [
        31
      ],
      "matrix": [
        1.0,
        0.0,
        0.0,
        0.0,
        0.0,
        2.220446049250313e-16,
        1.0,
        0.0,
        0.0,
        -1.0,
        2.220446049250313e-16,
        0.0,
        0.0,
        0.0,
        0.0,
        1.0
      ],
      "name": "Object_30"
    },
    {
      "name": "Object_31"
    },
    {
      "children": [
        33
      ],
      "matrix": [
        100.0,
        -1.9940681561160265e-14,
        -1.2436795505610737e-14,
        0.0,
        1.9940682446727278e-14,
        43.98965824795656,
        89.80484378488717,
        0.0,
        -1.2436794085726392e-14,
        -89.80484378488717,
        43.98965824795656,
        0.0,
        -2.0495057106018066,
        224.16539001464844,
        690.1408081054688,
        1.0
      ],
      "name": "bg ant"
    },
    {
      "children": [
        34
      ],
      "matrix": [
        1.0,
        0.0,
        0.0,
        0.0,
        0.0,
        2.220446049250313e-16,
        1.0,
        0.0,
        0.0,
        -1.0,
        2.220446049250313e-16,
        0.0,
        0.0,
        0.0,
        0.0,
        1.0
      ],
      "name": "Object_33"
    },
    {
      "name": "Object_34"
    }
  ],
  "scene": 0,
  "scenes": [
    {
      "name": "Sketchfab_Scene",
      "nodes": [
        0
      ]
    }
  ]
}
