{
  "accessors": [
    {
      "bufferView": 2,
      "componentType": 5126,
      "count": 1170,
      "max": [
        10.222625732421875,
        10.300718307495117,
        13.226625442504883
      ],
      "min": [
        -10.362884521484375,
        -10.329659461975098,
        -7.760890483856201
      ],
      "type": "VEC3"
    },
    {
      "bufferView": 2,
      "byteOffset": 14040,
      "componentType": 5126,
      "count": 1170,
      "max": [
        1.0,
        1.0,
        1.0
      ],
      "min": [
        -1.0,
        -1.0,
        -1.0
      ],
      "type": "VEC3"
    },
    {
      "bufferView": 1,
      "componentType": 5126,
      "count": 1170,
      "max": [
        0.9926509261131287,
        0.9761924147605896
      ],
      "min": [
        0.011929265223443508,
        0.010227810591459274
      ],
      "type": "VEC2"
    },
    {
      "bufferView": 0,
      "componentType": 5125,
      "count": 3696,
      "type": "SCALAR"
    },
    {
      "bufferView": 2,
      "byteOffset": 28080,
      "componentType": 5126,
      "count": 1109,
      "max": [
        35.71637725830078,
        10.300718307495117,
        13.226625442504883
      ],
      "min": [
        15.130868911743164,
        -10.329662322998047,
        -7.557552814483643
      ],
      "type": "VEC3"
    },
    {
      "bufferView": 2,
      "byteOffset": 41388,
      "componentType": 5126,
      "count": 1109,
      "max": [
        1.0,
        1.0,
        1.0
      ],
      "min": [
        -1.0,
        -1.0,
        -1.0
      ],
      "type": "VEC3"
    },
    {
      "bufferView": 1,
      "byteOffset": 9360,
      "componentType": 5126,
      "count": 1109,
      "max": [
        0.9927766919136047,
        0.9903227686882019
      ],
      "min": [
        0.010973526164889336,
        0.004266329109668732
      ],
      "type": "VEC2"
    },
    {
      "bufferView": 0,
      "byteOffset": 14784,
      "componentType": 5125,
      "count": 3312,
      "type": "SCALAR"
    },
    {
      "bufferView": 2,
      "byteOffset": 54696,
      "componentType": 5126,
      "count": 1156,
      "max": [
        62.652008056640625,
        11.725013732910156,
        13.226625442504883
      ],
      "min": [
        39.088218688964844,
        -11.833038330078125,
        -8.276135444641113
      ],
      "type": "VEC3"
    },
    {
      "bufferView": 2,
      "byteOffset": 68568,
      "componentType": 5126,
      "count": 1156,
      "max": [
        1.0,
        1.0,
        1.0
      ],
      "min": [
        -1.0,
        -1.0,
        -1.0
      ],
      "type": "VEC3"
    },
    {
      "bufferView": 1,
      "byteOffset": 18232,
      "componentType": 5126,
      "count": 1156,
      "max": [
        0.9906280636787415,
        0.9809587001800537
      ],
      "min": [
        0.0103017408400774,
        0.0097317174077034
      ],
      "type": "VEC2"
    },
    {
      "bufferView": 0,
      "byteOffset": 28032,
      "componentType": 5125,
      "count": 3684,
      "type": "SCALAR"
    },
    {
      "bufferView": 2,
      "byteOffset": 82440,
      "componentType": 5126,
      "count": 40,
      "max": [
        1.0113906860351563,
        1.0794936418533325,
        -80.2921371459961
      ],
      "min": [
        -1.0248641967773438,
        -0.9567537307739258,
        -84.35234832763672
      ],
      "type": "VEC3"
    },
    {
      "bufferView": 2,
      "byteOffset": 82920,
      "componentType": 5126,
      "count": 40,
      "max": [
        0.9117644429206848,
        0.9117606282234192,
        1.0
      ],
      "min": [
        -0.9117594361305237,
        -0.9117602109909058,
        -0.16144539415836334
      ],
      "type": "VEC3"
    },
    {
      "bufferView": 1,
      "byteOffset": 27480,
      "componentType": 5126,
      "count": 40,
      "max": [
        0.6704705357551575,
        0.9180358648300171
      ],
      "min": [
        0.4515957832336426,
        0.4037080407142639
      ],
      "type": "VEC2"
    },
    {
      "bufferView": 0,
      "byteOffset": 42768,
      "componentType": 5125,
      "count": 66,
      "type": "SCALAR"
    },
    {
      "bufferView": 2,
      "byteOffset": 83400,
      "componentType": 5126,
      "count": 48,
      "max": [
        2.0613937377929688,
        2.129490852355957,
        -70.78108978271484
      ],
      "min": [
        -2.0748672485351563,
        -2.0067625045776367,
        -76.71102142333984
      ],
      "type": "VEC3"
    },
    {
      "bufferView": 2,
      "byteOffset": 83976,
      "componentType": 5126,
      "count": 48,
      "max": [
        0.9117596745491028,
        0.9117609262466431,
        1.0
      ],
      "min": [
        -0.9117596745491028,
        -0.911759614944458,
        -1.0
      ],
      "type": "VEC3"
    },
    {
      "bufferView": 1,
      "byteOffset": 27800,
      "componentType": 5126,
      "count": 48,
      "max": [
        0.680126965045929,
        0.9443967342376709
      ],
      "min": [
        0.4515957832336426,
        0.3940522074699402
      ],
      "type": "VEC2"
    },
    {
      "bufferView": 0,
      "byteOffset": 43032,
      "componentType": 5125,
      "count": 84,
      "type": "SCALAR"
    },
    {
      "bufferView": 2,
      "byteOffset": 84552,
      "componentType": 5126,
      "count": 85,
      "max": [
        5.463477611541748,
        5.381887435913086,
        -55.04563903808594
      ],
      "min": [
        -5.4690022468566895,
        -5.550600051879883,
        -65.82621765136719
      ],
      "type": "VEC3"
    },
    {
      "bufferView": 2,
      "byteOffset": 85572,
      "componentType": 5126,
      "count": 85,
      "max": [
        0.9708251953125,
        0.9716216325759888,
        1.0
      ],
      "min": [
        -0.9716217517852783,
        -0.9704540967941284,
        -1.0
      ],
      "type": "VEC3"
    },
    {
      "bufferView": 1,
      "byteOffset": 28184,
      "componentType": 5126,
      "count": 85,
      "max": [
        0.7114118933677673,
        0.987977147102356
      ],
      "min": [
        0.45113319158554077,
        0.36146318912506104
      ],
      "type": "VEC2"
    },
    {
      "bufferView": 0,
      "byteOffset": 43368,
      "componentType": 5125,
      "count": 240,
      "type": "SCALAR"
    },
    {
      "bufferView": 2,
      "byteOffset": 86592,
      "componentType": 5126,
      "count": 602,
      "max": [
        20.06930160522461,
        21.22455596923828,
        -21.653060913085938
      ],
      "min": [
        -13.570732116699219,
        -21.31633949279785,
        -49.64873123168945
      ],
      "type": "VEC3"
    },
    {
      "bufferView": 2,
      "byteOffset": 93816,
      "componentType": 5126,
      "count": 602,
      "max": [
        0.996367871761322,
        0.9917513728141785,
        0.9999980926513672
      ],
      "min": [
        -0.9996896386146545,
        -0.9970360398292542,
        -1.0
      ],
      "type": "VEC3"
    },
    {
      "bufferView": 1,
      "byteOffset": 28864,
      "componentType": 5126,
      "count": 602,
      "max": [
        0.9965462684631348,
        0.5751898288726807
      ],
      "min": [
        0.005975067149847746,
        0.1335492581129074
      ],
      "type": "VEC2"
    },
    {
      "bufferView": 0,
      "byteOffset": 44328,
      "componentType": 5125,
      "count": 1500,
      "type": "SCALAR"
    },
    {
      "bufferView": 2,
      "byteOffset": 101040,
      "componentType": 5126,
      "count": 176,
      "max": [
        23.111480712890625,
        19.601943969726563,
        -23.213895797729492
      ],
      "min": [
        3.2390899658203125,
        -21.219560623168945,
        -46.25014114379883
      ],
      "type": "VEC3"
    },
    {
      "bufferView": 2,
      "byteOffset": 103152,
      "componentType": 5126,
      "count": 176,
      "max": [
        0.8800159692764282,
        0.8667442202568054,
        0.8784666657447815
      ],
      "min": [
        -0.8930782079696655,
        -0.892414927482605,
        -0.9742676019668579
      ],
      "type": "VEC3"
    },
    {
      "bufferView": 1,
      "byteOffset": 33680,
      "componentType": 5126,
      "count": 176,
      "max": [
        0.9835683107376099,
        0.48330217599868774
      ],
      "min": [
        0.025809764862060547,
        0.18117566406726837
      ],
      "type": "VEC2"
    },
    {
      "bufferView": 0,
      "byteOffset": 50328,
      "componentType": 5125,
      "count": 672,
      "type": "SCALAR"
    },
    {
      "bufferView": 2,
      "byteOffset": 105264,
      "componentType": 5126,
      "count": 426,
      "max": [
        43.426719665527344,
        43.546993255615234,
        -4.220812797546387
      ],
      "min": [
        -45.09666442871094,
        -44.97638702392578,
        -10.56448745727539
      ],
      "type": "VEC3"
    },
    {
      "bufferView": 2,
      "byteOffset": 110376,
      "componentType": 5126,
      "count": 426,
      "max": [
        1.0,
        1.0,
        0.9999911189079285
      ],
      "min": [
        -1.0,
        -1.0,
        -0.999205470085144
      ],
      "type": "VEC3"
    },
    {
      "bufferView": 1,
      "byteOffset": 35088,
      "componentType": 5126,
      "count": 426,
      "max": [
        0.9891676902770996,
        0.9900264143943787
      ],
      "min": [
        0.011661652475595474,
        0.00827634334564209
      ],
      "type": "VEC2"
    },
    {
      "bufferView": 0,
      "byteOffset": 53016,
      "componentType": 5125,
      "count": 1056,
      "type": "SCALAR"
    },
    {
      "bufferView": 2,
      "byteOffset": 115488,
      "componentType": 5126,
      "count": 665,
      "max": [
        39.249595642089844,
        39.04591751098633,
        -0.5007591247558594
      ],
      "min": [
        -40.17131042480469,
        -40.47502899169922,
        -23.317249298095703
      ],
      "type": "VEC3"
    },
    {
      "bufferView": 2,
      "byteOffset": 123468,
      "componentType": 5126,
      "count": 665,
      "max": [
        1.0,
        1.0,
        1.0
      ],
      "min": [
        -1.0,
        -1.0,
        -1.0
      ],
      "type": "VEC3"
    },
    {
      "bufferView": 1,
      "byteOffset": 38496,
      "componentType": 5126,
      "count": 665,
      "max": [
        0.992185652256012,
        0.9515814185142517
      ],
      "min": [
        0.005899742245674133,
        0.04627675563097
      ],
      "type": "VEC2"
    },
    {
      "bufferView": 0,
      "byteOffset": 57240,
      "componentType": 5125,
      "count": 2280,
      "type": "SCALAR"
    },
    {
      "bufferView": 2,
      "byteOffset": 131448,
      "componentType": 5126,
      "count": 652,
      "max": [
        61.16069030761719,
        62.93354797363281,
        15.919229507446289
      ],
      "min": [
        -64.34931945800781,
        -61.38093185424805,
        -26.391143798828125
      ],
      "type": "VEC3"
    },
    {
      "bufferView": 2,
      "byteOffset": 139272,
      "componentType": 5126,
      "count": 652,
      "max": [
        1.0,
        1.0,
        0.9964584708213806
      ],
      "min": [
        -1.0,
        -1.0,
        -0.9999961256980896
      ],
      "type": "VEC3"
    },
    {
      "bufferView": 1,
      "byteOffset": 43816,
      "componentType": 5126,
      "count": 652,
      "max": [
        0.7324175238609314,
        0.3438183069229126
      ],
      "min": [
        0.007908210158348083,
        0.1326555609703064
      ],
      "type": "VEC2"
    },
    {
      "bufferView": 0,
      "byteOffset": 66360,
      "componentType": 5125,
      "count": 1200,
      "type": "SCALAR"
    },
    {
      "bufferView": 2,
      "byteOffset": 147096,
      "componentType": 5126,
      "count": 160,
      "max": [
        54.84107971191406,
        55.51700973510742,
        33.587120056152344
      ],
      "min": [
        -56.72651290893555,
        -55.51701736450195,
        25.048654556274414
      ],
      "type": "VEC3"
    },
    {
      "bufferView": 2,
      "byteOffset": 149016,
      "componentType": 5126,
      "count": 160,
      "max": [
        0.9290990233421326,
        0.9291063547134399,
        0.16612930595874786
      ],
      "min": [
        -0.9290992617607117,
        -0.9291064143180847,
        -1.0
      ],
      "type": "VEC3"
    },
    {
      "bufferView": 1,
      "byteOffset": 49032,
      "componentType": 5126,
      "count": 160,
      "max": [
        0.9960787296295166,
        0.6107848882675171
      ],
      "min": [
        0.07829509675502777,
        0.20084573328495026
      ],
      "type": "VEC2"
    },
    {
      "bufferView": 0,
      "byteOffset": 71160,
      "componentType": 5125,
      "count": 264,
      "type": "SCALAR"
    }
  ],
  "asset": {
    "extras": {
      "author": "Mariam Shergelashvili (https://sketchfab.com/Mariam.Shergelashvili)",
      "license": "CC-BY-4.0 (http://creativecommons.org/licenses/by/4.0/)",
      "source": "https://sketchfab.com/3d-models/sci-fi-platforms-a6e8bb63ff5a41f5a9e1e7b0511cf79a",
      "title": "Sci-Fi Platforms"
    },
    "generator": "Sketchfab-12.63.0",
    "version": "2.0"
  },
  "bufferViews": [
    {
      "buffer": 0,
      "byteLength": 72216,
      "name": "floatBufferViews",
      "target": 34963
    },
    {
      "buffer": 0,
      "byteLength": 50312,
      "byteOffset": 72216,
      "byteStride": 8,
      "name": "floatBufferViews",
      "target": 34962
    },
    {
      "buffer": 0,
      "byteLength": 150936,
      "byteOffset": 122528,
      "byteStride": 12,
      "name": "floatBufferViews",
      "target": 34962
    }
  ],
  "buffers": [
    {
      "byteLength": 273464,
      "uri": "scene.bin"
    }
  ],
  "images": [
    {
      "uri": "textures/Material_4_baseColor.jpg"
    },
    {
      "uri": "textures/Material_5_baseColor.jpg"
    },
    {
      "uri": "textures/Material_6_baseColor.jpg"
    },
    {
      "uri": "textures/Material_7_baseColor.jpg"
    }
  ],
  "materials": [
    {
      "doubleSided": true,
      "name": "Material_4",
      "pbrMetallicRoughness": {
        "baseColorTexture": {
          "index": 0
        },
        "metallicFactor": 0.0,
        "roughnessFactor": 0.6
      }
    },
    {
      "doubleSided": true,
      "name": "Material_5",
      "pbrMetallicRoughness": {
        "baseColorTexture": {
          "index": 1
        },
        "metallicFactor": 0.0,
        "roughnessFactor": 0.6
      }
    },
    {
      "doubleSided": true,
      "name": "Material_6",
      "pbrMetallicRoughness": {
        "baseColorTexture": {
          "index": 2
        },
        "metallicFactor": 0.0,
        "roughnessFactor": 0.6
      }
    },
    {
      "doubleSided": true,
      "name": "Material_7",
      "pbrMetallicRoughness": {
        "baseColorTexture": {
          "index": 3
        },
        "metallicFactor": 0.0,
        "roughnessFactor": 0.6
      }
    }
  ],
  "meshes": [
    {
      "name": "Object003_Material #4_0",
      "primitives": [
        {
          "attributes": {
            "NORMAL": 1,
            "POSITION": 0,
            "TEXCOORD_0": 2
          },
          "indices": 3,
          "material": 0,
          "mode": 4
        }
      ]
    },
    {
      "name": "Object001_Material #5_0",
      "primitives": [
        {
          "attributes": {
            "NORMAL": 5,
            "POSITION": 4,
            "TEXCOORD_0": 6
          },
          "indices": 7,
          "material": 1,
          "mode": 4
        }
      ]
    },
    {
      "name": "Object002_Material #6_0",
      "primitives": [
        {
          "attributes": {
            "NORMAL": 9,
            "POSITION": 8,
            "TEXCOORD_0": 10
          },
          "indices": 11,
          "material": 2,
          "mode": 4
        }
      ]
    },
    {
      "name": "Bottom Part_Material #7_0",
      "primitives": [
        {
          "attributes": {
            "NORMAL": 13,
            "POSITION": 12,
            "TEXCOORD_0": 14
          },
          "indices": 15,
          "material": 3,
          "mode": 4
        }
      ]
    },
    {
      "name": "2nd Lowest Part_Material #7_0",
      "primitives": [
        {
          "attributes": {
            "NORMAL": 17,
            "POSITION": 16,
            "TEXCOORD_0": 18
          },
          "indices": 19,
          "material": 3,
          "mode": 4
        }
      ]
    },
    {
      "name": "3rd Lowest Part_Material #7_0",
      "primitives": [
        {
          "attributes": {
            "NORMAL": 21,
            "POSITION": 20,
            "TEXCOORD_0": 22
          },
          "indices": 23,
          "material": 3,
          "mode": 4
        }
      ]
    },
    {
      "name": "Middle Base_Material #7_0",
      "primitives": [
        {
          "attributes": {
            "NORMAL": 25,
            "POSITION": 24,
            "TEXCOORD_0": 26
          },
          "indices": 27,
          "material": 3,
          "mode": 4
        }
      ]
    },
    {
      "name": "Middle Extrude_Material #7_0",
      "primitives": [
        {
          "attributes": {
            "NORMAL": 29,
            "POSITION": 28,
            "TEXCOORD_0": 30
          },
          "indices": 31,
          "material": 3,
          "mode": 4
        }
      ]
    },
    {
      "name": "Border_Material #7_0",
      "primitives": [
        {
          "attributes": {
            "NORMAL": 33,
            "POSITION": 32,
            "TEXCOORD_0": 34
          },
          "indices": 35,
          "material": 3,
          "mode": 4
        }
      ]
    },
    {
      "name": "Base_Material #7_0",
      "primitives": [
        {
          "attributes": {
            "NORMAL": 37,
            "POSITION": 36,
            "TEXCOORD_0": 38
          },
          "indices": 39,
          "material": 3,
          "mode": 4
        }
      ]
    },
    {
      "name": "Shields_Material #7_0",
      "primitives": [
        {
          "attributes": {
            "NORMAL": 41,
            "POSITION": 40,
            "TEXCOORD_0": 42
          },
          "indices": 43,
          "material": 3,
          "mode": 4
        }
      ]
    },
    {
      "name": "Floating Lamps_Material #7_0",
      "primitives": [
        {
          "attributes": {
            "NORMAL": 45,
            "POSITION": 44,
            "TEXCOORD_0": 46
          },
          "indices": 47,
          "material": 3,
          "mode": 4
        }
      ]
    }
  ],
  "nodes": [
    {
      "children": [
        1
      ],
      "matrix": [
        1.0,
        0.0,
        0.0,
        0.0,
        0.0,
        2.220446049250313e-16,
        -1.0,
        0.0,
        0.0,
        1.0,
        2.220446049250313e-16,
        0.0,
        0.0,
        0.0,
        0.0,
        1.0
      ],
      "name": "Sketchfab_model"
    },
    {
      "children": [
        2
      ],
      "matrix": [
        1.0,
        0.0,
        0.0,
        0.0,
        0.0,
        0.0,
        1.0,
        0.0,
        0.0,
        -1.0,
        0.0,
        0.0,
        0.0,
        0.0,
        0.0,
        1.0
      ],
      "name": "1386413cebd446fd90c9c22f5636939c.fbx"
    },
    {
      "children": [
        3,
        6,
        9,
        12,
        15,
        18,
        21,
        24,
        27,
        30,
        33,
        36
      ],
      "name": "RootNode"
    },
    {
      "children": [
        4
      ],
      "matrix": [
        -1.669024925223751,
        9.455928639154763e-16,
        -10.81991850880506,
        0.0,
        1.762788469933869e-06,
        10.947889328002784,
        -2.7191867309075933e-07,
        0.0,
        10.819918508804918,
        -1.783637562541008e-06,
        -1.669024925223729,
        0.0,
        145.9027099609375,
        -8.8236083984375,
        288.52032470703125,
        1.0
      ],
      "name": "Object003"
    },
    {
      "children": [
        5
      ],
      "matrix": [
        1.0,
        0.0,
        0.0,
        0.0,
        0.0,
        6.123233995736766e-17,
        -1.0,
        0.0,
        -0.0,
        1.0,
        6.123233995736766e-17,
        0.0,
        0.07012939453125,
        -2.73286747932434,
        -0.0144705772399902,
        1.0
      ],
      "name": "Object_4"
    },
    {
      "mesh": 0,
      "name": "Object003_Material #4_0"
    },
    {
      "children": [
        7
      ],
      "matrix": [
        -1.669024925223751,
        9.455928639154763e-16,
        -10.81991850880506,
        0.0,
        1.762788469933869e-06,
        10.947889328002784,
        -2.7191867309075933e-07,
        0.0,
        10.819918508804918,
        -1.783637562541008e-06,
        -1.669024925223729,
        0.0,
        -289.10589599609375,
        -27.036529541015625,
        -96.20864868164063,
        1.0
      ],
      "name": "Object001"
    },
    {
      "children": [
        8
      ],
      "matrix": [
        1.0,
        0.0,
        0.0,
        0.0,
        0.0,
        6.123233995736766e-17,
        -1.0,
        0.0,
        -0.0,
        1.0,
        6.123233995736766e-17,
        0.0,
        -25.423620223999,
        -2.83453631401062,
        -0.0144720077514648,
        1.0
      ],
      "name": "Object_7"
    },
    {
      "mesh": 1,
      "name": "Object001_Material #5_0"
    },
    {
      "children": [
        10
      ],
      "matrix": [
        -1.669024925223751,
        9.455928639154763e-16,
        -10.81991850880506,
        0.0,
        1.762788469933869e-06,
        10.947889328002784,
        -2.7191867309075933e-07,
        0.0,
        10.819918508804918,
        -1.783637562541008e-06,
        -1.669024925223729,
        0.0,
        220.04566955566406,
        -166.0194091796875,
        -100.26995086669922,
        1.0
      ],
      "name": "Object002"
    },
    {
      "children": [
        11
      ],
      "matrix": [
        1.0,
        0.0,
        0.0,
        0.0,
        0.0,
        6.123233995736766e-17,
        -1.0,
        0.0,
        -0.0,
        1.0,
        6.123233995736766e-17,
        0.0,
        -50.8701095581055,
        -2.47524452209473,
        -0.0540125370025635,
        1.0
      ],
      "name": "Object_10"
    },
    {
      "mesh": 2,
      "name": "Object002_Material #6_0"
    },
    {
      "children": [
        13
      ],
      "matrix": [
        10.149979591369629,
        0.0,
        0.0,
        0.0,
        0.0,
        10.149979591369494,
        1.6536416722578257e-06,
        0.0,
        0.0,
        -1.6536416722578257e-06,
        10.149979591369494,
        0.0,
        -8.655889511108398,
        -535.7891845703125,
        -4.076509952545166,
        1.0
      ],
      "name": "Bottom Part"
    },
    {
      "children": [
        14
      ],
      "matrix": [
        1.0,
        0.0,
        0.0,
        0.0,
        0.0,
        6.123233995736766e-17,
        -1.0,
        0.0,
        -0.0,
        1.0,
        6.123233995736766e-17,
        0.0,
        0.00673675537109375,
        82.3222427368164,
        0.0613699555397034,
        1.0
      ],
      "name": "Object_13"
    },
    {
      "mesh": 3,
      "name": "Bottom Part_Material #7_0"
    },
    {
      "children": [
        16
      ],
      "matrix": [
        10.149979591369629,
        0.0,
        0.0,
        0.0,
        0.0,
        10.149979591369494,
        1.6536416722578257e-06,
        0.0,
        0.0,
        -1.6536416722578257e-06,
        10.149979591369494,
        0.0,
        -8.65596866607666,
        -448.74102783203125,
        -4.076436519622803,
        1.0
      ],
      "name": "2nd Lowest Part"
    },
    {
      "children": [
        17
      ],
      "matrix": [
        1.0,
        0.0,
        0.0,
        0.0,
        0.0,
        6.123233995736766e-17,
        -1.0,
        0.0,
        -0.0,
        1.0,
        6.123233995736766e-17,
        0.0,
        0.00673675537109375,
        73.7460556030273,
        0.0613641738891602,
        1.0
      ],
      "name": "Object_16"
    },
    {
      "mesh": 4,
      "name": "2nd Lowest Part_Material #7_0"
    },
    {
      "children": [
        19
      ],
      "matrix": [
        10.149979591369629,
        0.0,
        0.0,
        0.0,
        0.0,
        10.149979591369494,
        1.6536416722578257e-06,
        0.0,
        0.0,
        -1.6536416722578257e-06,
        10.149979591369494,
        0.0,
        -8.61555004119873,
        -313.6435546875,
        -2.5973544120788574,
        1.0
      ],
      "name": "3rd Lowest Part"
    },
    {
      "children": [
        20
      ],
      "matrix": [
        1.0,
        0.0,
        0.0,
        0.0,
        0.0,
        6.123233995736766e-17,
        -1.0,
        0.0,
        -0.0,
        1.0,
        6.123233995736766e-17,
        0.0,
        0.0027623176574707,
        60.4359283447266,
        -0.0843563079833984,
        1.0
      ],
      "name": "Object_19"
    },
    {
      "mesh": 5,
      "name": "3rd Lowest Part_Material #7_0"
    },
    {
      "children": [
        22
      ],
      "matrix": [
        10.149979591369629,
        0.0,
        0.0,
        0.0,
        0.0,
        10.149979591369494,
        1.6536416722578257e-06,
        0.0,
        0.0,
        -1.6536416722578257e-06,
        10.149979591369494,
        0.0,
        24.392658233642578,
        -62.07598876953125,
        -2.9877278804779053,
        1.0
      ],
      "name": "Middle Base"
    },
    {
      "children": [
        23
      ],
      "matrix": [
        1.0,
        0.0,
        0.0,
        0.0,
        0.0,
        6.123233995736766e-17,
        -1.0,
        0.0,
        -0.0,
        1.0,
        6.123233995736766e-17,
        0.0,
        -3.2492847442627,
        35.6508941650391,
        -0.0458917617797852,
        1.0
      ],
      "name": "Object_22"
    },
    {
      "mesh": 6,
      "name": "Middle Base_Material #7_0"
    },
    {
      "children": [
        25
      ],
      "matrix": [
        10.149979591369629,
        0.0,
        0.0,
        0.0,
        0.0,
        10.149979591369494,
        1.6536416722578257e-06,
        0.0,
        0.0,
        -1.6536416722578257e-06,
        10.149979591369494,
        0.0,
        125.14136505126953,
        -52.74940490722656,
        4.755861282348633,
        1.0
      ],
      "name": "Middle Extrude"
    },
    {
      "children": [
        26
      ],
      "matrix": [
        1.0,
        0.0,
        0.0,
        0.0,
        0.0,
        6.123233995736766e-17,
        -1.0,
        0.0,
        -0.0,
        1.0,
        6.123233995736766e-17,
        0.0,
        -13.1752853393555,
        34.7320175170898,
        -0.808808326721191,
        1.0
      ],
      "name": "Object_25"
    },
    {
      "mesh": 7,
      "name": "Middle Extrude_Material #7_0"
    },
    {
      "children": [
        28
      ],
      "matrix": [
        10.149979591369629,
        0.0,
        0.0,
        0.0,
        0.0,
        10.149979591369494,
        1.6536416722578257e-06,
        0.0,
        0.0,
        -1.6536416722578257e-06,
        10.149979591369494,
        0.0,
        -17.062463760375977,
        224.74461364746094,
        3.8006770610809326,
        1.0
      ],
      "name": "Border"
    },
    {
      "children": [
        29
      ],
      "matrix": [
        1.0,
        0.0,
        0.0,
        0.0,
        0.0,
        6.123233995736766e-17,
        -1.0,
        0.0,
        -0.0,
        1.0,
        6.123233995736766e-17,
        0.0,
        0.834972381591797,
        7.39265012741089,
        -0.714696884155273,
        1.0
      ],
      "name": "Object_28"
    },
    {
      "mesh": 8,
      "name": "Border_Material #7_0"
    },
    {
      "children": [
        31
      ],
      "matrix": [
        10.149979591369629,
        0.0,
        0.0,
        0.0,
        0.0,
        10.149979591369494,
        1.6536416722578257e-06,
        0.0,
        0.0,
        -1.6536416722578257e-06,
        10.149979591369494,
        0.0,
        -13.265205383300781,
        178.90367126464844,
        3.7992374897003174,
        1.0
      ],
      "name": "Base"
    },
    {
      "children": [
        32
      ],
      "matrix": [
        1.0,
        0.0,
        0.0,
        0.0,
        0.0,
        6.123233995736766e-17,
        -1.0,
        0.0,
        -0.0,
        1.0,
        6.123233995736766e-17,
        0.0,
        0.460857391357422,
        11.9090042114258,
        -0.714555740356445,
        1.0
      ],
      "name": "Object_31"
    },
    {
      "mesh": 9,
      "name": "Base_Material #7_0"
    },
    {
      "children": [
        34
      ],
      "matrix": [
        10.149979591369629,
        0.0,
        0.0,
        0.0,
        0.0,
        10.149979591369494,
        1.6536416722578257e-06,
        0.0,
        0.0,
        -1.6536416722578257e-06,
        10.149979591369494,
        0.0,
        -24.769775390625,
        246.63499450683594,
        -11.332986831665039,
        1.0
      ],
      "name": "Shields"
    },
    {
      "children": [
        35
      ],
      "matrix": [
        1.0,
        0.0,
        0.0,
        0.0,
        0.0,
        6.123233995736766e-17,
        -1.0,
        0.0,
        -0.0,
        1.0,
        6.123233995736766e-17,
        0.0,
        1.59431457519531,
        5.23595714569092,
        0.776308059692383,
        1.0
      ],
      "name": "Object_34"
    },
    {
      "mesh": 10,
      "name": "Shields_Material #7_0"
    },
    {
      "children": [
        37
      ],
      "matrix": [
        10.149979591369629,
        0.0,
        0.0,
        0.0,
        0.0,
        10.149979591369494,
        1.6536416722578257e-06,
        0.0,
        0.0,
        -1.6536416722578257e-06,
        10.149979591369494,
        0.0,
        -18.15606689453125,
        597.355712890625,
        -3.4533820152282715,
        1.0
      ],
      "name": "Floating Lamps"
    },
    {
      "children": [
        38
      ],
      "matrix": [
        1.0,
        0.0,
        0.0,
        0.0,
        0.0,
        6.123233995736766e-17,
        -1.0,
        0.0,
        -0.0,
        1.0,
        6.123233995736766e-17,
        0.0,
        0.942716598510742,
        -29.3178863525391,
        -3.81469681087765e-06,
        1.0
      ],
      "name": "Object_37"
    },
    {
      "mesh": 11,
      "name": "Floating Lamps_Material #7_0"
    }
  ],
  "samplers": [
    {
      "magFilter": 9729,
      "minFilter": 9987,
      "wrapS": 10497,
      "wrapT": 10497
    }
  ],
  "scene": 0,
  "scenes": [
    {
      "name": "Sketchfab_Scene",
      "nodes": [
        0
      ]
    }
  ],
  "textures": [
    {
      "sampler": 0,
      "source": 0
    },
    {
      "sampler": 0,
      "source": 1
    },
    {
      "sampler": 0,
      "source": 2
    },
    {
      "sampler": 0,
      "source": 3
    }
  ]
}
