{
  "accessors": [
    {
      "bufferView": 2,
      "componentType": 5126,
      "count": 400,
      "max": [
        297.64569091796875,
        466.61468505859375,
        -399.49774169921875
      ],
      "min": [
        -297.64569091796875,
        301.91778564453125,
        -672.4400024414063
      ],
      "type": "VEC3"
    },
    {
      "bufferView": 2,
      "byteOffset": 4800,
      "componentType": 5126,
      "count": 400,
      "max": [
        0.9914904832839966,
        0.9305399060249329,
        0.9950181841850281
      ],
      "min": [
        -0.9914901256561279,
        -0.9851195812225342,
        -0.9903110265731812
      ],
      "type": "VEC3"
    },
    {
      "bufferView": 1,
      "componentType": 5126,
      "count": 400,
      "max": [
        0.2881512939929962,
        0.9181352853775024
      ],
      "min": [
        0.2282157987356186,
        0.8805559873580933
      ],
      "type": "VEC2"
    },
    {
      "bufferView": 0,
      "componentType": 5125,
      "count": 1104,
      "type": "SCALAR"
    },
    {
      "bufferView": 2,
      "byteOffset": 9600,
      "componentType": 5126,
      "count": 36,
      "max": [
        307.2579040527344,
        554.5360717773438,
        -205.0823974609375
      ],
      "min": [
        -307.2554931640625,
        399.03680419921875,
        -534.007080078125
      ],
      "type": "VEC3"
    },
    {
      "bufferView": 2,
      "byteOffset": 10032,
      "componentType": 5126,
      "count": 36,
      "max": [
        0.7078245878219604,
        0.9836130142211914,
        0.47493308782577515
      ],
      "min": [
        -0.7078344821929932,
        -0.9692582488059998,
        -0.6437294483184814
      ],
      "type": "VEC3"
    },
    {
      "bufferView": 1,
      "byteOffset": 3200,
      "componentType": 5126,
      "count": 36,
      "max": [
        0.43631070852279663,
        0.8584625720977783
      ],
      "min": [
        0.010888559743762016,
        0.668622612953186
      ],
      "type": "VEC2"
    },
    {
      "bufferView": 0,
      "byteOffset": 4416,
      "componentType": 5125,
      "count": 192,
      "type": "SCALAR"
    },
    {
      "bufferView": 2,
      "byteOffset": 10464,
      "componentType": 5126,
      "count": 32,
      "max": [
        383.9114074707031,
        493.86871337890625,
        -312.1567077636719
      ],
      "min": [
        -383.90899658203125,
        297.97979736328125,
        -780.6099243164063
      ],
      "type": "VEC3"
    },
    {
      "bufferView": 2,
      "byteOffset": 10848,
      "componentType": 5126,
      "count": 32,
      "max": [
        0.42603808641433716,
        0.9770506620407104,
        0.49677950143814087
      ],
      "min": [
        -0.4260437786579132,
        -0.9556120038032532,
        -0.4901985228061676
      ],
      "type": "VEC3"
    },
    {
      "bufferView": 1,
      "byteOffset": 3488,
      "componentType": 5126,
      "count": 32,
      "max": [
        0.10984569787979126,
        0.6182721853256226
      ],
      "min": [
        0.016497930511832237,
        0.533804714679718
      ],
      "type": "VEC2"
    },
    {
      "bufferView": 0,
      "byteOffset": 5184,
      "componentType": 5125,
      "count": 168,
      "type": "SCALAR"
    },
    {
      "bufferView": 2,
      "byteOffset": 11232,
      "componentType": 5126,
      "count": 72,
      "max": [
        408.0661926269531,
        89.894775390625,
        -71.9659652709961
      ],
      "min": [
        -408.0661926269531,
        -348.1011047363281,
        -631.5064697265625
      ],
      "type": "VEC3"
    },
    {
      "bufferView": 2,
      "byteOffset": 12096,
      "componentType": 5126,
      "count": 72,
      "max": [
        0.9969890117645264,
        0.9501916766166687,
        0.4922800064086914
      ],
      "min": [
        -0.9969890117645264,
        -0.958684504032135,
        -0.4814257323741913
      ],
      "type": "VEC3"
    },
    {
      "bufferView": 1,
      "byteOffset": 3744,
      "componentType": 5126,
      "count": 72,
      "max": [
        0.9903807044029236,
        0.9766672253608704
      ],
      "min": [
        0.41541528701782227,
        0.5158023834228516
      ],
      "type": "VEC2"
    },
    {
      "bufferView": 0,
      "byteOffset": 5856,
      "componentType": 5125,
      "count": 384,
      "type": "SCALAR"
    },
    {
      "bufferView": 2,
      "byteOffset": 12960,
      "componentType": 5126,
      "count": 80,
      "max": [
        223.31820678710938,
        -126.16326904296875,
        -375.4013977050781
      ],
      "min": [
        -223.32179260253906,
        -351.1636962890625,
        -663.0302124023438
      ],
      "type": "VEC3"
    },
    {
      "bufferView": 2,
      "byteOffset": 13920,
      "componentType": 5126,
      "count": 80,
      "max": [
        0.9602317810058594,
        0.4226837158203125,
        0.37090492248535156
      ],
      "min": [
        -0.9602305889129639,
        -0.4847591519355774,
        -0.35951679944992065
      ],
      "type": "VEC3"
    },
    {
      "bufferView": 1,
      "byteOffset": 4320,
      "componentType": 5126,
      "count": 80,
      "max": [
        0.7948247194290161,
        0.6988735198974609
      ],
      "min": [
        0.7416518926620483,
        0.6445732116699219
      ],
      "type": "VEC2"
    },
    {
      "bufferView": 0,
      "byteOffset": 7392,
      "componentType": 5125,
      "count": 360,
      "type": "SCALAR"
    },
    {
      "bufferView": 2,
      "byteOffset": 14880,
      "componentType": 5126,
      "count": 541,
      "max": [
        897.940673828125,
        132.24127197265625,
        -284.9880065917969
      ],
      "min": [
        -897.9382934570313,
        -1.71661376953125,
        -667.9437255859375
      ],
      "type": "VEC3"
    },
    {
      "bufferView": 2,
      "byteOffset": 21372,
      "componentType": 5126,
      "count": 541,
      "max": [
        0.9958896040916443,
        0.9988195896148682,
        1.0
      ],
      "min": [
        -0.9961915612220764,
        -0.9972572922706604,
        -1.0
      ],
      "type": "VEC3"
    },
    {
      "bufferView": 1,
      "byteOffset": 4960,
      "componentType": 5126,
      "count": 541,
      "max": [
        0.810178816318512,
        0.43818679451942444
      ],
      "min": [
        0.697386622428894,
        0.3804945945739746
      ],
      "type": "VEC2"
    },
    {
      "bufferView": 0,
      "byteOffset": 8832,
      "componentType": 5125,
      "count": 2745,
      "type": "SCALAR"
    },
    {
      "bufferView": 2,
      "byteOffset": 27864,
      "componentType": 5126,
      "count": 658,
      "max": [
        1576.864990234375,
        609.2975463867188,
        396.8251953125
      ],
      "min": [
        -1576.864990234375,
        -245.8638916015625,
        -1227.7469482421875
      ],
      "type": "VEC3"
    },
    {
      "bufferView": 2,
      "byteOffset": 35760,
      "componentType": 5126,
      "count": 658,
      "max": [
        0.885951578617096,
        0.9995567202568054,
        0.8692883849143982
      ],
      "min": [
        -0.885949432849884,
        -0.9989613890647888,
        -0.932260274887085
      ],
      "type": "VEC3"
    },
    {
      "bufferView": 1,
      "byteOffset": 9288,
      "componentType": 5126,
      "count": 658,
      "max": [
        0.9118049144744873,
        0.6705644726753235
      ],
      "min": [
        0.3375301957130432,
        0.400823712348938
      ],
      "type": "VEC2"
    },
    {
      "bufferView": 0,
      "byteOffset": 19812,
      "componentType": 5125,
      "count": 3924,
      "type": "SCALAR"
    },
    {
      "bufferView": 2,
      "byteOffset": 43656,
      "componentType": 5126,
      "count": 146,
      "max": [
        169.90750122070313,
        386.67901611328125,
        -552.5780029296875
      ],
      "min": [
        -169.9062042236328,
        5.11993408203125,
        -1135.35302734375
      ],
      "type": "VEC3"
    },
    {
      "bufferView": 2,
      "byteOffset": 45408,
      "componentType": 5126,
      "count": 146,
      "max": [
        0.8722034692764282,
        0.9996658563613892,
        0.6464719176292419
      ],
      "min": [
        -0.8722046613693237,
        -0.8975779414176941,
        -0.9996160268783569
      ],
      "type": "VEC3"
    },
    {
      "bufferView": 1,
      "byteOffset": 14552,
      "componentType": 5126,
      "count": 146,
      "max": [
        0.8078203201293945,
        0.7986528873443604
      ],
      "min": [
        0.7534965872764587,
        0.7153105139732361
      ],
      "type": "VEC2"
    },
    {
      "bufferView": 0,
      "byteOffset": 35508,
      "componentType": 5125,
      "count": 864,
      "type": "SCALAR"
    },
    {
      "bufferView": 2,
      "byteOffset": 47160,
      "componentType": 5126,
      "count": 472,
      "max": [
        243.83999633789063,
        398.41497802734375,
        -463.80322265625
      ],
      "min": [
        -243.83999633789063,
        -260.1333923339844,
        -1244.5369873046875
      ],
      "type": "VEC3"
    },
    {
      "bufferView": 2,
      "byteOffset": 52824,
      "componentType": 5126,
      "count": 472,
      "max": [
        0.9380173087120056,
        0.9953517913818359,
        0.9983353614807129
      ],
      "min": [
        -0.9380173683166504,
        -0.9999738335609436,
        -0.997179388999939
      ],
      "type": "VEC3"
    },
    {
      "bufferView": 1,
      "byteOffset": 15720,
      "componentType": 5126,
      "count": 472,
      "max": [
        0.24737019836902618,
        0.41579771041870117
      ],
      "min": [
        0.16917839646339417,
        0.2951520085334778
      ],
      "type": "VEC2"
    },
    {
      "bufferView": 0,
      "byteOffset": 38964,
      "componentType": 5125,
      "count": 2928,
      "type": "SCALAR"
    },
    {
      "bufferView": 2,
      "byteOffset": 58488,
      "componentType": 5126,
      "count": 100,
      "max": [
        1243.583984375,
        343.59246826171875,
        523.1538696289063
      ],
      "min": [
        -1243.583984375,
        269.24078369140625,
        380.014892578125
      ],
      "type": "VEC3"
    },
    {
      "bufferView": 2,
      "byteOffset": 59688,
      "componentType": 5126,
      "count": 100,
      "max": [
        0.8479912877082825,
        0.9906696081161499,
        0.9562748670578003
      ],
      "min": [
        -0.848013699054718,
        -0.9999875426292419,
        -0.6819553971290588
      ],
      "type": "VEC3"
    },
    {
      "bufferView": 1,
      "byteOffset": 19496,
      "componentType": 5126,
      "count": 100,
      "max": [
        0.09807831048965454,
        0.41575729846954346
      ],
      "min": [
        0.07208249717950821,
        0.3904168903827667
      ],
      "type": "VEC2"
    },
    {
      "bufferView": 0,
      "byteOffset": 50676,
      "componentType": 5125,
      "count": 576,
      "type": "SCALAR"
    },
    {
      "bufferView": 2,
      "byteOffset": 60888,
      "componentType": 5126,
      "count": 140,
      "max": [
        1014.2349853515625,
        500.60345458984375,
        326.3481140136719
      ],
      "min": [
        -1014.4719848632813,
        43.78076171875,
        -455.9149169921875
      ],
      "type": "VEC3"
    },
    {
      "bufferView": 2,
      "byteOffset": 62568,
      "componentType": 5126,
      "count": 140,
      "max": [
        0.9993510246276855,
        0.9910220503807068,
        0.9970774054527283
      ],
      "min": [
        -0.9993361234664917,
        -0.9908767938613892,
        -0.9255594611167908
      ],
      "type": "VEC3"
    },
    {
      "bufferView": 1,
      "byteOffset": 20296,
      "componentType": 5126,
      "count": 140,
      "max": [
        0.9023422002792358,
        0.3626525104045868
      ],
      "min": [
        0.603855311870575,
        0.2555095851421356
      ],
      "type": "VEC2"
    },
    {
      "bufferView": 0,
      "byteOffset": 52980,
      "componentType": 5125,
      "count": 816,
      "type": "SCALAR"
    },
    {
      "bufferView": 2,
      "byteOffset": 64248,
      "componentType": 5126,
      "count": 60,
      "max": [
        842.41357421875,
        376.94000244140625,
        292.893310546875
      ],
      "min": [
        -842.613525390625,
        131.42266845703125,
        122.8302001953125
      ],
      "type": "VEC3"
    },
    {
      "bufferView": 2,
      "byteOffset": 64968,
      "componentType": 5126,
      "count": 60,
      "max": [
        0.9831644892692566,
        0.9762980341911316,
        0.9928443431854248
      ],
      "min": [
        -0.9831688404083252,
        -0.9974265098571777,
        -0.5315698981285095
      ],
      "type": "VEC3"
    },
    {
      "bufferView": 1,
      "byteOffset": 21416,
      "componentType": 5126,
      "count": 60,
      "max": [
        0.499880313873291,
        0.47059911489486694
      ],
      "min": [
        0.29233619570732117,
        0.4247607886791229
      ],
      "type": "VEC2"
    },
    {
      "bufferView": 0,
      "byteOffset": 56244,
      "componentType": 5125,
      "count": 360,
      "type": "SCALAR"
    },
    {
      "bufferView": 2,
      "byteOffset": 65688,
      "componentType": 5126,
      "count": 60,
      "max": [
        750.0908203125,
        344.306884765625,
        305.6754150390625
      ],
      "min": [
        -750.293212890625,
        178.640380859375,
        152.47169494628906
      ],
      "type": "VEC3"
    },
    {
      "bufferView": 2,
      "byteOffset": 66408,
      "componentType": 5126,
      "count": 60,
      "max": [
        0.9939442276954651,
        0.9924954175949097,
        0.9968119859695435
      ],
      "min": [
        -0.9939441084861755,
        -0.998733401298523,
        -0.5022027492523193
      ],
      "type": "VEC3"
    },
    {
      "bufferView": 1,
      "byteOffset": 21896,
      "componentType": 5126,
      "count": 60,
      "max": [
        0.4595727026462555,
        0.5109331011772156
      ],
      "min": [
        0.31470969319343567,
        0.4789851903915405
      ],
      "type": "VEC2"
    },
    {
      "bufferView": 0,
      "byteOffset": 57684,
      "componentType": 5125,
      "count": 360,
      "type": "SCALAR"
    },
    {
      "bufferView": 2,
      "byteOffset": 67128,
      "componentType": 5126,
      "count": 464,
      "max": [
        915.9581298828125,
        408.79534912109375,
        269.7333984375
      ],
      "min": [
        -915.9702758789063,
        114.00592041015625,
        167.2624969482422
      ],
      "type": "VEC3"
    },
    {
      "bufferView": 2,
      "byteOffset": 72696,
      "componentType": 5126,
      "count": 464,
      "max": [
        0.8952838182449341,
        0.8520998954772949,
        0.7729644775390625
      ],
      "min": [
        -0.8952878713607788,
        -0.9217362403869629,
        -0.7635417580604553
      ],
      "type": "VEC3"
    },
    {
      "bufferView": 1,
      "byteOffset": 22376,
      "componentType": 5126,
      "count": 464,
      "max": [
        0.13800959289073944,
        0.11627919971942902
      ],
      "min": [
        0.009861660189926624,
        0.07460801303386688
      ],
      "type": "VEC2"
    },
    {
      "bufferView": 0,
      "byteOffset": 59124,
      "componentType": 5125,
      "count": 2292,
      "type": "SCALAR"
    },
    {
      "bufferView": 2,
      "byteOffset": 78264,
      "componentType": 5126,
      "count": 640,
      "max": [
        1234.2860107421875,
        598.4395141601563,
        773.7457275390625
      ],
      "min": [
        -1234.2769775390625,
        -525.2362060546875,
        -1208.0830078125
      ],
      "type": "VEC3"
    },
    {
      "bufferView": 2,
      "byteOffset": 85944,
      "componentType": 5126,
      "count": 640,
      "max": [
        0.9999327659606934,
        0.9991052746772766,
        0.9961935877799988
      ],
      "min": [
        -0.9999326467514038,
        -0.9999071955680847,
        -0.9961948394775391
      ],
      "type": "VEC3"
    },
    {
      "bufferView": 1,
      "byteOffset": 26088,
      "componentType": 5126,
      "count": 640,
      "max": [
        0.5914719104766846,
        0.4079670011997223
      ],
      "min": [
        0.2517193853855133,
        0.11675819754600525
      ],
      "type": "VEC2"
    },
    {
      "bufferView": 0,
      "byteOffset": 68292,
      "componentType": 5125,
      "count": 3624,
      "type": "SCALAR"
    },
    {
      "bufferView": 2,
      "byteOffset": 93624,
      "componentType": 5126,
      "count": 248,
      "max": [
        631.906494140625,
        221.40838623046875,
        -721.3541870117188
      ],
      "min": [
        -631.894287109375,
        140.09271240234375,
        -837.67578125
      ],
      "type": "VEC3"
    },
    {
      "bufferView": 2,
      "byteOffset": 96600,
      "componentType": 5126,
      "count": 248,
      "max": [
        0.9217049479484558,
        0.9510334134101868,
        0.8616238236427307
      ],
      "min": [
        -0.9217270016670227,
        -0.85295170545578,
        -0.9958348870277405
      ],
      "type": "VEC3"
    },
    {
      "bufferView": 1,
      "byteOffset": 31208,
      "componentType": 5126,
      "count": 248,
      "max": [
        0.133652001619339,
        0.9036687016487122
      ],
      "min": [
        0.011075629852712154,
        0.8750538229942322
      ],
      "type": "VEC2"
    },
    {
      "bufferView": 0,
      "byteOffset": 82788,
      "componentType": 5125,
      "count": 1224,
      "type": "SCALAR"
    },
    {
      "bufferView": 2,
      "byteOffset": 99576,
      "componentType": 5126,
      "count": 64,
      "max": [
        626.1956787109375,
        216.30096435546875,
        -742.6683959960938
      ],
      "min": [
        -626.1834716796875,
        153.55950927734375,
        -833.64990234375
      ],
      "type": "VEC3"
    },
    {
      "bufferView": 2,
      "byteOffset": 100344,
      "componentType": 5126,
      "count": 64,
      "max": [
        0.6114417314529419,
        0.721968412399292,
        -0.6662651300430298
      ],
      "min": [
        -0.6103549599647522,
        -0.29351910948753357,
        -0.9958348870277405
      ],
      "type": "VEC3"
    },
    {
      "bufferView": 1,
      "byteOffset": 33192,
      "componentType": 5126,
      "count": 64,
      "max": [
        0.12409599870443344,
        0.9357836842536926
      ],
      "min": [
        0.013732059858739376,
        0.9165802001953125
      ],
      "type": "VEC2"
    },
    {
      "bufferView": 0,
      "byteOffset": 87684,
      "componentType": 5125,
      "count": 144,
      "type": "SCALAR"
    },
    {
      "bufferView": 2,
      "byteOffset": 101112,
      "componentType": 5126,
      "count": 208,
      "max": [
        611.8408203125,
        208.99310302734375,
        -739.0546264648438
      ],
      "min": [
        -611.8311157226563,
        153.44732666015625,
        -822.3333129882813
      ],
      "type": "VEC3"
    },
    {
      "bufferView": 2,
      "byteOffset": 103608,
      "componentType": 5126,
      "count": 208,
      "max": [
        0.8261857032775879,
        0.8453991413116455,
        0.9936382174491882
      ],
      "min": [
        -0.8263185620307922,
        -0.7989327311515808,
        -0.9981845021247864
      ],
      "type": "VEC3"
    },
    {
      "bufferView": 1,
      "byteOffset": 33704,
      "componentType": 5126,
      "count": 208,
      "max": [
        0.11077620089054108,
        0.9639524221420288
      ],
      "min": [
        0.019440539181232452,
        0.9485896229743958
      ],
      "type": "VEC2"
    },
    {
      "bufferView": 0,
      "byteOffset": 88260,
      "componentType": 5125,
      "count": 1152,
      "type": "SCALAR"
    },
    {
      "bufferView": 2,
      "byteOffset": 106104,
      "componentType": 5126,
      "count": 49,
      "max": [
        679.5626220703125,
        466.74383544921875,
        -266.54638671875
      ],
      "min": [
        -679.5626220703125,
        398.33941650390625,
        -422.47723388671875
      ],
      "type": "VEC3"
    },
    {
      "bufferView": 2,
      "byteOffset": 106692,
      "componentType": 5126,
      "count": 49,
      "max": [
        0.9824899435043335,
        0.5842210650444031,
        0.3261561393737793
      ],
      "min": [
        -0.9786525964736938,
        -0.976407527923584,
        -0.3154524862766266
      ],
      "type": "VEC3"
    },
    {
      "bufferView": 1,
      "byteOffset": 35368,
      "componentType": 5126,
      "count": 49,
      "max": [
        0.8211830258369446,
        0.49175819754600525
      ],
      "min": [
        0.7565336227416992,
        0.4546703100204468
      ],
      "type": "VEC2"
    },
    {
      "bufferView": 0,
      "byteOffset": 92868,
      "componentType": 5125,
      "count": 222,
      "type": "SCALAR"
    },
    {
      "bufferView": 2,
      "byteOffset": 107280,
      "componentType": 5126,
      "count": 86,
      "max": [
        337.07220458984375,
        -38.9112548828125,
        -684.8173217773438
      ],
      "min": [
        -337.07708740234375,
        -359.6737976074219,
        -1006.6080322265625
      ],
      "type": "VEC3"
    },
    {
      "bufferView": 2,
      "byteOffset": 108312,
      "componentType": 5126,
      "count": 86,
      "max": [
        0.9847692847251892,
        0.8563765287399292,
        0.9753963947296143
      ],
      "min": [
        -0.9847702980041504,
        -0.9929572939872742,
        -0.9951319694519043
      ],
      "type": "VEC3"
    },
    {
      "bufferView": 1,
      "byteOffset": 35760,
      "componentType": 5126,
      "count": 86,
      "max": [
        0.9931188225746155,
        0.28984078764915466
      ],
      "min": [
        0.9009591937065125,
        0.19918149709701538
      ],
      "type": "VEC2"
    },
    {
      "bufferView": 0,
      "byteOffset": 93756,
      "componentType": 5125,
      "count": 492,
      "type": "SCALAR"
    },
    {
      "bufferView": 2,
      "byteOffset": 109344,
      "componentType": 5126,
      "count": 80,
      "max": [
        178.96270751953125,
        -286.87530517578125,
        -851.6868286132813
      ],
      "min": [
        -178.9575958251953,
        -432.17718505859375,
        -1005.301025390625
      ],
      "type": "VEC3"
    },
    {
      "bufferView": 2,
      "byteOffset": 110304,
      "componentType": 5126,
      "count": 80,
      "max": [
        0.4420941174030304,
        0.9465621113777161,
        0.5793216824531555
      ],
      "min": [
        -0.44207561016082764,
        -0.9775354862213135,
        -0.6425462365150452
      ],
      "type": "VEC3"
    },
    {
      "bufferView": 1,
      "byteOffset": 36448,
      "componentType": 5126,
      "count": 80,
      "max": [
        0.482658714056015,
        0.6769698858261108
      ],
      "min": [
        0.4494205117225647,
        0.6437869071960449
      ],
      "type": "VEC2"
    },
    {
      "bufferView": 0,
      "byteOffset": 95724,
      "componentType": 5125,
      "count": 360,
      "type": "SCALAR"
    },
    {
      "bufferView": 2,
      "byteOffset": 111264,
      "componentType": 5126,
      "count": 196,
      "max": [
        -946.59912109375,
        404.25506591796875,
        1064.2960205078125
      ],
      "min": [
        -2900.0380859375,
        -6.98260498046875,
        -378.9371032714844
      ],
      "type": "VEC3"
    },
    {
      "bufferView": 2,
      "byteOffset": 113616,
      "componentType": 5126,
      "count": 196,
      "max": [
        0.730305016040802,
        0.9939699769020081,
        0.8838281035423279
      ],
      "min": [
        -0.8758330345153809,
        -0.998132586479187,
        -0.880657970905304
      ],
      "type": "VEC3"
    },
    {
      "bufferView": 1,
      "byteOffset": 37088,
      "componentType": 5126,
      "count": 196,
      "max": [
        0.7614595293998718,
        0.9012197852134705
      ],
      "min": [
        0.4939422905445099,
        0.7725828886032104
      ],
      "type": "VEC2"
    },
    {
      "bufferView": 0,
      "byteOffset": 97164,
      "componentType": 5125,
      "count": 1164,
      "type": "SCALAR"
    },
    {
      "bufferView": 2,
      "byteOffset": 115968,
      "componentType": 5126,
      "count": 128,
      "max": [
        1391.5,
        301.198486328125,
        554.9677124023438
      ],
      "min": [
        -1391.501953125,
        196.00250244140625,
        187.96060180664063
      ],
      "type": "VEC3"
    },
    {
      "bufferView": 2,
      "byteOffset": 117504,
      "componentType": 5126,
      "count": 128,
      "max": [
        0.5996280312538147,
        0.9483545422554016,
        0.5668385028839111
      ],
      "min": [
        -0.5996835827827454,
        -0.9164454936981201,
        -0.598675549030304
      ],
      "type": "VEC3"
    },
    {
      "bufferView": 1,
      "byteOffset": 38656,
      "componentType": 5126,
      "count": 128,
      "max": [
        0.16341009736061096,
        0.22695259749889374
      ],
      "min": [
        0.006335000041872263,
        0.17226679623126984
      ],
      "type": "VEC2"
    },
    {
      "bufferView": 0,
      "byteOffset": 101820,
      "componentType": 5125,
      "count": 576,
      "type": "SCALAR"
    },
    {
      "bufferView": 2,
      "byteOffset": 119040,
      "componentType": 5126,
      "count": 144,
      "max": [
        1355.321044921875,
        270.76483154296875,
        1485.0999755859375
      ],
      "min": [
        -1355.321044921875,
        101.33917236328125,
        288.6748962402344
      ],
      "type": "VEC3"
    },
    {
      "bufferView": 2,
      "byteOffset": 120768,
      "componentType": 5126,
      "count": 144,
      "max": [
        0.9988662600517273,
        0.999790370464325,
        0.9419812560081482
      ],
      "min": [
        -0.9988653659820557,
        -0.9997713565826416,
        -0.7546483874320984
      ],
      "type": "VEC3"
    },
    {
      "bufferView": 1,
      "byteOffset": 39680,
      "componentType": 5126,
      "count": 144,
      "max": [
        0.16183990240097046,
        0.41531309485435486
      ],
      "min": [
        0.006045420188456774,
        0.23859450221061707
      ],
      "type": "VEC2"
    },
    {
      "bufferView": 0,
      "byteOffset": 104124,
      "componentType": 5125,
      "count": 840,
      "type": "SCALAR"
    },
    {
      "bufferView": 2,
      "byteOffset": 122496,
      "componentType": 5126,
      "count": 436,
      "max": [
        1635.06201171875,
        490.38897705078125,
        347.06719970703125
      ],
      "min": [
        -1635.053955078125,
        330.110595703125,
        -111.11499786376953
      ],
      "type": "VEC3"
    },
    {
      "bufferView": 2,
      "byteOffset": 127728,
      "componentType": 5126,
      "count": 436,
      "max": [
        0.9504039287567139,
        0.9924052357673645,
        0.950439989566803
      ],
      "min": [
        -0.950393557548523,
        -0.9998489618301392,
        -0.882347047328949
      ],
      "type": "VEC3"
    },
    {
      "bufferView": 1,
      "byteOffset": 40832,
      "componentType": 5126,
      "count": 436,
      "max": [
        0.7437462210655212,
        0.7861496210098267
      ],
      "min": [
        0.6866366863250732,
        0.7250317931175232
      ],
      "type": "VEC2"
    },
    {
      "bufferView": 0,
      "byteOffset": 107484,
      "componentType": 5125,
      "count": 2592,
      "type": "SCALAR"
    },
    {
      "bufferView": 2,
      "byteOffset": 132960,
      "componentType": 5126,
      "count": 164,
      "max": [
        2375.114013671875,
        851.2576293945313,
        860.1237182617188
      ],
      "min": [
        -2375.09912109375,
        407.29327392578125,
        109.3490982055664
      ],
      "type": "VEC3"
    },
    {
      "bufferView": 2,
      "byteOffset": 134928,
      "componentType": 5126,
      "count": 164,
      "max": [
        0.9651280641555786,
        0.9839663505554199,
        0.8200258612632751
      ],
      "min": [
        -0.9651065468788147,
        -0.9977189898490906,
        -0.9614046812057495
      ],
      "type": "VEC3"
    },
    {
      "bufferView": 1,
      "byteOffset": 44320,
      "componentType": 5126,
      "count": 164,
      "max": [
        0.965251624584198,
        0.19718550145626068
      ],
      "min": [
        0.7591003775596619,
        0.01799946092069149
      ],
      "type": "VEC2"
    },
    {
      "bufferView": 0,
      "byteOffset": 117852,
      "componentType": 5125,
      "count": 960,
      "type": "SCALAR"
    },
    {
      "bufferView": 2,
      "byteOffset": 136896,
      "componentType": 5126,
      "count": 308,
      "max": [
        1639.85595703125,
        505.04132080078125,
        331.4175109863281
      ],
      "min": [
        -1639.8310546875,
        1.36669921875,
        -182.20919799804688
      ],
      "type": "VEC3"
    },
    {
      "bufferView": 2,
      "byteOffset": 140592,
      "componentType": 5126,
      "count": 308,
      "max": [
        0.9509299397468567,
        0.9559897184371948,
        0.997465968132019
      ],
      "min": [
        -0.9509431719779968,
        -0.9867369532585144,
        -0.9493622779846191
      ],
      "type": "VEC3"
    },
    {
      "bufferView": 1,
      "byteOffset": 45632,
      "componentType": 5126,
      "count": 308,
      "max": [
        0.13294999301433563,
        0.15814480185508728
      ],
      "min": [
        0.03169601038098335,
        0.1256190985441208
      ],
      "type": "VEC2"
    },
    {
      "bufferView": 0,
      "byteOffset": 121692,
      "componentType": 5125,
      "count": 936,
      "type": "SCALAR"
    },
    {
      "bufferView": 2,
      "byteOffset": 144288,
      "componentType": 5126,
      "count": 672,
      "max": [
        1560.6319580078125,
        351.78314208984375,
        364.03118896484375
      ],
      "min": [
        -1560.5489501953125,
        -646.0515747070313,
        -1206.595947265625
      ],
      "type": "VEC3"
    },
    {
      "bufferView": 2,
      "byteOffset": 152352,
      "componentType": 5126,
      "count": 672,
      "max": [
        0.9943717122077942,
        0.9993137121200562,
        0.9946911334991455
      ],
      "min": [
        -0.9943714141845703,
        -0.9835859537124634,
        -0.8575742840766907
      ],
      "type": "VEC3"
    },
    {
      "bufferView": 1,
      "byteOffset": 48096,
      "componentType": 5126,
      "count": 672,
      "max": [
        0.5250064134597778,
        0.8587921261787415
      ],
      "min": [
        0.005502060987055302,
        0.6544545292854309
      ],
      "type": "VEC2"
    },
    {
      "bufferView": 0,
      "byteOffset": 125436,
      "componentType": 5125,
      "count": 4008,
      "type": "SCALAR"
    },
    {
      "bufferView": 2,
      "byteOffset": 160416,
      "componentType": 5126,
      "count": 260,
      "max": [
        143.73590087890625,
        160.247314453125,
        866.6536865234375
      ],
      "min": [
        -143.73680114746094,
        56.5421142578125,
        716.4968872070313
      ],
      "type": "VEC3"
    },
    {
      "bufferView": 2,
      "byteOffset": 163536,
      "componentType": 5126,
      "count": 260,
      "max": [
        0.9999915361404419,
        0.9380662441253662,
        0.9302137494087219
      ],
      "min": [
        -0.9999917149543762,
        -0.9811106324195862,
        -0.9302142858505249
      ],
      "type": "VEC3"
    },
    {
      "bufferView": 1,
      "byteOffset": 53472,
      "componentType": 5126,
      "count": 260,
      "max": [
        0.2966209948062897,
        0.9792261719703674
      ],
      "min": [
        0.2200106978416443,
        0.9306098222732544
      ],
      "type": "VEC2"
    },
    {
      "bufferView": 0,
      "byteOffset": 141468,
      "componentType": 5125,
      "count": 648,
      "type": "SCALAR"
    },
    {
      "bufferView": 2,
      "byteOffset": 166656,
      "componentType": 5126,
      "count": 196,
      "max": [
        2900.012939453125,
        404.26226806640625,
        1064.31298828125
      ],
      "min": [
        946.6088256835938,
        -6.99237060546875,
        -378.9590148925781
      ],
      "type": "VEC3"
    },
    {
      "bufferView": 2,
      "byteOffset": 169008,
      "componentType": 5126,
      "count": 196,
      "max": [
        0.875850260257721,
        0.993969738483429,
        0.8838163614273071
      ],
      "min": [
        -0.7302935123443604,
        -0.998132050037384,
        -0.8806484937667847
      ],
      "type": "VEC3"
    },
    {
      "bufferView": 1,
      "byteOffset": 55552,
      "componentType": 5126,
      "count": 196,
      "max": [
        0.8693596124649048,
        0.966995120048523
      ],
      "min": [
        0.6018422245979309,
        0.836912989616394
      ],
      "type": "VEC2"
    },
    {
      "bufferView": 0,
      "byteOffset": 144060,
      "componentType": 5125,
      "count": 1164,
      "type": "SCALAR"
    },
    {
      "bufferView": 2,
      "byteOffset": 171360,
      "componentType": 5126,
      "count": 72,
      "max": [
        982.838623046875,
        499.47943115234375,
        379.585693359375
      ],
      "min": [
        -983.0823974609375,
        382.68487548828125,
        -120.80199432373047
      ],
      "type": "VEC3"
    },
    {
      "bufferView": 2,
      "byteOffset": 172224,
      "componentType": 5126,
      "count": 72,
      "max": [
        0.5901929140090942,
        0.9964182376861572,
        0.35723209381103516
      ],
      "min": [
        -0.5901924967765808,
        -0.9977455735206604,
        -0.46176910400390625
      ],
      "type": "VEC3"
    },
    {
      "bufferView": 1,
      "byteOffset": 57120,
      "componentType": 5126,
      "count": 72,
      "max": [
        0.9270976781845093,
        0.7967032194137573
      ],
      "min": [
        0.8184319138526917,
        0.6826922297477722
      ],
      "type": "VEC2"
    },
    {
      "bufferView": 0,
      "byteOffset": 148716,
      "componentType": 5125,
      "count": 384,
      "type": "SCALAR"
    },
    {
      "bufferView": 2,
      "byteOffset": 173088,
      "componentType": 5126,
      "count": 256,
      "max": [
        483.00311279296875,
        644.7128295898438,
        1013.7990112304688
      ],
      "min": [
        -483.0007019042969,
        390.36834716796875,
        -588.24951171875
      ],
      "type": "VEC3"
    },
    {
      "bufferView": 2,
      "byteOffset": 176160,
      "componentType": 5126,
      "count": 256,
      "max": [
        0.8821520805358887,
        0.9978812336921692,
        0.44256341457366943
      ],
      "min": [
        -0.8821535110473633,
        -0.9999513030052185,
        -0.7807122468948364
      ],
      "type": "VEC3"
    },
    {
      "bufferView": 1,
      "byteOffset": 57696,
      "componentType": 5126,
      "count": 256,
      "max": [
        0.7124037742614746,
        0.7790523171424866
      ],
      "min": [
        0.5352888703346252,
        0.5471013188362122
      ],
      "type": "VEC2"
    },
    {
      "bufferView": 0,
      "byteOffset": 150252,
      "componentType": 5125,
      "count": 1500,
      "type": "SCALAR"
    },
    {
      "bufferView": 2,
      "byteOffset": 179232,
      "componentType": 5126,
      "count": 40,
      "max": [
        699.0551147460938,
        472.36932373046875,
        445.0932922363281
      ],
      "min": [
        -699.0551147460938,
        436.50042724609375,
        102.03780364990234
      ],
      "type": "VEC3"
    },
    {
      "bufferView": 2,
      "byteOffset": 179712,
      "componentType": 5126,
      "count": 40,
      "max": [
        0.5897909998893738,
        0.992560088634491,
        0.48003509640693665
      ],
      "min": [
        -0.5897909998893738,
        -0.9921350479125977,
        -0.9217097759246826
      ],
      "type": "VEC3"
    },
    {
      "bufferView": 1,
      "byteOffset": 59744,
      "componentType": 5126,
      "count": 40,
      "max": [
        0.31238609552383423,
        0.7083277702331543
      ],
      "min": [
        0.2096536010503769,
        0.6300345063209534
      ],
      "type": "VEC2"
    },
    {
      "bufferView": 0,
      "byteOffset": 156252,
      "componentType": 5125,
      "count": 216,
      "type": "SCALAR"
    },
    {
      "bufferView": 2,
      "byteOffset": 180192,
      "componentType": 5126,
      "count": 122,
      "max": [
        161.99339294433594,
        347.95477294921875,
        846.5855712890625
      ],
      "min": [
        -162.0041046142578,
        -207.68218994140625,
        531.0443725585938
      ],
      "type": "VEC3"
    },
    {
      "bufferView": 2,
      "byteOffset": 181656,
      "componentType": 5126,
      "count": 122,
      "max": [
        0.9997995495796204,
        0.9991644620895386,
        0.9535911083221436
      ],
      "min": [
        -0.9997996091842651,
        -0.9826037883758545,
        -0.9116227626800537
      ],
      "type": "VEC3"
    },
    {
      "bufferView": 1,
      "byteOffset": 60064,
      "componentType": 5126,
      "count": 122,
      "max": [
        0.9972488880157471,
        0.9889340996742249
      ],
      "min": [
        0.8830299973487854,
        0.8041918873786926
      ],
      "type": "VEC2"
    },
    {
      "bufferView": 0,
      "byteOffset": 157116,
      "componentType": 5125,
      "count": 744,
      "type": "SCALAR"
    },
    {
      "bufferView": 2,
      "byteOffset": 183120,
      "componentType": 5126,
      "count": 372,
      "max": [
        129.8220977783203,
        520.5543823242188,
        1047.9930419921875
      ],
      "min": [
        -129.82240295410156,
        260.32843017578125,
        457.1560974121094
      ],
      "type": "VEC3"
    },
    {
      "bufferView": 2,
      "byteOffset": 187584,
      "componentType": 5126,
      "count": 372,
      "max": [
        1.0,
        0.9999832510948181,
        1.0
      ],
      "min": [
        -1.0,
        -0.9999755024909973,
        -0.9999999403953552
      ],
      "type": "VEC3"
    },
    {
      "bufferView": 1,
      "byteOffset": 61040,
      "componentType": 5126,
      "count": 372,
      "max": [
        0.27765610814094543,
        0.5126016736030579
      ],
      "min": [
        0.011791160330176353,
        0.4233066141605377
      ],
      "type": "VEC2"
    },
    {
      "bufferView": 0,
      "byteOffset": 160092,
      "componentType": 5125,
      "count": 1920,
      "type": "SCALAR"
    },
    {
      "bufferView": 2,
      "byteOffset": 192048,
      "componentType": 5126,
      "count": 252,
      "max": [
        105.63860321044922,
        495.39019775390625,
        1060.2869873046875
      ],
      "min": [
        -105.63880157470703,
        284.89776611328125,
        1012.35302734375
      ],
      "type": "VEC3"
    },
    {
      "bufferView": 2,
      "byteOffset": 195072,
      "componentType": 5126,
      "count": 252,
      "max": [
        0.9865126013755798,
        0.9789231419563293,
        0.27603107690811157
      ],
      "min": [
        -0.9865126013755798,
        -0.9789227843284607,
        -0.2273387759923935
      ],
      "type": "VEC3"
    },
    {
      "bufferView": 1,
      "byteOffset": 64016,
      "componentType": 5126,
      "count": 252,
      "max": [
        0.48326608538627625,
        0.8999273180961609
      ],
      "min": [
        0.4338509142398834,
        0.8540316224098206
      ],
      "type": "VEC2"
    },
    {
      "bufferView": 0,
      "byteOffset": 167772,
      "componentType": 5125,
      "count": 648,
      "type": "SCALAR"
    },
    {
      "bufferView": 2,
      "byteOffset": 198096,
      "componentType": 5126,
      "count": 86,
      "max": [
        79.24800109863281,
        469.39202880859375,
        993.6480712890625
      ],
      "min": [
        -79.24800109863281,
        310.89599609375,
        786.3839721679688
      ],
      "type": "VEC3"
    },
    {
      "bufferView": 2,
      "byteOffset": 199128,
      "componentType": 5126,
      "count": 86,
      "max": [
        1.0,
        1.0,
        1.0
      ],
      "min": [
        -1.0,
        -1.0,
        -1.0
      ],
      "type": "VEC3"
    },
    {
      "bufferView": 1,
      "byteOffset": 66032,
      "componentType": 5126,
      "count": 86,
      "max": [
        0.6471163034439087,
        0.48530471324920654
      ],
      "min": [
        0.6010329127311707,
        0.43583041429519653
      ],
      "type": "VEC2"
    },
    {
      "bufferView": 0,
      "byteOffset": 170364,
      "componentType": 5125,
      "count": 504,
      "type": "SCALAR"
    },
    {
      "bufferView": 2,
      "byteOffset": 200160,
      "componentType": 5126,
      "count": 48,
      "max": [
        183.62449645996094,
        562.3048706054688,
        977.7764282226563
      ],
      "min": [
        -184.18499755859375,
        63.167236328125,
        580.6707763671875
      ],
      "type": "VEC3"
    },
    {
      "bufferView": 2,
      "byteOffset": 200736,
      "componentType": 5126,
      "count": 48,
      "max": [
        0.9994907379150391,
        0.9941091537475586,
        0.27542072534561157
      ],
      "min": [
        -0.9993383884429932,
        -0.7417553067207336,
        -0.16916482150554657
      ],
      "type": "VEC3"
    },
    {
      "bufferView": 1,
      "byteOffset": 66720,
      "componentType": 5126,
      "count": 48,
      "max": [
        0.9336255788803101,
        0.5224223732948303
      ],
      "min": [
        0.8430861830711365,
        0.35990479588508606
      ],
      "type": "VEC2"
    },
    {
      "bufferView": 0,
      "byteOffset": 172380,
      "componentType": 5125,
      "count": 264,
      "type": "SCALAR"
    },
    {
      "bufferView": 2,
      "byteOffset": 201312,
      "componentType": 5126,
      "count": 48,
      "max": [
        225.552001953125,
        586.6791381835938,
        1026.0980224609375
      ],
      "min": [
        -225.552001953125,
        323.30987548828125,
        588.9442749023438
      ],
      "type": "VEC3"
    },
    {
      "bufferView": 2,
      "byteOffset": 201888,
      "componentType": 5126,
      "count": 48,
      "max": [
        0.9976785778999329,
        0.9968022704124451,
        0.22487984597682953
      ],
      "min": [
        -0.9976904988288879,
        -0.8607661128044128,
        -0.2197963148355484
      ],
      "type": "VEC3"
    },
    {
      "bufferView": 1,
      "byteOffset": 67104,
      "componentType": 5126,
      "count": 48,
      "max": [
        0.7434920072555542,
        0.23803840577602386
      ],
      "min": [
        0.6069865226745605,
        0.10607969760894775
      ],
      "type": "VEC2"
    },
    {
      "bufferView": 0,
      "byteOffset": 173436,
      "componentType": 5125,
      "count": 264,
      "type": "SCALAR"
    },
    {
      "bufferView": 2,
      "byteOffset": 202464,
      "componentType": 5126,
      "count": 386,
      "max": [
        112.23419952392578,
        74.06640625,
        754.5604248046875
      ],
      "min": [
        -112.40879821777344,
        -158.1461181640625,
        602.7479858398438
      ],
      "type": "VEC3"
    },
    {
      "bufferView": 2,
      "byteOffset": 207096,
      "componentType": 5126,
      "count": 386,
      "max": [
        0.9997694492340088,
        0.9994046092033386,
        0.9791408181190491
      ],
      "min": [
        -0.9990826845169067,
        -0.9918952584266663,
        -0.7261868715286255
      ],
      "type": "VEC3"
    },
    {
      "bufferView": 1,
      "byteOffset": 67488,
      "componentType": 5126,
      "count": 386,
      "max": [
        0.24151960015296936,
        0.2664813995361328
      ],
      "min": [
        0.17771239578723907,
        0.17718690633773804
      ],
      "type": "VEC2"
    },
    {
      "bufferView": 0,
      "byteOffset": 174492,
      "componentType": 5125,
      "count": 1932,
      "type": "SCALAR"
    },
    {
      "bufferView": 2,
      "byteOffset": 211728,
      "componentType": 5126,
      "count": 127,
      "max": [
        121.9197998046875,
        354.13372802734375,
        1010.0239868164063
      ],
      "min": [
        -121.93150329589844,
        63.70245361328125,
        778.3275146484375
      ],
      "type": "VEC3"
    },
    {
      "bufferView": 2,
      "byteOffset": 213252,
      "componentType": 5126,
      "count": 127,
      "max": [
        0.9912797212600708,
        0.8633388876914978,
        0.9561418294906616
      ],
      "min": [
        -0.991279661655426,
        -0.894453763961792,
        -0.8956839442253113
      ],
      "type": "VEC3"
    },
    {
      "bufferView": 1,
      "byteOffset": 70576,
      "componentType": 5126,
      "count": 127,
      "max": [
        0.19898590445518494,
        0.6175286173820496
      ],
      "min": [
        0.11245270073413849,
        0.5270279049873352
      ],
      "type": "VEC2"
    },
    {
      "bufferView": 0,
      "byteOffset": 182220,
      "componentType": 5125,
      "count": 756,
      "type": "SCALAR"
    },
    {
      "bufferView": 2,
      "byteOffset": 214776,
      "componentType": 5126,
      "count": 16,
      "max": [
        115.07150268554688,
        336.52850341796875,
        965.9063110351563
      ],
      "min": [
        -115.0718002319336,
        82.01898193359375,
        792.9848022460938
      ],
      "type": "VEC3"
    },
    {
      "bufferView": 2,
      "byteOffset": 214968,
      "componentType": 5126,
      "count": 16,
      "max": [
        0.7617484331130981,
        0.9549920558929443,
        0.6630966067314148
      ],
      "min": [
        -0.761748731136322,
        -0.8312549591064453,
        -0.8747155666351318
      ],
      "type": "VEC3"
    },
    {
      "bufferView": 1,
      "byteOffset": 71592,
      "componentType": 5126,
      "count": 16,
      "max": [
        0.15228669345378876,
        0.7342187166213989
      ],
      "min": [
        0.062313590198755264,
        0.643683910369873
      ],
      "type": "VEC2"
    },
    {
      "bufferView": 0,
      "byteOffset": 185244,
      "componentType": 5125,
      "count": 84,
      "type": "SCALAR"
    },
    {
      "bufferView": 2,
      "byteOffset": 215160,
      "componentType": 5126,
      "count": 24,
      "max": [
        1672.9420166015625,
        226.65338134765625,
        9.239341735839844
      ],
      "min": [
        -1672.9300537109375,
        51.49560546875,
        -213.35391235351563
      ],
      "type": "VEC3"
    },
    {
      "bufferView": 2,
      "byteOffset": 215448,
      "componentType": 5126,
      "count": 24,
      "max": [
        0.8766633868217468,
        0.8439863920211792,
        0.9118383526802063
      ],
      "min": [
        -0.8766632080078125,
        -0.9798694849014282,
        -0.948586106300354
      ],
      "type": "VEC3"
    },
    {
      "bufferView": 1,
      "byteOffset": 71720,
      "componentType": 5126,
      "count": 24,
      "max": [
        0.553134024143219,
        0.7579771876335144
      ],
      "min": [
        0.5261402130126953,
        0.7325624227523804
      ],
      "type": "VEC2"
    },
    {
      "bufferView": 0,
      "byteOffset": 185580,
      "componentType": 5125,
      "count": 120,
      "type": "SCALAR"
    },
    {
      "bufferView": 2,
      "byteOffset": 215736,
      "componentType": 5126,
      "count": 132,
      "max": [
        1631.487060546875,
        174.5784912109375,
        -51.03058624267578
      ],
      "min": [
        -1631.4820556640625,
        86.98919677734375,
        -181.5137939453125
      ],
      "type": "VEC3"
    },
    {
      "bufferView": 2,
      "byteOffset": 217320,
      "componentType": 5126,
      "count": 132,
      "max": [
        0.9378965497016907,
        0.9925095438957214,
        0.8748130202293396
      ],
      "min": [
        -0.9378919005393982,
        -0.9404611587524414,
        -0.7410973310470581
      ],
      "type": "VEC3"
    },
    {
      "bufferView": 1,
      "byteOffset": 71912,
      "componentType": 5126,
      "count": 132,
      "max": [
        0.19464360177516937,
        0.9780248999595642
      ],
      "min": [
        0.1427575945854187,
        0.9498596787452698
      ],
      "type": "VEC2"
    },
    {
      "bufferView": 0,
      "byteOffset": 186060,
      "componentType": 5125,
      "count": 672,
      "type": "SCALAR"
    },
    {
      "bufferView": 2,
      "byteOffset": 218904,
      "componentType": 5126,
      "count": 36,
      "max": [
        1623.2989501953125,
        140.93560791015625,
        -108.0291976928711
      ],
      "min": [
        -1623.2939453125,
        97.1427001953125,
        -175.27239990234375
      ],
      "type": "VEC3"
    },
    {
      "bufferView": 2,
      "byteOffset": 219336,
      "componentType": 5126,
      "count": 36,
      "max": [
        0.5395606160163879,
        -0.40078970789909363,
        -0.7400125861167908
      ],
      "min": [
        -0.5395261645317078,
        -0.4023342728614807,
        -0.7410973310470581
      ],
      "type": "VEC3"
    },
    {
      "bufferView": 1,
      "byteOffset": 72968,
      "componentType": 5126,
      "count": 36,
      "max": [
        0.18211470544338226,
        0.6773164868354797
      ],
      "min": [
        0.16660399734973907,
        0.6314681768417358
      ],
      "type": "VEC2"
    },
    {
      "bufferView": 0,
      "byteOffset": 188748,
      "componentType": 5125,
      "count": 96,
      "type": "SCALAR"
    },
    {
      "bufferView": 2,
      "byteOffset": 219768,
      "componentType": 5126,
      "count": 4484,
      "max": [
        675.2319946289063,
        219.03216552734375,
        961.4417114257813
      ],
      "min": [
        -675.2296142578125,
        -313.902587890625,
        307.8529052734375
      ],
      "type": "VEC3"
    },
    {
      "bufferView": 2,
      "byteOffset": 273576,
      "componentType": 5126,
      "count": 4484,
      "max": [
        0.9925097823143005,
        0.9994866847991943,
        0.997467577457428
      ],
      "min": [
        -0.9924918413162231,
        -0.9998996257781982,
        -0.9970639944076538
      ],
      "type": "VEC3"
    },
    {
      "bufferView": 1,
      "byteOffset": 73256,
      "componentType": 5126,
      "count": 4484,
      "max": [
        0.40026751160621643,
        0.9711859226226807
      ],
      "min": [
        0.31085899472236633,
        0.8777791857719421
      ],
      "type": "VEC2"
    },
    {
      "bufferView": 0,
      "byteOffset": 189132,
      "componentType": 5125,
      "count": 18576,
      "type": "SCALAR"
    },
    {
      "bufferView": 2,
      "byteOffset": 327384,
      "componentType": 5126,
      "count": 144,
      "max": [
        661.618408203125,
        109.71240234375,
        947.930419921875
      ],
      "min": [
        -661.6160278320313,
        -303.0638122558594,
        465.7124938964844
      ],
      "type": "VEC3"
    },
    {
      "bufferView": 2,
      "byteOffset": 329112,
      "componentType": 5126,
      "count": 144,
      "max": [
        0.9286458492279053,
        0.9783310890197754,
        0.8537324070930481
      ],
      "min": [
        -0.9286500811576843,
        -0.9938085675239563,
        -0.75892174243927
      ],
      "type": "VEC3"
    },
    {
      "bufferView": 1,
      "byteOffset": 109128,
      "componentType": 5126,
      "count": 144,
      "max": [
        0.9876148104667664,
        0.4532985985279083
      ],
      "min": [
        0.9325941801071167,
        0.38049641251564026
      ],
      "type": "VEC2"
    },
    {
      "bufferView": 0,
      "byteOffset": 263436,
      "componentType": 5125,
      "count": 816,
      "type": "SCALAR"
    },
    {
      "bufferView": 2,
      "byteOffset": 330840,
      "componentType": 5126,
      "count": 7592,
      "max": [
        1691.3280029296875,
        184.60418701171875,
        733.6583862304688
      ],
      "min": [
        -1691.3349609375,
        -205.73931884765625,
        -408.43438720703125
      ],
      "type": "VEC3"
    },
    {
      "bufferView": 2,
      "byteOffset": 421944,
      "componentType": 5126,
      "count": 7592,
      "max": [
        1.0,
        0.9999992847442627,
        1.0
      ],
      "min": [
        -1.0,
        -0.9998940229415894,
        -1.0
      ],
      "type": "VEC3"
    },
    {
      "bufferView": 1,
      "byteOffset": 110280,
      "componentType": 5126,
      "count": 7592,
      "max": [
        0.21239210665225983,
        0.9354323148727417
      ],
      "min": [
        0.14807100594043732,
        0.874727189540863
      ],
      "type": "VEC2"
    },
    {
      "bufferView": 0,
      "byteOffset": 266700,
      "componentType": 5125,
      "count": 40920,
      "type": "SCALAR"
    },
    {
      "bufferView": 2,
      "byteOffset": 513048,
      "componentType": 5126,
      "count": 1328,
      "max": [
        1543.0269775390625,
        142.12939453125,
        680.38671875
      ],
      "min": [
        -1543.0369873046875,
        -176.77978515625,
        -223.26602172851563
      ],
      "type": "VEC3"
    },
    {
      "bufferView": 2,
      "byteOffset": 528984,
      "componentType": 5126,
      "count": 1328,
      "max": [
        0.9868457317352295,
        0.28532251715660095,
        0.9115437269210815
      ],
      "min": [
        -0.9868524074554443,
        -0.9996189475059509,
        -0.9822975397109985
      ],
      "type": "VEC3"
    },
    {
      "bufferView": 1,
      "byteOffset": 171016,
      "componentType": 5126,
      "count": 1328,
      "max": [
        0.07655450701713562,
        0.6171150803565979
      ],
      "min": [
        0.04794543981552124,
        0.587417721748352
      ],
      "type": "VEC2"
    },
    {
      "bufferView": 0,
      "byteOffset": 430380,
      "componentType": 5125,
      "count": 7344,
      "type": "SCALAR"
    },
    {
      "bufferView": 2,
      "byteOffset": 544920,
      "componentType": 5126,
      "count": 1678,
      "max": [
        1647.4000244140625,
        140.26629638671875,
        713.848876953125
      ],
      "min": [
        -1647.4100341796875,
        -197.29849243164063,
        -329.9422912597656
      ],
      "type": "VEC3"
    },
    {
      "bufferView": 2,
      "byteOffset": 565056,
      "componentType": 5126,
      "count": 1678,
      "max": [
        0.9999160766601563,
        0.1425728052854538,
        0.905602753162384
      ],
      "min": [
        -0.9999147653579712,
        -0.9992105960845947,
        -0.9944115877151489
      ],
      "type": "VEC3"
    },
    {
      "bufferView": 1,
      "byteOffset": 181640,
      "componentType": 5126,
      "count": 1678,
      "max": [
        0.9662547707557678,
        0.9712914228439331
      ],
      "min": [
        0.9121667146682739,
        0.9221491813659668
      ],
      "type": "VEC2"
    },
    {
      "bufferView": 0,
      "byteOffset": 459756,
      "componentType": 5125,
      "count": 4008,
      "type": "SCALAR"
    },
    {
      "bufferView": 2,
      "byteOffset": 585192,
      "componentType": 5126,
      "count": 442,
      "max": [
        1708.7750244140625,
        207.05938720703125,
        597.8250122070313
      ],
      "min": [
        -1708.7840576171875,
        -214.29388427734375,
        -465.588134765625
      ],
      "type": "VEC3"
    },
    {
      "bufferView": 2,
      "byteOffset": 590496,
      "componentType": 5126,
      "count": 442,
      "max": [
        0.8665856719017029,
        0.9950180649757385,
        0.5828338265419006
      ],
      "min": [
        -0.8665962219238281,
        -0.9999620914459229,
        -0.8605260252952576
      ],
      "type": "VEC3"
    },
    {
      "bufferView": 1,
      "byteOffset": 195064,
      "componentType": 5126,
      "count": 442,
      "max": [
        0.2876419126987457,
        0.6028097867965698
      ],
      "min": [
        0.21162599325180054,
        0.5305420160293579
      ],
      "type": "VEC2"
    },
    {
      "bufferView": 0,
      "byteOffset": 475788,
      "componentType": 5125,
      "count": 2604,
      "type": "SCALAR"
    },
    {
      "bufferView": 2,
      "byteOffset": 595800,
      "componentType": 5126,
      "count": 726,
      "max": [
        1661.6700439453125,
        184.339111328125,
        590.278076171875
      ],
      "min": [
        -1661.7669677734375,
        -212.3782958984375,
        -424.14990234375
      ],
      "type": "VEC3"
    },
    {
      "bufferView": 2,
      "byteOffset": 604512,
      "componentType": 5126,
      "count": 726,
      "max": [
        0.995909571647644,
        0.9999571442604065,
        0.9425314664840698
      ],
      "min": [
        -0.9959079623222351,
        -0.9971550703048706,
        -0.9557425379753113
      ],
      "type": "VEC3"
    },
    {
      "bufferView": 1,
      "byteOffset": 198600,
      "componentType": 5126,
      "count": 726,
      "max": [
        0.23700660467147827,
        0.16751539707183838
      ],
      "min": [
        0.16099080443382263,
        0.08946604281663895
      ],
      "type": "VEC2"
    },
    {
      "bufferView": 0,
      "byteOffset": 486204,
      "componentType": 5125,
      "count": 4176,
      "type": "SCALAR"
    },
    {
      "bufferView": 2,
      "byteOffset": 613224,
      "componentType": 5126,
      "count": 84,
      "max": [
        -960.7100830078125,
        104.11358642578125,
        1006.8300170898438
      ],
      "min": [
        -2347.423095703125,
        -415.0570983886719,
        -231.4110107421875
      ],
      "type": "VEC3"
    },
    {
      "bufferView": 2,
      "byteOffset": 614232,
      "componentType": 5126,
      "count": 84,
      "max": [
        0.7937970757484436,
        0.9945676922798157,
        0.6150482892990112
      ],
      "min": [
        -0.5422387719154358,
        -0.9876696467399597,
        -0.7828594446182251
      ],
      "type": "VEC3"
    },
    {
      "bufferView": 1,
      "byteOffset": 204408,
      "componentType": 5126,
      "count": 84,
      "max": [
        0.7186737060546875,
        0.10135140269994736
      ],
      "min": [
        0.486057311296463,
        0.00828573014587164
      ],
      "type": "VEC2"
    },
    {
      "bufferView": 0,
      "byteOffset": 502908,
      "componentType": 5125,
      "count": 492,
      "type": "SCALAR"
    },
    {
      "bufferView": 2,
      "byteOffset": 615240,
      "componentType": 5126,
      "count": 84,
      "max": [
        2347.382080078125,
        104.11920166015625,
        1006.7470092773438
      ],
      "min": [
        960.7150268554688,
        -414.9913024902344,
        -231.3927001953125
      ],
      "type": "VEC3"
    },
    {
      "bufferView": 2,
      "byteOffset": 616248,
      "componentType": 5126,
      "count": 84,
      "max": [
        0.5422319173812866,
        0.9945700168609619,
        0.6150835156440735
      ],
      "min": [
        -0.7938106060028076,
        -0.9876732230186462,
        -0.7828754782676697
      ],
      "type": "VEC3"
    },
    {
      "bufferView": 1,
      "byteOffset": 205080,
      "componentType": 5126,
      "count": 84,
      "max": [
        0.470692902803421,
        0.09993374347686768
      ],
      "min": [
        0.23668380081653595,
        0.006868139840662479
      ],
      "type": "VEC2"
    },
    {
      "bufferView": 0,
      "byteOffset": 504876,
      "componentType": 5125,
      "count": 492,
      "type": "SCALAR"
    }
  ],
  "asset": {
    "extras": {
      "author": "razzie_mbessai (https://sketchfab.com/razzie_mbessai)",
      "license": "CC-BY-4.0 (http://creativecommons.org/licenses/by/4.0/)",
      "source": "https://sketchfab.com/3d-models/guardians-of-the-galaxy-milano-mandela-spaceship-d41dfa4b160e403db99f1c3bbe06dcfc",
      "title": "Guardians of the Galaxy Milano Mandela spaceship"
    },
    "generator": "Sketchfab-12.66.0",
    "version": "2.0"
  },
  "bufferViews": [
    {
      "buffer": 0,
      "byteLength": 506844,
      "name": "floatBufferViews",
      "target": 34963
    },
    {
      "buffer": 0,
      "byteLength": 205752,
      "byteOffset": 506844,
      "byteStride": 8,
      "name": "floatBufferViews",
      "target": 34962
    },
    {
      "buffer": 0,
      "byteLength": 617256,
      "byteOffset": 712596,
      "byteStride": 12,
      "name": "floatBufferViews",
      "target": 34962
    }
  ],
  "buffers": [
    {
      "byteLength": 1329852,
      "uri": "scene.bin"
    }
  ],
  "images": [
    {
      "uri": "textures/airbrakeHinges_baseColor.png"
    },
    {
      "uri": "textures/shellBody_metallicRoughness.png"
    }
  ],
  "materials": [
    {
      "doubleSided": true,
      "name": "airbrakeHinges",
      "pbrMetallicRoughness": {
        "baseColorTexture": {
          "index": 0
        },
        "metallicFactor": 0.75,
        "roughnessFactor": 0.25
      }
    },
    {
      "doubleSided": true,
      "name": "airbrakesBack",
      "pbrMetallicRoughness": {
        "baseColorTexture": {
          "index": 0
        },
        "metallicFactor": 0.75,
        "roughnessFactor": 0.25
      }
    },
    {
      "doubleSided": true,
      "name": "airbrakesFront",
      "pbrMetallicRoughness": {
        "baseColorTexture": {
          "index": 0
        },
        "metallicFactor": 0.75,
        "roughnessFactor": 0.25
      }
    },
    {
      "doubleSided": true,
      "name": "mainBody",
      "pbrMetallicRoughness": {
        "baseColorTexture": {
          "index": 0
        },
        "metallicFactor": 0.75,
        "roughnessFactor": 0.25
      }
    },
    {
      "doubleSided": true,
      "name": "underbellyVents",
      "pbrMetallicRoughness": {
        "baseColorTexture": {
          "index": 0
        },
        "metallicFactor": 0.75,
        "roughnessFactor": 0.25
      }
    },
    {
      "doubleSided": true,
      "name": "frontBlasters",
      "pbrMetallicRoughness": {
        "baseColorTexture": {
          "index": 0
        },
        "metallicFactor": 0.75,
        "roughnessFactor": 0.25
      }
    },
    {
      "doubleSided": true,
      "name": "shellBody",
      "pbrMetallicRoughness": {
        "baseColorTexture": {
          "index": 0
        },
        "metallicFactor": 0.75,
        "metallicRoughnessTexture": {
          "index": 1
        },
        "roughnessFactor": 0.25
      }
    },
    {
      "alphaMode": "BLEND",
      "doubleSided": true,
      "name": "cockpitGlass",
      "pbrMetallicRoughness": {
        "baseColorFactor": [
          0.0,
          0.013479839247292884,
          0.053573780633981265,
          0.9
        ],
        "metallicFactor": 0.0,
        "roughnessFactor": 0.15000000000000002
      }
    },
    {
      "doubleSided": true,
      "name": "cockpitFrame",
      "pbrMetallicRoughness": {
        "baseColorTexture": {
          "index": 0
        },
        "metallicFactor": 0.75,
        "roughnessFactor": 0.25
      }
    },
    {
      "doubleSided": true,
      "name": "wingButtons",
      "pbrMetallicRoughness": {
        "baseColorTexture": {
          "index": 0
        },
        "metallicFactor": 0.75,
        "roughnessFactor": 0.25
      }
    },
    {
      "doubleSided": true,
      "name": "rearEngines1",
      "pbrMetallicRoughness": {
        "baseColorTexture": {
          "index": 0
        },
        "metallicFactor": 0.75,
        "roughnessFactor": 0.29
      }
    },
    {
      "doubleSided": true,
      "name": "rearEngines2",
      "pbrMetallicRoughness": {
        "baseColorTexture": {
          "index": 0
        },
        "metallicFactor": 0.75,
        "roughnessFactor": 0.25
      }
    },
    {
      "doubleSided": true,
      "name": "rearEngines3",
      "pbrMetallicRoughness": {
        "baseColorTexture": {
          "index": 0
        },
        "metallicFactor": 0.75,
        "roughnessFactor": 0.25
      }
    },
    {
      "doubleSided": true,
      "name": "wingExhausts",
      "pbrMetallicRoughness": {
        "baseColorTexture": {
          "index": 0
        },
        "metallicFactor": 0.75,
        "roughnessFactor": 0.25
      }
    },
    {
      "doubleSided": true,
      "name": "fuselage",
      "pbrMetallicRoughness": {
        "baseColorTexture": {
          "index": 0
        },
        "metallicFactor": 0.75,
        "roughnessFactor": 0.25
      }
    },
    {
      "doubleSided": true,
      "name": "frontLightsFrame",
      "pbrMetallicRoughness": {
        "baseColorTexture": {
          "index": 0
        },
        "metallicFactor": 0.75,
        "roughnessFactor": 0.25
      }
    },
    {
      "alphaMode": "BLEND",
      "doubleSided": true,
      "name": "frontLightsGlass",
      "pbrMetallicRoughness": {
        "baseColorFactor": [
          1.0,
          1.0,
          1.0,
          0.2
        ],
        "baseColorTexture": {
          "index": 0
        },
        "metallicFactor": 0.0,
        "roughnessFactor": 0.9577051495
      }
    },
    {
      "doubleSided": true,
      "emissiveFactor": [
        1.0,
        1.0,
        0.08027357894693629
      ],
      "name": "frontLights",
      "pbrMetallicRoughness": {
        "baseColorTexture": {
          "index": 0
        },
        "metallicFactor": 0.0,
        "roughnessFactor": 0.9577051495
      }
    },
    {
      "doubleSided": true,
      "name": "wingIntakes",
      "pbrMetallicRoughness": {
        "baseColorTexture": {
          "index": 0
        },
        "metallicFactor": 0.75,
        "roughnessFactor": 0.25
      }
    },
    {
      "doubleSided": true,
      "name": "chinHatches",
      "pbrMetallicRoughness": {
        "baseColorTexture": {
          "index": 0
        },
        "metallicFactor": 0.75,
        "roughnessFactor": 0.25
      }
    },
    {
      "doubleSided": true,
      "name": "chinIntakes",
      "pbrMetallicRoughness": {
        "baseColorTexture": {
          "index": 0
        },
        "metallicFactor": 0.75,
        "roughnessFactor": 0.25
      }
    },
    {
      "doubleSided": true,
      "name": "lMiddleWinglet",
      "pbrMetallicRoughness": {
        "baseColorTexture": {
          "index": 0
        },
        "metallicFactor": 0.75,
        "roughnessFactor": 0.25
      }
    },
    {
      "doubleSided": true,
      "name": "rearWingletGears",
      "pbrMetallicRoughness": {
        "baseColorTexture": {
          "index": 0
        },
        "metallicFactor": 0.75,
        "roughnessFactor": 0.25
      }
    },
    {
      "doubleSided": true,
      "name": "rearWinglets",
      "pbrMetallicRoughness": {
        "baseColorTexture": {
          "index": 0
        },
        "metallicFactor": 0.75,
        "roughnessFactor": 0.25
      }
    },
    {
      "doubleSided": true,
      "name": "topWingletGears",
      "pbrMetallicRoughness": {
        "baseColorTexture": {
          "index": 0
        },
        "metallicFactor": 0.75,
        "roughnessFactor": 0.25
      }
    },
    {
      "doubleSided": true,
      "name": "topWinglets",
      "pbrMetallicRoughness": {
        "baseColorTexture": {
          "index": 0
        },
        "metallicFactor": 0.75,
        "roughnessFactor": 0.25
      }
    },
    {
      "doubleSided": true,
      "name": "wingHinges",
      "pbrMetallicRoughness": {
        "baseColorTexture": {
          "index": 0
        },
        "metallicFactor": 0.75,
        "roughnessFactor": 0.25
      }
    },
    {
      "doubleSided": true,
      "name": "hull",
      "pbrMetallicRoughness": {
        "baseColorTexture": {
          "index": 0
        },
        "metallicFactor": 0.75,
        "roughnessFactor": 0.25
      }
    },
    {
      "doubleSided": true,
      "name": "rearBlasters",
      "pbrMetallicRoughness": {
        "baseColorTexture": {
          "index": 0
        },
        "metallicFactor": 0.75,
        "roughnessFactor": 0.25
      }
    },
    {
      "doubleSided": true,
      "name": "rMiddleWinglet",
      "pbrMetallicRoughness": {
        "baseColorTexture": {
          "index": 0
        },
        "metallicFactor": 0.75,
        "roughnessFactor": 0.25
      }
    },
    {
      "doubleSided": true,
      "name": "rudders",
      "pbrMetallicRoughness": {
        "baseColorTexture": {
          "index": 0
        },
        "metallicFactor": 0.75,
        "roughnessFactor": 0.25
      }
    },
    {
      "doubleSided": true,
      "name": "sunroof",
      "pbrMetallicRoughness": {
        "baseColorTexture": {
          "index": 0
        },
        "metallicFactor": 0.75,
        "roughnessFactor": 0.75
      }
    },
    {
      "doubleSided": true,
      "name": "tailfeathers",
      "pbrMetallicRoughness": {
        "baseColorTexture": {
          "index": 0
        },
        "metallicFactor": 0.75,
        "roughnessFactor": 0.25
      }
    },
    {
      "doubleSided": true,
      "name": "material",
      "pbrMetallicRoughness": {
        "baseColorTexture": {
          "index": 0
        },
        "metallicFactor": 0.75,
        "roughnessFactor": 0.25
      }
    },
    {
      "doubleSided": true,
      "name": "aftRocket",
      "pbrMetallicRoughness": {
        "baseColorTexture": {
          "index": 0
        },
        "metallicFactor": 0.75,
        "roughnessFactor": 0.25
      }
    },
    {
      "doubleSided": true,
      "name": "aftRocketExhaust",
      "pbrMetallicRoughness": {
        "baseColorTexture": {
          "index": 0
        },
        "metallicFactor": 0.75,
        "roughnessFactor": 0.25
      }
    },
    {
      "doubleSided": true,
      "emissiveFactor": [
        1.0,
        0.38912187034002277,
        0.0
      ],
      "name": "aftBooster",
      "pbrMetallicRoughness": {
        "baseColorTexture": {
          "index": 0
        },
        "metallicFactor": 0.0,
        "roughnessFactor": 0.9577051495
      }
    },
    {
      "doubleSided": true,
      "name": "aftSideArmour",
      "pbrMetallicRoughness": {
        "baseColorTexture": {
          "index": 0
        },
        "metallicFactor": 0.75,
        "roughnessFactor": 0.25
      }
    },
    {
      "doubleSided": true,
      "name": "aftTopArmour",
      "pbrMetallicRoughness": {
        "baseColorTexture": {
          "index": 0
        },
        "metallicFactor": 0.75,
        "roughnessFactor": 0.25
      }
    },
    {
      "doubleSided": true,
      "emissiveFactor": [
        1.0,
        0.21652945615043317,
        0.0
      ],
      "name": "aftExhaust",
      "pbrMetallicRoughness": {
        "baseColorTexture": {
          "index": 0
        },
        "metallicFactor": 0.0,
        "roughnessFactor": 0.9577051495
      }
    },
    {
      "doubleSided": true,
      "name": "aftWindowFrame",
      "pbrMetallicRoughness": {
        "baseColorTexture": {
          "index": 0
        },
        "metallicFactor": 0.75,
        "roughnessFactor": 0.25
      }
    },
    {
      "alphaMode": "BLEND",
      "doubleSided": true,
      "name": "aftWindowGlass",
      "pbrMetallicRoughness": {
        "baseColorFactor": [
          0.0,
          0.0036031767107909097,
          0.008329261933796989,
          0.9
        ],
        "metallicFactor": 0.0,
        "roughnessFactor": 0.9577051495
      }
    },
    {
      "doubleSided": true,
      "name": "middleWinglets",
      "pbrMetallicRoughness": {
        "baseColorTexture": {
          "index": 0
        },
        "metallicFactor": 0.75,
        "roughnessFactor": 0.25
      }
    },
    {
      "doubleSided": true,
      "name": "wingLightsFrame",
      "pbrMetallicRoughness": {
        "baseColorTexture": {
          "index": 0
        },
        "metallicFactor": 0.75,
        "roughnessFactor": 0.25
      }
    },
    {
      "doubleSided": true,
      "emissiveFactor": [
        1.0,
        1.0,
        0.084212220863912
      ],
      "name": "wingLights",
      "pbrMetallicRoughness": {
        "baseColorTexture": {
          "index": 0
        },
        "metallicFactor": 0.0,
        "roughnessFactor": 0.9577051495
      }
    },
    {
      "doubleSided": true,
      "name": "boosters",
      "pbrMetallicRoughness": {
        "baseColorTexture": {
          "index": 0
        },
        "metallicFactor": 0.75,
        "roughnessFactor": 0.25
      }
    },
    {
      "doubleSided": true,
      "name": "boostersTrim",
      "pbrMetallicRoughness": {
        "baseColorTexture": {
          "index": 0
        },
        "metallicFactor": 0.75,
        "roughnessFactor": 0.25
      }
    },
    {
      "doubleSided": true,
      "emissiveFactor": [
        0.0,
        0.16431002884285906,
        1.0
      ],
      "name": "engineDiscs",
      "pbrMetallicRoughness": {
        "baseColorTexture": {
          "index": 0
        },
        "metallicFactor": 0.0,
        "roughnessFactor": 0.9577051495
      }
    },
    {
      "doubleSided": true,
      "emissiveFactor": [
        1.0,
        0.829017009207192,
        0.0
      ],
      "name": "engineCores",
      "pbrMetallicRoughness": {
        "baseColorTexture": {
          "index": 0
        },
        "metallicFactor": 0.0,
        "roughnessFactor": 0.9577051495
      }
    },
    {
      "doubleSided": true,
      "emissiveFactor": [
        0.0,
        1.0,
        1.0
      ],
      "name": "engineGrooves",
      "pbrMetallicRoughness": {
        "baseColorTexture": {
          "index": 0
        },
        "metallicFactor": 0.0,
        "roughnessFactor": 0.9577051495
      }
    },
    {
      "doubleSided": true,
      "name": "engineCircles",
      "pbrMetallicRoughness": {
        "baseColorTexture": {
          "index": 0
        },
        "metallicFactor": 0.75,
        "roughnessFactor": 0.25
      }
    },
    {
      "doubleSided": true,
      "name": "engineCovers",
      "pbrMetallicRoughness": {
        "baseColorTexture": {
          "index": 0
        },
        "metallicFactor": 0.75,
        "roughnessFactor": 0.25
      }
    },
    {
      "doubleSided": true,
      "name": "lBottomWinglet",
      "pbrMetallicRoughness": {
        "baseColorTexture": {
          "index": 0
        },
        "metallicFactor": 0.75,
        "roughnessFactor": 0.25
      }
    },
    {
      "doubleSided": true,
      "name": "rBottomWinglet",
      "pbrMetallicRoughness": {
        "baseColorTexture": {
          "index": 0
        },
        "metallicFactor": 0.75,
        "roughnessFactor": 0.25
      }
    }
  ],
  "meshes": [
    {
      "name": "GotG Milano.Shape_airbrakeHinges_0",
      "primitives": [
        {
          "attributes": {
            "NORMAL": 1,
            "POSITION": 0,
            "TEXCOORD_0": 2
          },
          "indices": 3,
          "material": 0,
          "mode": 4
        }
      ]
    },
    {
      "name": "GotG Milano.Shape_airbrakesBack_0",
      "primitives": [
        {
          "attributes": {
            "NORMAL": 5,
            "POSITION": 4,
            "TEXCOORD_0": 6
          },
          "indices": 7,
          "material": 1,
          "mode": 4
        }
      ]
    },
    {
      "name": "GotG Milano.Shape_airbrakesFront_0",
      "primitives": [
        {
          "attributes": {
            "NORMAL": 9,
            "POSITION": 8,
            "TEXCOORD_0": 10
          },
          "indices": 11,
          "material": 2,
          "mode": 4
        }
      ]
    },
    {
      "name": "GotG Milano.Shape_mainBody_0",
      "primitives": [
        {
          "attributes": {
            "NORMAL": 13,
            "POSITION": 12,
            "TEXCOORD_0": 14
          },
          "indices": 15,
          "material": 3,
          "mode": 4
        }
      ]
    },
    {
      "name": "GotG Milano.Shape_underbellyVents_0",
      "primitives": [
        {
          "attributes": {
            "NORMAL": 17,
            "POSITION": 16,
            "TEXCOORD_0": 18
          },
          "indices": 19,
          "material": 4,
          "mode": 4
        }
      ]
    },
    {
      "name": "GotG Milano.Shape_frontBlasters_0",
      "primitives": [
        {
          "attributes": {
            "NORMAL": 21,
            "POSITION": 20,
            "TEXCOORD_0": 22
          },
          "indices": 23,
          "material": 5,
          "mode": 4
        }
      ]
    },
    {
      "name": "GotG Milano.Shape_shellBody_0",
      "primitives": [
        {
          "attributes": {
            "NORMAL": 25,
            "POSITION": 24,
            "TEXCOORD_0": 26
          },
          "indices": 27,
          "material": 6,
          "mode": 4
        }
      ]
    },
    {
      "name": "GotG Milano.Shape_cockpitGlass_0",
      "primitives": [
        {
          "attributes": {
            "NORMAL": 29,
            "POSITION": 28,
            "TEXCOORD_0": 30
          },
          "indices": 31,
          "material": 7,
          "mode": 4
        }
      ]
    },
    {
      "name": "GotG Milano.Shape_cockpitFrame_0",
      "primitives": [
        {
          "attributes": {
            "NORMAL": 33,
            "POSITION": 32,
            "TEXCOORD_0": 34
          },
          "indices": 35,
          "material": 8,
          "mode": 4
        }
      ]
    },
    {
      "name": "GotG Milano.Shape_wingButtons_0",
      "primitives": [
        {
          "attributes": {
            "NORMAL": 37,
            "POSITION": 36,
            "TEXCOORD_0": 38
          },
          "indices": 39,
          "material": 9,
          "mode": 4
        }
      ]
    },
    {
      "name": "GotG Milano.Shape_rearEngines1_0",
      "primitives": [
        {
          "attributes": {
            "NORMAL": 41,
            "POSITION": 40,
            "TEXCOORD_0": 42
          },
          "indices": 43,
          "material": 10,
          "mode": 4
        }
      ]
    },
    {
      "name": "GotG Milano.Shape_rearEngines2_0",
      "primitives": [
        {
          "attributes": {
            "NORMAL": 45,
            "POSITION": 44,
            "TEXCOORD_0": 46
          },
          "indices": 47,
          "material": 11,
          "mode": 4
        }
      ]
    },
    {
      "name": "GotG Milano.Shape_rearEngines3_0",
      "primitives": [
        {
          "attributes": {
            "NORMAL": 49,
            "POSITION": 48,
            "TEXCOORD_0": 50
          },
          "indices": 51,
          "material": 12,
          "mode": 4
        }
      ]
    },
    {
      "name": "GotG Milano.Shape_wingExhausts_0",
      "primitives": [
        {
          "attributes": {
            "NORMAL": 53,
            "POSITION": 52,
            "TEXCOORD_0": 54
          },
          "indices": 55,
          "material": 13,
          "mode": 4
        }
      ]
    },
    {
      "name": "GotG Milano.Shape_fuselage_0",
      "primitives": [
        {
          "attributes": {
            "NORMAL": 57,
            "POSITION": 56,
            "TEXCOORD_0": 58
          },
          "indices": 59,
          "material": 14,
          "mode": 4
        }
      ]
    },
    {
      "name": "GotG Milano.Shape_frontLightsFrame_0",
      "primitives": [
        {
          "attributes": {
            "NORMAL": 61,
            "POSITION": 60,
            "TEXCOORD_0": 62
          },
          "indices": 63,
          "material": 15,
          "mode": 4
        }
      ]
    },
    {
      "name": "GotG Milano.Shape_frontLightsGlass_0",
      "primitives": [
        {
          "attributes": {
            "NORMAL": 65,
            "POSITION": 64,
            "TEXCOORD_0": 66
          },
          "indices": 67,
          "material": 16,
          "mode": 4
        }
      ]
    },
    {
      "name": "GotG Milano.Shape_frontLights_0",
      "primitives": [
        {
          "attributes": {
            "NORMAL": 69,
            "POSITION": 68,
            "TEXCOORD_0": 70
          },
          "indices": 71,
          "material": 17,
          "mode": 4
        }
      ]
    },
    {
      "name": "GotG Milano.Shape_wingIntakes_0",
      "primitives": [
        {
          "attributes": {
            "NORMAL": 73,
            "POSITION": 72,
            "TEXCOORD_0": 74
          },
          "indices": 75,
          "material": 18,
          "mode": 4
        }
      ]
    },
    {
      "name": "GotG Milano.Shape_chinHatches_0",
      "primitives": [
        {
          "attributes": {
            "NORMAL": 77,
            "POSITION": 76,
            "TEXCOORD_0": 78
          },
          "indices": 79,
          "material": 19,
          "mode": 4
        }
      ]
    },
    {
      "name": "GotG Milano.Shape_chinIntakes_0",
      "primitives": [
        {
          "attributes": {
            "NORMAL": 81,
            "POSITION": 80,
            "TEXCOORD_0": 82
          },
          "indices": 83,
          "material": 20,
          "mode": 4
        }
      ]
    },
    {
      "name": "GotG Milano.Shape_lMiddleWinglet_0",
      "primitives": [
        {
          "attributes": {
            "NORMAL": 85,
            "POSITION": 84,
            "TEXCOORD_0": 86
          },
          "indices": 87,
          "material": 21,
          "mode": 4
        }
      ]
    },
    {
      "name": "GotG Milano.Shape_rearWingletGears_0",
      "primitives": [
        {
          "attributes": {
            "NORMAL": 89,
            "POSITION": 88,
            "TEXCOORD_0": 90
          },
          "indices": 91,
          "material": 22,
          "mode": 4
        }
      ]
    },
    {
      "name": "GotG Milano.Shape_rearWinglets_0",
      "primitives": [
        {
          "attributes": {
            "NORMAL": 93,
            "POSITION": 92,
            "TEXCOORD_0": 94
          },
          "indices": 95,
          "material": 23,
          "mode": 4
        }
      ]
    },
    {
      "name": "GotG Milano.Shape_topWingletGears_0",
      "primitives": [
        {
          "attributes": {
            "NORMAL": 97,
            "POSITION": 96,
            "TEXCOORD_0": 98
          },
          "indices": 99,
          "material": 24,
          "mode": 4
        }
      ]
    },
    {
      "name": "GotG Milano.Shape_topWinglets_0",
      "primitives": [
        {
          "attributes": {
            "NORMAL": 101,
            "POSITION": 100,
            "TEXCOORD_0": 102
          },
          "indices": 103,
          "material": 25,
          "mode": 4
        }
      ]
    },
    {
      "name": "GotG Milano.Shape_wingHinges_0",
      "primitives": [
        {
          "attributes": {
            "NORMAL": 105,
            "POSITION": 104,
            "TEXCOORD_0": 106
          },
          "indices": 107,
          "material": 26,
          "mode": 4
        }
      ]
    },
    {
      "name": "GotG Milano.Shape_hull_0",
      "primitives": [
        {
          "attributes": {
            "NORMAL": 109,
            "POSITION": 108,
            "TEXCOORD_0": 110
          },
          "indices": 111,
          "material": 27,
          "mode": 4
        }
      ]
    },
    {
      "name": "GotG Milano.Shape_rearBlasters_0",
      "primitives": [
        {
          "attributes": {
            "NORMAL": 113,
            "POSITION": 112,
            "TEXCOORD_0": 114
          },
          "indices": 115,
          "material": 28,
          "mode": 4
        }
      ]
    },
    {
      "name": "GotG Milano.Shape_rMiddleWinglet_0",
      "primitives": [
        {
          "attributes": {
            "NORMAL": 117,
            "POSITION": 116,
            "TEXCOORD_0": 118
          },
          "indices": 119,
          "material": 29,
          "mode": 4
        }
      ]
    },
    {
      "name": "GotG Milano.Shape_rudders_0",
      "primitives": [
        {
          "attributes": {
            "NORMAL": 121,
            "POSITION": 120,
            "TEXCOORD_0": 122
          },
          "indices": 123,
          "material": 30,
          "mode": 4
        }
      ]
    },
    {
      "name": "GotG Milano.Shape_sunroof_0",
      "primitives": [
        {
          "attributes": {
            "NORMAL": 125,
            "POSITION": 124,
            "TEXCOORD_0": 126
          },
          "indices": 127,
          "material": 31,
          "mode": 4
        }
      ]
    },
    {
      "name": "GotG Milano.Shape_tailfeathers_0",
      "primitives": [
        {
          "attributes": {
            "NORMAL": 129,
            "POSITION": 128,
            "TEXCOORD_0": 130
          },
          "indices": 131,
          "material": 32,
          "mode": 4
        }
      ]
    },
    {
      "name": "GotG Milano.Shape_aft_0",
      "primitives": [
        {
          "attributes": {
            "NORMAL": 133,
            "POSITION": 132,
            "TEXCOORD_0": 134
          },
          "indices": 135,
          "material": 33,
          "mode": 4
        }
      ]
    },
    {
      "name": "GotG Milano.Shape_aftRocket_0",
      "primitives": [
        {
          "attributes": {
            "NORMAL": 137,
            "POSITION": 136,
            "TEXCOORD_0": 138
          },
          "indices": 139,
          "material": 34,
          "mode": 4
        }
      ]
    },
    {
      "name": "GotG Milano.Shape_aftRocketExhaust_0",
      "primitives": [
        {
          "attributes": {
            "NORMAL": 141,
            "POSITION": 140,
            "TEXCOORD_0": 142
          },
          "indices": 143,
          "material": 35,
          "mode": 4
        }
      ]
    },
    {
      "name": "GotG Milano.Shape_aftBooster_0",
      "primitives": [
        {
          "attributes": {
            "NORMAL": 145,
            "POSITION": 144,
            "TEXCOORD_0": 146
          },
          "indices": 147,
          "material": 36,
          "mode": 4
        }
      ]
    },
    {
      "name": "GotG Milano.Shape_aftSideArmour_0",
      "primitives": [
        {
          "attributes": {
            "NORMAL": 149,
            "POSITION": 148,
            "TEXCOORD_0": 150
          },
          "indices": 151,
          "material": 37,
          "mode": 4
        }
      ]
    },
    {
      "name": "GotG Milano.Shape_aftTopArmour_0",
      "primitives": [
        {
          "attributes": {
            "NORMAL": 153,
            "POSITION": 152,
            "TEXCOORD_0": 154
          },
          "indices": 155,
          "material": 38,
          "mode": 4
        }
      ]
    },
    {
      "name": "GotG Milano.Shape_aftExhaust_0",
      "primitives": [
        {
          "attributes": {
            "NORMAL": 157,
            "POSITION": 156,
            "TEXCOORD_0": 158
          },
          "indices": 159,
          "material": 39,
          "mode": 4
        }
      ]
    },
    {
      "name": "GotG Milano.Shape_aftWindowFrame_0",
      "primitives": [
        {
          "attributes": {
            "NORMAL": 161,
            "POSITION": 160,
            "TEXCOORD_0": 162
          },
          "indices": 163,
          "material": 40,
          "mode": 4
        }
      ]
    },
    {
      "name": "GotG Milano.Shape_aftWindowGlass_0",
      "primitives": [
        {
          "attributes": {
            "NORMAL": 165,
            "POSITION": 164,
            "TEXCOORD_0": 166
          },
          "indices": 167,
          "material": 41,
          "mode": 4
        }
      ]
    },
    {
      "name": "GotG Milano.Shape_middleWinglets_0",
      "primitives": [
        {
          "attributes": {
            "NORMAL": 169,
            "POSITION": 168,
            "TEXCOORD_0": 170
          },
          "indices": 171,
          "material": 42,
          "mode": 4
        }
      ]
    },
    {
      "name": "GotG Milano.Shape_wingLightsFrame_0",
      "primitives": [
        {
          "attributes": {
            "NORMAL": 173,
            "POSITION": 172,
            "TEXCOORD_0": 174
          },
          "indices": 175,
          "material": 43,
          "mode": 4
        }
      ]
    },
    {
      "name": "GotG Milano.Shape_wingLights_0",
      "primitives": [
        {
          "attributes": {
            "NORMAL": 177,
            "POSITION": 176,
            "TEXCOORD_0": 178
          },
          "indices": 179,
          "material": 44,
          "mode": 4
        }
      ]
    },
    {
      "name": "GotG Milano.Shape_boosters_0",
      "primitives": [
        {
          "attributes": {
            "NORMAL": 181,
            "POSITION": 180,
            "TEXCOORD_0": 182
          },
          "indices": 183,
          "material": 45,
          "mode": 4
        }
      ]
    },
    {
      "name": "GotG Milano.Shape_boostersTrim_0",
      "primitives": [
        {
          "attributes": {
            "NORMAL": 185,
            "POSITION": 184,
            "TEXCOORD_0": 186
          },
          "indices": 187,
          "material": 46,
          "mode": 4
        }
      ]
    },
    {
      "name": "GotG Milano.Shape_engineDiscs_0",
      "primitives": [
        {
          "attributes": {
            "NORMAL": 189,
            "POSITION": 188,
            "TEXCOORD_0": 190
          },
          "indices": 191,
          "material": 47,
          "mode": 4
        }
      ]
    },
    {
      "name": "GotG Milano.Shape_engineCores_0",
      "primitives": [
        {
          "attributes": {
            "NORMAL": 193,
            "POSITION": 192,
            "TEXCOORD_0": 194
          },
          "indices": 195,
          "material": 48,
          "mode": 4
        }
      ]
    },
    {
      "name": "GotG Milano.Shape_engineGrooves_0",
      "primitives": [
        {
          "attributes": {
            "NORMAL": 197,
            "POSITION": 196,
            "TEXCOORD_0": 198
          },
          "indices": 199,
          "material": 49,
          "mode": 4
        }
      ]
    },
    {
      "name": "GotG Milano.Shape_engineCircles_0",
      "primitives": [
        {
          "attributes": {
            "NORMAL": 201,
            "POSITION": 200,
            "TEXCOORD_0": 202
          },
          "indices": 203,
          "material": 50,
          "mode": 4
        }
      ]
    },
    {
      "name": "GotG Milano.Shape_engineCovers_0",
      "primitives": [
        {
          "attributes": {
            "NORMAL": 205,
            "POSITION": 204,
            "TEXCOORD_0": 206
          },
          "indices": 207,
          "material": 51,
          "mode": 4
        }
      ]
    },
    {
      "name": "GotG Milano.Shape_lBottomWinglet_0",
      "primitives": [
        {
          "attributes": {
            "NORMAL": 209,
            "POSITION": 208,
            "TEXCOORD_0": 210
          },
          "indices": 211,
          "material": 52,
          "mode": 4
        }
      ]
    },
    {
      "name": "GotG Milano.Shape_rBottomWinglet_0",
      "primitives": [
        {
          "attributes": {
            "NORMAL": 213,
            "POSITION": 212,
            "TEXCOORD_0": 214
          },
          "indices": 215,
          "material": 53,
          "mode": 4
        }
      ]
    }
  ],
  "nodes": [
    {
      "children": [
        1
      ],
      "matrix": [
        1.0,
        0.0,
        0.0,
        0.0,
        0.0,
        2.220446049250313e-16,
        -1.0,
        0.0,
        0.0,
        1.0,
        2.220446049250313e-16,
        0.0,
        0.0,
        0.0,
        0.0,
        1.0
      ],
      "name": "Sketchfab_model"
    },
    {
      "children": [
        2
      ],
      "matrix": [
        1.0,
        0.0,
        0.0,
        0.0,
        0.0,
        0.0,
        1.0,
        0.0,
        0.0,
        -1.0,
        0.0,
        0.0,
        0.0,
        0.0,
        0.0,
        1.0
      ],
      "name": "9c9c4119b1624afea5d29cc070f7c7c1.fbx"
    },
    {
      "children": [
        3
      ],
      "name": "RootNode"
    },
    {
      "children": [
        4
      ],
      "name": "GotG Milano"
    },
    {
      "children": [
        5,
        6,
        7,
        8,
        9,
        10,
        11,
        12,
        13,
        14,
        15,
        16,
        17,
        18,
        19,
        20,
        21,
        22,
        23,
        24,
        25,
        26,
        27,
        28,
        29,
        30,
        31,
        32,
        33,
        34,
        35,
        36,
        37,
        38,
        39,
        40,
        41,
        42,
        43,
        44,
        45,
        46,
        47,
        48,
        49,
        50,
        51,
        52,
        53,
        54,
        55,
        56,
        57,
        58
      ],
      "name": "GotG Milano.Shape"
    },
    {
      "mesh": 0,
      "name": "GotG Milano.Shape_airbrakeHinges_0"
    },
    {
      "mesh": 1,
      "name": "GotG Milano.Shape_airbrakesBack_0"
    },
    {
      "mesh": 2,
      "name": "GotG Milano.Shape_airbrakesFront_0"
    },
    {
      "mesh": 3,
      "name": "GotG Milano.Shape_mainBody_0"
    },
    {
      "mesh": 4,
      "name": "GotG Milano.Shape_underbellyVents_0"
    },
    {
      "mesh": 5,
      "name": "GotG Milano.Shape_frontBlasters_0"
    },
    {
      "mesh": 6,
      "name": "GotG Milano.Shape_shellBody_0"
    },
    {
      "mesh": 7,
      "name": "GotG Milano.Shape_cockpitGlass_0"
    },
    {
      "mesh": 8,
      "name": "GotG Milano.Shape_cockpitFrame_0"
    },
    {
      "mesh": 9,
      "name": "GotG Milano.Shape_wingButtons_0"
    },
    {
      "mesh": 10,
      "name": "GotG Milano.Shape_rearEngines1_0"
    },
    {
      "mesh": 11,
      "name": "GotG Milano.Shape_rearEngines2_0"
    },
    {
      "mesh": 12,
      "name": "GotG Milano.Shape_rearEngines3_0"
    },
    {
      "mesh": 13,
      "name": "GotG Milano.Shape_wingExhausts_0"
    },
    {
      "mesh": 14,
      "name": "GotG Milano.Shape_fuselage_0"
    },
    {
      "mesh": 15,
      "name": "GotG Milano.Shape_frontLightsFrame_0"
    },
    {
      "mesh": 16,
      "name": "GotG Milano.Shape_frontLightsGlass_0"
    },
    {
      "mesh": 17,
      "name": "GotG Milano.Shape_frontLights_0"
    },
    {
      "mesh": 18,
      "name": "GotG Milano.Shape_wingIntakes_0"
    },
    {
      "mesh": 19,
      "name": "GotG Milano.Shape_chinHatches_0"
    },
    {
      "mesh": 20,
      "name": "GotG Milano.Shape_chinIntakes_0"
    },
    {
      "mesh": 21,
      "name": "GotG Milano.Shape_lMiddleWinglet_0"
    },
    {
      "mesh": 22,
      "name": "GotG Milano.Shape_rearWingletGears_0"
    },
    {
      "mesh": 23,
      "name": "GotG Milano.Shape_rearWinglets_0"
    },
    {
      "mesh": 24,
      "name": "GotG Milano.Shape_topWingletGears_0"
    },
    {
      "mesh": 25,
      "name": "GotG Milano.Shape_topWinglets_0"
    },
    {
      "mesh": 26,
      "name": "GotG Milano.Shape_wingHinges_0"
    },
    {
      "mesh": 27,
      "name": "GotG Milano.Shape_hull_0"
    },
    {
      "mesh": 28,
      "name": "GotG Milano.Shape_rearBlasters_0"
    },
    {
      "mesh": 29,
      "name": "GotG Milano.Shape_rMiddleWinglet_0"
    },
    {
      "mesh": 30,
      "name": "GotG Milano.Shape_rudders_0"
    },
    {
      "mesh": 31,
      "name": "GotG Milano.Shape_sunroof_0"
    },
    {
      "mesh": 32,
      "name": "GotG Milano.Shape_tailfeathers_0"
    },
    {
      "mesh": 33,
      "name": "GotG Milano.Shape_aft_0"
    },
    {
      "mesh": 34,
      "name": "GotG Milano.Shape_aftRocket_0"
    },
    {
      "mesh": 35,
      "name": "GotG Milano.Shape_aftRocketExhaust_0"
    },
    {
      "mesh": 36,
      "name": "GotG Milano.Shape_aftBooster_0"
    },
    {
      "mesh": 37,
      "name": "GotG Milano.Shape_aftSideArmour_0"
    },
    {
      "mesh": 38,
      "name": "GotG Milano.Shape_aftTopArmour_0"
    },
    {
      "mesh": 39,
      "name": "GotG Milano.Shape_aftExhaust_0"
    },
    {
      "mesh": 40,
      "name": "GotG Milano.Shape_aftWindowFrame_0"
    },
    {
      "mesh": 41,
      "name": "GotG Milano.Shape_aftWindowGlass_0"
    },
    {
      "mesh": 42,
      "name": "GotG Milano.Shape_middleWinglets_0"
    },
    {
      "mesh": 43,
      "name": "GotG Milano.Shape_wingLightsFrame_0"
    },
    {
      "mesh": 44,
      "name": "GotG Milano.Shape_wingLights_0"
    },
    {
      "mesh": 45,
      "name": "GotG Milano.Shape_boosters_0"
    },
    {
      "mesh": 46,
      "name": "GotG Milano.Shape_boostersTrim_0"
    },
    {
      "mesh": 47,
      "name": "GotG Milano.Shape_engineDiscs_0"
    },
    {
      "mesh": 48,
      "name": "GotG Milano.Shape_engineCores_0"
    },
    {
      "mesh": 49,
      "name": "GotG Milano.Shape_engineGrooves_0"
    },
    {
      "mesh": 50,
      "name": "GotG Milano.Shape_engineCircles_0"
    },
    {
      "mesh": 51,
      "name": "GotG Milano.Shape_engineCovers_0"
    },
    {
      "mesh": 52,
      "name": "GotG Milano.Shape_lBottomWinglet_0"
    },
    {
      "mesh": 53,
      "name": "GotG Milano.Shape_rBottomWinglet_0"
    }
  ],
  "samplers": [
    {
      "magFilter": 9729,
      "minFilter": 9987,
      "wrapS": 10497,
      "wrapT": 10497
    }
  ],
  "scene": 0,
  "scenes": [
    {
      "name": "Sketchfab_Scene",
      "nodes": [
        0
      ]
    }
  ],
  "textures": [
    {
      "sampler": 0,
      "source": 0
    },
    {
      "sampler": 0,
      "source": 1
    }
  ]
}
