{
  "accessors": [
    {
      "bufferView": 2,
      "componentType": 5126,
      "count": 2151,
      "max": [
        15.471123695373535,
        15.64486312866211,
        5.094723224639893
      ],
      "min": [
        -15.471123695373535,
        -15.244864463806152,
        -5.219051837921143
      ],
      "type": "VEC3"
    },
    {
      "bufferView": 2,
      "byteOffset": 25812,
      "componentType": 5126,
      "count": 2151,
      "max": [
        0.9999982118606567,
        0.9999955296516418,
        1.0
      ],
      "min": [
        -0.9999982118606567,
        -0.9999563694000244,
        -1.0
      ],
      "type": "VEC3"
    },
    {
      "bufferView": 1,
      "componentType": 5126,
      "count": 2151,
      "max": [
        0.998947024345398,
        0.9973769783973694
      ],
      "min": [
        0.0006900000153109431,
        0.0029380000196397305
      ],
      "type": "VEC2"
    },
    {
      "bufferView": 0,
      "componentType": 5125,
      "count": 5169,
      "type": "SCALAR"
    }
  ],
  "asset": {
    "extras": {
      "author": "alx_flameniro (https://sketchfab.com/alx_flameniro)",
      "license": "CC-BY-4.0 (http://creativecommons.org/licenses/by/4.0/)",
      "source": "https://sketchfab.com/3d-models/bg-124-201-00-tackle-veil-900b5181d6ad4f55926f796902a4d2ee",
      "title": "BG 124-201-00 Tackle Veil"
    },
    "generator": "Sketchfab-16.2.0",
    "version": "2.0"
  },
  "bufferViews": [
    {
      "buffer": 0,
      "byteLength": 20676,
      "name": "floatBufferViews",
      "target": 34963
    },
    {
      "buffer": 0,
      "byteLength": 17208,
      "byteOffset": 20676,
      "byteStride": 8,
      "name": "floatBufferViews",
      "target": 34962
    },
    {
      "buffer": 0,
      "byteLength": 51624,
      "byteOffset": 37884,
      "byteStride": 12,
      "name": "floatBufferViews",
      "target": 34962
    }
  ],
  "buffers": [
    {
      "byteLength": 89508,
      "uri": "scene.bin"
    }
  ],
  "images": [
    {
      "uri": "textures/MatD3D01_baseColor.jpg"
    }
  ],
  "materials": [
    {
      "doubleSided": true,
      "name": "MatD3D01",
      "pbrMetallicRoughness": {
        "baseColorTexture": {
          "index": 0
        },
        "metallicFactor": 0.0,
        "roughnessFactor": 0.6
      }
    }
  ],
  "meshes": [
    {
      "name": "Object_0",
      "primitives": [
        {
          "attributes": {
            "NORMAL": 1,
            "POSITION": 0,
            "TEXCOORD_0": 2
          },
          "indices": 3,
          "material": 0,
          "mode": 4
        }
      ]
    }
  ],
  "nodes": [
    {
      "children": [
        1
      ],
      "matrix": [
        1.0,
        0.0,
        0.0,
        0.0,
        0.0,
        2.220446049250313e-16,
        -1.0,
        0.0,
        0.0,
        1.0,
        2.220446049250313e-16,
        0.0,
        0.0,
        0.0,
        0.0,
        1.0
      ],
      "name": "Sketchfab_model"
    },
    {
      "children": [
        2
      ],
      "name": "12420100.obj.cleaner.gles"
    },
    {
      "mesh": 0,
      "name": "Object_2"
    }
  ],
  "samplers": [
    {
      "magFilter": 9729,
      "minFilter": 9987,
      "wrapS": 10497,
      "wrapT": 10497
    }
  ],
  "scene": 0,
  "scenes": [
    {
      "name": "Sketchfab_Scene",
      "nodes": [
        0
      ]
    }
  ],
  "textures": [
    {
      "sampler": 0,
      "source": 0
    }
  ]
}
