{
  "accessors": [
    {
      "bufferView": 2,
      "componentType": 5126,
      "count": 165,
      "max": [
        0.374644011259079,
        0.3208029866218567,
        0.7418649792671204
      ],
      "min": [
        -0.374644011259079,
        -0.3208029866218567,
        -0.7418649792671204
      ],
      "type": "VEC3"
    },
    {
      "bufferView": 2,
      "byteOffset": 1980,
      "componentType": 5126,
      "count": 165,
      "max": [
        0.9985292553901672,
        0.9998826384544373,
        0.874725878238678
      ],
      "min": [
        -0.9985292553901672,
        -0.996740460395813,
        -1.0
      ],
      "type": "VEC3"
    },
    {
      "bufferView": 3,
      "componentType": 5126,
      "count": 165,
      "max": [
        -0.05384207144379616,
        0.9972171783447266,
        0.5212492346763611,
        1.0
      ],
      "min": [
        -0.9999992251396179,
        -0.9984558820724487,
        -0.5080860257148743,
        1.0
      ],
      "type": "VEC4"
    },
    {
      "bufferView": 1,
      "componentType": 5126,
      "count": 165,
      "max": [
        0.9994540214538574,
        0.9994999766349792
      ],
      "min": [
        0.009555820375680923,
        0.0005000000237487257
      ],
      "type": "VEC2"
    },
    {
      "bufferView": 0,
      "componentType": 5125,
      "count": 696,
      "type": "SCALAR"
    },
    {
      "bufferView": 2,
      "byteOffset": 3960,
      "componentType": 5126,
      "count": 486,
      "max": [
        0.5449010133743286,
        0.11327899992465973,
        0.5616210103034973
      ],
      "min": [
        -0.5449010133743286,
        -0.21035100519657135,
        -0.03806750103831291
      ],
      "type": "VEC3"
    },
    {
      "bufferView": 2,
      "byteOffset": 9792,
      "componentType": 5126,
      "count": 486,
      "max": [
        0.9988963603973389,
        0.9994682669639587,
        0.9996225237846375
      ],
      "min": [
        -0.9988963603973389,
        -0.9994682669639587,
        -0.9999350905418396
      ],
      "type": "VEC3"
    },
    {
      "bufferView": 3,
      "byteOffset": 2640,
      "componentType": 5126,
      "count": 486,
      "max": [
        0.9996225833892822,
        0.8319550156593323,
        0.9988963603973389,
        1.0
      ],
      "min": [
        -0.9999351501464844,
        -0.8614826202392578,
        -0.9988964200019836,
        1.0
      ],
      "type": "VEC4"
    },
    {
      "bufferView": 1,
      "byteOffset": 1320,
      "componentType": 5126,
      "count": 486,
      "max": [
        0.9993680119514465,
        0.9989299774169922
      ],
      "min": [
        0.0003678800130728632,
        0.0005000000237487257
      ],
      "type": "VEC2"
    },
    {
      "bufferView": 0,
      "byteOffset": 2784,
      "componentType": 5125,
      "count": 1416,
      "type": "SCALAR"
    },
    {
      "bufferView": 2,
      "byteOffset": 15624,
      "componentType": 5126,
      "count": 180,
      "max": [
        1.0,
        0.008227230049669743,
        0.4721669852733612
      ],
      "min": [
        -1.0,
        -0.11520399898290634,
        -0.23651300370693207
      ],
      "type": "VEC3"
    },
    {
      "bufferView": 2,
      "byteOffset": 17784,
      "componentType": 5126,
      "count": 180,
      "max": [
        0.9826186299324036,
        0.9966105818748474,
        0.994779646396637
      ],
      "min": [
        -0.9826186299324036,
        -0.9965681433677673,
        -0.9953593611717224
      ],
      "type": "VEC3"
    },
    {
      "bufferView": 3,
      "byteOffset": 10416,
      "componentType": 5126,
      "count": 180,
      "max": [
        0.06311743706464767,
        0.9606685042381287,
        0.9376811981201172,
        1.0
      ],
      "min": [
        -0.999315083026886,
        -0.987797200679779,
        -0.937597930431366,
        1.0
      ],
      "type": "VEC4"
    },
    {
      "bufferView": 1,
      "byteOffset": 5208,
      "componentType": 5126,
      "count": 180,
      "max": [
        0.9945909976959229,
        0.9994999766349792
      ],
      "min": [
        0.004867080133408308,
        0.0005000000237487257
      ],
      "type": "VEC2"
    },
    {
      "bufferView": 0,
      "byteOffset": 8448,
      "componentType": 5125,
      "count": 816,
      "type": "SCALAR"
    },
    {
      "bufferView": 2,
      "byteOffset": 19944,
      "componentType": 5126,
      "count": 63,
      "max": [
        0.1620129942893982,
        0.24115900695323944,
        0.27081099152565
      ],
      "min": [
        -0.1620129942893982,
        0.13606800138950348,
        -0.11538500338792801
      ],
      "type": "VEC3"
    },
    {
      "bufferView": 2,
      "byteOffset": 20700,
      "componentType": 5126,
      "count": 63,
      "max": [
        0.9321602582931519,
        0.9999908804893494,
        0.0906369537115097
      ],
      "min": [
        -0.9321602582931519,
        -0.07882287353277206,
        -0.9968886375427246
      ],
      "type": "VEC3"
    },
    {
      "bufferView": 3,
      "byteOffset": 13296,
      "componentType": 5126,
      "count": 63,
      "max": [
        -0.36199474334716797,
        0.7608730792999268,
        0.93045973777771,
        1.0
      ],
      "min": [
        -0.9999942183494568,
        -0.7555724382400513,
        -0.9305063486099243,
        1.0
      ],
      "type": "VEC4"
    },
    {
      "bufferView": 1,
      "byteOffset": 6648,
      "componentType": 5126,
      "count": 63,
      "max": [
        0.8111010193824768,
        0.9994999766349792
      ],
      "min": [
        0.10041999816894531,
        0.0005000000237487257
      ],
      "type": "VEC2"
    },
    {
      "bufferView": 0,
      "byteOffset": 11712,
      "componentType": 5125,
      "count": 156,
      "type": "SCALAR"
    },
    {
      "bufferView": 2,
      "byteOffset": 21456,
      "componentType": 5126,
      "count": 330,
      "max": [
        0.2857930064201355,
        0.2914870083332062,
        0.7418649792671204
      ],
      "min": [
        -0.2857930064201355,
        -0.29687100648880005,
        0.24557200074195862
      ],
      "type": "VEC3"
    },
    {
      "bufferView": 2,
      "byteOffset": 25416,
      "componentType": 5126,
      "count": 330,
      "max": [
        0.9999983310699463,
        0.7410857677459717,
        0.9999942183494568
      ],
      "min": [
        -0.9999983310699463,
        -0.9785206317901611,
        -0.47999176383018494
      ],
      "type": "VEC3"
    },
    {
      "bufferView": 3,
      "byteOffset": 14304,
      "componentType": 5126,
      "count": 330,
      "max": [
        0.9999970197677612,
        0.7159167528152466,
        0.9999990463256836,
        1.0
      ],
      "min": [
        -0.5377428531646729,
        -0.8571856021881104,
        -0.9999672174453735,
        1.0
      ],
      "type": "VEC4"
    },
    {
      "bufferView": 1,
      "byteOffset": 7152,
      "componentType": 5126,
      "count": 330,
      "max": [
        0.9994999766349792,
        0.9985430240631104
      ],
      "min": [
        0.0005000000237487257,
        0.0005000000237487257
      ],
      "type": "VEC2"
    },
    {
      "bufferView": 0,
      "byteOffset": 12336,
      "componentType": 5125,
      "count": 684,
      "type": "SCALAR"
    }
  ],
  "asset": {
    "extras": {
      "author": "Ian Diaz (https://sketchfab.com/Dyckzu)",
      "license": "CC-BY-4.0 (http://creativecommons.org/licenses/by/4.0/)",
      "source": "https://sketchfab.com/3d-models/spaceship-c265d7e7bb1c476eade0226afad1a1f0",
      "title": "SpaceShip"
    },
    "generator": "Sketchfab-12.65.0",
    "version": "2.0"
  },
  "bufferViews": [
    {
      "buffer": 0,
      "byteLength": 15072,
      "name": "floatBufferViews",
      "target": 34963
    },
    {
      "buffer": 0,
      "byteLength": 9792,
      "byteOffset": 15072,
      "byteStride": 8,
      "name": "floatBufferViews",
      "target": 34962
    },
    {
      "buffer": 0,
      "byteLength": 29376,
      "byteOffset": 24864,
      "byteStride": 12,
      "name": "floatBufferViews",
      "target": 34962
    },
    {
      "buffer": 0,
      "byteLength": 19584,
      "byteOffset": 54240,
      "byteStride": 16,
      "name": "floatBufferViews",
      "target": 34962
    }
  ],
  "buffers": [
    {
      "byteLength": 73824,
      "uri": "scene.bin"
    }
  ],
  "images": [
    {
      "uri": "textures/1004_baseColor.jpg"
    },
    {
      "uri": "textures/1004_metallicRoughness.png"
    },
    {
      "uri": "textures/1004_emissive.jpg"
    },
    {
      "uri": "textures/1004_normal.png"
    },
    {
      "uri": "textures/1003_baseColor.jpg"
    },
    {
      "uri": "textures/1003_metallicRoughness.png"
    },
    {
      "uri": "textures/1003_emissive.jpg"
    },
    {
      "uri": "textures/1003_normal.png"
    },
    {
      "uri": "textures/1002_baseColor.jpg"
    },
    {
      "uri": "textures/1002_metallicRoughness.png"
    },
    {
      "uri": "textures/1002_emissive.jpg"
    },
    {
      "uri": "textures/1002_normal.png"
    },
    {
      "uri": "textures/1005_baseColor.jpg"
    },
    {
      "uri": "textures/1005_metallicRoughness.png"
    },
    {
      "uri": "textures/1005_normal.png"
    },
    {
      "uri": "textures/1001_baseColor.png"
    },
    {
      "uri": "textures/1001_metallicRoughness.png"
    },
    {
      "uri": "textures/1001_emissive.jpg"
    },
    {
      "uri": "textures/1001_normal.png"
    }
  ],
  "materials": [
    {
      "doubleSided": true,
      "emissiveFactor": [
        1.0,
        1.0,
        1.0
      ],
      "emissiveTexture": {
        "index": 2
      },
      "name": "1004",
      "normalTexture": {
        "index": 3
      },
      "occlusionTexture": {
        "index": 1
      },
      "pbrMetallicRoughness": {
        "baseColorTexture": {
          "index": 0
        },
        "metallicRoughnessTexture": {
          "index": 1
        }
      }
    },
    {
      "doubleSided": true,
      "emissiveFactor": [
        1.0,
        1.0,
        1.0
      ],
      "emissiveTexture": {
        "index": 6
      },
      "name": "1003",
      "normalTexture": {
        "index": 7
      },
      "occlusionTexture": {
        "index": 5
      },
      "pbrMetallicRoughness": {
        "baseColorTexture": {
          "index": 4
        },
        "metallicRoughnessTexture": {
          "index": 5
        }
      }
    },
    {
      "doubleSided": true,
      "emissiveFactor": [
        1.0,
        1.0,
        1.0
      ],
      "emissiveTexture": {
        "index": 10
      },
      "name": "1002",
      "normalTexture": {
        "index": 11
      },
      "occlusionTexture": {
        "index": 9
      },
      "pbrMetallicRoughness": {
        "baseColorTexture": {
          "index": 8
        },
        "metallicRoughnessTexture": {
          "index": 9
        }
      }
    },
    {
      "doubleSided": true,
      "name": "1005",
      "normalTexture": {
        "index": 14
      },
      "occlusionTexture": {
        "index": 13
      },
      "pbrMetallicRoughness": {
        "baseColorTexture": {
          "index": 12
        },
        "metallicFactor": 0.6236661585365854,
        "metallicRoughnessTexture": {
          "index": 13
        },
        "roughnessFactor": 0.5383003048780488
      }
    },
    {
      "alphaMode": "BLEND",
      "doubleSided": true,
      "emissiveFactor": [
        0.9927591463414633,
        0.9927591463414633,
        0.9927591463414633
      ],
      "emissiveTexture": {
        "index": 17
      },
      "name": "1001",
      "normalTexture": {
        "index": 18
      },
      "occlusionTexture": {
        "index": 16
      },
      "pbrMetallicRoughness": {
        "baseColorTexture": {
          "index": 15
        },
        "metallicRoughnessTexture": {
          "index": 16
        }
      }
    }
  ],
  "meshes": [
    {
      "name": "defaultMaterial",
      "primitives": [
        {
          "attributes": {
            "NORMAL": 1,
            "POSITION": 0,
            "TANGENT": 2,
            "TEXCOORD_0": 3
          },
          "indices": 4,
          "material": 0,
          "mode": 4
        }
      ]
    },
    {
      "name": "defaultMaterial",
      "primitives": [
        {
          "attributes": {
            "NORMAL": 6,
            "POSITION": 5,
            "TANGENT": 7,
            "TEXCOORD_0": 8
          },
          "indices": 9,
          "material": 1,
          "mode": 4
        }
      ]
    },
    {
      "name": "defaultMaterial",
      "primitives": [
        {
          "attributes": {
            "NORMAL": 11,
            "POSITION": 10,
            "TANGENT": 12,
            "TEXCOORD_0": 13
          },
          "indices": 14,
          "material": 2,
          "mode": 4
        }
      ]
    },
    {
      "name": "defaultMaterial",
      "primitives": [
        {
          "attributes": {
            "NORMAL": 16,
            "POSITION": 15,
            "TANGENT": 17,
            "TEXCOORD_0": 18
          },
          "indices": 19,
          "material": 3,
          "mode": 4
        }
      ]
    },
    {
      "name": "defaultMaterial",
      "primitives": [
        {
          "attributes": {
            "NORMAL": 21,
            "POSITION": 20,
            "TANGENT": 22,
            "TEXCOORD_0": 23
          },
          "indices": 24,
          "material": 4,
          "mode": 4
        }
      ]
    }
  ],
  "nodes": [
    {
      "children": [
        1
      ],
      "matrix": [
        1.0,
        0.0,
        0.0,
        0.0,
        0.0,
        2.220446049250313e-16,
        -1.0,
        0.0,
        0.0,
        1.0,
        2.220446049250313e-16,
        0.0,
        0.0,
        0.0,
        0.0,
        1.0
      ],
      "name": "Sketchfab_model"
    },
    {
      "children": [
        2
      ],
      "matrix": [
        1.0,
        0.0,
        0.0,
        0.0,
        0.0,
        -4.371139006309477e-08,
        0.999999999999999,
        0.0,
        0.0,
        -0.999999999999999,
        -4.371139006309477e-08,
        0.0,
        0.0,
        0.0,
        0.0,
        1.0
      ],
      "name": "Collada visual scene group"
    },
    {
      "children": [
        3,
        4,
        5,
        6,
        7
      ],
      "name": "Box001"
    },
    {
      "mesh": 0,
      "name": "defaultMaterial"
    },
    {
      "mesh": 1,
      "name": "defaultMaterial"
    },
    {
      "mesh": 2,
      "name": "defaultMaterial"
    },
    {
      "mesh": 3,
      "name": "defaultMaterial"
    },
    {
      "mesh": 4,
      "name": "defaultMaterial"
    }
  ],
  "samplers": [
    {
      "magFilter": 9729,
      "minFilter": 9987,
      "wrapS": 10497,
      "wrapT": 10497
    }
  ],
  "scene": 0,
  "scenes": [
    {
      "name": "Sketchfab_Scene",
      "nodes": [
        0
      ]
    }
  ],
  "textures": [
    {
      "sampler": 0,
      "source": 0
    },
    {
      "sampler": 0,
      "source": 1
    },
    {
      "sampler": 0,
      "source": 2
    },
    {
      "sampler": 0,
      "source": 3
    },
    {
      "sampler": 0,
      "source": 4
    },
    {
      "sampler": 0,
      "source": 5
    },
    {
      "sampler": 0,
      "source": 6
    },
    {
      "sampler": 0,
      "source": 7
    },
    {
      "sampler": 0,
      "source": 8
    },
    {
      "sampler": 0,
      "source": 9
    },
    {
      "sampler": 0,
      "source": 10
    },
    {
      "sampler": 0,
      "source": 11
    },
    {
      "sampler": 0,
      "source": 12
    },
    {
      "sampler": 0,
      "source": 13
    },
    {
      "sampler": 0,
      "source": 14
    },
    {
      "sampler": 0,
      "source": 15
    },
    {
      "sampler": 0,
      "source": 16
    },
    {
      "sampler": 0,
      "source": 17
    },
    {
      "sampler": 0,
      "source": 18
    }
  ]
}
