{
  "accessors": [
    {
      "bufferView": 2,
      "componentType": 5126,
      "count": 4192,
      "max": [
        789.0670166015625,
        707.5869750976563,
        1146.050048828125
      ],
      "min": [
        -1400.97998046875,
        110.1969985961914,
        951.551025390625
      ],
      "type": "VEC3"
    },
    {
      "bufferView": 2,
      "byteOffset": 50304,
      "componentType": 5126,
      "count": 4192,
      "max": [
        1.0,
        1.0,
        1.0
      ],
      "min": [
        -1.0,
        -1.0,
        -1.0
      ],
      "type": "VEC3"
    },
    {
      "bufferView": 3,
      "componentType": 5126,
      "count": 4192,
      "max": [
        1.0,
        1.0,
        1.0,
        1.0
      ],
      "min": [
        -1.0,
        -1.0,
        -1.0,
        -1.0
      ],
      "type": "VEC4"
    },
    {
      "bufferView": 1,
      "componentType": 5126,
      "count": 4192,
      "max": [
        0.9848480224609375,
        0.9907680153846741
      ],
      "min": [
        0.0005000000237487257,
        0.005153289996087551
      ],
      "type": "VEC2"
    },
    {
      "bufferView": 0,
      "componentType": 5125,
      "count": 17142,
      "type": "SCALAR"
    },
    {
      "bufferView": 2,
      "byteOffset": 100608,
      "componentType": 5126,
      "count": 3465,
      "max": [
        789.0670166015625,
        -106.83200073242188,
        1146.050048828125
      ],
      "min": [
        -1400.97998046875,
        -704.2230224609375,
        951.551025390625
      ],
      "type": "VEC3"
    },
    {
      "bufferView": 2,
      "byteOffset": 142188,
      "componentType": 5126,
      "count": 3465,
      "max": [
        1.0,
        1.0,
        1.0
      ],
      "min": [
        -1.0,
        -1.0,
        -1.0
      ],
      "type": "VEC3"
    },
    {
      "bufferView": 3,
      "byteOffset": 67072,
      "componentType": 5126,
      "count": 3465,
      "max": [
        1.0,
        1.0,
        1.0,
        1.0
      ],
      "min": [
        -1.0,
        -1.0,
        -1.0,
        -1.0
      ],
      "type": "VEC4"
    },
    {
      "bufferView": 1,
      "byteOffset": 33536,
      "componentType": 5126,
      "count": 3465,
      "max": [
        0.9994999766349792,
        0.9860190153121948
      ],
      "min": [
        0.0005000000237487257,
        0.0005000000237487257
      ],
      "type": "VEC2"
    },
    {
      "bufferView": 0,
      "byteOffset": 68568,
      "componentType": 5125,
      "count": 13488,
      "type": "SCALAR"
    },
    {
      "bufferView": 2,
      "byteOffset": 183768,
      "componentType": 5126,
      "count": 522,
      "max": [
        751.81298828125,
        -408.3420104980469,
        1131.4300537109375
      ],
      "min": [
        708.3410034179688,
        -447.4800109863281,
        1101.300048828125
      ],
      "type": "VEC3"
    },
    {
      "bufferView": 2,
      "byteOffset": 190032,
      "componentType": 5126,
      "count": 522,
      "max": [
        0.9871931076049805,
        0.7742306590080261,
        0.8114091753959656
      ],
      "min": [
        -0.9431661367416382,
        -0.885629415512085,
        -0.8123210072517395
      ],
      "type": "VEC3"
    },
    {
      "bufferView": 3,
      "byteOffset": 122512,
      "componentType": 5126,
      "count": 522,
      "max": [
        0.9762108325958252,
        0.8341303467750549,
        0.9314108490943909,
        1.0
      ],
      "min": [
        -0.9699784517288208,
        -0.8341352939605713,
        -0.933925449848175,
        -1.0
      ],
      "type": "VEC4"
    },
    {
      "bufferView": 1,
      "byteOffset": 61256,
      "componentType": 5126,
      "count": 522,
      "max": [
        1.9839400053024292,
        0.9145259857177734
      ],
      "min": [
        1.000499963760376,
        0.042379699647426605
      ],
      "type": "VEC2"
    },
    {
      "bufferView": 0,
      "byteOffset": 122520,
      "componentType": 5125,
      "count": 1998,
      "type": "SCALAR"
    },
    {
      "bufferView": 2,
      "byteOffset": 196296,
      "componentType": 5126,
      "count": 1243,
      "max": [
        217.5189971923828,
        -499.1719970703125,
        1086.6400146484375
      ],
      "min": [
        170.13800048828125,
        -644.18701171875,
        1004.780029296875
      ],
      "type": "VEC3"
    },
    {
      "bufferView": 2,
      "byteOffset": 211212,
      "componentType": 5126,
      "count": 1243,
      "max": [
        0.9997742176055908,
        0.8885580897331238,
        0.9998841285705566
      ],
      "min": [
        -0.8936548829078674,
        -0.998084545135498,
        -0.9999703764915466
      ],
      "type": "VEC3"
    },
    {
      "bufferView": 3,
      "byteOffset": 130864,
      "componentType": 5126,
      "count": 1243,
      "max": [
        0.9999459981918335,
        0.9999992251396179,
        0.7981240153312683,
        1.0
      ],
      "min": [
        -0.9514459371566772,
        -0.9999887943267822,
        -0.8408238887786865,
        -1.0
      ],
      "type": "VEC4"
    },
    {
      "bufferView": 1,
      "byteOffset": 65432,
      "componentType": 5126,
      "count": 1243,
      "max": [
        0.9954860210418701,
        0.9672170281410217
      ],
      "min": [
        0.0005000060191377997,
        0.033073101192712784
      ],
      "type": "VEC2"
    },
    {
      "bufferView": 0,
      "byteOffset": 130512,
      "componentType": 5125,
      "count": 3720,
      "type": "SCALAR"
    },
    {
      "bufferView": 2,
      "byteOffset": 226128,
      "componentType": 5126,
      "count": 7427,
      "max": [
        263.0369873046875,
        329.37200927734375,
        1337.030029296875
      ],
      "min": [
        -520.1900024414063,
        -329.37200927734375,
        958.5789794921875
      ],
      "type": "VEC3"
    },
    {
      "bufferView": 2,
      "byteOffset": 315252,
      "componentType": 5126,
      "count": 7427,
      "max": [
        1.0,
        1.0,
        1.0
      ],
      "min": [
        -1.0,
        -1.0,
        -1.0
      ],
      "type": "VEC3"
    },
    {
      "bufferView": 3,
      "byteOffset": 150752,
      "componentType": 5126,
      "count": 7427,
      "max": [
        1.0,
        1.0,
        1.0,
        1.0
      ],
      "min": [
        -1.0,
        -1.0,
        -0.9999998211860657,
        -1.0
      ],
      "type": "VEC4"
    },
    {
      "bufferView": 1,
      "byteOffset": 75376,
      "componentType": 5126,
      "count": 7427,
      "max": [
        0.9853379726409912,
        0.948872983455658
      ],
      "min": [
        0.0005000099772587419,
        0.009806600399315357
      ],
      "type": "VEC2"
    },
    {
      "bufferView": 0,
      "byteOffset": 145392,
      "componentType": 5125,
      "count": 29823,
      "type": "SCALAR"
    },
    {
      "bufferView": 2,
      "byteOffset": 404376,
      "componentType": 5126,
      "count": 370,
      "max": [
        132.50900268554688,
        58.30619812011719,
        1322.6500244140625
      ],
      "min": [
        96.63030242919922,
        -58.30619812011719,
        1287.31005859375
      ],
      "type": "VEC3"
    },
    {
      "bufferView": 2,
      "byteOffset": 408816,
      "componentType": 5126,
      "count": 370,
      "max": [
        1.0,
        1.0,
        0.9848080277442932
      ],
      "min": [
        -1.0,
        -1.0,
        -0.9848080277442932
      ],
      "type": "VEC3"
    },
    {
      "bufferView": 3,
      "byteOffset": 269584,
      "componentType": 5126,
      "count": 370,
      "max": [
        1.0,
        0.38891810178756714,
        1.0,
        1.0
      ],
      "min": [
        -0.9857438206672668,
        -0.3889182209968567,
        -1.0,
        1.0
      ],
      "type": "VEC4"
    },
    {
      "bufferView": 1,
      "byteOffset": 134792,
      "componentType": 5126,
      "count": 370,
      "max": [
        0.9411200284957886,
        0.7857499718666077
      ],
      "min": [
        0.6333490014076233,
        0.4890959858894348
      ],
      "type": "VEC2"
    },
    {
      "bufferView": 0,
      "byteOffset": 264684,
      "componentType": 5125,
      "count": 1500,
      "type": "SCALAR"
    },
    {
      "bufferView": 2,
      "byteOffset": 413256,
      "componentType": 5126,
      "count": 8793,
      "max": [
        838.739990234375,
        336.3840026855469,
        1215.8299560546875
      ],
      "min": [
        180.29200744628906,
        -336.14599609375,
        922.2349853515625
      ],
      "type": "VEC3"
    },
    {
      "bufferView": 2,
      "byteOffset": 518772,
      "componentType": 5126,
      "count": 8793,
      "max": [
        1.0,
        1.0,
        1.0
      ],
      "min": [
        -1.0,
        -1.0,
        -1.0
      ],
      "type": "VEC3"
    },
    {
      "bufferView": 3,
      "byteOffset": 275504,
      "componentType": 5126,
      "count": 8793,
      "max": [
        1.0,
        1.0,
        1.0,
        1.0
      ],
      "min": [
        -1.0,
        -1.0,
        -1.0,
        -1.0
      ],
      "type": "VEC4"
    },
    {
      "bufferView": 1,
      "byteOffset": 137752,
      "componentType": 5126,
      "count": 8793,
      "max": [
        0.9955639839172363,
        0.9867500066757202
      ],
      "min": [
        0.0005000070086680353,
        0.009806600399315357
      ],
      "type": "VEC2"
    },
    {
      "bufferView": 0,
      "byteOffset": 270684,
      "componentType": 5125,
      "count": 36231,
      "type": "SCALAR"
    },
    {
      "bufferView": 2,
      "byteOffset": 624288,
      "componentType": 5126,
      "count": 1325,
      "max": [
        -474.343994140625,
        191.58599853515625,
        1112.1099853515625
      ],
      "min": [
        -1259.6300048828125,
        -193.1750030517578,
        1025.27001953125
      ],
      "type": "VEC3"
    },
    {
      "bufferView": 2,
      "byteOffset": 640188,
      "componentType": 5126,
      "count": 1325,
      "max": [
        1.0,
        1.0,
        1.0
      ],
      "min": [
        -1.0,
        -1.0,
        -1.0
      ],
      "type": "VEC3"
    },
    {
      "bufferView": 3,
      "byteOffset": 416192,
      "componentType": 5126,
      "count": 1325,
      "max": [
        1.0,
        1.0,
        0.997640073299408,
        1.0
      ],
      "min": [
        -1.0,
        -1.0,
        -0.997640073299408,
        -1.0
      ],
      "type": "VEC4"
    },
    {
      "bufferView": 1,
      "byteOffset": 208096,
      "componentType": 5126,
      "count": 1325,
      "max": [
        0.9787570238113403,
        0.8365110158920288
      ],
      "min": [
        0.20059199631214142,
        0.10287299752235413
      ],
      "type": "VEC2"
    },
    {
      "bufferView": 0,
      "byteOffset": 415608,
      "componentType": 5125,
      "count": 4290,
      "type": "SCALAR"
    },
    {
      "bufferView": 2,
      "byteOffset": 656088,
      "componentType": 5126,
      "count": 522,
      "max": [
        751.2540283203125,
        450.4179992675781,
        1130.1099853515625
      ],
      "min": [
        708.3480224609375,
        410.1730041503906,
        1101.1400146484375
      ],
      "type": "VEC3"
    },
    {
      "bufferView": 2,
      "byteOffset": 662352,
      "componentType": 5126,
      "count": 522,
      "max": [
        0.9890941381454468,
        0.902129590511322,
        0.8369877934455872
      ],
      "min": [
        -0.939038872718811,
        -0.7974650263786316,
        -0.8333408832550049
      ],
      "type": "VEC3"
    },
    {
      "bufferView": 3,
      "byteOffset": 437392,
      "componentType": 5126,
      "count": 522,
      "max": [
        0.9690315127372742,
        0.9798772931098938,
        0.8797392845153809,
        1.0
      ],
      "min": [
        -0.9732668995857239,
        -0.9823086857795715,
        -0.5279372334480286,
        -1.0
      ],
      "type": "VEC4"
    },
    {
      "bufferView": 1,
      "byteOffset": 218696,
      "componentType": 5126,
      "count": 522,
      "max": [
        0.9962800145149231,
        0.9481319785118103
      ],
      "min": [
        0.349496990442276,
        0.019113199785351753
      ],
      "type": "VEC2"
    },
    {
      "bufferView": 0,
      "byteOffset": 432768,
      "componentType": 5125,
      "count": 1998,
      "type": "SCALAR"
    },
    {
      "bufferView": 2,
      "byteOffset": 668616,
      "componentType": 5126,
      "count": 1243,
      "max": [
        215.34800720214844,
        648.541015625,
        1086.6400146484375
      ],
      "min": [
        167.9669952392578,
        503.5260009765625,
        1004.780029296875
      ],
      "type": "VEC3"
    },
    {
      "bufferView": 2,
      "byteOffset": 683532,
      "componentType": 5126,
      "count": 1243,
      "max": [
        0.9997742176055908,
        0.9980850219726563,
        0.9998841285705566
      ],
      "min": [
        -0.8936553001403809,
        -0.8885538578033447,
        -0.9999703764915466
      ],
      "type": "VEC3"
    },
    {
      "bufferView": 3,
      "byteOffset": 445744,
      "componentType": 5126,
      "count": 1243,
      "max": [
        0.8885694146156311,
        0.9999992251396179,
        0.8408278226852417,
        1.0
      ],
      "min": [
        -0.999945878982544,
        -0.9999887347221375,
        -0.7981266379356384,
        -1.0
      ],
      "type": "VEC4"
    },
    {
      "bufferView": 1,
      "byteOffset": 222872,
      "componentType": 5126,
      "count": 1243,
      "max": [
        0.9902899861335754,
        0.9412819743156433
      ],
      "min": [
        0.349496990442276,
        0.028419800102710724
      ],
      "type": "VEC2"
    },
    {
      "bufferView": 0,
      "byteOffset": 440760,
      "componentType": 5125,
      "count": 3720,
      "type": "SCALAR"
    },
    {
      "bufferView": 2,
      "byteOffset": 698448,
      "componentType": 5126,
      "count": 250,
      "max": [
        -668.8209838867188,
        447.0769958496094,
        1124.27001953125
      ],
      "min": [
        -1038.030029296875,
        348.4389953613281,
        1083.3299560546875
      ],
      "type": "VEC3"
    },
    {
      "bufferView": 2,
      "byteOffset": 701448,
      "componentType": 5126,
      "count": 250,
      "max": [
        0.9867289066314697,
        0.9896043539047241,
        0.9999972581863403
      ],
      "min": [
        -0.9975326657295227,
        -0.989625871181488,
        -0.9999966621398926
      ],
      "type": "VEC3"
    },
    {
      "bufferView": 3,
      "byteOffset": 465632,
      "componentType": 5126,
      "count": 250,
      "max": [
        0.9897409081459045,
        0.950343132019043,
        0.6718370318412781,
        1.0
      ],
      "min": [
        -0.9635975956916809,
        -0.8515016436576843,
        -0.6877460479736328,
        1.0
      ],
      "type": "VEC4"
    },
    {
      "bufferView": 1,
      "byteOffset": 232816,
      "componentType": 5126,
      "count": 250,
      "max": [
        0.757282018661499,
        0.5419949889183044
      ],
      "min": [
        0.3913770020008087,
        0.1819790005683899
      ],
      "type": "VEC2"
    },
    {
      "bufferView": 0,
      "byteOffset": 455640,
      "componentType": 5125,
      "count": 912,
      "type": "SCALAR"
    },
    {
      "bufferView": 2,
      "byteOffset": 704448,
      "componentType": 5126,
      "count": 1370,
      "max": [
        -665.4210205078125,
        439.4530029296875,
        1113.510009765625
      ],
      "min": [
        -1048.0400390625,
        344.6310119628906,
        1069.4100341796875
      ],
      "type": "VEC3"
    },
    {
      "bufferView": 2,
      "byteOffset": 720888,
      "componentType": 5126,
      "count": 1370,
      "max": [
        0.9878349900245667,
        0.9878349900245667,
        1.0
      ],
      "min": [
        -0.9878349900245667,
        -0.9878349900245667,
        -1.0
      ],
      "type": "VEC3"
    },
    {
      "bufferView": 3,
      "byteOffset": 469632,
      "componentType": 5126,
      "count": 1370,
      "max": [
        0.5898656249046326,
        0.9953917860984802,
        1.0,
        1.0
      ],
      "min": [
        -0.5898116230964661,
        -0.9942862391471863,
        -1.0,
        -1.0
      ],
      "type": "VEC4"
    },
    {
      "bufferView": 1,
      "byteOffset": 234816,
      "componentType": 5126,
      "count": 1370,
      "max": [
        0.9794250130653381,
        0.8106449842453003
      ],
      "min": [
        0.2983109951019287,
        0.10287299752235413
      ],
      "type": "VEC2"
    },
    {
      "bufferView": 0,
      "byteOffset": 459288,
      "componentType": 5125,
      "count": 4428,
      "type": "SCALAR"
    }
  ],
  "asset": {
    "extras": {
      "author": "Andrzej Borkowski (https://sketchfab.com/abg_3d)",
      "license": "CC-BY-NC-4.0 (http://creativecommons.org/licenses/by-nc/4.0/)",
      "source": "https://sketchfab.com/3d-models/phoenix-sci-fi-spaceship-748271a4f7604d9cb2a6e7bf1e6e437e",
      "title": "PHOENIX Sci-Fi Spaceship"
    },
    "generator": "Sketchfab-12.66.0",
    "version": "2.0"
  },
  "bufferViews": [
    {
      "buffer": 0,
      "byteLength": 477000,
      "name": "floatBufferViews",
      "target": 34963
    },
    {
      "buffer": 0,
      "byteLength": 245776,
      "byteOffset": 477000,
      "byteStride": 8,
      "name": "floatBufferViews",
      "target": 34962
    },
    {
      "buffer": 0,
      "byteLength": 737328,
      "byteOffset": 722776,
      "byteStride": 12,
      "name": "floatBufferViews",
      "target": 34962
    },
    {
      "buffer": 0,
      "byteLength": 491552,
      "byteOffset": 1460104,
      "byteStride": 16,
      "name": "floatBufferViews",
      "target": 34962
    }
  ],
  "buffers": [
    {
      "byteLength": 1951656,
      "uri": "scene.bin"
    }
  ],
  "images": [
    {
      "uri": "textures/Standardmaterial_baseColor.png"
    },
    {
      "uri": "textures/Standardmaterial_metallicRoughness.png"
    },
    {
      "uri": "textures/Standardmaterial_emissive.png"
    },
    {
      "uri": "textures/Standardmaterial_normal.png"
    },
    {
      "uri": "textures/Standardmaterial1_baseColor.png"
    },
    {
      "uri": "textures/Standardmaterial1_metallicRoughness.png"
    },
    {
      "uri": "textures/Standardmaterial1_emissive.png"
    },
    {
      "uri": "textures/Standardmaterial1_normal.png"
    },
    {
      "uri": "textures/Standardmaterial10_baseColor.png"
    },
    {
      "uri": "textures/Standardmaterial10_metallicRoughness.png"
    },
    {
      "uri": "textures/Standardmaterial10_normal.png"
    },
    {
      "uri": "textures/Standardmaterial11_baseColor.png"
    },
    {
      "uri": "textures/Standardmaterial11_metallicRoughness.png"
    },
    {
      "uri": "textures/Standardmaterial11_normal.png"
    },
    {
      "uri": "textures/Standardmaterial2_baseColor.png"
    },
    {
      "uri": "textures/Standardmaterial2_metallicRoughness.png"
    },
    {
      "uri": "textures/Standardmaterial2_emissive.png"
    },
    {
      "uri": "textures/Standardmaterial2_normal.png"
    },
    {
      "uri": "textures/Standardmaterial3_metallicRoughness.png"
    },
    {
      "uri": "textures/Standardmaterial3_normal.png"
    },
    {
      "uri": "textures/Standardmaterial4_baseColor.png"
    },
    {
      "uri": "textures/Standardmaterial4_metallicRoughness.png"
    },
    {
      "uri": "textures/Standardmaterial4_emissive.png"
    },
    {
      "uri": "textures/Standardmaterial4_normal.png"
    },
    {
      "uri": "textures/Standardmaterial5_baseColor.png"
    },
    {
      "uri": "textures/Standardmaterial5_metallicRoughness.png"
    },
    {
      "uri": "textures/Standardmaterial5_emissive.png"
    },
    {
      "uri": "textures/Standardmaterial5_normal.png"
    },
    {
      "uri": "textures/Standardmaterial6_baseColor.png"
    },
    {
      "uri": "textures/Standardmaterial6_metallicRoughness.png"
    },
    {
      "uri": "textures/Standardmaterial6_normal.png"
    },
    {
      "uri": "textures/Standardmaterial7_metallicRoughness.png"
    },
    {
      "uri": "textures/Standardmaterial7_normal.png"
    },
    {
      "uri": "textures/Standardmaterial8_baseColor.png"
    },
    {
      "uri": "textures/Standardmaterial8_metallicRoughness.png"
    },
    {
      "uri": "textures/Standardmaterial8_normal.png"
    },
    {
      "uri": "textures/Standardmaterial9_baseColor.png"
    },
    {
      "uri": "textures/Standardmaterial9_metallicRoughness.png"
    },
    {
      "uri": "textures/Standardmaterial9_emissive.png"
    },
    {
      "uri": "textures/Standardmaterial9_normal.png"
    }
  ],
  "materials": [
    {
      "doubleSided": true,
      "emissiveFactor": [
        1.0,
        1.0,
        1.0
      ],
      "emissiveTexture": {
        "index": 2
      },
      "name": "Standardmaterial",
      "normalTexture": {
        "index": 3
      },
      "pbrMetallicRoughness": {
        "baseColorTexture": {
          "index": 0
        },
        "metallicRoughnessTexture": {
          "index": 1
        }
      }
    },
    {
      "doubleSided": true,
      "emissiveFactor": [
        1.0,
        1.0,
        1.0
      ],
      "emissiveTexture": {
        "index": 6
      },
      "name": "Standardmaterial1",
      "normalTexture": {
        "index": 7
      },
      "pbrMetallicRoughness": {
        "baseColorTexture": {
          "index": 4
        },
        "metallicRoughnessTexture": {
          "index": 5
        }
      }
    },
    {
      "doubleSided": true,
      "name": "Standardmaterial10",
      "normalTexture": {
        "index": 10
      },
      "pbrMetallicRoughness": {
        "baseColorTexture": {
          "index": 8
        },
        "metallicRoughnessTexture": {
          "index": 9
        }
      }
    },
    {
      "doubleSided": true,
      "name": "Standardmaterial11",
      "normalTexture": {
        "index": 13
      },
      "pbrMetallicRoughness": {
        "baseColorFactor": [
          0.0,
          0.0,
          0.0,
          1.0
        ],
        "baseColorTexture": {
          "index": 11
        },
        "metallicRoughnessTexture": {
          "index": 12
        }
      }
    },
    {
      "doubleSided": true,
      "emissiveFactor": [
        1.0,
        1.0,
        1.0
      ],
      "emissiveTexture": {
        "index": 16
      },
      "name": "Standardmaterial2",
      "normalTexture": {
        "index": 17
      },
      "pbrMetallicRoughness": {
        "baseColorTexture": {
          "index": 14
        },
        "metallicRoughnessTexture": {
          "index": 15
        }
      }
    },
    {
      "doubleSided": true,
      "name": "Standardmaterial3",
      "normalTexture": {
        "index": 19
      },
      "pbrMetallicRoughness": {
        "baseColorFactor": [
          0.3052835848314484,
          0.3052835848314484,
          0.3052835848314484,
          1.0
        ],
        "metallicRoughnessTexture": {
          "index": 18
        },
        "roughnessFactor": 0.36044026533875684
      }
    },
    {
      "doubleSided": true,
      "emissiveFactor": [
        1.0,
        1.0,
        1.0
      ],
      "emissiveTexture": {
        "index": 22
      },
      "name": "Standardmaterial4",
      "normalTexture": {
        "index": 23
      },
      "pbrMetallicRoughness": {
        "baseColorTexture": {
          "index": 20
        },
        "metallicRoughnessTexture": {
          "index": 21
        }
      }
    },
    {
      "doubleSided": true,
      "emissiveFactor": [
        1.0,
        1.0,
        1.0
      ],
      "emissiveTexture": {
        "index": 26
      },
      "name": "Standardmaterial5",
      "normalTexture": {
        "index": 27
      },
      "pbrMetallicRoughness": {
        "baseColorTexture": {
          "index": 24
        },
        "metallicRoughnessTexture": {
          "index": 25
        }
      }
    },
    {
      "doubleSided": true,
      "name": "Standardmaterial6",
      "normalTexture": {
        "index": 30
      },
      "pbrMetallicRoughness": {
        "baseColorTexture": {
          "index": 28
        },
        "metallicRoughnessTexture": {
          "index": 29
        }
      }
    },
    {
      "doubleSided": true,
      "name": "Standardmaterial7",
      "normalTexture": {
        "index": 32
      },
      "pbrMetallicRoughness": {
        "baseColorFactor": [
          0.0,
          0.0,
          0.0,
          1.0
        ],
        "baseColorTexture": {
          "index": 11
        },
        "metallicRoughnessTexture": {
          "index": 31
        }
      }
    },
    {
      "alphaMode": "BLEND",
      "doubleSided": true,
      "name": "Standardmaterial8",
      "normalTexture": {
        "index": 35
      },
      "pbrMetallicRoughness": {
        "baseColorFactor": [
          1.0,
          1.0,
          1.0,
          0.5124445944220491
        ],
        "baseColorTexture": {
          "index": 33
        },
        "metallicRoughnessTexture": {
          "index": 34
        }
      }
    },
    {
      "doubleSided": true,
      "emissiveFactor": [
        1.0,
        1.0,
        1.0
      ],
      "emissiveTexture": {
        "index": 38
      },
      "name": "Standardmaterial9",
      "normalTexture": {
        "index": 39
      },
      "pbrMetallicRoughness": {
        "baseColorTexture": {
          "index": 36
        },
        "metallicRoughnessTexture": {
          "index": 37
        }
      }
    }
  ],
  "meshes": [
    {
      "name": "Object_0",
      "primitives": [
        {
          "attributes": {
            "NORMAL": 1,
            "POSITION": 0,
            "TANGENT": 2,
            "TEXCOORD_0": 3
          },
          "indices": 4,
          "material": 0,
          "mode": 4
        }
      ]
    },
    {
      "name": "Object_1",
      "primitives": [
        {
          "attributes": {
            "NORMAL": 6,
            "POSITION": 5,
            "TANGENT": 7,
            "TEXCOORD_0": 8
          },
          "indices": 9,
          "material": 1,
          "mode": 4
        }
      ]
    },
    {
      "name": "Object_2",
      "primitives": [
        {
          "attributes": {
            "NORMAL": 11,
            "POSITION": 10,
            "TANGENT": 12,
            "TEXCOORD_0": 13
          },
          "indices": 14,
          "material": 2,
          "mode": 4
        }
      ]
    },
    {
      "name": "Object_3",
      "primitives": [
        {
          "attributes": {
            "NORMAL": 16,
            "POSITION": 15,
            "TANGENT": 17,
            "TEXCOORD_0": 18
          },
          "indices": 19,
          "material": 3,
          "mode": 4
        }
      ]
    },
    {
      "name": "Object_4",
      "primitives": [
        {
          "attributes": {
            "NORMAL": 21,
            "POSITION": 20,
            "TANGENT": 22,
            "TEXCOORD_0": 23
          },
          "indices": 24,
          "material": 4,
          "mode": 4
        }
      ]
    },
    {
      "name": "Object_5",
      "primitives": [
        {
          "attributes": {
            "NORMAL": 26,
            "POSITION": 25,
            "TANGENT": 27,
            "TEXCOORD_0": 28
          },
          "indices": 29,
          "material": 5,
          "mode": 4
        }
      ]
    },
    {
      "name": "Object_6",
      "primitives": [
        {
          "attributes": {
            "NORMAL": 31,
            "POSITION": 30,
            "TANGENT": 32,
            "TEXCOORD_0": 33
          },
          "indices": 34,
          "material": 6,
          "mode": 4
        }
      ]
    },
    {
      "name": "Object_7",
      "primitives": [
        {
          "attributes": {
            "NORMAL": 36,
            "POSITION": 35,
            "TANGENT": 37,
            "TEXCOORD_0": 38
          },
          "indices": 39,
          "material": 7,
          "mode": 4
        }
      ]
    },
    {
      "name": "Object_8",
      "primitives": [
        {
          "attributes": {
            "NORMAL": 41,
            "POSITION": 40,
            "TANGENT": 42,
            "TEXCOORD_0": 43
          },
          "indices": 44,
          "material": 8,
          "mode": 4
        }
      ]
    },
    {
      "name": "Object_9",
      "primitives": [
        {
          "attributes": {
            "NORMAL": 46,
            "POSITION": 45,
            "TANGENT": 47,
            "TEXCOORD_0": 48
          },
          "indices": 49,
          "material": 9,
          "mode": 4
        }
      ]
    },
    {
      "name": "Object_10",
      "primitives": [
        {
          "attributes": {
            "NORMAL": 51,
            "POSITION": 50,
            "TANGENT": 52,
            "TEXCOORD_0": 53
          },
          "indices": 54,
          "material": 10,
          "mode": 4
        }
      ]
    },
    {
      "name": "Object_11",
      "primitives": [
        {
          "attributes": {
            "NORMAL": 56,
            "POSITION": 55,
            "TANGENT": 57,
            "TEXCOORD_0": 58
          },
          "indices": 59,
          "material": 11,
          "mode": 4
        }
      ]
    }
  ],
  "nodes": [
    {
      "children": [
        1
      ],
      "matrix": [
        1.0,
        0.0,
        0.0,
        0.0,
        0.0,
        2.220446049250313e-16,
        -1.0,
        0.0,
        0.0,
        1.0,
        2.220446049250313e-16,
        0.0,
        0.0,
        0.0,
        0.0,
        1.0
      ],
      "name": "Sketchfab_model"
    },
    {
      "children": [
        2,
        3,
        4,
        5,
        6,
        7,
        8,
        9,
        10,
        11,
        12,
        13
      ],
      "name": "phoenix.obj.cleaner.materialmerger.gles"
    },
    {
      "mesh": 0,
      "name": "Object_2"
    },
    {
      "mesh": 1,
      "name": "Object_3"
    },
    {
      "mesh": 2,
      "name": "Object_4"
    },
    {
      "mesh": 3,
      "name": "Object_5"
    },
    {
      "mesh": 4,
      "name": "Object_6"
    },
    {
      "mesh": 5,
      "name": "Object_7"
    },
    {
      "mesh": 6,
      "name": "Object_8"
    },
    {
      "mesh": 7,
      "name": "Object_9"
    },
    {
      "mesh": 8,
      "name": "Object_10"
    },
    {
      "mesh": 9,
      "name": "Object_11"
    },
    {
      "mesh": 10,
      "name": "Object_12"
    },
    {
      "mesh": 11,
      "name": "Object_13"
    }
  ],
  "samplers": [
    {
      "magFilter": 9729,
      "minFilter": 9987,
      "wrapS": 10497,
      "wrapT": 10497
    }
  ],
  "scene": 0,
  "scenes": [
    {
      "name": "Sketchfab_Scene",
      "nodes": [
        0
      ]
    }
  ],
  "textures": [
    {
      "sampler": 0,
      "source": 0
    },
    {
      "sampler": 0,
      "source": 1
    },
    {
      "sampler": 0,
      "source": 2
    },
    {
      "sampler": 0,
      "source": 3
    },
    {
      "sampler": 0,
      "source": 4
    },
    {
      "sampler": 0,
      "source": 5
    },
    {
      "sampler": 0,
      "source": 6
    },
    {
      "sampler": 0,
      "source": 7
    },
    {
      "sampler": 0,
      "source": 8
    },
    {
      "sampler": 0,
      "source": 9
    },
    {
      "sampler": 0,
      "source": 10
    },
    {
      "sampler": 0,
      "source": 11
    },
    {
      "sampler": 0,
      "source": 12
    },
    {
      "sampler": 0,
      "source": 13
    },
    {
      "sampler": 0,
      "source": 14
    },
    {
      "sampler": 0,
      "source": 15
    },
    {
      "sampler": 0,
      "source": 16
    },
    {
      "sampler": 0,
      "source": 17
    },
    {
      "sampler": 0,
      "source": 18
    },
    {
      "sampler": 0,
      "source": 19
    },
    {
      "sampler": 0,
      "source": 20
    },
    {
      "sampler": 0,
      "source": 21
    },
    {
      "sampler": 0,
      "source": 22
    },
    {
      "sampler": 0,
      "source": 23
    },
    {
      "sampler": 0,
      "source": 24
    },
    {
      "sampler": 0,
      "source": 25
    },
    {
      "sampler": 0,
      "source": 26
    },
    {
      "sampler": 0,
      "source": 27
    },
    {
      "sampler": 0,
      "source": 28
    },
    {
      "sampler": 0,
      "source": 29
    },
    {
      "sampler": 0,
      "source": 30
    },
    {
      "sampler": 0,
      "source": 31
    },
    {
      "sampler": 0,
      "source": 32
    },
    {
      "sampler": 0,
      "source": 33
    },
    {
      "sampler": 0,
      "source": 34
    },
    {
      "sampler": 0,
      "source": 35
    },
    {
      "sampler": 0,
      "source": 36
    },
    {
      "sampler": 0,
      "source": 37
    },
    {
      "sampler": 0,
      "source": 38
    },
    {
      "sampler": 0,
      "source": 39
    }
  ]
}
