{
  "accessors": [
    {
      "bufferView": 2,
      "componentType": 5126,
      "count": 1464,
      "max": [
        3.1867637634277344,
        6.159186840057373,
        4.4324774742126465
      ],
      "min": [
        -3.1867635250091553,
        -3.433267116546631,
        -1.3461860418319702
      ],
      "type": "VEC3"
    },
    {
      "bufferView": 2,
      "byteOffset": 17568,
      "componentType": 5126,
      "count": 1464,
      "max": [
        0.999769389629364,
        0.979184091091156,
        0.9999687671661377
      ],
      "min": [
        -0.999769389629364,
        -0.998714029788971,
        -0.9979134202003479
      ],
      "type": "VEC3"
    },
    {
      "bufferView": 1,
      "componentType": 5126,
      "count": 1464,
      "max": [
        0.8750001192092896,
        0.7500001192092896
      ],
      "min": [
        0.0,
        -0.003902551019564271
      ],
      "type": "VEC2"
    },
    {
      "bufferView": 0,
      "componentType": 5125,
      "count": 4656,
      "type": "SCALAR"
    },
    {
      "bufferView": 2,
      "byteOffset": 35136,
      "componentType": 5126,
      "count": 151,
      "max": [
        1.0,
        1.0,
        1.0
      ],
      "min": [
        -0.9999999403953552,
        -1.0,
        -1.0
      ],
      "type": "VEC3"
    },
    {
      "bufferView": 2,
      "byteOffset": 36948,
      "componentType": 5126,
      "count": 151,
      "max": [
        1.0,
        1.0,
        1.0
      ],
      "min": [
        -1.0,
        -1.0,
        -1.0
      ],
      "type": "VEC3"
    },
    {
      "bufferView": 1,
      "byteOffset": 11712,
      "componentType": 5126,
      "count": 151,
      "max": [
        1.0,
        1.0
      ],
      "min": [
        0.0,
        0.0
      ],
      "type": "VEC2"
    },
    {
      "bufferView": 0,
      "byteOffset": 18624,
      "componentType": 5125,
      "count": 672,
      "type": "SCALAR"
    },
    {
      "bufferView": 2,
      "byteOffset": 38760,
      "componentType": 5126,
      "count": 151,
      "max": [
        1.0,
        1.0,
        1.0
      ],
      "min": [
        -0.9999999403953552,
        -1.0,
        -1.0
      ],
      "type": "VEC3"
    },
    {
      "bufferView": 2,
      "byteOffset": 40572,
      "componentType": 5126,
      "count": 151,
      "max": [
        1.0,
        1.0,
        1.0
      ],
      "min": [
        -1.0,
        -1.0,
        -1.0
      ],
      "type": "VEC3"
    },
    {
      "bufferView": 1,
      "byteOffset": 12920,
      "componentType": 5126,
      "count": 151,
      "max": [
        1.0,
        1.0
      ],
      "min": [
        0.0,
        0.0
      ],
      "type": "VEC2"
    },
    {
      "bufferView": 0,
      "byteOffset": 21312,
      "componentType": 5125,
      "count": 672,
      "type": "SCALAR"
    },
    {
      "bufferView": 2,
      "byteOffset": 42384,
      "componentType": 5126,
      "count": 27,
      "max": [
        2.3774242401123047,
        4.336052417755127,
        3.7406809329986572
      ],
      "min": [
        -2.3774240016937256,
        3.9421632289886475,
        -0.2808644771575928
      ],
      "type": "VEC3"
    },
    {
      "bufferView": 2,
      "byteOffset": 42708,
      "componentType": 5126,
      "count": 27,
      "max": [
        0.5851439237594604,
        1.0,
        0.5851446390151978
      ],
      "min": [
        -0.5851446986198425,
        0.6999104022979736,
        -0.5851452350616455
      ],
      "type": "VEC3"
    },
    {
      "bufferView": 1,
      "byteOffset": 14128,
      "componentType": 5126,
      "count": 27,
      "max": [
        0.8175852298736572,
        0.5816301703453064
      ],
      "min": [
        0.45531606674194336,
        0.33031609654426575
      ],
      "type": "VEC2"
    },
    {
      "bufferView": 0,
      "byteOffset": 24000,
      "componentType": 5125,
      "count": 72,
      "type": "SCALAR"
    },
    {
      "bufferView": 2,
      "byteOffset": 43032,
      "componentType": 5126,
      "count": 20,
      "max": [
        0.39927300810813904,
        0.6330543160438538,
        -1.2095024585723877
      ],
      "min": [
        -0.39927300810813904,
        -0.3523295223712921,
        -1.446839451789856
      ],
      "type": "VEC3"
    },
    {
      "bufferView": 2,
      "byteOffset": 43272,
      "componentType": 5126,
      "count": 20,
      "max": [
        0.868369996547699,
        -0.030505022034049034,
        -0.4635210931301117
      ],
      "min": [
        -0.8683704733848572,
        -0.7782360315322876,
        -0.5236709117889404
      ],
      "type": "VEC3"
    },
    {
      "bufferView": 1,
      "byteOffset": 14344,
      "componentType": 5126,
      "count": 20,
      "max": [
        0.29990914463996887,
        0.7004250288009644
      ],
      "min": [
        0.20009088516235352,
        0.625
      ],
      "type": "VEC2"
    },
    {
      "bufferView": 0,
      "byteOffset": 24288,
      "componentType": 5125,
      "count": 36,
      "type": "SCALAR"
    },
    {
      "bufferView": 2,
      "byteOffset": 43512,
      "componentType": 5126,
      "count": 60,
      "max": [
        3.0715200901031494,
        4.056572914123535,
        3.6468803882598877
      ],
      "min": [
        -3.0715203285217285,
        -7.589666366577148,
        -0.3322322368621826
      ],
      "type": "VEC3"
    },
    {
      "bufferView": 2,
      "byteOffset": 44232,
      "componentType": 5126,
      "count": 60,
      "max": [
        0.999998152256012,
        0.08485902845859528,
        0.16238071024417877
      ],
      "min": [
        -0.999998152256012,
        -0.02043127827346325,
        -0.16238132119178772
      ],
      "type": "VEC3"
    },
    {
      "bufferView": 1,
      "byteOffset": 14504,
      "componentType": 5126,
      "count": 60,
      "max": [
        0.8242460489273071,
        0.7500001192092896
      ],
      "min": [
        0.4326842427253723,
        0.0
      ],
      "type": "VEC2"
    },
    {
      "bufferView": 0,
      "byteOffset": 24432,
      "componentType": 5125,
      "count": 192,
      "type": "SCALAR"
    },
    {
      "bufferView": 2,
      "byteOffset": 44952,
      "componentType": 5126,
      "count": 84,
      "max": [
        0.8531450033187866,
        -0.9439833164215088,
        0.8080776929855347
      ],
      "min": [
        -0.8531449437141418,
        -5.322124481201172,
        -0.9002930521965027
      ],
      "type": "VEC3"
    },
    {
      "bufferView": 2,
      "byteOffset": 45960,
      "componentType": 5126,
      "count": 84,
      "max": [
        0.9972715377807617,
        0.009148736484348774,
        0.9502475261688232
      ],
      "min": [
        -0.9972715377807617,
        -0.7311598062515259,
        -0.952211320400238
      ],
      "type": "VEC3"
    },
    {
      "bufferView": 1,
      "byteOffset": 14984,
      "componentType": 5126,
      "count": 84,
      "max": [
        0.8750001192092896,
        0.7500000596046448
      ],
      "min": [
        0.125,
        0.0
      ],
      "type": "VEC2"
    },
    {
      "bufferView": 0,
      "byteOffset": 25200,
      "componentType": 5125,
      "count": 168,
      "type": "SCALAR"
    },
    {
      "bufferView": 2,
      "byteOffset": 46968,
      "componentType": 5126,
      "count": 162,
      "max": [
        2.0928964614868164,
        4.129749298095703,
        0.47898009419441223
      ],
      "min": [
        -2.0928964614868164,
        0.5746812224388123,
        -0.20026959478855133
      ],
      "type": "VEC3"
    },
    {
      "bufferView": 2,
      "byteOffset": 48912,
      "componentType": 5126,
      "count": 162,
      "max": [
        0.7074276804924011,
        0.4698968529701233,
        0.9768044352531433
      ],
      "min": [
        -0.707426905632019,
        -0.9497800469398499,
        -0.9769850373268127
      ],
      "type": "VEC3"
    },
    {
      "bufferView": 1,
      "byteOffset": 15656,
      "componentType": 5126,
      "count": 162,
      "max": [
        0.555537760257721,
        0.5533080101013184
      ],
      "min": [
        0.44551679491996765,
        0.19683517515659332
      ],
      "type": "VEC2"
    },
    {
      "bufferView": 0,
      "byteOffset": 25872,
      "componentType": 5125,
      "count": 528,
      "type": "SCALAR"
    },
    {
      "bufferView": 2,
      "byteOffset": 50856,
      "componentType": 5126,
      "count": 149,
      "max": [
        0.39927300810813904,
        5.354846000671387,
        -0.8832706809043884
      ],
      "min": [
        -0.39927300810813904,
        -0.19921576976776123,
        -1.5390688180923462
      ],
      "type": "VEC3"
    },
    {
      "bufferView": 2,
      "byteOffset": 52644,
      "componentType": 5126,
      "count": 149,
      "max": [
        0.9959335327148438,
        0.8998401165008545,
        -0.07767947018146515
      ],
      "min": [
        -0.9959336519241333,
        -0.6181952357292175,
        -0.9987653493881226
      ],
      "type": "VEC3"
    },
    {
      "bufferView": 1,
      "byteOffset": 16952,
      "componentType": 5126,
      "count": 149,
      "max": [
        0.32145974040031433,
        0.6887051463127136
      ],
      "min": [
        0.17855873703956604,
        0.5
      ],
      "type": "VEC2"
    },
    {
      "bufferView": 0,
      "byteOffset": 27984,
      "componentType": 5125,
      "count": 420,
      "type": "SCALAR"
    },
    {
      "bufferView": 2,
      "byteOffset": 54432,
      "componentType": 5126,
      "count": 39,
      "max": [
        0.772939920425415,
        -1.6575851440429688,
        0.07923966646194458
      ],
      "min": [
        -0.7729396820068359,
        -6.2165727615356445,
        -0.30198878049850464
      ],
      "type": "VEC3"
    },
    {
      "bufferView": 2,
      "byteOffset": 54900,
      "componentType": 5126,
      "count": 39,
      "max": [
        0.9999573230743408,
        0.9941791892051697,
        0.8667256236076355
      ],
      "min": [
        -0.9999573826789856,
        -0.4902094304561615,
        -0.8665444254875183
      ],
      "type": "VEC3"
    },
    {
      "bufferView": 1,
      "byteOffset": 18144,
      "componentType": 5126,
      "count": 39,
      "max": [
        0.6071109175682068,
        0.7500001192092896
      ],
      "min": [
        0.3928864002227783,
        0.0
      ],
      "type": "VEC2"
    },
    {
      "bufferView": 0,
      "byteOffset": 29664,
      "componentType": 5125,
      "count": 132,
      "type": "SCALAR"
    },
    {
      "bufferView": 2,
      "byteOffset": 55368,
      "componentType": 5126,
      "count": 36,
      "max": [
        1.3363916873931885,
        -0.845538318157196,
        0.9401043653488159
      ],
      "min": [
        -1.3363916873931885,
        -2.5916671752929688,
        -0.3179076910018921
      ],
      "type": "VEC3"
    },
    {
      "bufferView": 2,
      "byteOffset": 55800,
      "componentType": 5126,
      "count": 36,
      "max": [
        0.9994505643844604,
        0.13377758860588074,
        0.038105666637420654
      ],
      "min": [
        -0.9994505047798157,
        0.00027738846256397665,
        -0.692032516002655
      ],
      "type": "VEC3"
    },
    {
      "bufferView": 1,
      "byteOffset": 18456,
      "componentType": 5126,
      "count": 36,
      "max": [
        0.59845370054245,
        0.7500001192092896
      ],
      "min": [
        0.40437641739845276,
        -0.003902551019564271
      ],
      "type": "VEC2"
    },
    {
      "bufferView": 0,
      "byteOffset": 30192,
      "componentType": 5125,
      "count": 72,
      "type": "SCALAR"
    },
    {
      "bufferView": 2,
      "byteOffset": 56232,
      "componentType": 5126,
      "count": 179,
      "max": [
        0.6987053155899048,
        -5.309441566467285,
        0.5054253339767456
      ],
      "min": [
        -0.6987053155899048,
        -8.063882827758789,
        -0.7865176200866699
      ],
      "type": "VEC3"
    },
    {
      "bufferView": 2,
      "byteOffset": 58380,
      "componentType": 5126,
      "count": 179,
      "max": [
        0.9976992607116699,
        0.6466048955917358,
        0.9998023509979248
      ],
      "min": [
        -0.9976993203163147,
        -1.0,
        -0.999994158744812
      ],
      "type": "VEC3"
    },
    {
      "bufferView": 1,
      "byteOffset": 18744,
      "componentType": 5126,
      "count": 179,
      "max": [
        0.8750001192092896,
        1.0000001192092896
      ],
      "min": [
        0.125,
        0.0
      ],
      "type": "VEC2"
    },
    {
      "bufferView": 0,
      "byteOffset": 30480,
      "componentType": 5125,
      "count": 816,
      "type": "SCALAR"
    }
  ],
  "asset": {
    "extras": {
      "author": "Jacob Quintana (https://sketchfab.com/jacobq1004)",
      "license": "CC-BY-4.0 (http://creativecommons.org/licenses/by/4.0/)",
      "source": "https://sketchfab.com/3d-models/planet-mountain-dew-space-ship-3b77efa075094e738149d3fc16210153",
      "title": "Planet Mountain Dew - Space Ship"
    },
    "generator": "Sketchfab-15.30.0",
    "version": "2.0"
  },
  "bufferViews": [
    {
      "buffer": 0,
      "byteLength": 33744,
      "name": "floatBufferViews",
      "target": 34963
    },
    {
      "buffer": 0,
      "byteLength": 20176,
      "byteOffset": 33744,
      "byteStride": 8,
      "name": "floatBufferViews",
      "target": 34962
    },
    {
      "buffer": 0,
      "byteLength": 60528,
      "byteOffset": 53920,
      "byteStride": 12,
      "name": "floatBufferViews",
      "target": 34962
    }
  ],
  "buffers": [
    {
      "byteLength": 114448,
      "uri": "scene.bin"
    }
  ],
  "extensionsUsed": [
    "KHR_materials_specular",
    "KHR_materials_emissive_strength"
  ],
  "materials": [
    {
      "doubleSided": true,
      "extensions": {
        "KHR_materials_specular": {
          "specularColorFactor": [
            1.0,
            1.0,
            1.0
          ],
          "specularFactor": 1.0
        }
      },
      "name": "Material.002",
      "pbrMetallicRoughness": {
        "baseColorFactor": [
          0.005828579999999983,
          1.0,
          0.0,
          1.0
        ],
        "metallicFactor": 0.64907778171734,
        "roughnessFactor": 0.31770715749564504
      }
    },
    {
      "doubleSided": true,
      "extensions": {
        "KHR_materials_specular": {
          "specularColorFactor": [
            1.0,
            1.0,
            1.0
          ],
          "specularFactor": 0.8760474721654801
        }
      },
      "name": "Material.001",
      "pbrMetallicRoughness": {
        "baseColorFactor": [
          0.0637205,
          0.0637205,
          0.0637205,
          1.0
        ],
        "metallicFactor": 0.5881834881215928,
        "roughnessFactor": 0.516997522217735
      }
    },
    {
      "doubleSided": true,
      "emissiveFactor": [
        0.2462129999999997,
        1.0,
        0.20210099999999995
      ],
      "extensions": {
        "KHR_materials_emissive_strength": {
          "emissiveStrength": 4.442514960996491
        }
      },
      "name": "Material.003",
      "pbrMetallicRoughness": {
        "metallicFactor": 0.0
      }
    },
    {
      "doubleSided": true,
      "extensions": {
        "KHR_materials_specular": {
          "specularColorFactor": [
            1.0,
            1.0,
            1.0
          ],
          "specularFactor": 0.9646209056526412
        }
      },
      "name": "Material",
      "pbrMetallicRoughness": {
        "baseColorFactor": [
          0.0,
          0.0,
          0.0,
          1.0
        ],
        "metallicFactor": 0.0,
        "roughnessFactor": 0.0
      }
    },
    {
      "doubleSided": true,
      "extensions": {
        "KHR_materials_specular": {
          "specularColorFactor": [
            1.0,
            1.0,
            1.0
          ],
          "specularFactor": 0.9480134217177929
        }
      },
      "name": "Material.004",
      "pbrMetallicRoughness": {
        "baseColorFactor": [
          0.00167507,
          0.0871398,
          0.0,
          1.0
        ],
        "metallicFactor": 0.5992552369954766,
        "roughnessFactor": 0.19038274232586794
      }
    }
  ],
  "meshes": [
    {
      "name": "Cube_Material.002_0",
      "primitives": [
        {
          "attributes": {
            "NORMAL": 1,
            "POSITION": 0,
            "TEXCOORD_0": 2
          },
          "indices": 3,
          "material": 0,
          "mode": 4
        }
      ]
    },
    {
      "name": "Sphere_Material.001_0",
      "primitives": [
        {
          "attributes": {
            "NORMAL": 5,
            "POSITION": 4,
            "TEXCOORD_0": 6
          },
          "indices": 7,
          "material": 1,
          "mode": 4
        }
      ]
    },
    {
      "name": "Sphere.001_Material.001_0",
      "primitives": [
        {
          "attributes": {
            "NORMAL": 9,
            "POSITION": 8,
            "TEXCOORD_0": 10
          },
          "indices": 11,
          "material": 1,
          "mode": 4
        }
      ]
    },
    {
      "name": "Cube.001_Material.003_0",
      "primitives": [
        {
          "attributes": {
            "NORMAL": 13,
            "POSITION": 12,
            "TEXCOORD_0": 14
          },
          "indices": 15,
          "material": 2,
          "mode": 4
        }
      ]
    },
    {
      "name": "Cube.002_Material_0",
      "primitives": [
        {
          "attributes": {
            "NORMAL": 17,
            "POSITION": 16,
            "TEXCOORD_0": 18
          },
          "indices": 19,
          "material": 3,
          "mode": 4
        }
      ]
    },
    {
      "name": "Cube.003_Material.001_0",
      "primitives": [
        {
          "attributes": {
            "NORMAL": 21,
            "POSITION": 20,
            "TEXCOORD_0": 22
          },
          "indices": 23,
          "material": 1,
          "mode": 4
        }
      ]
    },
    {
      "name": "Cube.004_Material.004_0",
      "primitives": [
        {
          "attributes": {
            "NORMAL": 25,
            "POSITION": 24,
            "TEXCOORD_0": 26
          },
          "indices": 27,
          "material": 4,
          "mode": 4
        }
      ]
    },
    {
      "name": "Cube.005_Material.004_0",
      "primitives": [
        {
          "attributes": {
            "NORMAL": 29,
            "POSITION": 28,
            "TEXCOORD_0": 30
          },
          "indices": 31,
          "material": 4,
          "mode": 4
        }
      ]
    },
    {
      "name": "Cube.006_Material.004_0",
      "primitives": [
        {
          "attributes": {
            "NORMAL": 33,
            "POSITION": 32,
            "TEXCOORD_0": 34
          },
          "indices": 35,
          "material": 4,
          "mode": 4
        }
      ]
    },
    {
      "name": "Cube.007_Material.002_0",
      "primitives": [
        {
          "attributes": {
            "NORMAL": 37,
            "POSITION": 36,
            "TEXCOORD_0": 38
          },
          "indices": 39,
          "material": 0,
          "mode": 4
        }
      ]
    },
    {
      "name": "Cube.008_Material.004_0",
      "primitives": [
        {
          "attributes": {
            "NORMAL": 41,
            "POSITION": 40,
            "TEXCOORD_0": 42
          },
          "indices": 43,
          "material": 4,
          "mode": 4
        }
      ]
    },
    {
      "name": "Cube.009_Material.002_0",
      "primitives": [
        {
          "attributes": {
            "NORMAL": 45,
            "POSITION": 44,
            "TEXCOORD_0": 46
          },
          "indices": 47,
          "material": 0,
          "mode": 4
        }
      ]
    }
  ],
  "nodes": [
    {
      "children": [
        1
      ],
      "matrix": [
        1.0,
        0.0,
        0.0,
        0.0,
        0.0,
        2.220446049250313e-16,
        -1.0,
        0.0,
        0.0,
        1.0,
        2.220446049250313e-16,
        0.0,
        0.0,
        0.0,
        0.0,
        1.0
      ],
      "name": "Sketchfab_model"
    },
    {
      "children": [
        2
      ],
      "matrix": [
        0.009999999776482582,
        0.0,
        0.0,
        0.0,
        0.0,
        0.0,
        0.009999999776482582,
        0.0,
        0.0,
        -0.009999999776482582,
        0.0,
        0.0,
        0.0,
        0.0,
        0.0,
        1.0
      ],
      "name": "41c3b7abc5654b11803c52193d3c8d0e.fbx"
    },
    {
      "children": [
        3,
        5,
        7,
        9,
        11,
        13,
        15,
        17,
        19,
        21,
        23,
        25
      ],
      "name": "RootNode"
    },
    {
      "children": [
        4
      ],
      "matrix": [
        99.9999999999996,
        8.742277980456488e-06,
        -0.0,
        -0.0,
        1.4242978711041864e-12,
        -1.6292067994694293e-05,
        -99.99999999999865,
        -0.0,
        8.74227798045637e-06,
        -99.99999999999828,
        1.6292067983592062e-05,
        -0.0,
        0.0,
        226.49850463867188,
        0.0,
        1.0
      ],
      "name": "Cube"
    },
    {
      "mesh": 0,
      "name": "Cube_Material.002_0"
    },
    {
      "children": [
        6
      ],
      "matrix": [
        77.83893585205051,
        6.804896149215488e-06,
        -1.728372400057139e-14,
        -0.0,
        -6.804896149215488e-06,
        77.83893585205051,
        -9.282200190638022e-07,
        -0.0,
        1.282987536970382e-13,
        -1.8647399268215192e-06,
        -156.3738861083984,
        -0.0,
        206.4765625,
        -113.24925231933594,
        0.0,
        1.0
      ],
      "name": "Sphere"
    },
    {
      "mesh": 1,
      "name": "Sphere_Material.001_0"
    },
    {
      "children": [
        8
      ],
      "matrix": [
        77.83893585205051,
        6.804896149215488e-06,
        -1.728372400057139e-14,
        -0.0,
        -6.804896149215488e-06,
        77.83893585205051,
        -9.282200190638022e-07,
        -0.0,
        1.282987536970382e-13,
        -1.8647399268215192e-06,
        -156.3738861083984,
        -0.0,
        -204.59950256347656,
        -113.24925231933594,
        0.0,
        1.0
      ],
      "name": "Sphere.001"
    },
    {
      "mesh": 2,
      "name": "Sphere.001_Material.001_0"
    },
    {
      "children": [
        10
      ],
      "matrix": [
        99.9999999999996,
        8.742277980456488e-06,
        -0.0,
        -0.0,
        1.4242978711041864e-12,
        -1.6292067994694293e-05,
        -99.99999999999865,
        -0.0,
        8.74227798045637e-06,
        -99.99999999999828,
        1.6292067983592062e-05,
        -0.0,
        0.0,
        226.49850463867188,
        0.0,
        1.0
      ],
      "name": "Cube.001"
    },
    {
      "mesh": 3,
      "name": "Cube.001_Material.003_0"
    },
    {
      "children": [
        12
      ],
      "matrix": [
        99.9999999999996,
        8.742277980456488e-06,
        -0.0,
        -0.0,
        1.4242978711041864e-12,
        -1.6292067994694293e-05,
        -99.99999999999865,
        -0.0,
        8.74227798045637e-06,
        -99.99999999999828,
        1.6292067983592062e-05,
        -0.0,
        0.0,
        226.49850463867188,
        0.0,
        1.0
      ],
      "name": "Cube.002"
    },
    {
      "mesh": 4,
      "name": "Cube.002_Material_0"
    },
    {
      "children": [
        14
      ],
      "matrix": [
        99.9999999999996,
        8.742277980456488e-06,
        -0.0,
        -0.0,
        1.4242978711041864e-12,
        -1.6292067994694293e-05,
        -99.99999999999865,
        -0.0,
        8.74227798045637e-06,
        -99.99999999999828,
        1.6292067983592062e-05,
        -0.0,
        0.0,
        226.49850463867188,
        0.0,
        1.0
      ],
      "name": "Cube.003"
    },
    {
      "mesh": 5,
      "name": "Cube.003_Material.001_0"
    },
    {
      "children": [
        16
      ],
      "matrix": [
        99.9999999999996,
        8.742277980456488e-06,
        -0.0,
        -0.0,
        1.4242978711041864e-12,
        -1.6292067994694293e-05,
        -99.99999999999865,
        -0.0,
        8.74227798045637e-06,
        -99.99999999999828,
        1.6292067983592062e-05,
        -0.0,
        0.0,
        226.49850463867188,
        0.0,
        1.0
      ],
      "name": "Cube.004"
    },
    {
      "mesh": 6,
      "name": "Cube.004_Material.004_0"
    },
    {
      "children": [
        18
      ],
      "matrix": [
        99.9999999999996,
        8.742277980456488e-06,
        -0.0,
        -0.0,
        1.4242978711041864e-12,
        -1.6292067994694293e-05,
        -99.99999999999865,
        -0.0,
        8.74227798045637e-06,
        -99.99999999999828,
        1.6292067983592062e-05,
        -0.0,
        0.0,
        226.49850463867188,
        0.0,
        1.0
      ],
      "name": "Cube.005"
    },
    {
      "mesh": 7,
      "name": "Cube.005_Material.004_0"
    },
    {
      "children": [
        20
      ],
      "matrix": [
        99.9999999999996,
        8.742277980456488e-06,
        -0.0,
        -0.0,
        1.4242978711041864e-12,
        -1.6292067994694293e-05,
        -99.99999999999865,
        -0.0,
        8.74227798045637e-06,
        -99.99999999999828,
        1.6292067983592062e-05,
        -0.0,
        0.0,
        226.49850463867188,
        0.0,
        1.0
      ],
      "name": "Cube.006"
    },
    {
      "mesh": 8,
      "name": "Cube.006_Material.004_0"
    },
    {
      "children": [
        22
      ],
      "matrix": [
        99.9999999999996,
        8.742277980456488e-06,
        -0.0,
        -0.0,
        1.4242978711041864e-12,
        -1.6292067994694293e-05,
        -99.99999999999865,
        -0.0,
        8.74227798045637e-06,
        -99.99999999999828,
        1.6292067983592062e-05,
        -0.0,
        0.0,
        226.49850463867188,
        0.0,
        1.0
      ],
      "name": "Cube.007"
    },
    {
      "mesh": 9,
      "name": "Cube.007_Material.002_0"
    },
    {
      "children": [
        24
      ],
      "matrix": [
        99.9999999999996,
        8.742277980456488e-06,
        -0.0,
        -0.0,
        1.4242978711041864e-12,
        -1.6292067994694293e-05,
        -99.99999999999865,
        -0.0,
        8.74227798045637e-06,
        -99.99999999999828,
        1.6292067983592062e-05,
        -0.0,
        0.0,
        226.49850463867188,
        0.0,
        1.0
      ],
      "name": "Cube.008"
    },
    {
      "mesh": 10,
      "name": "Cube.008_Material.004_0"
    },
    {
      "children": [
        26
      ],
      "matrix": [
        99.9999999999996,
        8.742277980456488e-06,
        -0.0,
        -0.0,
        1.4242978711041864e-12,
        -1.6292067994694293e-05,
        -99.99999999999865,
        -0.0,
        8.74227798045637e-06,
        -99.99999999999828,
        1.6292067983592062e-05,
        -0.0,
        0.0,
        226.49850463867188,
        0.0,
        1.0
      ],
      "name": "Cube.009"
    },
    {
      "mesh": 11,
      "name": "Cube.009_Material.002_0"
    }
  ],
  "scene": 0,
  "scenes": [
    {
      "name": "Sketchfab_Scene",
      "nodes": [
        0
      ]
    }
  ]
}
